<?xml version="1.0" encoding="utf-8"?>
<!-- Generator: Adobe Illustrator 26.0.3, SVG Export Plug-In . SVG Version: 6.00 Build 0)  -->
<svg version="1.1" id="Layer_1" xmlns="http://www.w3.org/2000/svg" xmlns:xlink="http://www.w3.org/1999/xlink" x="0px" y="0px"
	 viewBox="0 0 29.24 29.24" style="enable-background:new 0 0 29.24 29.24;" xml:space="preserve">
<style type="text/css">
	.st0{fill:#FFFFFF;}
</style>
<g>
	<g>
		<g>
			<path class="st0" d="M18.04,7.66H11.2c-1.95,0-3.54,1.59-3.54,3.54v6.84c0,1.95,1.59,3.54,3.54,3.54h6.84
				c1.95,0,3.54-1.59,3.54-3.54V11.2C21.58,9.25,19.99,7.66,18.04,7.66z M14.69,18.84c-2.33,0-4.22-1.89-4.22-4.22
				c0-2.33,1.89-4.22,4.22-4.22c2.33,0,4.22,1.89,4.22,4.22C18.91,16.95,17.02,18.84,14.69,18.84z M19.16,11.12
				c-0.55,0-1.01-0.45-1.01-1.01c0-0.55,0.45-1.01,1.01-1.01c0.56,0,1.01,0.45,1.01,1.01C20.17,10.67,19.72,11.12,19.16,11.12z"/>
		</g>
		<path class="st0" d="M14.69,11.92c-1.49,0-2.7,1.21-2.7,2.7c0,1.49,1.21,2.7,2.7,2.7c1.49,0,2.7-1.21,2.7-2.7
			C17.4,13.13,16.18,11.92,14.69,11.92z"/>
	</g>
	<path class="st0" d="M21.59,0L7.65,0C3.44,0,0,3.44,0,7.65v13.94c0,4.21,3.44,7.65,7.65,7.65l13.94,0c4.21,0,7.65-3.44,7.65-7.65
		V7.65C29.24,3.44,25.8,0,21.59,0z M23.19,18.04c0,2.84-2.31,5.15-5.15,5.15H11.2c-2.84,0-5.15-2.31-5.15-5.15V11.2
		c0-2.84,2.31-5.15,5.15-5.15h6.84c2.84,0,5.15,2.31,5.15,5.15V18.04z"/>
</g>
</svg>
