<?xml version="1.0" encoding="utf-8"?>
<!-- Generator: Adobe Illustrator 26.0.3, SVG Export Plug-In . SVG Version: 6.00 Build 0)  -->
<svg version="1.1" id="Layer_1" xmlns="http://www.w3.org/2000/svg" xmlns:xlink="http://www.w3.org/1999/xlink" x="0px" y="0px"
	 viewBox="0 0 187.57 194.81" style="enable-background:new 0 0 187.57 194.81;" xml:space="preserve">
<style type="text/css">
	.st0{fill:#F490AE;}
	.st1{display:none;}
	.st2{display:inline;}
	.st3{fill:#F490AE;stroke:#F490AE;stroke-width:1.0651;stroke-linecap:round;stroke-miterlimit:10;}
	.st4{fill:#F490AE;stroke:#F490AE;stroke-width:1.1569;stroke-linecap:round;stroke-miterlimit:10;}
	.st5{fill:#FFFFFF;stroke:#F490AE;stroke-width:0.5813;stroke-linecap:round;stroke-miterlimit:10;}
	.st6{fill:#FFFFFF;stroke:#F490AE;stroke-width:0.6696;stroke-linecap:round;stroke-miterlimit:10;}
</style>
<g>
	<g>
		<g>
			<g>
				<path class="st0" d="M71.15,75.33c-9.01-13.78-18.1-27.6-29.25-39.78c-0.56-0.62-3.44,0.47-2.88,1.08
					c11.08,12.1,20.11,25.83,29.06,39.52C68.62,76.97,71.47,75.81,71.15,75.33L71.15,75.33z"/>
			</g>
		</g>
		<g class="st1">
			<g class="st2">
				<path class="st0" d="M53.25,21.33c0.47-1.21-0.08-2.72-0.38-3.92c-0.36-1.42-0.8-2.81-1.33-4.18c-1.02-2.62-2.8-5.09-3.28-7.89
					c-0.16-0.89-3.24-0.18-3.07,0.82c0.47,2.71,2.17,5.08,3.18,7.61c0.5,1.27,0.93,2.57,1.29,3.88c0.32,1.17,1,2.92,0.54,4.11
					c-0.24,0.61,1.01,0.56,1.29,0.52C52.06,22.22,53.01,21.95,53.25,21.33L53.25,21.33z"/>
			</g>
		</g>
		<g>
			<g>
				<path class="st0" d="M79.43,70.16c-0.14-3.33-1.51-6.57-2.6-9.69c-1.12-3.18-2.3-6.34-3.56-9.47c-1.26-3.14-2.59-6.24-4-9.32
					c-0.72-1.58-1.45-3.14-2.21-4.7c-0.58-1.2-1.01-2.94-2.34-3.42c-0.77-0.28-1.91,0.17-2.36,0.82c-0.19,0.27-0.25,0.49-0.11,0.79
					c0.22,0.48,0.86,0.63,1.35,0.54c0.04-0.01,0.08-0.01,0.12-0.02c0.58-0.11,1.64-0.38,1.72-1.12c0.08-0.69-0.84-0.89-1.36-0.79
					c-0.04,0.01-0.08,0.01-0.12,0.02c0.45,0.18,0.9,0.36,1.35,0.54c-0.02,0.07-0.05,0.14-0.07,0.2c-0.79,0.27-1.58,0.55-2.36,0.82
					c0.18,0.06,0.8,1.78,0.9,2c0.34,0.71,0.69,1.42,1.02,2.13c0.71,1.49,1.4,3,2.07,4.5c1.31,2.94,2.57,5.91,3.75,8.91
					c1.16,2.92,2.25,5.86,3.28,8.82c1.04,2.98,2.31,6.06,2.45,9.25C76.41,72.11,79.48,71.46,79.43,70.16L79.43,70.16z"/>
			</g>
		</g>
		<g>
			<g>
				<path class="st0" d="M85.02,68.2c-2.04-7.48-4.12-14.95-6.27-22.4c-0.43-1.49-3.5-0.66-3.07,0.82
					c2.14,7.45,4.23,14.92,6.27,22.4C82.36,70.51,85.43,69.69,85.02,68.2L85.02,68.2z"/>
			</g>
		</g>
		<g>
			<g>
				<path class="st0" d="M83.71,7.2c0.7,19.83,6.71,39.76,2.74,59.58c-0.2,1.02,2.87,0.52,3.06-0.43c4-19.96-2.03-40-2.73-59.97
					C86.75,5.55,83.67,6.11,83.71,7.2L83.71,7.2z"/>
			</g>
		</g>
		<g>
			<g>
				<path class="st0" d="M95.79,43.09c-0.59,8.14-1.9,16.2-3.92,24.1c-0.23,0.89,2.82,0.44,3.05-0.46c2.02-7.9,3.32-15.97,3.92-24.1
					C98.91,41.6,95.85,42.23,95.79,43.09L95.79,43.09z"/>
			</g>
		</g>
		<g>
			<g>
				<path class="st0" d="M106.02,17.72c-1.56,16.33-4.59,32.51-9.05,48.3c-0.37,1.3,2.75,0.9,3.09-0.3
					c4.46-15.79,7.49-31.96,9.05-48.3C109.25,15.99,106.14,16.49,106.02,17.72L106.02,17.72z"/>
			</g>
		</g>
		<g>
			<g>
				<path class="st0" d="M117.26,1.19c-2.58,17.28-5.45,34.52-8.63,51.71c-0.9,4.86-1.82,9.72-2.77,14.57
					c-0.28,1.43,2.85,1.02,3.1-0.27c3.34-17.15,6.39-34.36,9.13-51.61c0.78-4.89,1.53-9.77,2.26-14.67
					C120.58-0.55,117.46-0.11,117.26,1.19L117.26,1.19z"/>
			</g>
		</g>
		<g>
			<g>
				<path class="st0" d="M65.54,83.36c-7.53-6.86-15.7-12.99-24.38-18.31c-0.53-0.32-1.45-0.02-1.98,0.17
					c-0.16,0.06-1.38,0.6-0.91,0.88c8.69,5.32,16.86,11.44,24.38,18.31C63.25,84.96,66.01,83.8,65.54,83.36L65.54,83.36z"/>
			</g>
		</g>
		<g>
			<g>
				<path class="st0" d="M63.58,86.62c-16.04-4.93-32.04-9.99-48-15.18c-0.69-0.22-1.55-0.05-2.17,0.32
					c-0.32,0.19-1.01,0.85-0.3,1.08c15.96,5.19,31.96,10.25,48,15.18c0.7,0.21,1.54,0.06,2.17-0.32
					C63.59,87.52,64.3,86.85,63.58,86.62L63.58,86.62z"/>
			</g>
		</g>
		<g class="st1">
			<g class="st2">
				<path class="st0" d="M24.16,80.2c-2.01-0.24-4.02-0.55-6.03-0.7c-2.09-0.16-4.34,0.14-5.94,1.62c-0.53,0.49,0.46,0.69,0.77,0.67
					c0.73-0.04,1.5-0.27,2.04-0.78c0.2-0.18-0.09,0,0.16-0.11c-0.04,0.02-0.07,0.03-0.11,0.05c0.17-0.06,0.17-0.06-0.02,0
					c0.37,0.01-0.22-0.01,0.13-0.02c0.17-0.02,0.19-0.02,0.04-0.01c0.1-0.01,0.19-0.01,0.29-0.01c0.27-0.01,0.37,0,0.69,0.02
					c0.35,0.03,0.7,0.07,1.05,0.11c1.66,0.2,3.32,0.39,4.98,0.59c0.71,0.08,1.6-0.15,2.17-0.58C24.87,80.68,24.78,80.27,24.16,80.2
					L24.16,80.2z"/>
			</g>
		</g>
		<g>
			<g>
				<path class="st0" d="M60.51,94.53c-4.06,0.83-8.35,0.27-12.46,0.22c-4.34-0.06-8.67,0-13,0.11c-4.19,0.11-8.38,0.2-12.56,0.43
					c-3.75,0.21-7.5,0.78-10.87,2.53c-0.41,0.21-0.9,0.58-0.35,0.9c0.52,0.3,1.69-0.12,2.15-0.37c3.26-1.7,7.06-1.69,10.65-1.82
					c4.05-0.14,8.11-0.28,12.16-0.37c4.11-0.08,8.23-0.11,12.34-0.01c3.81,0.09,7.65,0.42,11.41-0.35c0.37-0.08,1.77-0.35,1.79-0.89
					C61.78,94.35,60.88,94.45,60.51,94.53L60.51,94.53z"/>
			</g>
		</g>
		<g>
			<g>
				<path class="st0" d="M60.34,100.78c-13.91,4.12-29.24,2.52-42.21,9.83c-0.54,0.3-0.78,1-0.22,1.39
					c0.63,0.44,1.61,0.09,2.19-0.24c6.07-3.42,13.07-4.62,19.89-5.54c6.99-0.94,14.05-1.62,20.84-3.63
					c0.52-0.15,1.48-0.62,1.29-1.32C61.93,100.6,60.84,100.63,60.34,100.78L60.34,100.78z"/>
			</g>
		</g>
		<g>
			<g>
				<path class="st0" d="M59.56,106.46c-6.1,5.32-14.21,6.95-21.78,9.15c-8.07,2.34-16.21,4.51-24.18,7.16
					c-4.38,1.45-8.69,3.12-12.78,5.26c-1.86,0.97-0.19,2.56,1.35,1.76c7.4-3.86,15.45-6.11,23.43-8.43
					c4.17-1.21,8.33-2.42,12.5-3.63c4.08-1.19,8.22-2.25,12.23-3.66c4.09-1.43,7.98-3.4,11.26-6.26
					C63.15,106.45,60.7,105.47,59.56,106.46L59.56,106.46z"/>
			</g>
		</g>
		<g>
			<g>
				<path class="st0" d="M123.96,24.99c-6.71,14.28-11.38,29.46-13.85,45.05c-0.11,0.71,2.91,0.2,3.03-0.54
					c2.47-15.59,7.13-30.77,13.85-45.05c0.24-0.5-1.06-0.32-1.23-0.29C125.26,24.24,124.21,24.45,123.96,24.99L123.96,24.99z"/>
			</g>
		</g>
		<g>
			<g>
				<path class="st0" d="M127.57,56.26c-4.29,5.4-8.57,10.81-12.86,16.21c-0.47,0.59,0.4,1.01,0.87,1.04
					c0.77,0.05,1.54-0.27,2.02-0.87c4.29-5.4,8.57-10.81,12.86-16.21c0.47-0.59-0.4-1.01-0.87-1.04
					C128.81,55.33,128.05,55.66,127.57,56.26L127.57,56.26z"/>
			</g>
		</g>
		<g>
			<g>
				<path class="st0" d="M122.16,75.84c8.16-12.51,20.33-21.74,28.47-34.29c2.37-3.65,4.59-7.4,7.6-10.58
					c0.49-0.52,0.26-1.15-0.37-1.39c-0.71-0.26-1.67,0.05-2.17,0.58c-2.6,2.75-4.67,5.92-6.69,9.1c-2.09,3.28-4.28,6.45-6.76,9.46
					c-4.79,5.8-10.2,11.05-15.17,16.7c-2.82,3.21-5.48,6.55-7.82,10.14c-0.42,0.65,0.37,1.13,0.91,1.19
					C120.92,76.85,121.74,76.48,122.16,75.84L122.16,75.84z"/>
			</g>
		</g>
		<g>
			<g>
				<path class="st0" d="M125.79,79.9c5.64-6.27,13.54-9.87,20.17-14.92c0.53-0.4,0.3-0.89-0.27-1.02c-0.72-0.17-1.6,0.15-2.17,0.58
					c-6.82,5.19-14.77,8.89-20.58,15.34c-0.5,0.55,0.43,0.83,0.82,0.84C124.49,80.75,125.3,80.45,125.79,79.9L125.79,79.9z"/>
			</g>
		</g>
		<g>
			<g>
				<path class="st0" d="M162.65,64.26c-5.16,4.57-11.1,8.12-17.27,11.13c-3.06,1.49-6.17,2.87-9.29,4.2
					c-3.28,1.4-6.57,3-10.02,3.92c-0.24,0.07-1.54,0.4-1.43,0.81c0.11,0.4,1.46,0.04,1.64-0.01c3.71-0.99,7.22-2.61,10.75-4.11
					c3.39-1.44,6.77-2.93,10.09-4.54c6.53-3.18,12.84-6.88,18.3-11.71c0.51-0.45-0.46-0.42-0.7-0.4
					C164.07,63.61,163.15,63.82,162.65,64.26L162.65,64.26z"/>
			</g>
		</g>
		<g>
			<g>
				<path class="st0" d="M185.1,62.46c-6.48,4.14-13.6,7.08-20.73,9.88c-7.73,3.04-15.48,6.05-23.22,9.07
					c-4.27,1.67-8.52,3.37-12.59,5.51c-0.52,0.27-0.81,0.85-0.26,1.22c0.59,0.4,1.64,0,2.18-0.28c7.26-3.81,15.18-6.43,22.81-9.41
					c7.42-2.9,14.94-5.64,22.21-8.92c3.97-1.79,7.85-3.79,11.53-6.13c0.48-0.31,0.84-0.83,0.26-1.22
					C186.71,61.8,185.6,62.14,185.1,62.46L185.1,62.46z"/>
			</g>
		</g>
		<g>
			<g>
				<path class="st0" d="M165.74,85.88c-0.02-0.03-0.04-0.07-0.05-0.1c-0.13,0.47-0.25,0.94-0.38,1.41
					c-0.16,0.08-0.33,0.17-0.49,0.25c-0.39-0.01-0.78-0.02-1.17-0.03c-0.1-0.07-0.21-0.14-0.31-0.21c-0.02-0.29-0.05-0.58-0.07-0.88
					c-0.04,0.08-0.07,0.16-0.11,0.25c0.26-0.25,0.52-0.5,0.78-0.74c-0.43,0.26-1.1,0.27-1.6,0.37c-0.72,0.14-1.43,0.29-2.14,0.44
					c-1.27,0.27-2.53,0.56-3.79,0.86c-2.67,0.64-5.33,1.35-7.96,2.13c-4.96,1.47-10.01,3.61-15.28,3.44c-0.74-0.02-1.67,0.19-2,0.95
					c-0.28,0.66,0.26,1.31,0.95,1.33c7.15,0.23,13.85-2.79,20.63-4.62c3.52-0.95,7.07-1.77,10.64-2.47c1-0.2,3.2-0.64,2.87-2.16
					c-0.28-1.28-2.29-1.01-3.02-0.37c-0.46,0.4-0.67,0.85-0.38,1.41c0.02,0.03,0.04,0.07,0.05,0.1
					C163.58,88.49,166.5,87.34,165.74,85.88L165.74,85.88z"/>
			</g>
		</g>
		<g class="st1">
			<g class="st2">
				<path class="st0" d="M180.28,47.74c-0.07,1.55-0.6,3.07-1.42,4.39c-0.39,0.62-0.87,1.19-1.4,1.7c-0.3,0.29-0.45,0.42-0.79,0.66
					c-0.16,0.12-0.33,0.23-0.49,0.34c-0.07,0.05-0.23,0.14-0.07,0.05c-0.1,0.06-0.21,0.12-0.32,0.17c-0.31,0.17-1,0.69-0.35,0.91
					c0.64,0.22,1.59-0.06,2.15-0.36c3.27-1.74,5.57-4.93,5.75-8.68C183.37,46.33,180.32,46.75,180.28,47.74L180.28,47.74z"/>
			</g>
		</g>
		<g class="st1">
			<g class="st2">
				<path class="st0" d="M189.42,45.13c-0.07,2.13-1.25,3.99-2.5,5.62c-1.24,1.61-2.58,3.15-4.01,4.59
					c-2.73,2.74-5.96,5.15-9.72,6.23c-0.39,0.11-1.51,0.49-1.35,1.09c0.16,0.58,1.36,0.36,1.72,0.26c4.54-1.3,8.45-3.91,11.79-7.21
					c1.61-1.59,3.12-3.31,4.5-5.11c1.43-1.87,2.57-3.9,2.65-6.3C192.52,43.53,189.46,44.03,189.42,45.13L189.42,45.13z"/>
			</g>
		</g>
		<g>
			<g>
				<path class="st0" d="M61.27,111.18c-5.35,3.76-10.9,7.22-16.65,10.33c-5.14,2.79-10.94,4.96-15.08,9.23
					c-0.5,0.51,0.43,0.63,0.76,0.62c0.67-0.01,1.56-0.27,2.05-0.76c2.05-2.11,4.56-3.6,7.16-4.95c2.72-1.41,5.47-2.78,8.15-4.26
					c5.51-3.04,10.85-6.39,16-10.01c0.53-0.37,0.32-0.68-0.21-0.79C62.78,110.46,61.8,110.8,61.27,111.18L61.27,111.18z"/>
			</g>
		</g>
		<g>
			<g>
				<path class="st0" d="M63.95,116.33c-7.51,6.73-18.45,8.04-25.39,15.63c-0.49,0.53-0.26,1.17,0.38,1.41
					c0.7,0.27,1.68-0.04,2.17-0.58c3.4-3.71,8-5.85,12.49-7.94c4.57-2.13,9.12-4.29,12.9-7.68c0.55-0.49,0.21-1.19-0.38-1.41
					C65.37,115.46,64.51,115.83,63.95,116.33L63.95,116.33z"/>
			</g>
		</g>
		<g class="st1">
			<g class="st2">
				<path class="st0" d="M27.41,148.87c-0.19,0.15-0.39,0.29-0.59,0.43c-0.05,0.03-0.1,0.07-0.15,0.1c-0.12,0.08-0.1,0.07,0.06-0.04
					c-0.06,0.06-0.16,0.1-0.23,0.14c-0.21,0.13-0.42,0.25-0.63,0.36c-0.11,0.06-0.22,0.11-0.33,0.17c-0.05,0.03-0.11,0.05-0.16,0.08
					c0.2-0.09,0.24-0.11,0.14-0.07c-0.21,0.09-0.42,0.18-0.63,0.27c-0.11,0.04-0.23,0.09-0.34,0.13c-0.05,0.02-0.44,0.15-0.15,0.05
					c0.29-0.1-0.1,0.03-0.15,0.04c-0.12,0.03-0.24,0.07-0.35,0.1c-0.12,0.03-0.24,0.06-0.36,0.09c-0.11,0.03-0.56,0.12-0.04,0.01
					c-0.4,0.08-0.8,0.18-1.17,0.38c-0.2,0.11-0.53,0.33-0.6,0.57c-0.17,0.61,0.99,0.57,1.28,0.51c2.47-0.5,4.81-1.46,6.81-3
					c0.15-0.12,0.39-0.35,0.33-0.58c-0.06-0.22-0.38-0.31-0.57-0.34C28.86,148.2,27.99,148.42,27.41,148.87L27.41,148.87z"/>
			</g>
		</g>
		<g class="st1">
			<g class="st2">
				<path class="st0" d="M35.42,147.56c-3.23,4.63-7.37,8.6-12.13,11.63c-0.09,0.05-0.42,0.24-0.37,0.41
					c0.05,0.17,0.43,0.17,0.53,0.17c0.69,0.01,1.58-0.21,2.17-0.58c5.03-3.2,9.41-7.31,12.82-12.2c0.29-0.42-1.11-0.24-1.21-0.22
					C36.68,146.87,35.77,147.05,35.42,147.56L35.42,147.56z"/>
			</g>
		</g>
		<g>
			<g>
				<path class="st0" d="M71.65,124.5c-4.49,9.35-10.78,17.72-18.52,24.63c-0.5,0.45-0.3,0.94,0.3,1.1
					c0.69,0.19,1.65-0.12,2.17-0.58c7.88-7.03,14.35-15.55,18.92-25.07C75.15,123.24,72.09,123.58,71.65,124.5L71.65,124.5z"/>
			</g>
		</g>
		<g>
			<g>
				<path class="st0" d="M74.63,127.44c-1.95,5.81-4.08,11.56-6.39,17.24c-1.11,2.74-2.26,5.45-3.46,8.16
					c-0.61,1.39-1.24,2.77-1.87,4.15c-0.33,0.73-0.67,1.45-1.01,2.17c-0.26,0.56-0.48,1.44-0.94,1.86c0.48-0.21,0.95-0.43,1.43-0.64
					c-0.07,0.01-0.15,0.02-0.22,0.03c0.42,0.12,0.83,0.24,1.25,0.36c-0.04,0.22-0.09,0.44-0.13,0.66c-0.82,0.15-1.64,0.31-2.46,0.46
					c0.03,0.02,0.06,0.04,0.09,0.06c1.02,0.61,3.79-0.82,2.4-1.65c-0.03-0.02-0.06-0.04-0.09-0.06c-0.72-0.43-1.91-0.13-2.46,0.46
					c-1.01,1.07,0.16,1.85,1.3,1.69c1.82-0.26,2.27-1.98,2.95-3.44c1.62-3.47,3.18-6.97,4.67-10.5c2.95-7,5.63-14.11,8.04-21.31
					c0.24-0.72-0.94-0.89-1.38-0.86C75.62,126.34,74.87,126.73,74.63,127.44L74.63,127.44z"/>
			</g>
		</g>
		<g>
			<g>
				<path class="st0" d="M69.48,177.52c3.78-15.93,7.81-31.79,12.09-47.59c0.38-1.4-2.75-1.03-3.1,0.26
					c-4.28,15.8-8.32,31.66-12.09,47.59C66.04,179.21,69.17,178.83,69.48,177.52L69.48,177.52z"/>
			</g>
		</g>
		<g>
			<g>
				<path class="st0" d="M85.08,133.28c-1.45,13.44-4.27,26.7-8.42,39.57c-0.14,0.45,2.78,0.15,3.02-0.58
					c4.17-12.94,7.01-26.29,8.47-39.81C88.17,132.19,85.17,132.43,85.08,133.28L85.08,133.28z"/>
			</g>
		</g>
		<g>
			<g>
				<path class="st0" d="M91.03,133.26c1.23,9.72,1.72,19.5,1.46,29.29c-0.04,1.31,3.05,0.7,3.07-0.37
					c0.27-9.94-0.22-19.88-1.47-29.75C93.97,131.36,90.88,132.06,91.03,133.26L91.03,133.26z"/>
			</g>
		</g>
		<g>
			<g>
				<path class="st0" d="M98.85,134.24c1.41,16.15,7.53,31.31,11.58,46.88c1.15,4.41,2.12,8.86,2.79,13.37
					c0.11,0.75,3.2,0.08,3.07-0.82c-2.39-16.02-8.68-31.07-12.22-46.82c-0.99-4.43-1.75-8.9-2.15-13.42
					C101.86,132.71,98.77,133.3,98.85,134.24L98.85,134.24z"/>
			</g>
		</g>
		<g class="st1">
			<g class="st2">
				<path class="st0" d="M101,169.88c0.39,2.17,0.54,4.38,0.4,6.59c-0.07,1.11-0.2,2.22-0.42,3.31c-0.08,0.4-0.17,0.8-0.33,1.17
					c-0.07,0.16-0.14,0.31-0.23,0.46c-0.06,0.09-0.41,0.39-0.23,0.3c-0.28,0.14-1.02,0.58-0.38,0.78c0.61,0.19,1.6-0.13,2.14-0.4
					c0.97-0.47,1.59-1.14,1.9-2.18c0.31-1.06,0.44-2.21,0.55-3.3c0.25-2.52,0.12-5.06-0.33-7.54
					C103.96,168.45,100.86,169.14,101,169.88L101,169.88z"/>
			</g>
		</g>
		<g>
			<g>
				<path class="st0" d="M107.24,133.8c1.76,10.26,6.64,19.65,8.58,29.86c0.24,1.28,3.32,0.51,3.07-0.82
					c-1.94-10.21-6.82-19.6-8.58-29.86C110.09,131.71,107.01,132.47,107.24,133.8L107.24,133.8z"/>
			</g>
		</g>
		<g>
			<g>
				<path class="st0" d="M115.35,129.2c9.93,10.14,18.94,21.16,26.87,32.94c0.56,0.84,3.54-0.17,2.85-1.2
					c-7.93-11.77-16.94-22.79-26.87-32.94C117.46,127.25,114.55,128.39,115.35,129.2L115.35,129.2z"/>
			</g>
		</g>
		<g>
			<g>
				<path class="st0" d="M120,125.48c10.95,14.9,25.62,26.44,37.5,40.52c3.35,3.97,6.46,8.14,9.14,12.6
					c0.58,0.96,3.51-0.1,3.07-0.82c-9.62-15.98-24.19-27.92-36.77-41.43c-3.57-3.83-6.98-7.81-10.08-12.03
					C122.29,123.54,119.32,124.56,120,125.48L120,125.48z"/>
			</g>
		</g>
		<g class="st1">
			<g class="st2">
				<path class="st0" d="M179.94,173.08c-2.26-1.06-4.27-2.57-6.32-3.98c-2.16-1.49-4.31-2.98-6.47-4.47
					c-0.5-0.35-1.47-0.03-1.98,0.16c-0.18,0.07-1.37,0.58-0.91,0.9c2.16,1.49,4.31,2.98,6.47,4.47c2.04,1.41,4.06,2.92,6.32,3.98
					c0.59,0.28,1.4,0.06,1.98-0.16C179.16,173.93,180.43,173.32,179.94,173.08L179.94,173.08z"/>
			</g>
		</g>
		<g>
			<g>
				<path class="st0" d="M124.06,120.87c6.08,5.58,12.07,11.29,18.57,16.39c5.77,4.52,11.82,8.7,17.33,13.54
					c3.08,2.71,5.95,5.64,8.45,8.89c0.89,1.16,3.8-0.08,2.8-1.38c-4.47-5.81-10.09-10.56-15.87-15
					c-6.13-4.71-12.35-9.24-18.12-14.39c-3.64-3.25-7.22-6.58-10.82-9.88C125.35,118.07,122.72,119.64,124.06,120.87L124.06,120.87z
					"/>
			</g>
		</g>
		<g>
			<g>
				<path class="st0" d="M159.58,126.23c-5.14-2.06-10.28-4.12-15.41-6.18c-4.64-1.86-9.53-3.49-13.58-6.5
					c-1.03-0.77-3.75,0.69-2.38,1.71c4.09,3.04,9.03,4.71,13.71,6.59c5.29,2.12,10.58,4.25,15.87,6.37
					C159.01,128.72,161.36,126.95,159.58,126.23L159.58,126.23z"/>
			</g>
		</g>
		<g>
			<g>
				<path class="st0" d="M180.92,120.9c-3.63-1.65-7.47-2.67-11.33-3.61c-4.22-1.04-8.44-2.06-12.66-3.09
					c-8.41-2.05-16.82-4.11-25.22-6.16c-0.75-0.18-1.66-0.05-2.17,0.58c-0.41,0.51-0.33,1.31,0.4,1.49
					c8.41,2.05,16.82,4.11,25.22,6.16c4.15,1.01,8.29,2.02,12.44,3.04c3.93,0.96,7.85,1.99,11.55,3.67
					C180.43,123.55,182.7,121.71,180.92,120.9L180.92,120.9z"/>
			</g>
		</g>
		<g>
			<g>
				<path class="st0" d="M156.29,105.08c-8.59-1.28-17.25-1.96-25.93-1.98c-0.7,0-1.6,0.13-2.17,0.58c-0.41,0.32-0.48,0.7,0.19,0.7
					c8.5,0.02,16.99,0.65,25.4,1.9c0.71,0.11,1.5-0.06,2.15-0.38C156.14,105.8,157.01,105.19,156.29,105.08L156.29,105.08z"/>
			</g>
		</g>
		<g>
			<g>
				<path class="st0" d="M74.87,70.31c-9.21-16.05-18.42-32.1-27.63-48.15c-2.6-4.53-5.2-9.07-7.81-13.6
					c-0.71-1.24-3.63-0.06-2.8,1.37c9.21,16.05,18.42,32.1,27.63,48.15c2.6,4.53,5.2,9.07,7.81,13.6
					C72.78,72.93,75.69,71.74,74.87,70.31L74.87,70.31z"/>
			</g>
		</g>
		<g>
			<g>
				<path class="st0" d="M67.96,122.19c-11.52,14.1-23.6,27.74-36.22,40.87c-3.62,3.76-7.28,7.48-10.98,11.16
					c-0.47,0.47-0.31,0.97,0.31,1.15c0.67,0.2,1.68-0.09,2.17-0.58c13.07-12.99,25.61-26.5,37.58-40.5
					c3.38-3.96,6.72-7.95,10.01-11.98c0.48-0.59-0.41-0.94-0.85-0.97C69.24,121.28,68.43,121.61,67.96,122.19L67.96,122.19z"/>
			</g>
		</g>
	</g>
	<g>
		<g>
			<path class="st0" d="M59.59,91.94c-3.2,14.5,4.26,29.08,16.71,36.64c13.01,7.89,30.46,7.71,42.96-1.17
				c5.8-4.12,10.25-9.94,12.44-16.73c2.19-6.81,1.94-14.29-0.56-20.98c-5.36-14.31-19.78-23.57-34.84-24.05
				C81.76,65.2,66.91,73,61.23,86.8C60.54,88.47,60,90.19,59.59,91.94c-0.29,1.26,2.82,0.82,3.08-0.33
				c3.13-13.44,15.01-22.83,28.6-23.94c14.08-1.15,28.37,6.43,35.03,18.94c6.42,12.06,4.47,27.21-5.44,36.78
				c-10.19,9.84-25.94,11.44-38.55,5.53c-12.27-5.75-21.16-18.44-20.35-32.26c0.1-1.7,0.35-3.39,0.72-5.05
				C62.95,90.34,59.84,90.79,59.59,91.94z"/>
		</g>
	</g>
	<g>
		<g>
			<path class="st0" d="M113.33,118.38c-6.72,3.02-14.1,5.43-21.55,4.28c-6.11-0.95-11.39-4.29-15.82-8.48
				c-3.02-2.85-5.67-6.06-8.18-9.36c-0.52-0.69-3.23,0.61-3.07,0.82c4.42,5.79,9.39,11.61,15.86,15.16
				c6.13,3.36,13.06,3.9,19.86,2.66c5.07-0.92,9.96-2.69,14.64-4.8c0.37-0.17,0.92-0.43,0.4-0.7
				C114.98,117.71,113.77,118.18,113.33,118.38L113.33,118.38z"/>
		</g>
	</g>
	<g>
		<path class="st3" d="M59.78,76.92l-2.36,6.32c-1.13,3.01-0.09,6.43,2.53,8.38l13.02,9.66c3.49,2.59,8.35,2.24,11.35-0.81
			l2.64-2.69l0.63-2.76c0.72-3.2-0.74-6.52-3.61-8.21L64.44,75.32C62.7,74.3,60.47,75.06,59.78,76.92z"/>
		<path class="st4" d="M137.66,100.99l-1.88,6.69c-0.9,3.19-4.07,5.3-7.78,5.18l-18.37-0.59c-4.93-0.16-9.23-3.6-10.05-8.04
			l-0.72-3.91l1.2-2.66c1.39-3.08,4.9-4.83,8.66-4.34l25.62,3.33C136.63,96.95,138.21,99.02,137.66,100.99z"/>
		<path class="st5" d="M74.79,85.14l5.64,3.82c1.23,0.83,1.56,2.46,0.73,3.63v0c-0.83,1.17-2.51,1.44-3.74,0.61l-5.64-3.82
			c-1.23-0.83-1.56-2.46-0.73-3.63l0,0C71.88,84.58,73.55,84.31,74.79,85.14z"/>
		<path class="st6" d="M126.5,103.77l-10.79-0.5c-1.49-0.07-2.67-1.29-2.64-2.72v0c0.03-1.44,1.27-2.54,2.75-2.47l10.79,0.5
			c1.49,0.07,2.67,1.29,2.64,2.72v0C129.22,102.73,127.99,103.84,126.5,103.77z"/>
		<g>
			<g>
				<path class="st0" d="M104.6,96.93c-5.79-1.36-11.59-2.73-17.38-4.09c-0.81-0.19-1.63-0.38-2.44-0.58
					c-1.02-0.24-2.42,0.24-3.16,0.95c-0.71,0.69-0.44,1.35,0.47,1.56c5.79,1.36,11.59,2.73,17.38,4.09
					c0.81,0.19,1.63,0.38,2.44,0.58c1.02,0.24,2.42-0.24,3.16-0.95C105.79,97.81,105.51,97.15,104.6,96.93L104.6,96.93z"/>
			</g>
		</g>
	</g>
	<g>
		<g>
			<path class="st0" d="M93.92,103.86c0.59,1.53,1.17,3.18,1.17,4.84c0,0.87-0.23,1.84-0.91,2.34c-0.06,0.04-0.16,0.1-0.32,0.16
				c-0.21,0.08,0.11-0.03-0.03,0.01c-0.06,0.02-0.12,0.03-0.17,0.05c-0.03,0.01-0.16,0.03,0,0c-0.07,0.01-0.15,0.03-0.23,0.03
				c-0.25,0.03-0.32,0.03-0.62,0.03c-0.28-0.01-0.55-0.03-0.82-0.07c-1.4-0.2-2.75-0.66-4.05-1.2c-0.36-0.15-0.54-0.18-0.78-0.47
				c-0.24-0.28-0.43-0.6-0.64-0.91c-0.35-0.55-0.7-1.28-1.28-1.62c-0.43-0.24-1.89,0.39-1.27,0.74c0.14,0.08,0.35,0.39,0.48,0.57
				c0.24,0.35,0.47,0.71,0.7,1.06c0.18,0.28,0.37,0.58,0.59,0.83c0.24,0.27,0.54,0.38,0.87,0.52c1.44,0.59,2.95,1.12,4.49,1.32
				c2.28,0.3,5.17-0.29,5.52-2.98c0.25-1.92-0.44-3.91-1.12-5.67C95.3,102.91,93.73,103.39,93.92,103.86L93.92,103.86z"/>
		</g>
	</g>
	<g>
		<g>
			<path class="st0" d="M125.38,90.25c-2.65-4.53-6.14-8.9-11.14-10.93c-0.67-0.27-1.57-0.04-2.17,0.31
				c-0.37,0.22-0.97,0.84-0.29,1.12c4.68,1.9,8.04,6.07,10.53,10.33C122.88,92.04,125.82,90.99,125.38,90.25L125.38,90.25z"/>
		</g>
	</g>
	<g>
		<g>
			<path class="st0" d="M91.36,73.68c-0.15,0.12,0.08-0.05,0.11-0.08c0.09-0.06,0.17-0.11,0.26-0.16c-0.33,0.2,0.6-0.25,0.13-0.07
				c0.1-0.04,0.21-0.08,0.31-0.12c0.36-0.14-0.35,0.09,0.03-0.01c0.11-0.03,0.22-0.06,0.34-0.09c0.32-0.09-0.32,0.05,0.05-0.01
				c0.12-0.02,0.23-0.04,0.35-0.06c0.08-0.01,0.44-0.05,0.09-0.02c0.22-0.02,0.44-0.04,0.66-0.06c0.12-0.01,0.24-0.01,0.36-0.02
				c0.09,0,0.08,0-0.03,0c0.06,0,0.12,0,0.18,0c0.23,0.01,0.47,0.01,0.7,0.03c0.99,0.07,2.96,0.31,3.39,1.49
				c0.18,0.48,1.34,0.18,1.67,0.08c0.24-0.07,1.57-0.45,1.4-0.91c-0.28-0.76-1.08-1.15-1.79-1.42c-1-0.38-2.1-0.52-3.16-0.55
				c-2.68-0.08-5.69,0.47-7.84,2.17c-0.56,0.45,0.49,0.55,0.73,0.53C90.03,74.37,90.79,74.13,91.36,73.68L91.36,73.68z"/>
		</g>
	</g>
</g>
</svg>
