<?xml version="1.0" encoding="utf-8"?>
<!-- Generator: Adobe Illustrator 26.0.3, SVG Export Plug-In . SVG Version: 6.00 Build 0)  -->
<svg version="1.1" id="Layer_1" xmlns="http://www.w3.org/2000/svg" xmlns:xlink="http://www.w3.org/1999/xlink" x="0px" y="0px"
	 viewBox="0 0 331.81 201.05" style="enable-background:new 0 0 331.81 201.05;" xml:space="preserve">
<style type="text/css">
	.st0{fill:#474C6B;}
	.st1{fill:#FFFFFF;}
</style>
<g>
	<g>
		<g>
			<g>
				<path class="st0" d="M172.12,158.86c3.89-17.18,7.79-34.36,11.68-51.55c3.89-17.18,7.79-34.36,11.68-51.55
					c2.2-9.72,4.4-19.43,6.61-29.15c0.43-1.89-3.38-1.49-3.77,0.24c-3.89,17.17-7.78,34.35-11.68,51.52
					c-3.89,17.18-7.79,34.36-11.68,51.55c-2.2,9.73-4.41,19.45-6.61,29.18C167.92,160.99,171.73,160.59,172.12,158.86L172.12,158.86
					z"/>
			</g>
		</g>
		<g>
			<g>
				<path class="st0" d="M182.16,22.16c-0.25,18.16-2.17,36.28-5.77,54.08c-3.52,17.39-9.1,34.29-12.46,51.71
					c-1.86,9.67-2.97,19.49-2.56,29.34c0.08,2,3.84,1.48,3.77-0.25c-0.74-17.65,3.44-34.94,7.89-51.88
					c2.25-8.59,4.58-17.16,6.44-25.84c1.9-8.88,3.39-17.84,4.46-26.86c1.2-10.14,1.86-20.35,2-30.56
					C185.96,19.91,182.19,20.41,182.16,22.16L182.16,22.16z"/>
			</g>
		</g>
		<g>
			<g>
				<path class="st0" d="M266.59,41.45c0.18,17.73-1.46,35.45-5.02,52.83c-3.42,16.69-8.36,33.03-11.68,49.75
					c-1.87,9.42-3.19,18.95-3.43,28.56c-0.05,1.96,3.72,1.43,3.77-0.27c0.43-17.1,4.32-33.81,8.45-50.33
					c4.2-16.79,8.36-33.52,10.23-50.77c1.08-9.97,1.55-20,1.45-30.03C270.33,39.21,266.57,39.75,266.59,41.45L266.59,41.45z"/>
			</g>
		</g>
		<g>
			<g>
				<path class="st0" d="M259.17,173.92c-0.93-8.5,0.63-16.95,2.88-25.12c2.26-8.22,5.03-16.3,7.34-24.51
					c4.62-16.41,8.29-33.1,10.98-49.93c1.53-9.57,2.74-19.18,3.64-28.82c0.13-1.4-3.59-0.69-3.71,0.5
					c-1.6,17.14-4.2,34.18-7.78,51.02c-1.8,8.46-3.85,16.86-6.14,25.2c-2.26,8.23-4.95,16.33-7.33,24.53
					c-2.66,9.13-4.65,18.59-3.6,28.14C255.58,176.06,259.32,175.26,259.17,173.92L259.17,173.92z"/>
			</g>
		</g>
		<g>
			<g>
				<path class="st0" d="M144.14,37.37c4.93-1.13,9.63-3.4,13.54-6.62c1.89-1.56,3.66-3.35,5.1-5.34c1.39-1.92,2.65-4.48,1.57-6.83
					c-0.53-1.15-4.16,0.04-3.71,1c0.99,2.15-0.15,4.38-1.46,6.12c-1.29,1.71-2.78,3.26-4.43,4.62c-3.22,2.65-6.97,4.51-11.04,5.45
					c-0.5,0.11-1.8,0.6-1.64,1.31C142.23,37.78,143.73,37.46,144.14,37.37L144.14,37.37z"/>
			</g>
		</g>
		<g>
			<g>
				<path class="st0" d="M295.97,44.88c-2.58,4.74-2.24,10.52-0.11,15.36c2.27,5.18,6.2,9.3,10.19,13.2
					c0.66,0.65,1.71,0.64,2.51,0.24c0.53-0.26,1.57-1.2,0.89-1.86c-6.73-6.59-15.38-16.59-9.94-26.57c0.44-0.82-0.4-1.4-1.12-1.5
					C297.51,43.64,296.41,44.07,295.97,44.88L295.97,44.88z"/>
			</g>
		</g>
		<g>
			<g>
				<path class="st0" d="M273.55,174.31c0.43-3.47,2.33-6.72,5.27-8.64c3.11-2.04,7.11-2.17,10.48-0.75
					c0.86,0.36,2.05,0.02,2.63-0.7c0.56-0.71,0.31-1.58-0.52-1.93c-4.64-1.94-10.18-1.53-14.46,1.12
					c-3.92,2.44-6.62,6.54-7.18,11.14C269.52,176.53,273.33,176.1,273.55,174.31L273.55,174.31z"/>
			</g>
		</g>
		<g>
			<g>
				<path class="st0" d="M130.17,131.21c4.55,0.22,7.2,4.78,8.2,8.72c0.58,2.3,0.82,4.66,1.12,7.01c0.34,2.67,0.67,5.35,1.01,8.02
					c0.1,0.8,3.85,0.04,3.71-1c-0.36-2.83-0.71-5.66-1.07-8.5c-0.33-2.6-0.6-5.23-1.4-7.74c-1.34-4.2-4.54-7.89-9.18-8.11
					c-0.86-0.04-1.93,0.18-2.63,0.7C129.39,130.72,129.4,131.17,130.17,131.21L130.17,131.21z"/>
			</g>
		</g>
		<g>
			<g>
				<path class="st0" d="M152.64,22.39c18.87-0.95,37.39,3.67,55.53,8.28c9.21,2.34,18.43,4.71,27.78,6.46
					c9.43,1.77,18.94,3.03,28.43,4.43c9.58,1.42,19.16,3,28.53,5.48c3.59,0.95,7.68,1.98,10.16,4.96c2.82,3.39,2.73,8.67,2.92,12.84
					c0.86,19.65-3.55,39.21-6.96,58.44c-1.72,9.72-3.34,19.46-5.18,29.16c-1.48,7.81-3.99,17.01-11.53,21.13
					c-3.95,2.16-8.4,1.53-12.69,1.07c-4.83-0.52-9.67-1.05-14.5-1.61c-9.75-1.15-19.49-2.45-29.13-4.27
					c-19.06-3.59-37.42-10.55-56.75-12.72c-4.82-0.54-9.66-0.82-14.51-0.84c-4.21-0.02-8.51,0.48-12.71-0.01
					c-4.11-0.49-7.26-2.65-8.79-6.57c-1.59-4.08-2.01-8.75-2.28-13.09c-1.23-19.45,4.66-38.55,7.08-57.68
					c1.23-9.71,1.81-19.46,1.93-29.24c0.1-8.33,0.29-17.8,6.65-24.04c2.44-2.39,5.58-3.96,9.05-3.61c0.83,0.08,2.04-0.29,2.43-1.09
					c0.4-0.82-0.35-1.3-1.08-1.38c-8.14-0.82-15.45,5.22-18.31,12.51c-1.68,4.3-2.22,8.88-2.39,13.46
					c-0.19,4.96-0.14,9.92-0.38,14.87c-0.49,10.22-1.66,20.38-3.4,30.46c-1.72,9.99-3.84,19.92-4.87,30.01
					c-0.51,4.98-0.75,9.98-0.53,14.98c0.2,4.61,0.58,9.49,2.04,13.9c1.28,3.89,3.82,6.87,7.76,8.19c3.94,1.32,8.23,0.98,12.31,0.85
					c10.1-0.3,20.27,0.59,30.17,2.6c9.93,2.02,19.63,5.01,29.45,7.48c19.64,4.94,39.79,7.19,59.88,9.36
					c4.74,0.51,9.48,0.85,13.96-1.09c3.71-1.61,6.75-4.43,9.03-7.73c2.55-3.66,4-7.99,5.01-12.3c1.13-4.81,1.86-9.72,2.73-14.58
					c1.8-10.16,3.6-20.32,5.4-30.48c1.79-10.08,3.59-20.17,4.44-30.38c0.43-5.12,0.61-10.25,0.43-15.39
					c-0.16-4.37-0.08-9.42-2.28-13.34c-1.94-3.45-5.78-5.19-9.4-6.31c-4.64-1.44-9.43-2.46-14.18-3.41
					c-9.8-1.95-19.7-3.27-29.58-4.72c-9.93-1.45-19.77-3.18-29.54-5.5c-19.03-4.52-37.92-10.41-57.53-11.85
					c-4.73-0.35-9.47-0.41-14.21-0.17c-0.75,0.04-1.96,0.55-2.07,1.41C150.85,22.25,151.99,22.42,152.64,22.39L152.64,22.39z"/>
			</g>
		</g>
		<g>
			<g>
				<path class="st0" d="M308.97,53.18c5.85-3.77,12.03-6.98,18.46-9.63c0.69-0.28,1.4-1.12,0.89-1.85
					c-0.53-0.77-1.82-0.53-2.51-0.24c-6.73,2.77-13.17,6.17-19.29,10.12c-0.66,0.43-0.92,1.35-0.22,1.85
					C307.08,53.97,308.25,53.64,308.97,53.18L308.97,53.18z"/>
			</g>
		</g>
		<g>
			<g>
				<path class="st0" d="M289.15,44.82c4.87-3.61,9.74-7.22,14.62-10.83c0.57-0.43,1.01-1.26,0.25-1.74
					c-0.75-0.47-1.98-0.23-2.65,0.27c-4.87,3.61-9.74,7.22-14.62,10.83c-0.57,0.43-1.01,1.26-0.25,1.74
					C287.25,45.56,288.48,45.32,289.15,44.82L289.15,44.82z"/>
			</g>
		</g>
		<g>
			<g>
				<path class="st0" d="M272.88,42.67c5.18-4.49,10.71-8.57,16.58-12.13c0.66-0.4,1.43-1.19,0.86-1.99
					c-0.51-0.72-1.83-0.75-2.53-0.32c-6.14,3.72-11.97,7.92-17.39,12.63c-0.61,0.53-0.94,1.44-0.18,2.01
					C270.94,43.41,272.22,43.25,272.88,42.67L272.88,42.67z"/>
			</g>
		</g>
		<g>
			<g>
				<path class="st0" d="M201.58,26.21c5.54-4.72,11.09-9.43,16.63-14.15c0.59-0.5,0.98-1.37,0.2-1.91
					c-0.72-0.51-2.01-0.33-2.66,0.23c-5.54,4.72-11.09,9.43-16.63,14.15c-0.59,0.5-0.98,1.37-0.2,1.91
					C199.65,26.95,200.93,26.77,201.58,26.21L201.58,26.21z"/>
			</g>
		</g>
		<g>
			<g>
				<path class="st0" d="M186.01,23.27c5.95-3.89,12.38-6.96,18.34-10.85c0.67-0.44,0.91-1.43,0.19-1.94
					c-0.8-0.57-1.92-0.27-2.67,0.22c-5.95,3.89-12.38,6.96-18.34,10.85c-0.67,0.44-0.91,1.43-0.19,1.94
					C184.14,24.06,185.26,23.76,186.01,23.27L186.01,23.27z"/>
			</g>
		</g>
		<g>
			<g>
				<path class="st0" d="M299.77,46.54c0.04-0.69,0.09-1.39,0.13-2.08c-0.84,0.5-1.68,0.99-2.53,1.49c4.86,0.53,9.62,1.6,14.25,3.18
					c0.87,0.3,2.03,0.01,2.63-0.7c0.55-0.66,0.35-1.5-0.48-1.79c-4.89-1.67-9.97-2.81-15.11-3.37c-0.87-0.1-2.46,0.39-2.53,1.49
					c-0.04,0.69-0.09,1.39-0.13,2.08C295.89,48.74,299.67,48.21,299.77,46.54L299.77,46.54z"/>
			</g>
		</g>
		<g>
			<g>
				<path class="st0" d="M312.86,49.86c-0.26,7.7-1.51,15.31-3.75,22.68c-0.22,0.71,3.38,0.28,3.66-0.66
					c2.26-7.47,3.54-15.21,3.8-23.02C316.59,48.32,312.89,48.78,312.86,49.86L312.86,49.86z"/>
			</g>
		</g>
		<g>
			<g>
				<path class="st0" d="M263.96,23.62c10.16,2.09,20.32,4.18,30.48,6.27c5.04,1.04,10.08,2.07,15.12,3.11
					c3.59,0.74,7.23,1.53,10.51,3.22c3.31,1.72,6.11,4.33,6.43,8.23c0.07,0.8,3.81,0.11,3.71-1c-0.6-7.21-8.99-10.08-14.97-11.43
					c-10.19-2.29-20.47-4.22-30.7-6.33c-5.85-1.2-11.71-2.41-17.56-3.61c-0.85-0.18-1.84,0.04-2.6,0.45
					C264.08,22.7,263.09,23.44,263.96,23.62L263.96,23.62z"/>
			</g>
		</g>
		<g>
			<g>
				<path class="st0" d="M226.11,15.76c9.47,1.99,18.96,3.87,28.43,5.85c0.87,0.18,2-0.04,2.63-0.7c0.53-0.55,0.44-1.28-0.39-1.46
					c-9.47-1.99-18.96-3.87-28.43-5.85c-0.87-0.18-2,0.04-2.63,0.7C225.19,14.86,225.29,15.59,226.11,15.76L226.11,15.76z"/>
			</g>
		</g>
		<g>
			<g>
				<path class="st0" d="M150.22,21.36c8.31-3.56,16.67-7.14,25.45-9.38c4.39-1.12,8.9-1.89,13.43-2.06
					c4.75-0.18,9.47,0.3,14.15,1.09c2.63,0.44,5.25,0.97,7.86,1.51c1.13,0.23,2.29,0.6,3.45,0.49c0.52-0.05,1.04-0.17,1.53-0.37
					c0.17-0.07,0.34-0.16,0.51-0.24c0.69-0.36-0.11,0.22-0.53,0.15c0.86,0.14,1.98-0.09,2.63-0.7c0.53-0.51,0.47-1.15-0.34-1.28
					c-0.93-0.15-1.84-0.15-2.75,0.16c-0.2,0.07-0.99,0.28-1.07,0.49c-0.14,0.4,0.69-0.52,0.76-0.28c-0.02-0.07-1.04-0.22-1.19-0.25
					c-2.45-0.51-4.91-1.02-7.38-1.46c-4.95-0.88-9.99-1.5-15.03-1.41c-9.54,0.17-18.83,2.64-27.75,5.89
					c-5.14,1.87-10.17,4.02-15.19,6.17c-0.5,0.22-1.5,0.81-1,1.46C148.25,21.96,149.68,21.6,150.22,21.36L150.22,21.36z"/>
			</g>
		</g>
		<g>
			<g>
				<path class="st0" d="M326.72,44.28c1.87,11.08,1.61,22.35,0.43,33.49c-1.18,11.08-3.08,22.1-5.01,33.07
					c-1.77,10.03-3.73,20.03-5.56,30.06c-0.97,5.35-1.82,10.72-2.79,16.07c-0.42,2.31-0.98,4.77-2.66,6.52
					c-1.5,1.56-3.64,2.37-5.59,3.21c-4.52,1.94-9.14,3.64-13.85,5.06c-4.55,1.37-9.22,2.55-13.98,2.87
					c-0.63,0.04-2.01,0.48-2.11,1.25c-0.11,0.84,1.07,0.82,1.6,0.78c9.09-0.61,18.15-3.77,26.55-7.12
					c4.05-1.61,9.09-3.21,11.63-6.99c1.37-2.04,1.86-4.5,2.26-6.87c0.48-2.83,0.94-5.66,1.44-8.49
					c3.79-21.67,8.45-43.21,11.22-65.05c1.63-12.88,2.31-25.99,0.14-38.85C330.23,42.04,326.49,42.92,326.72,44.28L326.72,44.28z"/>
			</g>
		</g>
		<g>
			<g>
				<path class="st0" d="M319.05,35.42c-0.02-0.11,0.01-0.19,0-0.28c0.02-0.07,0.03-0.09,0.02-0.05c-0.18,0.83-0.99,1.07-2.42,0.72
					c-0.19-0.07-0.38-0.15-0.57-0.22c-0.02-0.28-0.05-0.33-0.09-0.15c-0.06,0.11-0.12,0.22-0.18,0.33c-0.11,0.2-0.22,0.41-0.32,0.62
					c-0.23,0.49-0.41,0.99-0.56,1.51c-0.29,1.04-0.41,2.12-0.4,3.19c0.03,2.21,0.75,4.35,2.07,6.13c2.65,3.58,7.54,4.97,11.8,4.09
					c0.61-0.13,1.98-0.4,2.14-1.16c0.15-0.74-1.15-0.7-1.56-0.62c-4.6,0.95-9.25-2.42-10.4-6.92c-0.62-2.4-0.36-4.98,0.81-7.18
					c0.19-0.35,0.56-0.81,0.2-1.19c-0.46-0.5-1.56-0.27-2.11-0.12c-1.04,0.28-2.38,1.03-2.14,2.3
					C315.54,37.48,319.28,36.6,319.05,35.42L319.05,35.42z"/>
			</g>
		</g>
		<g>
			<g>
				<path class="st0" d="M219.39,22.3c-1.77-0.57-1.31-3.75-1.09-5.09c0.35-2.13,0.96-4.23,1.87-6.19c1.65-3.56,4.39-7.21,8.34-8.32
					c2.49-0.7,5.13-0.19,7.6,0.33c2.98,0.63,5.95,1.29,8.92,1.94c4.88,1.06,11.04,1.51,14.35,5.72c3.1,3.94,3.59,9.64,3.88,14.46
					c0.16,2.69,0.47,5.84-0.22,8.48c-0.23,0.89-0.45,1.51-1.23,1.3c-1.16-0.31-1.98-1.31-2.44-2.37c-0.91-2.1-0.78-4.54-0.9-6.79
					c-0.13-2.28-0.34-4.64-1.27-6.75c-2.17-4.9-7.27-5.63-12.02-6.37c-3.12-0.49-6.23-1.08-9.37-1.43
					c-2.76-0.31-5.62-0.28-8.25,0.69c-5.43,2.01-6.91,7.39-7.2,12.64c0.99-0.43,1.99-0.87,2.98-1.3c-1.86-0.42-3.74-0.65-5.64-0.63
					c-0.83,0.01-2.01,0.24-2.44,1.07c-0.39,0.75,0.33,1.29,1.06,1.29c1.63-0.01,3.21,0.14,4.8,0.5c0.83,0.19,2.91-0.13,2.98-1.3
					c0.14-2.5,0.38-5.16,1.58-7.4c1.22-2.29,3.21-3.29,5.75-3.37c2.72-0.08,5.47,0.52,8.14,0.94c2.92,0.46,5.95,0.73,8.79,1.53
					c2.55,0.72,4.46,2.28,5.39,4.8c0.85,2.29,0.96,4.79,1.07,7.21c0.11,2.53,0.16,5.34,1.85,7.41c1.55,1.89,4.24,2.5,6.52,1.79
					c2.61-0.8,3.68-3.07,3.85-5.63c0.2-3.15,0.08-6.34-0.22-9.48c-0.47-4.98-1.41-10.77-5.38-14.25c-2.06-1.8-4.61-2.76-7.23-3.41
					c-3.08-0.77-6.2-1.38-9.3-2.05c-5.63-1.23-11.88-3.39-17.59-1.49c-5.03,1.68-8.75,5.74-10.85,10.52
					c-1.46,3.34-4.44,11.58,0.71,13.24c0.83,0.27,2.04-0.07,2.63-0.7C220.36,23.2,220.17,22.56,219.39,22.3L219.39,22.3z"/>
			</g>
		</g>
		<g>
			<g>
				<path class="st0" d="M271.74,51.31c1.06-0.93,2.17-1.81,3.32-2.62c0.27-0.2,0.55-0.39,0.83-0.58c0.07-0.05,0.14-0.09,0.21-0.14
					c0.05-0.04,0.26-0.11,0.09-0.06c-0.19,0.06,0.09-0.06,0.15-0.09c0.07-0.05,0.14-0.09,0.21-0.14c0.61-0.38,1.22-0.75,1.84-1.1
					c0.42-0.23,1.19-0.96,0.38-1.26c-0.8-0.29-1.9,0-2.62,0.4c-2.61,1.47-5.08,3.2-7.34,5.18c-0.18,0.16-0.47,0.42-0.39,0.7
					c0.07,0.27,0.46,0.38,0.69,0.41C269.94,52.12,271.09,51.87,271.74,51.31L271.74,51.31z"/>
			</g>
		</g>
		<g>
			<g>
				<path class="st0" d="M271.68,59.45c2.26-1.75,4.51-3.5,6.77-5.24c0.29-0.23,0.61-0.55,0.66-0.94c0.04-0.34-0.14-0.69-0.43-0.87
					c-0.77-0.46-1.96-0.29-2.66,0.25c-2.26,1.75-4.51,3.5-6.77,5.24c-0.29,0.23-0.61,0.55-0.66,0.94c-0.04,0.34,0.14,0.69,0.43,0.87
					C269.79,60.16,270.98,59.99,271.68,59.45L271.68,59.45z"/>
			</g>
		</g>
		<g>
			<g>
				<path class="st0" d="M271.2,70.12c2.7-1.97,5.41-3.94,8.11-5.91c0.16-0.12,0.48-0.38,0.41-0.63c-0.07-0.25-0.48-0.33-0.67-0.34
					c-0.86-0.07-1.92,0.19-2.63,0.7c-2.7,1.97-5.41,3.94-8.11,5.91c-0.16,0.12-0.48,0.38-0.41,0.63c0.07,0.25,0.48,0.33,0.67,0.34
					C269.44,70.89,270.5,70.63,271.2,70.12L271.2,70.12z"/>
			</g>
		</g>
		<g>
			<g>
				<path class="st0" d="M267.67,81.39c3.3-2.08,6.59-4.16,9.89-6.25c0.5-0.32,1.1-1.05,0.33-1.45c-0.76-0.38-1.96-0.08-2.63,0.35
					c-3.3,2.08-6.59,4.16-9.89,6.25c-0.5,0.32-1.1,1.05-0.33,1.45C265.8,82.12,267,81.81,267.67,81.39L267.67,81.39z"/>
			</g>
		</g>
		<g>
			<g>
				<path class="st0" d="M265.59,90.61c3.11-1.81,6.21-3.62,9.32-5.43c0.52-0.3,1.1-1.05,0.33-1.44c-0.78-0.39-1.93-0.06-2.63,0.35
					c-3.11,1.81-6.21,3.62-9.32,5.43c-0.52,0.3-1.1,1.05-0.33,1.44C263.74,91.36,264.89,91.02,265.59,90.61L265.59,90.61z"/>
			</g>
		</g>
		<g>
			<g>
				<path class="st0" d="M263.73,100.3c3.64-2.1,7.17-4.4,10.57-6.89c0.54-0.4,1.05-1.18,0.28-1.64c-0.74-0.44-1.99-0.18-2.64,0.3
					c-3.4,2.48-6.92,4.78-10.57,6.89c-0.6,0.35-1.01,1.21-0.28,1.64C261.89,101.07,263,100.72,263.73,100.3L263.73,100.3z"/>
			</g>
		</g>
		<g>
			<g>
				<path class="st0" d="M264.26,110.23c0.33-0.47,0.7-0.91,1.11-1.33c0.05-0.06,0.11-0.11,0.17-0.16c0.03-0.03,0.23-0.21,0.08-0.08
					c-0.14,0.13,0.02-0.02,0.05-0.04c0.06-0.05,0.12-0.1,0.18-0.15c0.23-0.19,0.46-0.37,0.7-0.55c0.11-0.08,0.23-0.16,0.35-0.24
					c0.18-0.12-0.05,0.04-0.11,0.07c0.07-0.04,0.13-0.08,0.2-0.12c0.25-0.15,0.52-0.29,0.78-0.42c0.06-0.03,0.11-0.05,0.17-0.08
					c-0.48,0.24-0.24,0.11-0.12,0.06c0.13-0.06,0.26-0.11,0.39-0.16c0.14-0.06,0.3-0.09,0.44-0.16c-0.03,0.01-0.47,0.15-0.22,0.07
					c0.09-0.03,0.18-0.05,0.27-0.08c0.43-0.12,0.9-0.3,1.25-0.57c0.17-0.14,0.47-0.41,0.4-0.68c-0.07-0.27-0.46-0.36-0.69-0.39
					c-0.46-0.05-0.93,0.01-1.37,0.13c-2.92,0.82-5.66,2.48-7.43,4.97c-0.15,0.2-0.24,0.43-0.03,0.63c0.22,0.21,0.71,0.23,0.97,0.22
					c0.49-0.02,1-0.12,1.45-0.31C263.59,110.73,264.03,110.55,264.26,110.23L264.26,110.23z"/>
			</g>
		</g>
		<g>
			<g>
				<path class="st0" d="M259.76,120.59c2.9-1.11,5.8-2.22,8.7-3.33c0.22-0.08,1.6-0.57,1.13-0.98c-0.2-0.17-0.72-0.1-0.94-0.08
					c-0.49,0.05-0.99,0.16-1.45,0.33c-2.9,1.11-5.8,2.22-8.7,3.33c-0.22,0.08-1.6,0.57-1.13,0.98c0.2,0.17,0.72,0.1,0.94,0.08
					C258.8,120.87,259.3,120.77,259.76,120.59L259.76,120.59z"/>
			</g>
		</g>
		<g>
			<g>
				<path class="st0" d="M259.36,132.82c0.06-0.06,0.12-0.13,0.18-0.19c-0.1,0.1-0.02,0.02,0.03-0.03c0.14-0.14,0.29-0.28,0.43-0.41
					c0.26-0.24,0.53-0.46,0.81-0.68c0.16-0.12,0.31-0.24,0.48-0.36c0.07-0.05,0.14-0.1,0.22-0.15c-0.12,0.08-0.15,0.1-0.01,0.01
					c0.32-0.2,0.63-0.4,0.96-0.58c0.15-0.09,0.31-0.17,0.47-0.25c0.04-0.02,0.31-0.16,0.09-0.04c-0.22,0.11,0.04-0.02,0.09-0.04
					c0.34-0.15,0.69-0.3,1.04-0.42c0.08-0.03,0.17-0.05,0.25-0.09c-0.1,0.04-0.36,0.11-0.11,0.04c0.17-0.05,0.34-0.1,0.51-0.15
					c0.19-0.05,0.38-0.1,0.58-0.14c0.06-0.01,0.36-0.08,0.07-0.02c-0.32,0.06,0.11-0.02,0.14-0.02c0.49-0.09,0.98-0.22,1.41-0.47
					c0.25-0.15,0.64-0.42,0.72-0.73c0.19-0.77-1.17-0.76-1.57-0.69c-3.9,0.71-7.48,2.52-10.2,5.43c-0.18,0.2-0.2,0.51-0.01,0.7
					c0.22,0.23,0.71,0.28,0.99,0.27C257.79,133.78,258.74,133.48,259.36,132.82L259.36,132.82z"/>
			</g>
		</g>
		<g>
			<g>
				<path class="st0" d="M256.48,146.03c1.99-1.36,3.98-2.72,5.97-4.08c0.63-0.43,0.95-1.44,0.2-1.93c-0.82-0.52-1.91-0.3-2.66,0.22
					c-1.99,1.36-3.98,2.72-5.97,4.08c-0.63,0.43-0.95,1.44-0.2,1.93C254.63,146.77,255.72,146.54,256.48,146.03L256.48,146.03z"/>
			</g>
		</g>
		<g>
			<g>
				<path class="st0" d="M253.96,156.03c0.08-0.07,0.17-0.13,0.25-0.2c0.04-0.03,0.08-0.06,0.13-0.09c-0.23,0.17-0.28,0.2-0.14,0.11
					c0.15-0.1,0.31-0.21,0.47-0.3c0.18-0.11,0.37-0.21,0.55-0.31c0.27-0.14-0.47,0.23-0.06,0.03c0.08-0.04,0.17-0.08,0.25-0.11
					c0.18-0.08,0.37-0.15,0.55-0.22c0.05-0.02,0.1-0.04,0.15-0.05c-0.36,0.12-0.45,0.15-0.26,0.09c0.09-0.03,0.18-0.05,0.27-0.08
					c0.19-0.05,0.38-0.1,0.58-0.15c0.05-0.01,0.1-0.02,0.16-0.03c-0.37,0.07-0.46,0.09-0.27,0.06c0.1-0.02,0.21-0.03,0.31-0.05
					c0.48-0.07,0.99-0.22,1.41-0.48c0.24-0.14,0.66-0.46,0.71-0.78c0.11-0.81-1.07-0.86-1.6-0.78c-2.35,0.34-4.56,1.27-6.41,2.76
					c-0.21,0.17-0.45,0.5-0.37,0.79c0.08,0.3,0.45,0.46,0.72,0.5C252.23,156.89,253.25,156.6,253.96,156.03L253.96,156.03z"/>
			</g>
		</g>
		<g>
			<g>
				<path class="st0" d="M252.56,165.15c1.3-0.74,2.6-1.47,3.9-2.21c0.13-0.07,0.5-0.32,0.44-0.54c-0.06-0.22-0.5-0.25-0.65-0.25
					c-0.9-0.02-1.85,0.26-2.63,0.7c-1.3,0.74-2.6,1.47-3.9,2.21c-0.13,0.07-0.5,0.32-0.44,0.54c0.06,0.22,0.5,0.25,0.65,0.25
					C250.83,165.88,251.78,165.6,252.56,165.15L252.56,165.15z"/>
			</g>
		</g>
		<g>
			<g>
				<path class="st0" d="M252.84,174.43c0.03-0.04,0.07-0.07,0.11-0.11c0.13-0.13-0.06,0.05-0.08,0.08
					c0.07-0.09,0.17-0.16,0.25-0.23c0.16-0.14,0.32-0.28,0.49-0.42c0.08-0.06,0.16-0.12,0.24-0.18c0.07-0.05,0.39-0.27,0.14-0.1
					c-0.25,0.17,0.05-0.03,0.12-0.07c0.1-0.06,0.19-0.12,0.29-0.17c0.18-0.1,0.36-0.18,0.54-0.28c-0.05,0.03-0.45,0.21-0.18,0.09
					c0.05-0.02,0.09-0.04,0.14-0.06c0.09-0.04,0.19-0.08,0.28-0.12c0.11-0.04,0.21-0.08,0.32-0.12c0.24-0.09-0.27,0.09-0.27,0.09
					c0.05-0.01,0.1-0.03,0.14-0.05c0.22-0.07,0.44-0.12,0.66-0.18c0.41-0.1,0.92-0.32,1.25-0.59c0.16-0.14,0.49-0.46,0.39-0.73
					c-0.27-0.71-1.57-0.44-2.08-0.32c-2.35,0.54-4.52,1.76-6.18,3.51c-0.18,0.19-0.2,0.49-0.02,0.68c0.22,0.22,0.71,0.27,0.98,0.26
					C251.27,175.38,252.21,175.09,252.84,174.43L252.84,174.43z"/>
			</g>
		</g>
		<g>
			<g>
				<path class="st0" d="M289.12,31.25c-0.22,0-0.45,0-0.67,0c-0.21-0.01-0.42,0.01-0.63,0.05c-0.25,0.03-0.49,0.08-0.73,0.14
					c-0.24,0.06-0.48,0.14-0.7,0.24c-0.2,0.07-0.39,0.16-0.57,0.27c-0.09,0.06-0.17,0.13-0.26,0.19c-0.12,0.09-0.18,0.2-0.18,0.34
					c0.04,0.04,0.07,0.09,0.11,0.13c0.17,0.08,0.35,0.12,0.54,0.11c0.22,0,0.45,0,0.67,0c0.21,0.01,0.42-0.01,0.63-0.05
					c0.25-0.03,0.49-0.08,0.73-0.14c0.24-0.06,0.48-0.14,0.7-0.24c0.2-0.07,0.39-0.16,0.57-0.27c0.09-0.06,0.17-0.13,0.26-0.19
					c0.12-0.09,0.18-0.2,0.18-0.34c-0.04-0.04-0.07-0.09-0.11-0.13C289.49,31.28,289.31,31.24,289.12,31.25L289.12,31.25z"/>
			</g>
		</g>
		<g>
			<g>
				<path class="st0" d="M285.04,34.44c3.85-0.52,7.73-0.65,11.59-0.34c0.89,0.07,2.02-0.26,2.42-1.15
					c0.37-0.82-0.33-1.54-1.15-1.61c-4.18-0.33-8.39-0.25-12.55,0.31c-0.82,0.11-1.94,0.56-2.04,1.52
					C283.22,34.08,284.28,34.54,285.04,34.44L285.04,34.44z"/>
			</g>
		</g>
		<g>
			<g>
				<path class="st0" d="M278.18,39.19c4.4-0.95,8.97-0.69,13.28,0.55c0.84,0.24,2.01-0.1,2.63-0.7c0.59-0.57,0.39-1.2-0.38-1.42
					c-5.24-1.5-10.75-1.58-16.07-0.43c-0.6,0.13-1.78,0.71-1.59,1.5C276.26,39.5,277.64,39.3,278.18,39.19L278.18,39.19z"/>
			</g>
		</g>
		<g>
			<g>
				<path class="st0" d="M198.08,15.91c3.78-0.55,7.55-1.09,11.33-1.64c0.72-0.1,1.94-0.47,2.1-1.32c0.15-0.84-1.08-0.98-1.63-0.9
					c-3.78,0.55-7.55,1.09-11.33,1.64c-0.72,0.1-1.94,0.47-2.1,1.32C196.3,15.85,197.54,15.99,198.08,15.91L198.08,15.91z"/>
			</g>
		</g>
		<g>
			<g>
				<path class="st0" d="M190.42,20.7c4.01,0.12,8.02,0.25,12.03,0.37c0.89,0.03,1.89-0.17,2.63-0.7c0.54-0.4,0.52-0.95-0.26-0.97
					c-4.01-0.12-8.02-0.25-12.03-0.37c-0.89-0.03-1.89,0.17-2.63,0.7C189.61,20.12,189.64,20.67,190.42,20.7L190.42,20.7z"/>
			</g>
		</g>
		<g>
			<g>
				<path class="st0" d="M186.98,34.89c3.37-1.73,6.74-3.46,10.11-5.19c0.64-0.33,1.45-1.12,0.89-1.87
					c-0.54-0.72-1.82-0.61-2.52-0.25c-3.37,1.73-6.74,3.46-10.11,5.19c-0.64,0.33-1.45,1.12-0.89,1.87
					C185,35.36,186.28,35.25,186.98,34.89L186.98,34.89z"/>
			</g>
		</g>
		<g>
			<g>
				<path class="st0" d="M190.34,43.48c1.13-0.89,2.3-1.72,3.51-2.48c0.08-0.05,0.15-0.09,0.23-0.14c-0.15,0.1-0.16,0.1,0,0
					c0.15-0.09,0.31-0.18,0.46-0.27c0.31-0.18,0.62-0.36,0.94-0.53c0.63-0.35,1.27-0.67,1.91-0.98c0.39-0.19,1.21-0.9,0.4-1.16
					c-0.83-0.26-1.86,0.06-2.61,0.42c-2.74,1.32-5.35,2.95-7.74,4.83c-0.16,0.13-0.48,0.39-0.41,0.65c0.07,0.26,0.47,0.34,0.68,0.36
					C188.56,44.26,189.67,44.01,190.34,43.48L190.34,43.48z"/>
			</g>
		</g>
		<g>
			<g>
				<path class="st0" d="M185.66,54.8c2.66-1.8,5.32-3.61,7.98-5.41c0.15-0.1,0.49-0.35,0.42-0.59c-0.06-0.24-0.49-0.29-0.66-0.3
					c-0.87-0.05-1.9,0.21-2.63,0.7c-2.66,1.8-5.32,3.61-7.98,5.41c-0.15,0.1-0.49,0.35-0.42,0.59c0.06,0.24,0.49,0.29,0.66,0.3
					C183.9,55.55,184.94,55.29,185.66,54.8L185.66,54.8z"/>
			</g>
		</g>
		<g>
			<g>
				<path class="st0" d="M183.64,64.1c2.48-1.51,4.97-3.02,7.45-4.53c0.12-0.07,0.5-0.31,0.44-0.53c-0.06-0.22-0.51-0.23-0.65-0.24
					c-0.87-0.01-1.88,0.25-2.63,0.7c-2.48,1.51-4.97,3.02-7.45,4.53c-0.12,0.07-0.5,0.31-0.44,0.53c0.06,0.22,0.51,0.23,0.65,0.24
					C181.89,64.82,182.89,64.56,183.64,64.1L183.64,64.1z"/>
			</g>
		</g>
		<g>
			<g>
				<path class="st0" d="M182.41,73.17c0.59-0.47,1.32-1.02,2.08-1.55c0.78-0.54,1.58-1.05,2.39-1.54c0.41-0.24,0.82-0.48,1.23-0.7
					c0.1-0.06,0.21-0.11,0.31-0.17c-0.15,0.08-0.14,0.07,0.06-0.03c0.21-0.11,0.42-0.22,0.63-0.32c0.85-0.42,1.71-0.81,2.59-1.18
					c0.53-0.22,1.51-0.95,0.96-1.6c-0.55-0.65-1.83-0.37-2.48-0.1c-3.9,1.62-7.51,3.8-10.8,6.45c-0.62,0.5-0.34,1.28,0.39,1.44
					C180.72,74.08,181.69,73.75,182.41,73.17L182.41,73.17z"/>
			</g>
		</g>
		<g>
			<g>
				<path class="st0" d="M182.1,81.56c2.03-1.76,4.05-3.52,6.08-5.29c0.29-0.25,0.61-0.52,0.66-0.93c0.04-0.34-0.14-0.68-0.43-0.86
					c-0.74-0.43-2-0.31-2.65,0.26c-2.03,1.76-4.05,3.52-6.08,5.29c-0.29,0.25-0.61,0.52-0.67,0.93c-0.04,0.34,0.14,0.68,0.43,0.86
					C180.18,82.25,181.44,82.13,182.1,81.56L182.1,81.56z"/>
			</g>
		</g>
		<g>
			<g>
				<path class="st0" d="M178.11,93.69c1.36-1.08,2.76-2.11,4.19-3.08c0.72-0.49,1.45-0.96,2.18-1.42c0.18-0.11,0.37-0.23,0.55-0.34
					c-0.35,0.21,0.23-0.14,0.29-0.17c0.37-0.22,0.75-0.44,1.13-0.65c0.6-0.34,1.49-1.17,0.88-1.91c-0.57-0.68-1.79-0.69-2.52-0.28
					c-3.21,1.82-6.28,3.86-9.17,6.16c-0.58,0.47-0.99,1.42-0.2,1.92C176.22,94.4,177.4,94.25,178.11,93.69L178.11,93.69z"/>
			</g>
		</g>
		<g>
			<g>
				<path class="st0" d="M175.56,102.23c2.23-1.11,4.46-2.23,6.69-3.34c0.36-0.18,0.77-0.39,0.99-0.75
					c0.15-0.24,0.21-0.58-0.02-0.81c-0.58-0.58-1.82-0.4-2.47-0.07c-2.23,1.11-4.46,2.23-6.69,3.34c-0.36,0.18-0.77,0.39-0.99,0.75
					c-0.15,0.24-0.21,0.58,0.02,0.81C173.67,102.74,174.91,102.56,175.56,102.23L175.56,102.23z"/>
			</g>
		</g>
		<g>
			<g>
				<path class="st0" d="M172.84,110c3.14-1.07,6.27-2.15,9.41-3.22c0.36-0.12,1.59-0.75,1.05-1.28c-0.55-0.53-1.85-0.12-2.43,0.08
					c-3.14,1.07-6.27,2.15-9.41,3.22c-0.36,0.12-1.59,0.75-1.05,1.28C170.96,110.62,172.26,110.2,172.84,110L172.84,110z"/>
			</g>
		</g>
		<g>
			<g>
				<path class="st0" d="M170.1,121.84c0.55-0.5,1.13-0.98,1.73-1.43c0.31-0.23,0.62-0.45,0.94-0.66c0.11-0.07,0.4-0.19,0.46-0.3
					c-0.04,0.08-0.29,0.17-0.06,0.04c0.1-0.06,0.19-0.12,0.29-0.17c0.64-0.38,1.31-0.72,1.99-1.03c0.33-0.15,0.66-0.29,1-0.43
					c0.06-0.02,0.43-0.16,0.14-0.06c-0.27,0.1,0.02-0.01,0.08-0.03c0.19-0.07,0.38-0.14,0.58-0.2c0.45-0.15,0.9-0.36,1.21-0.75
					c0.22-0.28,0.41-0.73,0.29-1.1c-0.29-0.86-1.43-1.11-2.22-0.85c-3.28,1.09-6.35,2.8-8.91,5.13c-0.3,0.28-0.6,0.6-0.64,1.03
					c-0.03,0.37,0.15,0.78,0.46,0.99C168.18,122.54,169.43,122.46,170.1,121.84L170.1,121.84z"/>
			</g>
		</g>
		<g>
			<g>
				<path class="st0" d="M168.5,130.12c2.02-0.61,4.05-1.22,6.07-1.83c0.45-0.13,0.91-0.36,1.21-0.73c0.22-0.26,0.42-0.69,0.3-1.05
					c-0.29-0.86-1.44-1.01-2.2-0.78c-2.02,0.61-4.05,1.22-6.07,1.83c-0.45,0.13-0.91,0.36-1.21,0.73c-0.22,0.26-0.42,0.69-0.3,1.05
					C166.59,130.2,167.74,130.35,168.5,130.12L168.5,130.12z"/>
			</g>
		</g>
		<g>
			<g>
				<path class="st0" d="M169.19,138.9c0.31-0.39,0.63-0.77,0.98-1.13c0.18-0.19,0.37-0.37,0.56-0.55c0.09-0.08,0.17-0.16,0.26-0.24
					c0.12-0.11-0.22,0.19-0.04,0.04c0.05-0.04,0.1-0.09,0.15-0.13c0.38-0.32,0.78-0.62,1.19-0.9c0.1-0.07,0.2-0.13,0.3-0.19
					c0.06-0.04,0.11-0.07,0.17-0.1c0.16-0.1-0.34,0.2-0.11,0.07c0.23-0.13,0.45-0.26,0.69-0.38c0.23-0.12,0.65-0.37,0.74-0.65
					c0.08-0.25-0.1-0.43-0.33-0.5c-0.38-0.12-0.82-0.1-1.2-0.03c-0.49,0.08-0.97,0.22-1.41,0.46c-2.05,1.08-3.9,2.56-5.33,4.39
					c-0.15,0.19-0.25,0.41-0.04,0.6c0.21,0.2,0.71,0.21,0.97,0.2c0.49-0.03,0.99-0.12,1.45-0.31
					C168.52,139.38,168.95,139.21,169.19,138.9L169.19,138.9z"/>
			</g>
		</g>
		<g>
			<g>
				<path class="st0" d="M166.83,148.13c2.29-0.88,4.31-2.2,5.85-4.12c0.17-0.21-0.19-0.34-0.3-0.36c-0.35-0.08-0.83-0.02-1.18,0.05
					c-0.74,0.14-1.69,0.37-2.18,0.99c-0.08,0.1-0.16,0.2-0.24,0.29c0.05-0.06,0.1-0.12,0.15-0.18c-0.28,0.32-0.58,0.63-0.89,0.93
					c-0.16,0.15-0.32,0.29-0.49,0.42c-0.09,0.07-0.18,0.14-0.27,0.21c-0.04,0.03-0.08,0.06-0.12,0.09
					c-0.04,0.03-0.22,0.16-0.05,0.04c0.16-0.11,0.01-0.01-0.02,0.02c-0.04,0.03-0.08,0.06-0.13,0.09c-0.09,0.06-0.19,0.13-0.29,0.19
					c-0.18,0.11-0.37,0.22-0.56,0.33c-0.28,0.15,0.31-0.15,0.02-0.01c-0.1,0.05-0.2,0.1-0.31,0.15c-0.09,0.04-0.18,0.08-0.28,0.12
					c-0.06,0.03-0.31,0.13,0.01,0c0.32-0.13,0.06-0.03,0,0c-0.34,0.13-0.77,0.29-1.04,0.54c-0.12,0.12-0.29,0.33-0.08,0.46
					c0.25,0.16,0.67,0.12,0.94,0.09C165.88,148.4,166.38,148.3,166.83,148.13L166.83,148.13z"/>
			</g>
		</g>
		<g>
			<g>
				<path class="st0" d="M164.52,157.14c0.73-0.13,1.42-0.35,2.09-0.67c0.45-0.22,0.83-0.5,1.2-0.84c0.26-0.23,0.45-0.5,0.63-0.79
					c0.14-0.23,0.24-0.47,0.31-0.73c0.05-0.11,0.04-0.21-0.04-0.29c-0.06-0.11-0.15-0.18-0.29-0.2c-0.17-0.05-0.35-0.08-0.53-0.07
					c-0.22-0.01-0.44,0-0.67,0.04c-0.48,0.08-0.98,0.21-1.41,0.45c-0.12,0.07-0.23,0.14-0.35,0.21c-0.17,0.11-0.3,0.26-0.39,0.44
					c-0.07,0.28-0.18,0.54-0.34,0.78c0.05-0.07,0.09-0.14,0.14-0.22c-0.14,0.21-0.3,0.39-0.49,0.56c0.08-0.07,0.17-0.15,0.25-0.22
					c-0.11,0.1-0.23,0.18-0.36,0.26c0.12-0.07,0.23-0.14,0.35-0.21c-0.09,0.06-0.19,0.11-0.29,0.15c0.14-0.06,0.28-0.13,0.42-0.19
					c-0.08,0.04-0.16,0.07-0.25,0.1c0.16-0.05,0.32-0.1,0.49-0.16c-0.08,0.02-0.15,0.04-0.23,0.06c0.17-0.04,0.33-0.07,0.5-0.11
					c-0.04,0.01-0.08,0.02-0.12,0.02c-0.48,0.08-0.98,0.22-1.41,0.45c-0.18,0.08-0.33,0.19-0.47,0.32
					c-0.12,0.08-0.21,0.19-0.27,0.33c-0.01,0.07-0.01,0.14-0.02,0.2c0.07,0.15,0.18,0.25,0.35,0.29
					C163.71,157.23,164.14,157.2,164.52,157.14L164.52,157.14z"/>
			</g>
		</g>
		<g>
			<g>
				<path class="st0" d="M314.32,147.6c-7.5,3.53-12.31,11.72-11.15,20.02c0.21,1.47,3.94,0.59,3.71-1
					c-0.95-6.79,2.7-14.22,8.99-17.18c0.6-0.28,1.46-0.98,0.94-1.69C316.31,147.07,314.94,147.31,314.32,147.6L314.32,147.6z"/>
			</g>
		</g>
	</g>
	<g>
		<path class="st0" d="M227.87,57.47c-0.01-0.47-0.34-0.73-0.71-0.79c-0.05-0.49-0.11-0.99-0.16-1.5c-0.04-0.4-0.35-0.89-0.82-0.82
			c-4.18,0.56-8.37,1.01-12.54,1.69c-3.06,0.5-6.74,0.98-9.75,2.34c-0.55,0.05-1.11,0.08-1.66,0.1c-0.26,0.01-0.45,0.12-0.58,0.27
			c-0.2-0.07-0.44,0-0.48,0.25c-0.69,4.08,0.18,8.55,0.58,12.65c0.46,4.7,0.99,9.4,1.56,14.09c0.07,0.57,0.5,0.99,1.1,0.84
			c8.18-2.01,16.48-3.33,24.87-4.07c0.64-0.06,1.01-0.55,0.9-1.18C228.77,73.4,228.04,65.54,227.87,57.47z M204.94,84.67
			c-0.52-4.33-0.99-8.66-1.42-13c-0.35-3.63-0.3-7.57-1.17-11.15c3.7-0.47,7.39-1.93,11.09-2.58c3.98-0.69,8-1.25,12-1.82
			c0.15,1.75,0.29,3.44,0.85,5.12c0.25,6.53,0.91,13.06,1.92,19.5C220.35,81.4,212.6,82.74,204.94,84.67z"/>
		<path class="st0" d="M223.79,69.64c-0.67-3.25-1.33-6.51-1.96-9.77c-0.08-0.42-0.62-0.59-0.96-0.39
			c-4.03,2.39-8.26,3.39-12.9,3.52c-0.17,0-0.3,0.07-0.4,0.15c-0.31-0.29-0.96-0.08-0.98,0.43c-0.17,5.35,0.77,10.81,1.55,16.08
			c0.06,0.43,0.62,0.69,1,0.57c3.36-1.04,6.73-2.07,10.09-3.12c1.28-0.4,4.51-0.67,5.31-2.05
			C225.33,73.71,224.06,70.95,223.79,69.64z M222.25,73.73c-1.15,1.72-4.41,2.06-6.35,2.66c-2.11,0.66-4.21,1.33-6.32,1.99
			c-0.66-4.65-0.97-9.37-1.72-14c0.03,0,0.06,0.02,0.1,0.02c4.57,0.07,8.8-1.18,12.76-3.35c0.34,1.82,0.68,3.65,1,5.47
			C222.06,68.47,223.35,72.08,222.25,73.73z"/>
		<path class="st0" d="M157.52,60.93c-0.09-1.7,0.64-6.35-0.93-7.63c-1.62-1.32-6.38,0.66-8.05,1.1c-0.64,0.17-0.71,0.86-0.42,1.29
			c-0.2,0.08-0.35,0.26-0.37,0.55c-0.28,5.3-0.17,10.59-0.65,15.89c-0.05,0.53,0.57,0.96,1.05,0.8c2.03-0.68,4.06-1.35,6.09-2.04
			c0.9-0.3,2.7-0.49,3.32-1.35C158.84,67.74,157.63,63.04,157.52,60.93z M154.39,69.05c-1.46,0.9-3.69,1.41-5.54,1.93
			c0.39-4.88,0.7-9.88,0.14-14.74c-0.01-0.09-0.04-0.17-0.07-0.24c0.02,0,0.04,0,0.06,0c1.95-0.52,5.47-2.17,6.66,0.19
			c0.74,1.47,0.23,5.06,0.31,6.76C156.06,65.31,156.64,67.67,154.39,69.05z"/>
		<path class="st0" d="M163.22,92.61c-0.56-3.12-4-1.73-6.06-0.12c0.1-2.91-3.03-6.98-5.55-4.25c-1.34,1.45-0.46,3.76,0.02,5.34
			c1.1,3.65,2.04,7.32,2.76,11.06c0.12,0.64,1.05,0.86,1.48,0.39c1.84-2.05,3.71-4.14,5.15-6.5
			C161.91,97.06,163.55,94.44,163.22,92.61z M161.18,94.3c-0.17,1.22-1.25,2.75-1.93,3.79c-1.03,1.58-2.24,3.01-3.49,4.42
			c-0.41-2.05-0.88-4.09-1.43-6.12c-0.3-1.1-0.63-2.19-0.96-3.29c-0.21-0.6-0.39-1.2-0.54-1.82c2.23-0.42,3.21,0.29,2.92,2.14
			c0.01,0.14,0.06,0.25,0.12,0.34c0,0,0,0.01-0.01,0.01c-0.61,0.89,0.83,1.72,1.44,0.84c0.92-1.73,2.31-2.15,4.16-1.27L161.18,94.3z
			"/>
		<path class="st0" d="M215.09,103.36c-0.42,0.12-0.83,0.24-1.25,0.35c-0.76,0.1-1.53,0.19-2.29,0.29
			c-0.48,0.06-0.99,0.18-1.47,0.18c-0.89,0.01-0.74,0.03-1.29-0.78c-1.34-1.94-2.31-4.28-3.43-6.35c-0.07-0.13-0.16-0.22-0.26-0.28
			c0-0.05-0.01-0.1-0.01-0.14c-0.02-0.21-0.31-0.34-0.43-0.12c-0.02,0.05-0.04,0.1-0.06,0.15c-0.2,0.03-0.38,0.13-0.52,0.27
			c-0.16,0.06-0.3,0.18-0.39,0.38c0,0.01-0.01,0.02-0.01,0.03c-0.01,0.04-0.04,0.06-0.05,0.11c-0.56,2.58-1.17,5.15-1.83,7.7
			c-0.02,0.08-0.01,0.15-0.01,0.22c-2.02,1.78-6.31,2.49-8.56,3.21c-0.61,0.19-0.81,1.11-0.19,1.43c2.14,1.12,4.26,1.77,6.61,2.06
			c-0.66,3.49-1.32,6.97-1.96,10.46c-0.18,0.96,0.96,1.4,1.53,0.64c2.02-2.66,4.03-5.33,6.05-7.99c2.01,1.55,4.01,3.11,6.01,4.68
			c0.58,0.45,1.52,0.21,1.53-0.63c0.01-3.23-1.03-5.88-3.1-8.28c2.08-2.05,4.13-4.13,6.19-6.2
			C216.49,104.17,215.9,103.14,215.09,103.36z M207.57,110.93c-0.62,0.66,0.22,1.59,0.91,1.19c1.33,1.6,2.08,3.27,2.38,5.2
			c-1.77-1.34-3.55-2.69-5.32-4.04c-0.39-0.3-0.91-0.02-1.16,0.3c-1.49,1.97-2.97,3.94-4.46,5.91c0.47-2.63,0.94-5.26,1.4-7.89
			c0.09-0.52-0.21-0.95-0.75-0.99c-1.8-0.13-3.4-0.49-4.98-1.13c1.48-0.47,2.97-0.94,4.45-1.42c0.93-0.3,2.66-0.57,3.38-1.41
			c0.95-1.1,1.44-3.64,1.63-6.01c0.37,0.79,0.72,1.58,1.01,2.4c0.33,0.95,0.45,2.58,1.29,3.28c1.04,0.87,3,0.46,4.81-0.14
			C210.63,107.75,209.09,109.33,207.57,110.93z"/>
		<path class="st0" d="M252.1,95.31c-4.09-0.83-8.76-2.3-13.27-2.96c-1.81-0.74-3.73-1.38-4.47-1.01c0.12-0.33,0.06-0.7-0.36-0.89
			c-0.05-0.02-0.1-0.04-0.14-0.07c-0.34-0.16-0.64-0.12-0.89,0.07c-0.1,0.01-0.2,0.06-0.26,0.19c-2.34,4.86-4.02,10.11-5.81,15.19
			c-0.04,0.1-0.04,0.19-0.04,0.28c-0.01,0.02,0,0.04-0.01,0.06c0,0,0,0,0,0c-0.08,0.39,0.11,0.87,0.54,0.97
			c6.24,1.51,12.4,3.6,18.51,5.53c0.41,0.13,0.75,0.02,0.97-0.2c0.26,0.06,0.54-0.03,0.68-0.36c2.18-5.02,3.49-10.5,5.17-15.71
			C252.86,95.97,252.55,95.4,252.1,95.31z M246.42,110.61c-3.6-1.22-7.24-2.32-10.89-3.35c-2.13-0.6-4.56-1.62-6.86-1.69
			c1.5-4.22,3.11-8.47,4.27-12.81c3.09,1.58,6.85,2.37,10.59,2.97c2.27,0.49,4.58,0.77,6.85,1.41c0.08,0.02,0.16,0.02,0.23,0.02
			C249.16,101.61,247.46,106.08,246.42,110.61z"/>
	</g>
</g>
<g>
	<polygon class="st1" points="25.28,140.07 2.74,165.48 2.96,177.05 2.78,189.15 2.96,192.05 27.96,195.05 44.21,194.96 
		151.19,194.97 149.75,197.74 163.73,201.05 173.57,198.81 175.88,194.97 190.29,196.63 197.92,185.5 195.52,167.26 192.53,158.63 
		199.96,146.05 204.96,138.05 191.96,133.05 184.67,125.85 176.26,142.72 179.32,121.29 181.32,52.04 180.96,41.05 166.61,37.95 
		70.58,37.05 43.45,37.05 35.21,37.05 30.87,42.75 27.96,48.05 26.16,96.57 	"/>
	<path class="st0" d="M204.94,136.54c-1.54-1.3-3.55-2.01-5.5-2.7c-0.78-0.28-1.56-0.55-2.27-0.86c-3.71-1.59-7.44-3.61-9.6-7.64
		c-0.19-0.35-0.51-0.56-0.89-0.59l-0.13-0.11l-0.33,0.11l-0.27,0.13c-1.18,0.53-2.21,1.69-2.99,3.35c-1.08,1.43-2.06,3.07-2.93,4.87
		c-0.28-0.2-0.63-0.38-1.03-0.53c2.67-17.07,3.53-34.57,4.36-51.51c0.16-3.22,0.32-6.43,0.49-9.65l0.27-5.04
		c0.18-3.36,0.37-6.72,0.53-10.09c0.2-4.21,0.25-8.3-1.21-12.04c-1.9-4.88-6.2-7.95-11.87-8.47l-0.07-0.05l-0.65,0.02
		c-0.94-0.04-1.92-0.01-2.88,0.1c-16.84,0.6-33.97,0.25-50.53-0.09c-3.83-0.08-7.66-0.16-11.5-0.23l-33.6-0.59
		c-3.22-0.06-6.55-0.2-9.78-0.33c-4.97-0.21-10.12-0.43-15.07-0.35c-8.26-0.87-13.98,0.95-17.46,5.58
		c-4.44,5.91-4.29,14.5-4.16,22.08c0.03,1.75,0.06,3.45,0.03,5.03l-1.41,72.88c-3.13,1.23-5.64,4.32-7.87,7.06
		c-0.67,0.82-1.3,1.6-1.91,2.28c-1.09,1.21-2.3,2.42-3.58,3.71c-4.39,4.42-9.37,9.43-10.57,15.47c-1.53,7.66,0.51,16.98,2,23.78
		l0.06,0.27c0.41,1.91,0.66,3.06,2.91,3.67c3.62,0.98,8.46,0.41,12.35-0.05c0.47-0.05,0.93-0.11,1.37-0.16
		c0.21,0.5,0.44,0.88,0.73,1.17c1.72,1.77,5.75,1.96,8.69,2.1c0.68,0.03,1.29,0.06,1.79,0.1l0.32,0.03
		c3.89,0.35,8.29,0.75,12.12-0.66c0.27,0.08,0.5,0.04,0.66-0.02c0.49-0.19,0.91-0.49,1.29-0.92c0.15,0.05,0.31,0.08,0.48,0.08
		c11.53,0,23.26,0.08,34.6,0.16c23.37,0.17,47.53,0.33,71.26-0.2c1.83,2.45,5.3,2.77,8.1,3.02l0.78,0.07
		c1.67,0.17,3.36,0.25,5.04,0.25c1.88,0,3.76-0.1,5.63-0.31c0.29-0.03,0.6-0.06,0.92-0.09c1.83-0.17,3.91-0.37,5.42-1.46
		c0.57-0.41,1.05-0.96,1.46-1.68c0.01,0,0.03,0,0.04,0c4.18,0.14,11.99,0.4,16.52-2.14c3.22-1.81,3.59-5.45,3.92-8.66
		c0.05-0.48,0.1-0.95,0.15-1.4c1-8.13,1.59-17.44-1.57-24.86c-0.18-0.7-0.49-1.35-0.84-1.79c-0.49-0.94-1.05-1.84-1.67-2.67
		c0.36-0.61,0.72-1.22,1.08-1.83c0.59-1.01,1.18-2.01,1.77-2.98c0.62-1.01,1.35-2.09,2.12-3.22c2.16-3.18,4.61-6.78,5.3-10.19v0
		C205.4,137.27,205.26,136.82,204.94,136.54z M176.8,145.99c0.6,0.45,1.21,0.66,2.03,0.7c0.02,0,0.05,0,0.07,0
		c0.44,0,0.83-0.21,1.07-0.57c0.28-0.42,0.32-0.99,0.1-1.46c-0.33-0.69-0.78-1.16-1.49-1.58c-0.56-0.33-1.16-0.31-1.64-0.03
		c0.21-0.36,0.41-0.72,0.62-1.07c1.19-2.04,2.41-4.15,3.5-6.21c0.34-0.49,0.77-1.15,1.15-1.96c0.01-0.01,0.01-0.03,0.02-0.04
		c4.13,4.74,12.15,8.02,17.93,8.6c-2.27,3.96-4.22,7.25-6.12,10.29c-0.68,1.09-1.4,2.18-2.13,3.27c-1.63,2.45-3.31,4.98-4.55,7.66
		c-3.65-0.14-7.35-0.08-10.94-0.02c-2,0.03-3.94,0.07-5.99,0.06l-3.71-0.01c1.46-2.63,2.71-5.45,3.93-8.2
		c0.65-1.48,1.33-2.97,2.03-4.44c0.21,0.46,0.66,0.82,1.15,0.85l0.16,0.01c0.41,0.03,0.8,0.06,1.2,0.06c0.56,0,1.14-0.05,1.76-0.24
		c0.54-0.16,0.94-0.63,1.01-1.2c0.07-0.57-0.19-1.1-0.68-1.39l0,0c-1.22-0.71-2.48-0.62-3.75,0.17c0.15-0.3,0.29-0.61,0.44-0.9
		c0.68-1.29,1.4-2.57,2.13-3.84C176.08,145.02,176.26,145.58,176.8,145.99z M28.39,69.71c-0.07-6.89-0.14-14.01,0.95-20.7
		c0.58-3.52,1.7-6.24,3.44-8.29c0.15,0.29,0.3,0.53,0.4,0.69c0.8,1.23,1.69,2.48,2.75,3.84l0.37,0.49c0.38,0.52,0.78,1.05,1.27,1.5
		c-1,1.98-1.57,4.37-1.95,6.28c-1.61,7.93-2.43,16.68-2.6,27.55c-0.09,5.66,0,11.42,0.09,16.98c0.06,3.82,0.12,7.65,0.12,11.47
		c0.01,4.56-0.28,9.2-0.55,13.7c-0.32,5.18-0.64,10.54-0.53,15.82c-1.19,0.11-2.38,0.24-3.57,0.39c-0.47-0.09-0.93-0.14-1.37-0.14
		l1.18-60.99C28.44,75.47,28.41,72.54,28.39,69.71z M40.26,147.19c5.4,0.8,10.49,1.55,15.88,1.77c5.63,0.22,11.64,0.11,19.48-0.36
		c0.78-0.05,1.77-0.16,2.88-0.28c4.86-0.53,12.21-1.33,15.23,1.45c0.76,0.7,1.19,1.58,1.31,2.69c-2.62-1.05-5.83-1.29-9.79-0.73
		c-1.81,0.25-3.6,0.53-5.38,0.82c-5.54,0.87-10.78,1.69-16.33,1.76c-4.24,0.04-8.51-0.37-12.64-0.78c-2.31-0.23-4.7-0.47-6.97-0.6
		c-2.31-0.56-4.25-0.97-6.1-1.28c-5.37-0.9-11.51-1.36-16.31,2.03c-0.49,0.34-0.97,0.75-1.48,1.25c-0.07-0.07-0.11-0.17-0.13-0.31
		c-0.24-1.51,2.05-5.14,3.25-5.89c1.41-0.88,3.15-1.34,4.34-1.61c3.28-0.74,6.86-0.78,11.27-0.14L40.26,147.19z M22.37,156.48
		c2.17-1.64,5.26-2.24,8.7-2.24c6.62,0,14.52,2.23,19.56,3.66c0.91,0.26,1.74,0.49,2.48,0.69c9.3,2.51,23.35,6.29,32.68,0.28
		l0.12-0.08c1.1-0.26,2.27-0.51,3.44-0.57l0.27-0.02c0.38-0.02,1.38-0.09,1.63,0.07c0.6,0.38,0.83,0.63,0.92,0.75
		c-0.19,0.09-0.6,0.17-1.22,0.25l-0.23,0.03c-1.4,0.2-2.89,0.19-4.83,0c-0.45-0.04-0.84,0.23-0.94,0.66
		c-0.11,0.47,0.14,0.98,0.58,1.15c1.91,0.78,5.47,2.21,8.21,1.05c1.03-0.43,1.79-1.23,2.09-2.18c0.28-0.87,0.14-1.8-0.38-2.63
		c-1.73-2.77-5.57-3.04-10.98-0.82c-1.07,0.22-2.12,0.47-3.16,0.72c-2.75,0.66-5.35,1.28-8.2,1.35c-3.61,0.1-7.42-0.31-11.98-1.26
		c-0.19-0.04-0.38-0.08-0.56-0.12c3.18,0.04,6.6-0.09,10.29-0.4c3.72-0.31,7.41-0.95,10.98-1.58l1.85-0.32
		c3.11-0.54,6.15-0.94,9.05-0.1c2.16,0.63,3.99,2.16,4.77,3.99c0.62,1.45,0.55,2.98-0.19,4.43c-0.05,0.1-0.1,0.21-0.13,0.33
		c-10.18,0.05-20.36,0.06-30.54,0.05l-10.36,0c-4.06,0.01-8.09-0.05-12.15-0.09c-8.23-0.1-16.73-0.19-25.07,0.13
		C19.21,160.44,20.31,158.03,22.37,156.48z M101.19,159.56c0.73,1.5,1.59,2.9,2.65,4l-2.98,0.01
		C101.29,162.22,101.4,160.86,101.19,159.56z M136.64,128.61c-0.11-0.01-0.23-0.01-0.35-0.01c-4.54,0-9.08,5.39-10.93,8.91
		c-0.66,1.26-1.2,2.6-1.61,4.01c0-0.13,0.01-0.26,0.01-0.38c0.28-7.26,3.6-13.16,9.24-16.57c2.4-0.74,4.84-1.5,7.27-1.5
		c1.48,0,2.96,0.28,4.41,1.03c4.62,2.36,6.07,7.93,6.76,11.91c0.08,0.45,0.15,0.91,0.22,1.36c-1.18-2.42-2.71-4.5-4.47-6.06
		C144.05,128.51,140.4,127.57,136.64,128.61z M123.47,155.45c0.89,2.86,1.99,5.78,4,8.06l-1.63,0c-1.12-1.93-1.66-4.5-2.14-6.79
		c-0.12-0.58-0.24-1.15-0.37-1.69C123.39,155.16,123.43,155.3,123.47,155.45z M126.88,140.3c1.88-4.54,5.39-8.07,9.41-9.45
		c4.8-0.06,8.48,1.36,10.99,4.11c3.58,3.93,4.18,9.58,4.49,14.89c-0.94,5.52-3.42,10.13-7.37,13.71c-4.57-0.02-9.15-0.03-13.73-0.04
		c-1.76-1.86-3.21-4.17-4.3-6.75C125.36,151.19,124.63,145.73,126.88,140.3z M153.58,133.01c-1.43-5.73-4.05-9.54-7.78-11.34
		c-3.19-1.53-7.04-1.58-11.06-0.15c-7.68,1.42-12.23,9.46-13.22,16.32c-0.38,2.66-0.4,5.48-0.06,8.47
		c-0.29-1.51-0.56-3.04-0.81-4.58c-1.44-8.76-2.36-18.06-2.79-28.44c-0.33-7.91-0.38-16.57-0.14-26.48
		c0.07-3.14,0.26-6.36,0.43-9.48c0.28-4.98,0.57-10.12,0.44-15.17c0.97,0.93,2.21,1.5,3.71,1.68c4.99,0.61,11.64-3.26,15.46-6.64
		c-0.85,5.52-1.14,11.25-1.43,16.8c-0.15,2.84-0.3,5.77-0.52,8.59c-0.8,10.06-1.72,20.52-2.73,31.09c-0.04,0.46,0.13,0.87,0.49,1.12
		c0.38,0.28,0.93,0.32,1.39,0.11c0.46-0.21,0.75-0.62,0.79-1.12c0.99-10.3,1.89-20.48,2.66-30.25c0.19-2.36,0.42-4.76,0.66-7.17
		c0.6-6.18,1.22-12.54,1.1-18.76c1.97,2.46,5.76,3.92,9.32,4.33c3.07,0.35,6.83,0.01,9.26-1.79c-0.93,2.54-1.51,5.24-2.07,7.87
		c-0.2,0.92-0.39,1.83-0.6,2.73l-0.87,3.75c-0.87,3.74-1.73,7.48-2.61,11.22c-0.5,2.09-1,4.18-1.51,6.27
		c-1.87,7.75-3.81,15.77-5.18,23.8c-0.07,0.42,0.18,0.81,0.59,0.91c0.4,0.1,0.8-0.12,0.94-0.52c3.14-9.19,5.41-18.75,7.61-28
		l0.41-1.72c1.12-4.71,2.23-9.42,3.3-14.14c0.21-0.93,0.44-1.88,0.68-2.83c0.73-2.97,1.48-6.01,1.7-9.07c2.34,2.45,6.31,3.42,9.57,3
		c-1.82,6.59-3.02,13.46-4.19,20.11c-0.29,1.64-0.58,3.28-0.87,4.91c-1.54,8.47-3,17.1-4.35,25.63c-0.38,2.42-0.75,4.84-1.12,7.26
		c-0.9,5.91-1.84,12.01-2.95,17.98l-0.44,2.39c-1.39,7.65-2.83,15.56-6.99,21.87l-1.08,0C156.16,156.81,155.79,141.87,153.58,133.01
		z M164.34,138.48c-0.38,0.55-0.82,0.89-1.4,1.07c-0.53,0.17-1.13,0.2-1.78,0.23c-0.46,0.03-0.93,0.05-1.39,0.13
		c1.14-6.11,2.1-12.34,3.03-18.37c0.31-2.01,0.62-4.03,0.94-6.04c1.43-9.07,2.99-18.26,4.64-27.3c0.51-2.81,1.08-5.63,1.65-8.44
		c0.59-2.92,1.19-5.88,1.73-8.87c-0.48,6.35-0.99,12.33-1.56,18.16C168.58,105.88,166.61,122.5,164.34,138.48z M99.14,147.41
		c-0.05-0.14-0.11-0.27-0.16-0.41l-0.65-1.61c-1.41-6.44-0.34-11.46,3.18-14.93c2.09-2.06,4.57-3.12,7.24-3.12
		c0.35,0,0.7,0.02,1.06,0.06c2.99,0.31,4.69,1.87,6.84,3.84l0.07,0.07c0.07,0.61,0.14,1.23,0.21,1.84c-1.16-1-2.59-1.85-4.11-2.44
		c-1.69-0.65-3.31-0.73-4.82-0.22c-1.72-0.27-3.54,1.64-4.79,3.1c-2.42,2.83-3.89,6.64-4.14,10.74
		C99,145.23,99.03,146.28,99.14,147.41z M79.99,95.71c-0.59-1.62-1.18-3.25-1.76-4.89c-1.7-4.78-3.46-9.72-5.59-14.38
		c0.62,0.05,1.2,0.07,1.32,0.06c1.83-0.26,3.76-1.16,5.59-2.07c1.64-0.81,4.43-2.49,6.19-5.14c1.01,3.72,2.11,7.47,3.17,11.11
		c1.25,4.3,2.55,8.75,3.71,13.15c0.55,2.09,1.09,4.18,1.63,6.28c1.93,7.48,3.92,15.21,6.5,22.61c0.17,0.5,0.67,0.77,1.17,0.63
		c0.5-0.13,0.8-0.62,0.71-1.14c-1.57-8.38-3.89-16.76-6.13-24.87c-0.7-2.52-1.39-5.04-2.07-7.55l-0.72-2.71
		c-1.04-3.92-2.12-7.98-3.34-11.93c-0.11-0.35-0.23-0.79-0.36-1.28c-0.4-1.5-0.92-3.41-1.67-4.96c3.04,1.04,6.41,1,10.06-0.1
		c1.46-0.44,2.84-0.97,4-1.53c0.06-0.03,0.27-0.15,0.52-0.32c0.17-0.11,0.46-0.29,0.72-0.45c0.05,4.75,1.03,9.61,1.97,14.32
		c0.31,1.56,0.63,3.12,0.9,4.64c1.15,6.41,2.57,13.98,4.43,21.62c0.12,0.51,0.63,0.81,1.17,0.71c0.52-0.1,0.85-0.53,0.78-1.03
		c-0.74-5.94-1.74-12.2-3.24-20.31c-0.3-1.64-0.58-3.32-0.86-5.03c-0.73-4.47-1.48-9.07-2.83-13.34c0.65,0.38,1.42,0.69,2.31,0.93
		c2.29,0.61,5.37,0.65,7.46-0.29c-0.25,4.25-0.32,8.56-0.39,12.74c-0.03,1.88-0.06,3.75-0.1,5.61c-0.27,11.09-0.19,20.32,0.24,29.03
		c0.19,3.74,0.45,7.48,0.79,11.14c-4.04-3.26-11-2.73-15.02,0.24c-3.44,2.54-5.49,6.31-5.88,10.62c-2.2-5.81-4.32-11.7-6.38-17.42
		l-0.75-2.1c-2.62-7.27-5.28-14.53-7.95-21.78L79.99,95.71z M102.83,139.83c0.4-1.15,1.89-4.2,3.4-5.99
		c0.79-0.66,1.44-1.04,2.11-1.22c0.33-0.09,0.67-0.14,1.02-0.14c1.1,0,2.37,0.43,3.9,1.32c1.91,1.1,3.14,2.66,4.37,4.66l0.12,0.83
		c0.14,1,0.28,2.01,0.45,3c0.79,4.83,1.8,9.73,3,14.57c0.13,0.54,0.26,1.09,0.38,1.64c0.38,1.68,0.77,3.41,1.46,5.01
		c-2.82,0-5.64,0.01-8.46,0.02l-3.72,0.01c-4.52-3.26-7.86-9.06-8.74-15.18C101.67,145.29,101.91,142.42,102.83,139.83z
		 M159.72,159.04L159.72,159.04c0.39-0.59,0.88-1.08,1.41-1.54c0.1,2.07,0.39,4.18,0.83,6.09l-3.31-0.01
		C158.45,162.01,158.83,160.4,159.72,159.04z M161.13,154.33c-1.29,0.24-2.46,0.98-3.42,2.17c-1.47,1.83-2.34,4.65-2.21,7.08
		l-2.45,0c3.2-5.55,4.47-12.02,5.7-18.29l0.4-2.03c0.05-0.25,0.1-0.51,0.14-0.77l0-0.02c0.84,0.23,1.91,0.23,2.93,0.02l0.94,0.02
		c0.2,0,0.39,0.02,0.59,0.03c0.67,0.04,1.36,0.08,2.02-0.06c0.02,0.2,0.06,0.41,0.12,0.62
		C162.33,145.61,161.32,150.46,161.13,154.33z M70.66,44.48c9.86-0.15,21.54-0.25,33.41,0.13c6.66,0.21,13.42,0.7,19.96,1.17
		c4.17,0.3,8.49,0.61,12.74,0.85c3.63,0.2,7.39,0.14,11.03,0.08c6.54-0.1,13.31-0.21,19.65,1.19c1.98,1.03,3.29,2.33,4.12,4.07
		c1.21,2.54,1.2,5.69,0.98,8.7c-0.05-0.02-0.1-0.03-0.16-0.03c-0.32-0.22-0.7-0.3-1.1-0.23c-2.6,0.48-4.86,0.16-6.92-0.98
		c-0.58-0.32-1.11-0.74-1.67-1.18c-0.69-0.54-1.4-1.1-2.23-1.48c-0.02-0.03-0.04-0.05-0.07-0.08l-0.31-0.9l-0.2,0.61
		c-0.23-0.06-0.49-0.04-0.73,0.07c-3.3,1.45-6.15,2.52-10.15,2.08c-3.82-0.43-5.67-2.16-8.2-4.92c0.12-0.46-0.07-0.96-0.51-1.23
		c-0.52-0.32-1.13-0.23-1.54,0.26l-0.24,0.1l-0.04,0.2c-0.07,0.05-0.12,0.12-0.17,0.19l-0.11,0.31c-2.35,3.38-4.94,4.82-8.86,6.26
		c-3.81,1.4-7.79,2.49-10.97-0.91c-0.17-0.18-0.4-0.26-0.66-0.25c-0.05-0.01-0.1-0.02-0.15-0.02l-0.3-0.53l0.03,0.55
		c-0.08,0.02-0.15,0.05-0.22,0.08c-0.23,0.13-0.38,0.35-0.42,0.63c-0.26,1.68-0.46,3.46-0.66,5.59c-1.42,0.98-2.25,1.52-4.32,1.46
		c-2.8-0.07-5.84-0.76-6.29-2.09c-0.02-0.06-0.04-0.11-0.09-0.25c-0.06-0.21-0.21-0.39-0.41-0.5c-0.19-0.11-0.41-0.12-0.62-0.05
		c-1.13,0.38-2.25,0.81-3.36,1.24c-4.88,1.89-9.49,3.67-14.43,0.69c-0.29-0.17-0.6-0.21-0.89-0.1c-0.25,0.1-0.45,0.29-0.58,0.54
		l-0.29-0.15l0.22,0.27l-0.69,0.86c-1.56,1.96-2.9,3.66-5.11,4.94c-2.88,1.66-5.42,2.42-8.24,2.44c-0.24,0-0.48,0.12-0.64,0.3
		c-0.16,0.18-0.23,0.4-0.19,0.74l0.1,0.37l0.05,0.03c1.65,6.41,4.09,12.78,6.44,18.94c0.87,2.27,1.73,4.53,2.55,6.79
		c3.33,9.14,6.68,18.14,9.23,24.95l0.27,0.73c1.52,4.06,3.03,8.13,4.58,12.18c-10.5-0.55-20.88-0.83-30.93-0.83
		c-1.36,0-2.71,0.01-4.06,0.02c-1.91,0.01-3.87,0-5.76,0.01c-4.95-0.01-10.07,0-15.11,0.25c-0.41-0.11-0.9-0.27-1.28-0.53
		c-0.73-0.51-0.93-1.26-1.11-2.17c0.02-3.56,0.21-7.19,0.4-10.7c0.16-2.96,0.32-6.03,0.38-9.04c0.12-6.01,0.02-12.1-0.07-18
		c-0.03-2.1-0.06-4.2-0.09-6.29c-0.08-7.41-0.08-15.36,0.53-23.27c0.06-0.73,0.11-1.59,0.16-2.53c0.33-5.78,0.88-15.42,4.93-19.44
		c4.01-1.68,8.61-1.79,13.1-1.9C59.8,44.65,65.23,44.56,70.66,44.48z M172.29,131.84c-1.91,0.27-3.41,1.19-4.42,2.68
		c2.47-17.9,4.47-35.75,5.96-53.16c0.42-4.9,0.81-9.86,1.16-14.76c0.06-0.8,0.13-1.62,0.2-2.45c0.3-3.42,0.61-6.96-0.01-10.29
		c-0.29-1.58-0.86-2.99-1.7-4.21c1.81-2.83,3.62-5.42,5.4-7.7c2.75,3.27,3.06,7.84,2.99,11.92c-0.1,5.85-0.49,11.81-0.86,17.57
		c-0.18,2.79-0.36,5.57-0.51,8.35c-0.16,2.92-0.3,5.85-0.45,8.78c-0.71,14.29-1.45,29.07-3.57,43.41
		C174.79,131.74,173.02,131.74,172.29,131.84z M47.93,141.45c3.7-0.14,7.52-0.3,11.25-0.32c11.41-0.07,23.23,0.22,35.19,0.87
		l0.07,0.18c1.1,2.85,2.23,5.79,3.42,8.67c0.36,0.88,0.72,1.91,1.1,3.01c0.24,0.69,0.49,1.42,0.76,2.16
		c-0.31-0.44-0.67-0.86-1.07-1.26c-0.27-0.27-0.57-0.52-0.92-0.79c0.01-0.04,0.01-0.09,0.02-0.13c0.17-2.26-0.46-4.15-1.87-5.6
		c-2.08-2.14-5.98-3.25-10.48-3.06c-2.58,0.12-5.15,0.28-7.72,0.44c-7.58,0.47-15.41,0.94-23.16,0.53
		c-3.07-0.16-6.25-0.66-9.32-1.14c-5.79-0.91-11.78-1.85-17.62-0.7c-0.26,0.05-0.53,0.11-0.79,0.18c0.11-0.99,0.04-2.01-0.08-2.83
		c0.13-0.05,0.27-0.1,0.41-0.15C34,142,41.08,141.72,47.93,141.45z M24.93,145.04c-2.72,0.97-5.46,2.66-6.8,5.16
		c-1.03,1.91-1.08,4.01-0.17,6.23c0.09,0.22,0.23,0.41,0.39,0.55c-1.32,2.06-1.78,4.34-1.31,6.56c-0.58-0.05-1.16-0.09-1.72-0.12
		l-0.96-0.06c-0.79-0.06-1.54-0.08-2.23-0.08c-0.62,0-1.2,0.02-1.73,0.07c-0.47-0.06-0.94-0.07-1.49-0.02l-0.37,0.03
		c-1.09,0.11-1.36,0.04-1.48-0.4c-0.12-0.44,0.01-1.01,0.43-1.84c1.46-1.78,3.12-3.47,4.72-5.11c1.01-1.03,1.98-2.03,2.86-3
		c0.75-0.83,1.56-1.83,2.41-2.88c2.05-2.52,4.33-5.35,6.87-7.16C24.38,143.73,24.58,144.44,24.93,145.04z M172.12,147.3
		c-0.72,1.34-1.48,2.71-2.27,4.09c-1.98,3.51-4.02,7.12-5.42,10.82c-1.28-5.83-0.41-11.7,2.6-17.49c0.98,0.73,2.28,1.14,3.25,1.44
		c0.59,0.18,1.38,0.43,2.18,0.49L172.12,147.3z M170.56,143.83l0.48,0.12c0.21,0.05,0.42,0.11,0.64,0.16
		c-0.34-0.05-0.67-0.11-0.97-0.21c-0.19-0.06-0.36-0.12-0.53-0.18C170.31,143.77,170.43,143.8,170.56,143.83z M169.04,140.71
		c-0.03-1.62,0.17-2.94,0.61-3.94c0.49,0.19,1.02,0.3,1.44,0.39c1.32,0.27,2.59,0.15,3.67,0c0.41-0.06,0.68-0.41,0.66-0.82
		c-0.03-0.44-0.37-0.78-0.79-0.8c-0.97-0.03-2.04-0.19-3.27-0.48c-0.08-0.02-0.16-0.04-0.24-0.06c0.43-0.28,0.92-0.47,1.49-0.57
		c1.46-0.27,4.66-0.31,6.32,0.44c-0.61,0.89-1.21,1.81-1.46,2.72c-0.9,1.51-1.75,3-2.52,4.44c-0.58-0.15-1.17-0.18-1.76-0.21
		c-0.34-0.02-0.68-0.03-1.01-0.07c-1.24-0.17-2.24-0.56-3.13-0.99C169.04,140.74,169.04,140.73,169.04,140.71z M61.48,37.31
		c3-0.02,6.11-0.03,9.1,0.02l34.46,0.63c5.56,0.1,11.13,0.27,16.7,0.43c16.25,0.48,33.05,0.97,49.35-0.16c2,0.3,4.08,0.77,5.91,2.03
		c-0.2,0.22-0.39,0.47-0.58,0.74c-0.51,0.53-0.95,1.14-1.38,1.73c-0.29,0.4-0.56,0.78-0.83,1.09c-0.96,1.11-1.96,2.29-2.91,3.52
		c-2.01-1.54-4.76-2.5-8.34-2.93c-2.92-0.55-5.95-0.7-8.99-0.7c-2,0-4.01,0.07-5.98,0.13c-2.99,0.1-5.81,0.19-8.56,0.07
		c-5.44-0.24-10.96-0.63-16.29-1.01c-6.79-0.48-13.81-0.98-20.74-1.17c-13.13-0.37-26.15-0.18-36.04,0.03
		c-1.65,0.03-3.37,0.01-5.13-0.02c-5.39-0.07-10.95-0.16-15.97,1.37c-2.53-0.44-4.61,0.2-6.19,1.92c-0.15-0.19-0.31-0.4-0.47-0.6
		c-0.77-1.08-1.51-2.06-2.28-3c-0.25-0.31-0.5-0.63-0.75-0.95l-0.34-0.43c-0.31-0.5-0.47-0.86-0.55-1.11
		c0.48-0.37,0.92-0.66,1.38-0.92h0c1.19-0.67,2.57-1.15,4.23-1.48C47.22,37.38,54.47,37.34,61.48,37.31z M36.88,183.76
		c-0.02,0.5-0.05,1.01-0.08,1.51c-0.02,0.25-0.02,0.52-0.03,0.81c-0.02,1.44-0.11,2.49-0.96,2.95c-0.45,0.24-1.61,0.16-2.39,0.1
		c-0.37-0.03-0.69-0.05-0.96-0.05c-0.25,0-0.52,0.01-0.81,0.02c-0.9,0.03-1.93,0.06-2.59-0.19c-1.1-0.43-1.16-1.8-1.12-3.42
		c0.01-0.21,0.01-0.41,0.01-0.59l0.01-1.21c0.01-1.5,0.02-3.05-0.21-4.58c0.76,0.01,1.5,0.06,2.18,0.11l0.75,0.05
		c0.53,0.03,1.11,0.05,1.71,0.07c1.57,0.06,3.32,0.12,4.87,0.37C37.01,181.04,36.94,182.42,36.88,183.76z M21.71,181.04
		c0.99-1.33,2.7-1.79,4.49-1.91c-0.28,1.43-0.33,2.88-0.39,4.29l-0.02,0.59c-0.01,0.38-0.05,0.78-0.09,1.19
		c-0.11,1.16-0.23,2.48,0.1,3.61c0.8,2.74,3.71,2.84,5.83,2.91l0.46,0.02c0.22,0.01,0.46,0.02,0.72,0.04
		c1.98,0.12,4.99,0.32,6.12-1.82c0.65-1.23,0.61-2.84,0.57-4.25c-0.01-0.45-0.02-0.88-0.01-1.28l0.04-1.05
		c0.05-1.01,0.09-2.06,0.05-3.09c3.03,1.26,3.49,4.36,3.54,7.53c0.01,0.45,0.02,0.94,0.05,1.45c0.08,2.05,0.17,4.57-0.45,6.43
		c-2.73,0.68-5.31,0.96-8.09,0.87c-0.57-0.02-1.18-0.03-1.82-0.04c-2.86-0.05-6.11-0.1-8.53-1.06l-1.41-0.27
		c-0.74-1-1.1-2.07-1.09-3.33c-0.13-0.87-0.13-1.8-0.14-2.71c0-0.45,0-0.9-0.02-1.34c-0.02-0.48-0.05-1-0.09-1.55
		C21.43,184.56,21.3,182.64,21.71,181.04z M168.96,177.64c-0.04,1.41,0.03,2.84,0.09,4.24c0.04,0.94,0.09,1.89,0.1,2.82
		c0,0.32,0.05,0.75,0.1,1.22c0.09,0.88,0.23,2.2,0.01,2.68c-0.51,1.11-1.71,1.08-3.36,0.92c-0.25-0.02-0.5-0.05-0.72-0.06
		c-0.3-0.02-0.66-0.02-1.04-0.03c-1.13-0.02-2.67-0.05-3.36-0.48c-1.19-0.74-1.21-2.07-1.23-3.48c-0.01-0.35-0.01-0.69-0.04-1.01
		l-0.07-1.12c-0.11-1.82-0.22-3.7-0.71-5.51c0.8-0.04,1.58-0.06,2.28-0.07c0.58-0.01,1.1-0.02,1.55-0.04
		C164.67,177.6,166.83,177.58,168.96,177.64z M160.25,175.24c-0.71,0.08-1.39,0.16-2.02,0.23l-0.75,0.07
		c-2.71,0.25-7.23,0.67-7.48,4.14l-0.03,0.06c-0.08,0.17-0.15,0.33-0.2,0.53c-0.56,2.01-0.33,4.53-0.13,6.76
		c0.08,0.88,0.16,1.72,0.18,2.49c0.02,0.49,0.01,1.01,0.01,1.55c0,1.22-0.01,2.57,0.21,3.83c-11.79-0.25-23.69-0.34-35.53-0.34
		c-11.64,0-23.24,0.08-34.65,0.16c-11.08,0.07-22.53,0.15-33.8,0.16c0.26-1.54,0.15-3.3,0.06-4.75c-0.03-0.57-0.07-1.1-0.07-1.55
		c-0.01-0.38,0-0.79,0-1.2c0.02-3.3,0.04-7.4-3.33-9.11c-1.6-0.81-3.71-0.97-5.58-1.11c-0.61-0.05-1.2-0.09-1.74-0.15
		c-2.9-0.34-6.19-0.73-9.39-0.41c-1.81,0.18-4.34,0.64-5.38,2.54c-1.25,1.41-1.34,3.33-1.44,5.2c-0.02,0.33-0.03,0.67-0.06,1
		c-0.03,0.45-0.1,1.03-0.17,1.67c-0.19,1.72-0.45,4.01-0.32,6.02c-2.73,0.25-5.16,0.38-7.41,0.39c-0.32,0-0.71,0.03-1.12,0.06
		c-0.9,0.07-2.02,0.15-2.65-0.1c-2.1-0.84-2.35-2.39-2.66-4.35c-0.05-0.29-0.09-0.59-0.15-0.89l-0.25-1.36
		C3.3,180.78,2.04,174,3.44,168.35c0.27-1.09,0.71-2.19,1.33-3.33c1.28,1.53,3.78,1.3,5.52,1.13l0.61-0.05
		c0.11-0.01,0.2-0.04,0.28-0.08c10.73,0.82,21.73,0.69,32.37,0.57c3.96-0.05,7.93-0.1,11.87-0.09l12.21,0
		c11.13,0,22.64-0.01,33.97,0.06c15.86,0.1,31.81,0.06,45.31,0c7.55-0.03,15.1-0.04,22.65-0.05c2.01,0.01,4.04,0.02,6.07,0.05
		c4.67,0.06,9.5,0.13,14.08-0.19c2.07,0.33,4.69,0.51,6.62-1.06c0.04-0.03,0.08-0.06,0.11-0.1c0.13,0.55,0.23,1.09,0.3,1.61
		c0.59,4.61,0.41,9.62,0.27,13.64l-0.03,1.08c-0.15,4.98-0.35,11.79-5.84,12.3c-1.43,0.13-2.87,0.21-4.31,0.29
		c-2.42,0.14-4.91,0.28-7.35,0.67c0.44-2.23,0.32-4.75,0.24-6.65l-0.04-0.93c-0.01-0.37-0.02-0.75-0.03-1.16
		c-0.08-3.5-0.2-8.3-3.87-10.1C171.52,173.91,165.27,174.64,160.25,175.24z M192.81,163.96c-1.05-0.11-2.11-0.19-3.13-0.25
		c1.61-1.85,2.97-3.87,4.07-5.62c0.17,0.4,0.34,0.79,0.51,1.18c0.27,0.61,0.53,1.23,0.79,1.84
		C195.4,163.14,193.67,163.77,192.81,163.96z M197.28,135.72l0.37,0.15c0.34,0.14,0.69,0.27,1.04,0.41c1.4,0.53,2.85,1.08,3.17,1.98
		c0.17,0.48,0.04,1.08-0.39,1.85c-0.1,0.18-0.21,0.36-0.32,0.53c-0.01,0.02-0.03,0.04-0.04,0.06c-1.66-0.75-3.44-1.4-5.17-2.03
		c-4.45-1.62-9.05-3.29-12.05-6.89c0.42-1.51,1.15-2.87,2.22-4.11c1.48,2.31,3.47,4.17,6.07,5.68
		C193.82,134.3,195.58,135.03,197.28,135.72z M152.1,188.71c0.03-0.95,0.05-1.86,0.02-2.67c-0.01-0.33-0.06-0.78-0.12-1.28
		c-0.12-1.03-0.27-2.43-0.08-3.08c0.6-1.97,2.13-3.08,4.68-3.38c-0.16,1.58-0.05,3.15,0.05,4.68l0.03,0.43
		c0.03,0.48,0.03,1.01,0.03,1.56c0,1.58-0.01,3.37,0.69,4.72c1.27,2.44,5.26,2.5,7.9,2.54c0.32,0,0.62,0.01,0.88,0.02
		c1.95,0.06,3.66,0.04,4.7-0.98c0.73-0.7,1.07-1.81,1.06-3.48c-0.01-2.28-0.04-4.56-0.08-6.84l-0.01-0.97
		c-0.01-0.81-0.01-1.55-0.19-2.26c0.05,0,0.09,0,0.14,0.01c4.7,0.4,5.2,4.73,5.33,9.52c0.12,4.44,0.25,9.47-5.12,10.69
		c-4.97,1.13-17.61,1.85-19.43-3.06C151.98,193.24,152.04,190.84,152.1,188.71z"/>
	<path class="st0" d="M132.75,174.24c-1.43-1.11-3.57-1.63-5.49-1.34c-1.19-0.33-2.59-0.12-3.76,0.53
		c-1.06,0.27-2.19,0.78-3.28,1.28c-0.83,0.38-1.61,0.74-2.28,0.95c-7.18,2.25-15.19,2.98-23.8,2.19c-3.86-0.35-7.83-1.05-12.12-2.13
		c-1.09-0.27-2.18-0.6-3.26-0.93c-1.67-0.5-3.39-1.03-5.13-1.35c-0.37-0.28-0.86-0.41-1.41-0.38c-1.41-0.58-3.21-0.65-4.83-0.19
		c-2.28,0.65-3.33,1.9-3.62,4.3c-0.28,2.32,0.26,4.01,1.6,5.03c1.68,1.28,4.69,1.56,6.55,1.06c0.18,0.4,0.43,0.71,0.76,0.94
		c1.48,1.05,3.78,1.38,5.81,1.66c0.62,0.09,1.21,0.17,1.72,0.27c2.96,0.58,6.03,1.01,9.14,1.3c3.97,0.37,7.74,0.55,11.28,0.55
		c8.27,0,15.33-0.99,21.05-2.97c0.82-0.11,1.63-0.25,2.44-0.39l0.55-0.1c0.68-0.12,1.38-0.23,2.07-0.42
		c1.76,0.43,3.94-0.95,4.59-1.4c2.3-1.59,3.43-3.38,3.28-5.18C134.48,176.23,133.84,175.1,132.75,174.24z M128.1,180.11
		c0.28,0.2,0.62,0.33,1.01,0.37c-0.36,0.19-0.76,0.3-1.18,0.4C128.01,180.64,128.06,180.37,128.1,180.11z M131.49,178.18
		c-0.03-0.49-0.18-0.96-0.48-1.35c-0.54-0.7-1.4-0.97-2.39-0.75c-0.18,0.04-0.34,0.15-0.43,0.31l-0.02,0.05
		c-0.08,0.06-0.14,0.14-0.21,0.22c-0.05-0.27-0.1-0.54-0.17-0.83c-0.08-0.33-0.19-0.63-0.32-0.9c1.79,0.33,3.72,0.91,4.08,2.53
		C131.62,177.7,131.58,177.94,131.49,178.18z M76.45,182.94c-1.9-0.37-2.41-0.47-2.49-3.23c-0.01-0.46,0.12-0.98,0.26-1.54
		c0.12-0.49,0.25-0.99,0.29-1.48c0-0.07,0.01-0.14,0.01-0.2c2.61,1.11,5.43,1.74,8.18,2.34l0.9,0.2c5.19,1.16,10.31,1.81,15.2,1.93
		c4.82,0.11,9.69-0.35,14.47-1.37c2.74-0.58,5.48-1.39,8.37-2.47c0.27-0.1,0.54-0.21,0.78-0.32c1.38-0.59,1.94-0.83,2.95,0.96
		c0.59,1.05-0.1,2.48-0.96,3.51c-6.2,2.93-14.1,3.79-19.52,4.18c-6.27,0.45-12.79,0.19-19.36-0.76c-2.57-0.37-5.26-0.89-8-1.53
		C77.14,183.08,76.78,183.01,76.45,182.94z M71.94,177.59c-0.07-0.35-0.23-0.68-0.48-0.97c-0.39-0.46-0.92-0.73-1.51-0.77
		c-0.46-0.02-0.93,0.1-1.3,0.36c-0.38,0.02-0.77,0.17-1.08,0.44c-0.42,0.35-0.69,0.86-0.72,1.38c-0.05,0.7,0.23,1.32,0.78,1.77
		c0.49,0.39,1.16,0.61,1.81,0.61c0.26,0,0.52-0.03,0.76-0.1c0.7-0.2,1.27-0.71,1.56-1.36c-0.08,0.6-0.18,1.21-0.21,1.79
		c-0.4-0.04-0.81-0.05-1.22-0.07c-0.85-0.03-1.65-0.06-2.41-0.31c-1.31-0.42-1.67-1.26-1.37-3.2c0.29-1.87,2.14-2.31,4.84-2.37
		c0.22,0.15,0.44,0.3,0.66,0.45C72.16,175.83,72.07,176.69,71.94,177.59z"/>
	<path class="st0" d="M183.54,153.94c0.28,0,0.55-0.03,0.83-0.1c1.02-0.23,1.94-0.8,2.64-1.56c-0.3,0.46-0.35,1.02-0.07,1.48
		c0.55,0.92,1.51,2.14,3.41,2.14c0.02,0,0.05,0,0.07,0c0.34-0.01,0.65-0.16,0.86-0.43c0.21-0.27,0.28-0.62,0.2-0.96
		c-0.45-1.87-1.8-2.5-2.94-2.84l0,0c-0.46-0.13-0.94-0.01-1.3,0.31c0.17-0.22,0.33-0.43,0.46-0.67c0.59-1.09,0.68-2.3,0.27-3.42v0
		c-0.42-1.13-1.29-1.97-2.39-2.31c-0.97-0.3-1.98-0.17-2.83,0.35c-0.01,0-0.02,0-0.03,0c-0.87,0-1.71,0.31-2.33,0.86
		c-0.64,0.57-1,1.35-1.05,2.25c-0.08,1.47,0.6,3.03,1.74,3.98C181.82,153.62,182.67,153.94,183.54,153.94z M185.2,148.77
		c0.16,0.28,0.2,0.55,0.12,0.84c-0.12,0.45-0.54,0.92-1.08,1.22c-0.64,0.36-1.14,0.27-1.54-0.27c-0.47-0.63-0.58-1.59-0.34-2.25
		c0.17,0.04,0.37,0.03,0.55-0.04C183.66,147.99,184.83,148.14,185.2,148.77z"/>
	<path class="st0" d="M187.55,146.2c0.04,0,0.07,0,0.11,0c1.36-0.09,2.64-0.76,3.71-1.41c0.42-0.25,0.67-0.72,0.66-1.21
		c-0.01-0.48-0.26-0.91-0.68-1.13c-0.96-0.53-2.15-0.64-3.18-0.3c-0.89,0.29-1.58,0.9-1.95,1.71c-0.25,0.56-0.2,1.23,0.14,1.72
		C186.64,145.98,187.07,146.2,187.55,146.2z"/>
	<path class="st0" d="M176.45,155.67c-0.51,1.11-0.38,1.84-0.13,2.81c0.13,0.51,0.57,0.88,1.12,0.95c0.05,0.01,0.11,0.01,0.16,0.01
		c0.47,0,0.9-0.25,1.12-0.66l0.25-0.45c0.24-0.42,0.46-0.82,0.65-1.36c0.1-0.29,0.22-0.57,0.34-0.85c0.15-0.35,0.29-0.69,0.41-1.05
		c0.17-0.54-0.02-1.13-0.49-1.5c-0.48-0.37-1.09-0.41-1.58-0.1C177.51,153.96,176.89,154.7,176.45,155.67z"/>
	<path class="st0" d="M188.6,148.01c-0.38,0.4-0.46,1.02-0.19,1.49c0.38,0.67,1.18,1.18,2.19,1.41c0.33,0.07,0.66,0.11,0.97,0.11
		c0.7,0,1.33-0.18,1.79-0.5c0.62-0.45,0.8-1.23,0.43-1.83c-0.49-0.78-1.51-1.33-2.67-1.44C190.09,147.13,189.17,147.41,188.6,148.01
		z"/>
	<path class="st0" d="M185.48,154.43L185.48,154.43c-0.36-0.1-0.76-0.02-1.08,0.19c-0.29,0.19-0.47,0.47-0.52,0.78
		c-0.17,1.12,0.18,2.89,1.07,3.79c0.24,0.25,0.56,0.37,0.88,0.37c0.3,0,0.61-0.11,0.88-0.33c0.69-0.58,0.97-1.53,0.74-2.55
		C187.2,155.56,186.43,154.68,185.48,154.43z"/>
	<path class="st0" d="M181.67,154.76c-0.43-0.07-0.82,0.11-1.08,0.41c-0.9,1.06-1.21,2.69-0.78,4.06c0.13,0.4,0.43,0.7,0.81,0.81
		c0.11,0.03,0.23,0.05,0.35,0.05c0.3,0,0.59-0.11,0.84-0.31c1.26-1.03,1.65-2.95,0.89-4.37
		C182.51,155.06,182.11,154.81,181.67,154.76z M181.45,159.34L181.45,159.34L181.45,159.34L181.45,159.34z"/>
	<path class="st0" d="M182.2,144.76c0.27,0.22,0.63,0.33,0.98,0.33c0.27,0,0.54-0.06,0.77-0.19c0.46-0.25,0.69-0.72,0.62-1.25
		c-0.23-1.91-1.12-3.13-2.43-3.35c-0.61-0.09-1.13,0.2-1.36,0.77C180.19,142.49,181.18,143.95,182.2,144.76z"/>
</g>
</svg>
