<?xml version="1.0" encoding="utf-8"?>
<!-- Generator: Adobe Illustrator 26.0.3, SVG Export Plug-In . SVG Version: 6.00 Build 0)  -->
<svg version="1.1" id="Layer_1" xmlns="http://www.w3.org/2000/svg" xmlns:xlink="http://www.w3.org/1999/xlink" x="0px" y="0px"
	 viewBox="0 0 159.71 137.99" style="enable-background:new 0 0 159.71 137.99;" xml:space="preserve">
<style type="text/css">
	.st0{fill:#FFFFFF;}
</style>
<g>
	<g>
		<g>
			<g>
				<path class="st0" d="M35.13,123.51c6.1-26.91,12.2-53.81,18.29-80.72c1.7-7.48,3.39-14.96,5.09-22.45
					c0.29-1.28-2.66-0.88-2.92,0.28c-6.07,26.77-12.13,53.54-18.2,80.31c-1.73,7.62-3.45,15.24-5.18,22.85
					C31.92,125.07,34.87,124.67,35.13,123.51L35.13,123.51z"/>
			</g>
		</g>
		<g>
			<g>
				<path class="st0" d="M43,17.21c-0.2,14.33-1.73,28.62-4.61,42.66c-2.77,13.49-7.1,26.62-9.67,40.15
					c-1.41,7.45-2.24,15.02-1.93,22.61c0.02,0.59,2.93,0.1,2.9-0.78c-0.57-13.9,2.76-27.49,6.27-40.83
					c3.56-13.55,6.79-27.07,8.41-41.01c0.91-7.83,1.42-15.71,1.53-23.59C45.9,15.88,43.01,16.3,43,17.21L43,17.21z"/>
			</g>
		</g>
		<g>
			<g>
				<path class="st0" d="M108.85,32.01c0.14,13.79-1.13,27.58-3.89,41.1c-2.67,13.07-6.54,25.85-9.14,38.93
					c-1.46,7.34-2.48,14.78-2.67,22.27c-0.03,1.34,2.89,0.8,2.91-0.3c0.34-13.32,3.36-26.34,6.58-39.21
					c3.28-13.13,6.54-26.22,8-39.71c0.84-7.76,1.2-15.57,1.12-23.38C111.75,30.36,108.84,30.91,108.85,32.01L108.85,32.01z"/>
			</g>
		</g>
		<g>
			<g>
				<path class="st0" d="M103.05,135.3c-0.72-6.68,0.49-13.29,2.26-19.72c1.77-6.43,3.94-12.75,5.74-19.17
					c3.64-12.95,6.52-26.11,8.62-39.39c1.16-7.33,2.07-14.69,2.77-22.07c0.05-0.5-2.81-0.16-2.9,0.78
					c-1.27,13.5-3.32,26.92-6.17,40.18c-1.41,6.57-3.01,13.11-4.8,19.59c-1.78,6.44-3.9,12.77-5.74,19.19
					c-1.99,6.95-3.46,14.14-2.67,21.39C100.22,136.74,103.14,136.16,103.05,135.3L103.05,135.3z"/>
			</g>
		</g>
		<g>
			<g>
				<path class="st0" d="M13.39,29.07c3.82-0.87,7.46-2.65,10.46-5.17c1.51-1.27,2.9-2.69,4.05-4.3c1.1-1.54,2.04-3.61,1.18-5.47
					c-0.29-0.64-1.08-0.69-1.69-0.53c-0.43,0.11-1.49,0.67-1.2,1.3c0.74,1.61-0.14,3.28-1.14,4.57c-1.01,1.3-2.16,2.5-3.43,3.53
					c-2.56,2.06-5.51,3.51-8.71,4.24c-0.54,0.12-1.37,0.64-1.2,1.3C11.86,29.23,12.88,29.18,13.39,29.07L13.39,29.07z"/>
			</g>
		</g>
		<g>
			<g>
				<path class="st0" d="M131.71,35.05c-1.99,3.68-1.63,8.13,0.08,11.84c1.77,3.85,4.79,6.95,7.78,9.88
					c0.52,0.51,3.14-0.58,2.73-0.97c-5.42-5.31-12.08-13.29-7.75-21.28c0.24-0.44-1.02-0.26-1.15-0.24
					C132.93,34.37,131.98,34.56,131.71,35.05L131.71,35.05z"/>
			</g>
		</g>
		<g>
			<g>
				<path class="st0" d="M114.24,135.53c0.33-2.69,1.72-5.3,3.98-6.85c2.36-1.62,5.39-1.8,8.01-0.7c0.65,0.27,1.47,0.13,2.06-0.25
					c0.37-0.24,0.9-0.92,0.24-1.2c-7.16-3-16.2,1.37-17.19,9.35C111.19,137.08,114.11,136.57,114.24,135.53L114.24,135.53z"/>
			</g>
		</g>
		<g>
			<g>
				<path class="st0" d="M2.42,101.99c3.55,0.17,5.62,3.73,6.4,6.8c0.45,1.79,0.64,3.64,0.87,5.47c0.26,2.09,0.52,4.17,0.79,6.26
					c0.08,0.63,3,0.04,2.9-0.78c-0.28-2.21-0.56-4.42-0.83-6.63c-0.26-2.03-0.47-4.08-1.09-6.04c-1.04-3.28-3.54-6.15-7.16-6.33
					c-0.67-0.03-1.5,0.14-2.05,0.55C1.81,101.6,1.82,101.96,2.42,101.99L2.42,101.99z"/>
			</g>
		</g>
		<g>
			<g>
				<path class="st0" d="M19.53,16.94c14.92-0.74,29.51,2.88,43.86,6.52c7.15,1.82,14.3,3.65,21.56,5.01
					c7.39,1.39,14.85,2.36,22.28,3.46c7.42,1.1,14.83,2.34,22.09,4.26c2.84,0.75,6,1.59,7.96,3.94c2.19,2.62,2.14,6.72,2.29,9.94
					c0.74,15.48-2.78,30.91-5.46,46.06c-1.33,7.5-2.57,15.01-4,22.49c-1.16,6.11-3.1,13.19-8.9,16.52
					c-3.18,1.83-6.86,1.2-10.33,0.82c-3.7-0.4-7.4-0.8-11.09-1.24c-7.54-0.89-15.08-1.92-22.55-3.33
					c-14.79-2.79-29.04-8.2-44.03-9.88c-3.79-0.42-7.59-0.66-11.4-0.68c-3.33-0.02-6.76,0.43-10.07-0.02
					c-3.11-0.42-5.56-2.02-6.8-4.95c-1.33-3.15-1.66-6.83-1.89-10.21C2.01,90.5,6.57,75.61,8.49,60.69
					c0.97-7.56,1.46-15.16,1.55-22.78c0.08-6.5,0.11-14.01,4.94-19.01c1.96-2.03,4.41-3.35,7.29-3.08c1.1,0.11,3.08-1.43,1.13-1.62
					c-6.18-0.59-11.72,3.81-14.12,9.24c-1.49,3.38-1.9,7.13-2.04,10.79c-0.15,3.75-0.11,7.5-0.28,11.25
					c-0.37,8.12-1.29,16.2-2.67,24.21C2.95,77.44,1.31,85.14,0.5,92.97c-0.4,3.85-0.59,7.72-0.45,11.59
					c0.14,3.65,0.44,7.52,1.59,11.02c0.92,2.81,2.72,5.11,5.56,6.14c2.91,1.06,6.08,0.92,9.13,0.81c7.94-0.26,15.88,0.35,23.68,1.88
					c7.83,1.54,15.46,3.88,23.19,5.85c15.52,3.95,31.46,5.73,47.35,7.43c3.43,0.37,6.85,0.61,10.16-0.61c2.84-1.05,5.27-3,7.13-5.38
					c4.39-5.61,5.14-13.16,6.34-19.94c1.43-8.08,2.86-16.16,4.3-24.24c1.4-7.91,2.86-15.83,3.6-23.84
					c0.37-3.97,0.56-7.96,0.48-11.94c-0.06-3.5,0.08-7.69-1.44-10.93c-1.28-2.73-3.89-4.24-6.64-5.18
					c-3.51-1.2-7.19-1.98-10.82-2.73c-15.45-3.2-31.21-4.43-46.59-8.04c-14.98-3.52-29.81-8.17-45.23-9.37
					c-3.71-0.29-7.44-0.35-11.16-0.17c-0.59,0.03-1.62,0.18-1.91,0.79C18.48,16.67,18.99,16.97,19.53,16.94L19.53,16.94z"/>
			</g>
		</g>
		<g>
			<g>
				<path class="st0" d="M141.84,40.89c4.56-2.94,9.37-5.47,14.4-7.54c0.38-0.16,1.18-0.63,0.78-1.13
					c-0.38-0.48-1.48-0.18-1.91-0.01c-5.24,2.16-10.29,4.79-15.05,7.86c-0.4,0.26-0.85,0.76-0.27,1.09
					C140.34,41.48,141.35,41.2,141.84,40.89L141.84,40.89z"/>
			</g>
		</g>
		<g>
			<g>
				<path class="st0" d="M126.65,34.21c3.8-2.82,7.6-5.63,11.4-8.45c0.49-0.36,0.3-0.84-0.25-0.94c-0.7-0.13-1.49,0.14-2.05,0.55
					c-3.8,2.82-7.6,5.63-11.4,8.45c-0.49,0.36-0.3,0.84,0.25,0.94C125.3,34.89,126.09,34.63,126.65,34.21L126.65,34.21z"/>
			</g>
		</g>
		<g>
			<g>
				<path class="st0" d="M113.94,32.48c4.05-3.52,8.4-6.68,12.99-9.46c0.44-0.27,0.81-0.85,0.24-1.19
					c-0.59-0.34-1.53-0.07-2.06,0.26c-4.77,2.89-9.29,6.2-13.51,9.86c-0.47,0.41-0.28,0.95,0.29,1.09
					C112.58,33.2,113.42,32.94,113.94,32.48L113.94,32.48z"/>
			</g>
		</g>
		<g>
			<g>
				<path class="st0" d="M58.14,20.13c4.32-3.68,8.65-7.36,12.97-11.04c0.48-0.41,0.73-1.13,0.14-1.57
					c-0.57-0.43-1.56-0.29-2.08,0.16c-4.32,3.68-8.65,7.36-12.97,11.04c-0.48,0.41-0.73,1.13-0.14,1.57
					C56.63,20.71,57.62,20.58,58.14,20.13L58.14,20.13z"/>
			</g>
		</g>
		<g>
			<g>
				<path class="st0" d="M45.93,17.61c4.64-3.03,9.66-5.43,14.3-8.46c0.44-0.29,0.81-0.88,0.23-1.23c-0.58-0.35-1.54-0.1-2.06,0.24
					c-4.64,3.03-9.66,5.43-14.3,8.46c-0.44,0.29-0.81,0.88-0.23,1.23C44.45,18.2,45.41,17.95,45.93,17.61L45.93,17.61z"/>
			</g>
		</g>
		<g>
			<g>
				<path class="st0" d="M134.72,35.92c0.03-0.54,0.07-1.08,0.1-1.62c-0.66,0.37-1.32,0.74-1.98,1.11
					c3.79,0.42,7.51,1.26,11.12,2.49c0.66,0.23,1.58-0.04,2.05-0.55c0.45-0.49,0.28-1.06-0.34-1.27c-3.82-1.3-7.77-2.17-11.78-2.62
					c-0.61-0.07-1.93,0.3-1.98,1.11c-0.03,0.54-0.07,1.08-0.1,1.62C131.71,37.58,134.64,37.1,134.72,35.92L134.72,35.92z"/>
			</g>
		</g>
		<g>
			<g>
				<path class="st0" d="M144.93,38.52c-0.2,6-1.19,11.94-2.93,17.68c-0.19,0.63,2.63,0.27,2.86-0.49
					c1.77-5.83,2.76-11.87,2.96-17.97C147.84,37.26,144.96,37.64,144.93,38.52L144.93,38.52z"/>
			</g>
		</g>
		<g>
			<g>
				<path class="st0" d="M107.47,18.53c9.96,2.05,19.91,4.1,29.87,6.14c4.05,0.83,8.28,1.39,12.13,2.95
					c2.99,1.22,5.8,3.22,6.11,6.68c0.12,1.35,3.02,0.65,2.9-0.78c-0.51-5.76-7.03-8.14-11.84-9.27c-7.97-1.88-16.07-3.33-24.09-4.98
					c-4.69-0.97-9.39-1.93-14.08-2.9C107.01,16.09,105.55,18.14,107.47,18.53L107.47,18.53z"/>
			</g>
		</g>
		<g>
			<g>
				<path class="st0" d="M77.25,11.86c7.39,1.55,14.79,3.02,22.18,4.57c0.66,0.14,1.56-0.08,2.05-0.55
					c0.43-0.42,0.35-0.89-0.27-1.02c-7.39-1.55-14.79-3.02-22.18-4.57c-0.66-0.14-1.56,0.08-2.05,0.55
					C76.54,11.26,76.63,11.74,77.25,11.86L77.25,11.86z"/>
			</g>
		</g>
		<g>
			<g>
				<path class="st0" d="M18.04,16.23c8.39-3.6,16.94-7.3,26.05-8.54C48.74,7.06,53.38,7.25,58,7.95c2.39,0.36,4.77,0.83,7.13,1.32
					c0.92,0.19,1.91,0.51,2.86,0.47c0.46-0.02,0.92-0.12,1.35-0.28c0.17-0.07,0.34-0.14,0.5-0.23c0.34-0.18,0.2-0.13-0.44,0.14
					c0.65,0.1,1.56-0.09,2.05-0.55c0.41-0.39,0.39-0.81-0.24-0.91c-0.86-0.13-1.68-0.07-2.49,0.27c-0.17,0.07-0.33,0.15-0.48,0.24
					c0.75-0.16,0.79-0.27,0.12-0.32c-0.51-0.25-1.33-0.28-1.89-0.39c-2.53-0.52-5.06-1.01-7.62-1.36c-4.76-0.66-9.55-0.75-14.32-0.1
					c-9.65,1.31-18.71,5.14-27.59,8.95c-0.4,0.17-1.13,0.54-0.8,1.06C16.44,16.73,17.7,16.38,18.04,16.23L18.04,16.23z"/>
			</g>
		</g>
		<g>
			<g>
				<path class="st0" d="M155.75,34.17c2.88,17.16-0.52,34.77-3.5,51.68c-1.37,7.81-2.9,15.58-4.32,23.38
					c-0.74,4.05-1.44,8.1-2.11,12.16c-0.29,1.76-0.62,3.61-1.6,5.14c-1.06,1.64-2.8,2.46-4.53,3.23c-3.46,1.53-7.02,2.85-10.63,3.97
					c-3.61,1.12-7.33,2.09-11.11,2.35c-0.5,0.03-1.65,0.21-1.94,0.69c-0.29,0.49,0.26,0.48,0.68,0.45
					c7.17-0.49,14.31-2.92,20.95-5.55c2.99-1.19,6.7-2.33,8.85-4.86c1.23-1.45,1.71-3.3,2.04-5.13c0.39-2.15,0.72-4.3,1.09-6.45
					c2.95-17,6.6-33.89,8.83-51.01c1.33-10.22,1.91-20.61,0.2-30.82C158.55,32.83,155.63,33.46,155.75,34.17L155.75,34.17z"/>
			</g>
		</g>
		<g>
			<g>
				<path class="st0" d="M149.76,27.26c0.03,0.15-0.35,0.4-0.43,0.43c-0.26,0.07-0.51,0.14-0.77,0.21c-0.09,0-0.18,0-0.27-0.01
					c-0.2-0.07-0.41-0.14-0.61-0.21c0.01,0.01,0.02,0.02,0.03,0.02c-0.11-0.15-0.22-0.29-0.33-0.44c0.09-0.38,0.09-0.47,0-0.26
					c-0.06,0.1-0.12,0.21-0.18,0.31c-0.1,0.19-0.19,0.38-0.27,0.57c-0.18,0.42-0.32,0.85-0.43,1.29c-0.23,0.84-0.31,1.72-0.26,2.59
					c0.09,1.75,0.63,3.45,1.7,4.86c2.22,2.93,6.1,4.03,9.62,3.31c0.57-0.12,1.37-0.7,1.19-1.36c-0.19-0.72-1.15-0.7-1.71-0.59
					c-0.25,0.05-0.74,0.11-1.15,0.1c-0.29,0-0.81-0.06-1.18-0.14c-0.8-0.17-1.58-0.49-2.28-0.93c-1.54-0.97-2.61-2.47-3.04-4.24
					c-0.44-1.8-0.2-3.68,0.68-5.31c0.21-0.39,0.4-0.83,0.1-1.24c-0.38-0.51-1.17-0.51-1.72-0.36c-0.97,0.26-1.77,1.11-1.57,2.16
					C147.12,29.35,150.02,28.61,149.76,27.26L149.76,27.26z"/>
			</g>
		</g>
		<g>
			<g>
				<path class="st0" d="M72.34,17.32c-1.65-0.57-1.41-3.08-1.19-4.41c0.27-1.66,0.77-3.29,1.46-4.83C73.86,5.3,76.14,2,79.33,1.29
					c2.22-0.5,4.67,0.24,6.83,0.71c2.28,0.5,4.57,1,6.85,1.49c4.03,0.88,8.54,1.46,10.83,5.34c2.01,3.42,2.33,7.8,2.47,11.67
					c0.07,2,0.37,4.58-0.58,6.41c0.03-0.06-0.13,0.4-0.01,0.32c-0.08,0.05-0.82-0.28-0.75-0.24c-0.29-0.14-0.58-0.34-0.81-0.56
					c-0.82-0.76-1.19-1.89-1.38-2.96c-0.61-3.48,0.21-7.42-2.11-10.43c-2.31-3.01-6.91-3.05-10.33-3.59
					C86.17,8.8,81.7,7.77,77.67,9.61c-3.79,1.73-4.67,5.59-4.88,9.41c0.88-0.32,1.76-0.64,2.64-0.96c-1.43-0.32-2.86-0.48-4.33-0.47
					c-0.65,0-1.53,0.12-2.05,0.55c-0.36,0.3-0.47,0.66,0.18,0.66c1.3-0.01,2.56,0.12,3.82,0.41c0.59,0.13,2.59-0.14,2.64-0.96
					c0.11-1.96,0.34-3.99,1.25-5.77c1.09-2.14,2.8-2.81,5.11-2.68c2.3,0.12,4.6,0.6,6.87,0.96c2.17,0.34,4.57,0.48,6.59,1.39
					c4.13,1.84,3.97,6.66,4.2,10.49c0.11,1.84,0.46,3.99,2.11,5.11c1.45,0.98,3.36,0.88,4.91,0.21c1.72-0.73,2.3-2.16,2.43-3.94
					c0.19-2.55,0.06-5.15-0.2-7.69c-0.4-3.81-1.19-8.15-4.31-10.73c-1.67-1.37-3.81-2-5.88-2.48C96.39,2.55,94,2.05,91.61,1.53
					c-4.47-0.97-9.03-2.38-13.55-0.88c-3.72,1.24-6.51,4.11-8.17,7.61c-1.11,2.35-3.63,8.91,0.07,10.2c0.59,0.21,1.49-0.1,2.03-0.36
					C72.28,17.95,72.94,17.53,72.34,17.32L72.34,17.32z"/>
			</g>
		</g>
		<g>
			<g>
				<path class="st0" d="M112.68,40.19c0.83-0.73,1.69-1.41,2.59-2.05c0.44-0.31,0.89-0.62,1.35-0.91c0.06-0.04,0.11-0.07,0.17-0.11
					c0.16-0.1,0.01,0-0.07,0.04c0.11-0.06,0.22-0.14,0.34-0.2c0.25-0.15,0.51-0.3,0.77-0.44c0.3-0.17,0.6-0.38,0.74-0.71
					c0.11-0.26,0.12-0.61-0.07-0.84c-0.45-0.55-1.39-0.58-1.98-0.25c-2.06,1.16-4,2.51-5.78,4.06c-0.24,0.21-0.47,0.47-0.5,0.8
					c-0.03,0.29,0.12,0.6,0.36,0.76C111.19,40.74,112.15,40.66,112.68,40.19L112.68,40.19z"/>
			</g>
		</g>
		<g>
			<g>
				<path class="st0" d="M112.82,46.07c1.76-1.36,3.52-2.73,5.28-4.09c0.47-0.36,0.76-1.12,0.15-1.51
					c-0.61-0.39-1.52-0.26-2.08,0.17c-1.76,1.36-3.52,2.73-5.28,4.09c-0.47,0.36-0.76,1.12-0.15,1.51
					C111.36,46.63,112.26,46.5,112.82,46.07L112.82,46.07z"/>
			</g>
		</g>
		<g>
			<g>
				<path class="st0" d="M112.45,54.39c2.11-1.54,4.22-3.07,6.33-4.61c0.15-0.11,0.36-0.34,0.31-0.55c-0.06-0.21-0.36-0.3-0.54-0.32
					c-0.7-0.09-1.48,0.14-2.05,0.55c-2.11,1.54-4.22,3.07-6.33,4.61c-0.15,0.11-0.36,0.34-0.31,0.55c0.06,0.21,0.36,0.3,0.54,0.32
					C111.1,55.02,111.88,54.8,112.45,54.39L112.45,54.39z"/>
			</g>
		</g>
		<g>
			<g>
				<path class="st0" d="M109.88,62.7c2.57-1.62,5.14-3.25,7.71-4.87c0.08-0.05,0.39-0.23,0.35-0.4c-0.04-0.16-0.4-0.17-0.5-0.17
					c-0.67,0-1.48,0.19-2.05,0.55c-2.57,1.62-5.14,3.25-7.71,4.87c-0.08,0.05-0.39,0.23-0.35,0.4c0.04,0.16,0.4,0.17,0.5,0.17
					C108.5,63.25,109.32,63.06,109.88,62.7L109.88,62.7z"/>
			</g>
		</g>
		<g>
			<g>
				<path class="st0" d="M108.03,70.23c2.42-1.41,4.84-2.83,7.27-4.24c0.34-0.2,0.91-0.72,0.3-0.97c-0.59-0.24-1.52,0.01-2.04,0.31
					c-2.42,1.41-4.84,2.83-7.27,4.24c-0.34,0.2-0.91,0.72-0.3,0.97C106.58,70.78,107.51,70.53,108.03,70.23L108.03,70.23z"/>
			</g>
		</g>
		<g>
			<g>
				<path class="st0" d="M106.61,77.87c2.84-1.64,5.6-3.43,8.25-5.37c0.42-0.31,0.82-0.92,0.21-1.28c-0.58-0.34-1.55-0.14-2.06,0.23
					c-2.65,1.94-5.4,3.73-8.25,5.37c-0.47,0.27-0.79,0.94-0.21,1.28C105.17,78.47,106.04,78.2,106.61,77.87L106.61,77.87z"/>
			</g>
		</g>
		<g>
			<g>
				<path class="st0" d="M106.89,86.06c0.27-0.38,0.56-0.73,0.89-1.06c0.08-0.08,0.16-0.15,0.24-0.23c0.12-0.11-0.24,0.2-0.06,0.06
					c0.05-0.04,0.09-0.08,0.14-0.12c0.18-0.15,0.36-0.29,0.55-0.42c0.18-0.13,0.36-0.24,0.55-0.36c-0.41,0.26-0.04,0.03,0.06-0.03
					c0.1-0.05,0.19-0.1,0.29-0.15c0.21-0.1,0.42-0.19,0.64-0.28c0.23-0.09-0.31,0.11-0.14,0.05c0.06-0.02,0.11-0.04,0.17-0.06
					c0.12-0.04,0.23-0.07,0.35-0.11c0.34-0.1,0.71-0.28,0.95-0.55c0.17-0.19,0.33-0.52,0.24-0.79c-0.23-0.67-1.13-0.73-1.7-0.57
					c-2.2,0.62-4.24,1.94-5.57,3.81c-0.17,0.24-0.33,0.48-0.24,0.79c0.07,0.27,0.35,0.48,0.61,0.56c0.35,0.11,0.75,0.11,1.1,0.01
					C106.28,86.51,106.68,86.35,106.89,86.06L106.89,86.06z"/>
			</g>
		</g>
		<g>
			<g>
				<path class="st0" d="M103.52,93.75c2.26-0.87,4.52-1.73,6.79-2.6c0.2-0.08,1.25-0.47,0.86-0.82c-0.16-0.15-0.56-0.11-0.74-0.09
					c-0.38,0.04-0.77,0.12-1.13,0.25c-2.26,0.87-4.52,1.73-6.79,2.6c-0.2,0.08-1.25,0.47-0.86,0.82c0.16,0.15,0.56,0.11,0.74,0.09
					C102.77,93.96,103.16,93.88,103.52,93.75L103.52,93.75z"/>
			</g>
		</g>
		<g>
			<g>
				<path class="st0" d="M103.19,103.21c0.09-0.1,0.19-0.2,0.29-0.3c0.05-0.05,0.1-0.1,0.15-0.14c0.24-0.23-0.07,0.06,0.07-0.06
					c0.2-0.18,0.41-0.36,0.63-0.53c0.23-0.18,0.47-0.35,0.71-0.51c0.1-0.07,0.09-0.05-0.01,0c0.06-0.04,0.12-0.07,0.18-0.11
					c0.13-0.08,0.27-0.16,0.4-0.23c0.12-0.07,0.24-0.13,0.36-0.19c0.06-0.03,0.12-0.06,0.18-0.09c0.18-0.09-0.23,0.1-0.05,0.02
					c0.27-0.12,0.54-0.23,0.81-0.33c0.06-0.02,0.14-0.04,0.19-0.07c-0.07,0.04-0.28,0.09-0.09,0.03c0.13-0.04,0.26-0.08,0.4-0.12
					c0.15-0.04,0.3-0.08,0.45-0.11c0.04-0.01,0.28-0.06,0.06-0.01c-0.25,0.06,0.08-0.01,0.11-0.02c0.38-0.07,0.76-0.17,1.1-0.36
					c0.19-0.1,0.5-0.3,0.57-0.54c0.16-0.58-0.94-0.51-1.21-0.46c-3.02,0.55-5.85,1.95-7.96,4.21c-0.46,0.49,0.4,0.69,0.74,0.68
					C101.93,103.93,102.72,103.72,103.19,103.21L103.19,103.21z"/>
			</g>
		</g>
		<g>
			<g>
				<path class="st0" d="M101.09,112.91c1.55-1.06,3.11-2.12,4.66-3.18c0.1-0.07,0.39-0.25,0.34-0.42
					c-0.05-0.17-0.39-0.19-0.51-0.19c-0.35-0.01-0.72,0.05-1.06,0.15c-0.34,0.1-0.7,0.2-0.99,0.4c-1.55,1.06-3.11,2.12-4.66,3.18
					c-0.1,0.07-0.39,0.25-0.34,0.42c0.05,0.17,0.39,0.19,0.51,0.19c0.35,0.01,0.72-0.05,1.06-0.15
					C100.44,113.22,100.8,113.11,101.09,112.91L101.09,112.91z"/>
			</g>
		</g>
		<g>
			<g>
				<path class="st0" d="M99.14,121.03c-0.24,0.19-0.01,0.01,0.04-0.03c0.07-0.05,0.13-0.1,0.2-0.14c0.12-0.08,0.24-0.16,0.36-0.24
					c0.08-0.05,0.35-0.17-0.01,0c0.07-0.04,0.15-0.08,0.22-0.12c0.13-0.07,0.26-0.12,0.39-0.19c-0.46,0.23-0.01,0.01,0.13-0.04
					c0.08-0.03,0.16-0.05,0.23-0.08c-0.28,0.09-0.35,0.11-0.2,0.07c0.04-0.01,0.08-0.02,0.12-0.03c0.14-0.04,0.68-0.14,0.09-0.03
					c0.16-0.03,0.32-0.06,0.49-0.09c0.37-0.05,0.77-0.18,1.1-0.35c0.17-0.08,0.51-0.26,0.59-0.47c0.19-0.52-1-0.36-1.17-0.33
					c-1.9,0.28-3.72,1.05-5.22,2.26c-0.14,0.11-0.18,0.3-0.04,0.42c0.16,0.14,0.56,0.13,0.74,0.12
					C97.9,121.68,98.6,121.47,99.14,121.03L99.14,121.03z"/>
			</g>
		</g>
		<g>
			<g>
				<path class="st0" d="M97.7,128.93c1.01-0.57,2.03-1.15,3.04-1.72c0.21-0.12,0.49-0.4,0.54-0.66c0.04-0.24-0.1-0.47-0.31-0.58
					c-0.65-0.33-1.47-0.09-2.06,0.24c-1.01,0.57-2.03,1.15-3.04,1.72c-0.21,0.12-0.49,0.4-0.54,0.66c-0.04,0.24,0.1,0.47,0.31,0.58
					C96.29,129.5,97.11,129.27,97.7,128.93L97.7,128.93z"/>
			</g>
		</g>
		<g>
			<g>
				<path class="st0" d="M98.09,135.65c0.12-0.12,0.23-0.24,0.36-0.35c0.03-0.03,0.23-0.2,0.1-0.09c-0.13,0.12,0.02-0.01,0.04-0.03
					c0.03-0.02,0.06-0.05,0.09-0.07c0.13-0.1,0.27-0.2,0.41-0.3c0.07-0.04,0.13-0.09,0.2-0.13c0.04-0.02,0.17-0.1-0.01,0
					c-0.2,0.12-0.02,0.01,0.02-0.01c0.14-0.08,0.28-0.15,0.42-0.22c0.06-0.03,0.36-0.16,0.1-0.05c-0.25,0.11,0.02,0,0.08-0.03
					c0.08-0.03,0.17-0.06,0.25-0.09c0.04-0.01,0.08-0.02,0.11-0.04c0,0-0.4,0.12-0.21,0.07c0.17-0.05,0.34-0.1,0.52-0.14
					c0.32-0.07,0.71-0.23,0.98-0.43c0.1-0.07,0.4-0.31,0.32-0.49c-0.08-0.2-0.34-0.25-0.53-0.27c-0.36-0.03-0.72,0.04-1.07,0.12
					c-1.81,0.42-3.55,1.33-4.83,2.69c-0.13,0.13-0.19,0.31-0.04,0.45c0.17,0.15,0.56,0.15,0.75,0.14c0.38-0.02,0.77-0.1,1.13-0.25
					C97.58,136.01,97.88,135.88,98.09,135.65L98.09,135.65z"/>
			</g>
		</g>
		<g>
			<g>
				<path class="st0" d="M126.05,23.83c-0.17,0-0.35,0-0.52,0c-0.19,0-0.38,0.02-0.56,0.07c-0.2,0.03-0.39,0.09-0.57,0.17
					c-0.17,0.06-0.32,0.14-0.46,0.25c-0.13,0.07-0.23,0.17-0.33,0.28c-0.04,0.06-0.07,0.13-0.11,0.19
					c-0.04,0.13-0.01,0.25,0.09,0.34c0.06,0.04,0.12,0.08,0.19,0.11c0.19,0.07,0.38,0.1,0.58,0.09c0.17,0,0.35,0,0.52,0
					c0.19,0,0.38-0.02,0.56-0.07c0.2-0.03,0.39-0.09,0.57-0.17c0.17-0.06,0.32-0.14,0.46-0.25c0.13-0.07,0.23-0.17,0.33-0.28
					c0.04-0.06,0.07-0.13,0.11-0.19c0.04-0.13,0.01-0.25-0.09-0.34c-0.06-0.04-0.12-0.08-0.19-0.11
					C126.44,23.86,126.25,23.83,126.05,23.83L126.05,23.83z"/>
			</g>
		</g>
		<g>
			<g>
				<path class="st0" d="M123.13,26.14c2.89-0.39,5.82-0.48,8.73-0.25c0.7,0.06,1.49-0.08,2.05-0.55c0.42-0.35,0.38-0.87-0.25-0.92
					c-3.37-0.27-6.75-0.19-10.1,0.26c-0.5,0.07-1.53,0.34-1.66,0.93C121.77,26.22,122.81,26.19,123.13,26.14L123.13,26.14z"/>
			</g>
		</g>
		<g>
			<g>
				<path class="st0" d="M117.88,30.2c3.43-0.74,7-0.54,10.36,0.43c0.66,0.19,1.56-0.08,2.05-0.55c0.46-0.45,0.3-0.94-0.3-1.11
					c-4.09-1.17-8.39-1.23-12.53-0.34c-0.47,0.1-1.39,0.56-1.24,1.18C116.38,30.45,117.46,30.3,117.88,30.2L117.88,30.2z"/>
			</g>
		</g>
		<g>
			<g>
				<path class="st0" d="M54.94,11.71c2.95-0.43,5.89-0.85,8.84-1.28c0.64-0.09,1.45-0.22,1.94-0.67c0.47-0.42-0.43-0.43-0.66-0.4
					c-2.95,0.43-5.89,0.85-8.84,1.28c-0.64,0.09-1.45,0.22-1.94,0.67C53.8,11.74,54.7,11.74,54.94,11.71L54.94,11.71z"/>
			</g>
		</g>
		<g>
			<g>
				<path class="st0" d="M49.77,15.91c3.13,0.1,6.26,0.19,9.38,0.29c0.63,0.02,1.54-0.23,1.92-0.78c0.39-0.57-0.33-0.79-0.77-0.81
					c-3.13-0.1-6.26-0.19-9.38-0.29c-0.63-0.02-1.54,0.23-1.92,0.78C48.61,15.68,49.33,15.9,49.77,15.91L49.77,15.91z"/>
			</g>
		</g>
		<g>
			<g>
				<path class="st0" d="M46.75,26.92c2.63-1.35,5.26-2.7,7.89-4.05c0.53-0.27,1.1-0.94,0.67-1.54c-0.42-0.59-1.41-0.54-1.98-0.24
					c-2.63,1.35-5.26,2.7-7.89,4.05c-0.53,0.27-1.1,0.94-0.67,1.54C45.2,27.26,46.18,27.21,46.75,26.92L46.75,26.92z"/>
			</g>
		</g>
		<g>
			<g>
				<path class="st0" d="M49.35,33.53c0.88-0.69,1.79-1.34,2.74-1.93c0.12-0.07,0.24-0.15,0.36-0.22c0.12-0.07,0.12-0.07,0,0
					c0.06-0.04,0.12-0.07,0.18-0.11c0.24-0.14,0.48-0.28,0.73-0.41c0.49-0.27,0.99-0.52,1.49-0.77c0.29-0.14,0.96-0.68,0.33-0.87
					c-0.64-0.19-1.46,0.06-2.03,0.34c-2.14,1.03-4.18,2.29-6.04,3.76c-0.12,0.1-0.38,0.29-0.32,0.49c0.05,0.19,0.37,0.25,0.52,0.26
					C47.95,34.13,48.83,33.94,49.35,33.53L49.35,33.53z"/>
			</g>
		</g>
		<g>
			<g>
				<path class="st0" d="M45.5,42.79c2.08-1.41,4.15-2.81,6.23-4.22c0.39-0.26,0.86-0.9,0.23-1.21c-0.61-0.3-1.51-0.12-2.06,0.25
					c-2.08,1.41-4.15,2.81-6.23,4.22c-0.39,0.26-0.86,0.9-0.23,1.21C44.05,43.34,44.95,43.15,45.5,42.79L45.5,42.79z"/>
			</g>
		</g>
		<g>
			<g>
				<path class="st0" d="M44.15,49.7c1.94-1.18,3.87-2.35,5.81-3.53c0.12-0.07,0.38-0.29,0.33-0.47c-0.05-0.19-0.38-0.23-0.52-0.24
					c-0.71-0.04-1.45,0.18-2.05,0.55c-1.94,1.18-3.87,2.35-5.81,3.53c-0.12,0.07-0.38,0.29-0.33,0.47c0.05,0.19,0.38,0.23,0.52,0.24
					C42.8,50.29,43.55,50.06,44.15,49.7L44.15,49.7z"/>
			</g>
		</g>
		<g>
			<g>
				<path class="st0" d="M42.93,56.99c1.17-0.94,2.4-1.81,3.69-2.58c0.16-0.09,0.32-0.19,0.48-0.28c0.2-0.12-0.17,0.09,0.04-0.02
					c0.08-0.04,0.16-0.09,0.24-0.13c0.32-0.18,0.65-0.35,0.98-0.51c0.68-0.34,1.38-0.66,2.08-0.95c0.48-0.2,1.14-0.82,0.72-1.36
					c-0.44-0.55-1.41-0.37-1.95-0.14c-2.93,1.22-5.69,2.85-8.16,4.84c-0.43,0.35-0.81,0.97-0.19,1.35
					C41.43,57.56,42.43,57.39,42.93,56.99L42.93,56.99z"/>
			</g>
		</g>
		<g>
			<g>
				<path class="st0" d="M43.15,62.93c1.58-1.37,3.16-2.75,4.74-4.12c0.17-0.15,0.34-0.42,0.28-0.66c-0.06-0.24-0.35-0.39-0.57-0.44
					c-0.7-0.15-1.51,0.08-2.05,0.55c-1.58,1.37-3.16,2.75-4.74,4.12c-0.17,0.15-0.34,0.42-0.28,0.66c0.06,0.24,0.35,0.39,0.57,0.44
					C41.81,63.63,42.61,63.4,43.15,62.93L43.15,62.93z"/>
			</g>
		</g>
		<g>
			<g>
				<path class="st0" d="M40.03,72.34c0.13-0.11,0.27-0.21,0.4-0.31c0.12-0.09,0.13-0.1,0.04-0.03c0.07-0.05,0.13-0.1,0.2-0.15
					c0.27-0.21,0.54-0.41,0.81-0.61c0.55-0.4,1.1-0.79,1.66-1.17c1.12-0.76,2.28-1.47,3.46-2.13c0.42-0.24,0.83-0.92,0.23-1.21
					c-0.65-0.32-1.47-0.08-2.06,0.25c-2.49,1.41-4.85,3.03-7.09,4.81c-0.49,0.39-0.27,0.99,0.3,1.11
					C38.71,73.04,39.46,72.79,40.03,72.34L40.03,72.34z"/>
			</g>
		</g>
		<g>
			<g>
				<path class="st0" d="M37.85,79.45c1.74-0.87,3.48-1.74,5.22-2.6c0.28-0.14,0.6-0.33,0.76-0.62c0.11-0.21,0.15-0.5-0.03-0.69
					c-0.45-0.49-1.41-0.37-1.94-0.11c-1.74,0.87-3.48,1.74-5.22,2.6c-0.28,0.14-0.6,0.33-0.76,0.62c-0.11,0.21-0.15,0.5,0.03,0.69
					C36.36,79.83,37.31,79.72,37.85,79.45L37.85,79.45z"/>
			</g>
		</g>
		<g>
			<g>
				<path class="st0" d="M35.72,85.5c2.45-0.84,4.89-1.67,7.34-2.51c0.33-0.11,1.22-0.63,0.8-1.07c-0.44-0.45-1.43-0.14-1.9,0.02
					c-2.45,0.84-4.89,1.67-7.34,2.51c-0.33,0.11-1.22,0.63-0.8,1.07C34.25,85.97,35.24,85.66,35.72,85.5L35.72,85.5z"/>
			</g>
		</g>
		<g>
			<g>
				<path class="st0" d="M33.73,94.12c0.43-0.39,0.88-0.76,1.35-1.11c0.24-0.18,0.49-0.35,0.74-0.52c0.1-0.07,0.1-0.06,0,0
					c0.06-0.04,0.12-0.08,0.18-0.11c0.13-0.08,0.27-0.17,0.41-0.25c0.24-0.14,0.49-0.28,0.74-0.41c0.13-0.07,0.25-0.13,0.38-0.19
					c0.08-0.04,0.16-0.08,0.24-0.11c-0.09,0.04-0.2,0.09-0.04,0.02c0.55-0.24,1.11-0.46,1.68-0.65c0.29-0.1,1.24-0.6,0.81-1.01
					c-0.43-0.42-1.43-0.1-1.89,0.06c-2.52,0.84-4.89,2.2-6.86,3.99c-0.13,0.12-0.37,0.32-0.31,0.54c0.06,0.21,0.36,0.29,0.54,0.31
					C32.31,94.74,33.24,94.56,33.73,94.12L33.73,94.12z"/>
			</g>
		</g>
		<g>
			<g>
				<path class="st0" d="M32.3,101.08c1.58-0.48,3.16-0.95,4.74-1.43c0.34-0.1,0.71-0.27,0.95-0.55c0.17-0.19,0.34-0.51,0.25-0.77
					c-0.22-0.65-1.14-0.72-1.7-0.55c-1.58,0.48-3.16,0.95-4.74,1.43c-0.34,0.1-0.71,0.27-0.95,0.55c-0.17,0.19-0.34,0.51-0.25,0.77
					C30.82,101.18,31.74,101.24,32.3,101.08L32.3,101.08z"/>
			</g>
		</g>
		<g>
			<g>
				<path class="st0" d="M32.73,108.44c0.42-0.53,0.88-1.03,1.38-1.48c-0.08,0.08-0.17,0.15-0.25,0.23c0.34-0.31,0.7-0.59,1.08-0.86
					c0.18-0.13,0.37-0.25,0.56-0.37c0.04-0.03,0.09-0.05,0.13-0.08c-0.22,0.13-0.29,0.17-0.19,0.11c0.03-0.02,0.05-0.03,0.08-0.05
					c0.11-0.06,0.21-0.12,0.32-0.18c0.29-0.15,0.6-0.36,0.75-0.67c0.11-0.23,0.13-0.56-0.05-0.77c-0.45-0.53-1.39-0.48-1.96-0.18
					c-1.64,0.86-3.12,2.04-4.26,3.5c-0.17,0.22-0.32,0.49-0.24,0.78c0.07,0.27,0.35,0.48,0.6,0.56c0.35,0.11,0.75,0.11,1.1,0
					C32.12,108.89,32.51,108.73,32.73,108.44L32.73,108.44z"/>
			</g>
		</g>
		<g>
			<g>
				<path class="st0" d="M31.02,115.2c0.92-0.35,1.8-0.79,2.6-1.37c0.74-0.54,1.38-1.15,1.96-1.86c0.13-0.16-0.15-0.28-0.24-0.3
					c-0.27-0.07-0.65-0.02-0.92,0.03c-0.59,0.11-1.31,0.3-1.7,0.78c-0.02,0.03-0.05,0.06-0.07,0.09c0.04-0.05,0.08-0.1,0.12-0.14
					c-0.23,0.27-0.47,0.53-0.72,0.78c-0.13,0.12-0.26,0.24-0.4,0.35c-0.07,0.06-0.14,0.11-0.21,0.17c-0.06,0.05-0.3,0.21-0.06,0.05
					c-0.29,0.19-0.57,0.39-0.87,0.56c-0.18,0.1,0.04-0.03,0.09-0.05c-0.03,0.01-0.07,0.04-0.1,0.05c-0.08,0.04-0.16,0.08-0.24,0.12
					c-0.08,0.04-0.16,0.07-0.24,0.11c-0.04,0.02-0.07,0.03-0.11,0.05c0.23-0.1,0.3-0.12,0.2-0.08c-0.03,0.01-0.05,0.02-0.08,0.03
					c-0.26,0.1-0.6,0.23-0.81,0.43c-0.1,0.1-0.22,0.27-0.06,0.38c0.2,0.13,0.52,0.11,0.74,0.08
					C30.28,115.42,30.67,115.34,31.02,115.2L31.02,115.2z"/>
			</g>
		</g>
		<g>
			<g>
				<path class="st0" d="M29.29,122.5c0.46-0.08,0.9-0.18,1.32-0.39c0.39-0.2,0.72-0.41,1.05-0.71c0.22-0.2,0.4-0.44,0.55-0.69
					c0.15-0.24,0.25-0.52,0.32-0.79c0.06-0.25-0.12-0.49-0.32-0.61c-0.14-0.08-0.28-0.12-0.44-0.14c-0.18-0.04-0.35-0.05-0.53-0.02
					c-0.38,0.05-0.78,0.16-1.09,0.38c-0.24,0.18-0.46,0.38-0.53,0.68c-0.02,0.08-0.04,0.16-0.07,0.24c0.03-0.08,0.06-0.16,0.09-0.24
					c-0.07,0.18-0.17,0.35-0.28,0.5c0.06-0.08,0.12-0.15,0.18-0.23c-0.1,0.13-0.21,0.24-0.34,0.35c0.09-0.07,0.17-0.14,0.26-0.21
					c-0.1,0.08-0.2,0.15-0.31,0.21c0.11-0.06,0.22-0.12,0.32-0.18c-0.1,0.05-0.19,0.1-0.29,0.13c0.13-0.04,0.25-0.09,0.38-0.13
					c-0.09,0.03-0.19,0.06-0.29,0.08c0.13-0.02,0.26-0.05,0.39-0.07c-0.01,0-0.02,0-0.02,0c-0.2,0.02-0.4,0.06-0.58,0.14
					c-0.18,0.05-0.35,0.13-0.51,0.24c-0.14,0.08-0.26,0.19-0.35,0.33c-0.1,0.1-0.16,0.22-0.18,0.36c0,0.08,0.01,0.16,0.01,0.24
					c0.05,0.17,0.16,0.29,0.31,0.37C28.61,122.5,28.98,122.55,29.29,122.5L29.29,122.5z"/>
			</g>
		</g>
		<g>
			<g>
				<path class="st0" d="M145.84,115.28c-5.66,2.66-9.34,8.83-8.46,15.11c0.09,0.61,3.01,0.01,2.9-0.78
					c-0.77-5.49,2.15-11.51,7.25-13.91c0.33-0.15,0.91-0.55,0.35-0.79C147.31,114.69,146.34,115.05,145.84,115.28L145.84,115.28z"/>
			</g>
		</g>
	</g>
	<g>
		<path class="st0" d="M78.64,44.47c-0.01-0.37-0.27-0.57-0.55-0.61c-0.04-0.39-0.09-0.77-0.13-1.17c-0.03-0.31-0.27-0.69-0.64-0.64
			c-3.26,0.44-6.53,0.79-9.78,1.32c-2.39,0.39-5.26,0.77-7.6,1.82c-0.43,0.04-0.86,0.06-1.3,0.08c-0.2,0.01-0.35,0.09-0.45,0.21
			c-0.16-0.05-0.34,0-0.38,0.2c-0.54,3.18,0.14,6.67,0.45,9.87c0.36,3.67,0.78,7.33,1.22,10.99c0.05,0.44,0.39,0.77,0.86,0.66
			c6.38-1.57,12.85-2.59,19.4-3.18c0.5-0.04,0.79-0.43,0.7-0.92C79.33,56.89,78.76,50.76,78.64,44.47z M60.74,65.68
			c-0.4-3.38-0.77-6.76-1.1-10.14c-0.28-2.83-0.24-5.9-0.91-8.7c2.88-0.37,5.76-1.51,8.65-2.01c3.11-0.54,6.24-0.98,9.36-1.42
			c0.12,1.36,0.23,2.68,0.67,4c0.2,5.09,0.71,10.19,1.5,15.21C72.76,63.13,66.72,64.17,60.74,65.68z"/>
		<path class="st0" d="M75.45,53.95c-0.53-2.54-1.04-5.08-1.53-7.62c-0.06-0.33-0.48-0.46-0.75-0.31
			c-3.14,1.87-6.44,2.64-10.07,2.75c-0.13,0-0.23,0.05-0.31,0.11c-0.24-0.23-0.75-0.06-0.76,0.33c-0.13,4.17,0.6,8.43,1.21,12.55
			c0.05,0.33,0.48,0.54,0.78,0.44c2.62-0.81,5.25-1.61,7.87-2.44c1-0.31,3.52-0.52,4.14-1.6C76.65,57.13,75.66,54.98,75.45,53.95z
			 M74.24,57.14c-0.9,1.34-3.44,1.6-4.95,2.08c-1.64,0.52-3.28,1.03-4.93,1.55c-0.52-3.63-0.76-7.31-1.34-10.92
			c0.03,0,0.05,0.02,0.08,0.02c3.56,0.05,6.87-0.92,9.95-2.61c0.27,1.42,0.53,2.85,0.78,4.27C74.1,53.04,75.11,55.86,74.24,57.14z"
			/>
		<path class="st0" d="M23.75,47.16c-0.07-1.33,0.5-4.95-0.72-5.95c-1.26-1.03-4.98,0.52-6.28,0.86c-0.5,0.13-0.56,0.67-0.33,1
			c-0.15,0.06-0.28,0.2-0.29,0.43c-0.22,4.14-0.14,8.26-0.51,12.4c-0.04,0.41,0.45,0.75,0.82,0.63c1.58-0.53,3.17-1.06,4.75-1.59
			c0.7-0.24,2.1-0.38,2.59-1.06C24.79,52.48,23.84,48.81,23.75,47.16z M21.31,53.5c-1.14,0.7-2.88,1.1-4.32,1.51
			c0.31-3.8,0.54-7.71,0.11-11.5c-0.01-0.07-0.03-0.13-0.06-0.19c0.02,0,0.03,0,0.04,0c1.52-0.41,4.27-1.69,5.2,0.15
			c0.57,1.15,0.18,3.94,0.24,5.28C22.61,50.58,23.06,52.42,21.31,53.5z"/>
		<path class="st0" d="M28.2,71.88c-0.44-2.43-3.12-1.35-4.72-0.1c0.07-2.27-2.36-5.45-4.33-3.32c-1.04,1.13-0.36,2.93,0.01,4.17
			c0.86,2.85,1.59,5.71,2.15,8.63c0.1,0.5,0.82,0.67,1.15,0.3c1.43-1.6,2.89-3.23,4.01-5.07C27.17,75.34,28.45,73.3,28.2,71.88z
			 M26.61,73.19c-0.13,0.96-0.98,2.14-1.5,2.95c-0.8,1.23-1.75,2.35-2.72,3.45c-0.32-1.6-0.69-3.19-1.12-4.77
			c-0.23-0.86-0.49-1.71-0.75-2.56c-0.16-0.47-0.3-0.94-0.42-1.42c1.74-0.33,2.5,0.23,2.27,1.67c0.01,0.11,0.05,0.19,0.1,0.27
			c0,0,0,0-0.01,0.01c-0.48,0.69,0.65,1.34,1.12,0.66c0.72-1.35,1.8-1.68,3.25-0.99L26.61,73.19z"/>
		<path class="st0" d="M68.66,80.26c-0.33,0.09-0.65,0.18-0.98,0.27c-0.59,0.07-1.19,0.15-1.78,0.22c-0.37,0.05-0.77,0.14-1.14,0.14
			c-0.7,0.01-0.57,0.02-1.01-0.61c-1.04-1.52-1.8-3.34-2.67-4.95c-0.05-0.1-0.12-0.17-0.2-0.22c0-0.04,0-0.08-0.01-0.11
			c-0.01-0.16-0.25-0.26-0.33-0.09c-0.02,0.04-0.03,0.08-0.05,0.12c-0.15,0.02-0.3,0.1-0.41,0.21c-0.13,0.05-0.24,0.14-0.3,0.3
			c0,0.01-0.01,0.02-0.01,0.02c-0.01,0.03-0.03,0.05-0.04,0.08c-0.44,2.01-0.91,4.02-1.43,6.01c-0.02,0.06-0.01,0.11-0.01,0.17
			c-1.57,1.39-4.92,1.94-6.68,2.5c-0.48,0.15-0.63,0.86-0.15,1.12c1.67,0.88,3.33,1.38,5.16,1.61c-0.51,2.72-1.03,5.44-1.53,8.16
			c-0.14,0.75,0.75,1.09,1.19,0.5c1.57-2.08,3.15-4.16,4.72-6.23c1.57,1.21,3.13,2.43,4.69,3.65c0.45,0.35,1.19,0.16,1.19-0.49
			c0.01-2.52-0.81-4.58-2.42-6.46c1.62-1.6,3.23-3.22,4.83-4.84C69.75,80.89,69.29,80.09,68.66,80.26z M62.8,86.17
			c-0.49,0.51,0.17,1.24,0.71,0.93c1.04,1.25,1.63,2.55,1.86,4.05c-1.38-1.05-2.77-2.1-4.15-3.15c-0.31-0.23-0.71-0.02-0.9,0.24
			c-1.16,1.54-2.32,3.07-3.48,4.61c0.37-2.05,0.73-4.1,1.1-6.15c0.07-0.41-0.17-0.74-0.59-0.77c-1.41-0.1-2.65-0.38-3.89-0.88
			c1.16-0.37,2.32-0.73,3.47-1.11c0.73-0.24,2.08-0.45,2.64-1.1c0.74-0.86,1.12-2.84,1.27-4.69c0.29,0.61,0.56,1.23,0.79,1.88
			c0.26,0.74,0.35,2.01,1.01,2.56c0.81,0.68,2.34,0.36,3.76-0.11C65.18,83.69,63.98,84.92,62.8,86.17z"/>
		<path class="st0" d="M97.53,73.98c-3.19-0.65-6.83-1.8-10.35-2.31c-1.41-0.58-2.91-1.08-3.49-0.79c0.1-0.25,0.05-0.55-0.28-0.7
			c-0.04-0.02-0.07-0.03-0.11-0.05c-0.26-0.12-0.5-0.09-0.7,0.06c-0.08,0.01-0.16,0.05-0.2,0.15c-1.83,3.79-3.13,7.89-4.53,11.85
			c-0.03,0.08-0.03,0.15-0.03,0.22c0,0.01,0,0.03-0.01,0.05c0,0,0,0,0,0c-0.06,0.31,0.09,0.68,0.42,0.76
			c4.86,1.18,9.67,2.81,14.44,4.31c0.32,0.1,0.58,0.02,0.76-0.16c0.21,0.04,0.42-0.02,0.53-0.28c1.7-3.92,2.73-8.19,4.04-12.26
			C98.12,74.5,97.89,74.05,97.53,73.98z M93.1,85.92c-2.81-0.95-5.64-1.81-8.5-2.61c-1.66-0.47-3.56-1.26-5.35-1.32
			c1.17-3.29,2.43-6.61,3.33-9.99c2.41,1.23,5.34,1.85,8.26,2.32c1.77,0.38,3.58,0.6,5.34,1.1c0.07,0.02,0.12,0.01,0.18,0.01
			C95.24,78.89,93.91,82.38,93.1,85.92z"/>
	</g>
</g>
</svg>
