<?xml version="1.0" encoding="utf-8"?>
<!-- Generator: Adobe Illustrator 26.2.1, SVG Export Plug-In . SVG Version: 6.00 Build 0)  -->
<svg version="1.1" id="Layer_1" xmlns="http://www.w3.org/2000/svg" xmlns:xlink="http://www.w3.org/1999/xlink" x="0px" y="0px"
	 viewBox="0 0 16.94 17.05" style="enable-background:new 0 0 16.94 17.05;" xml:space="preserve">
<style type="text/css">
	.st0{fill:#FFFFFF;}
</style>
<g>
	<path class="st0" d="M1.69,1.69c-2.26,2.25-2.26,5.91,0,8.17s5.91,2.26,8.17,0s2.26-5.91,0-8.17S3.95-0.56,1.69,1.69z M8.74,8.74
		c-1.64,1.64-4.3,1.64-5.94,0s-1.64-4.3,0-5.94s4.3-1.64,5.94,0S10.38,7.11,8.74,8.74z"/>
	<path class="st0" d="M16.61,16.47l-0.25,0.25c-0.44,0.44-1.16,0.44-1.61,0l-6.18-6.19c-0.44-0.44-0.44-1.16,0-1.61l0.25-0.25
		c0.44-0.44,1.16-0.44,1.61,0l6.18,6.19C17.05,15.3,17.05,16.02,16.61,16.47z"/>
</g>
</svg>
