<?xml version="1.0" encoding="utf-8"?>
<!-- Generator: Adobe Illustrator 26.0.3, SVG Export Plug-In . SVG Version: 6.00 Build 0)  -->
<svg version="1.1" id="Layer_1" xmlns="http://www.w3.org/2000/svg" xmlns:xlink="http://www.w3.org/1999/xlink" x="0px" y="0px"
	 viewBox="0 0 211.1 225.74" style="enable-background:new 0 0 211.1 225.74;" xml:space="preserve">
<style type="text/css">
	.st0{fill:#474C6B;}
</style>
<g>
	<g>
		<g>
			<path class="st0" d="M49.66,224.05c26.05,2.11,52.26,2.25,78.33,0.39c7.24-0.52,14.57-1.53,21.8-0.42
				c1.47,0.22,2.93-1.88,0.99-2.17c-6.35-0.97-12.75-0.36-19.11,0.14c-6.56,0.51-13.14,0.9-19.72,1.16
				c-13.03,0.52-26.09,0.54-39.13,0.05c-7.4-0.28-14.8-0.72-22.18-1.32c-0.68-0.05-1.6,0.2-1.88,0.9
				C48.5,223.42,49,224,49.66,224.05L49.66,224.05z"/>
		</g>
	</g>
	<g>
		<g>
			<path class="st0" d="M151.7,222.49c14.46,0.65,28.95,0.82,43.42,0.53c0.65-0.01,1.53-0.13,2.05-0.55
				c0.36-0.29,0.48-0.63-0.17-0.62c-14.48,0.29-28.96,0.11-43.42-0.53c-0.63-0.03-1.55,0.14-2.05,0.55
				C151.14,222.19,151.08,222.46,151.7,222.49L151.7,222.49z"/>
		</g>
	</g>
	<g>
		<g>
			<g>
				<path class="st0" d="M50.33,161.93c-0.62,20.45-0.7,40.91-0.77,61.37c0,0.61,2.89,0.16,2.9-0.78
					c0.07-20.46,0.15-40.92,0.77-61.37C53.25,160.57,50.36,160.99,50.33,161.93L50.33,161.93z"/>
			</g>
		</g>
		<g>
			<g>
				<path class="st0" d="M150.19,161.6c-0.12,20.74-0.61,41.48-1.49,62.2c-0.06,1.46,2.88,1.01,2.93-0.24
					c0.88-20.72,1.37-41.46,1.49-62.2C153.12,159.89,150.19,160.35,150.19,161.6L150.19,161.6z"/>
			</g>
		</g>
		<g>
			<g>
				<path class="st0" d="M58.77,140.82c21.56,0.71,43.12,1.5,64.69,1.62c6.15,0.04,12.3,0.03,18.45-0.02c0.6,0,1.62-0.19,1.91-0.81
					c0.27-0.59-0.23-0.93-0.8-0.92c-21.63,0.17-43.24-0.3-64.86-1.01c-6.09-0.2-12.18-0.4-18.27-0.6c-0.6-0.02-1.62,0.2-1.91,0.81
					C57.69,140.5,58.21,140.8,58.77,140.82L58.77,140.82z"/>
			</g>
		</g>
		<g>
			<g>
				<path class="st0" d="M87.45,84.78c-1.58,18.74-2.1,37.56-1.56,56.35c0.01,0.47,2.92,0.03,2.9-0.78
					c-0.54-18.8-0.02-37.61,1.56-56.35C90.37,83.63,87.52,83.93,87.45,84.78L87.45,84.78z"/>
			</g>
		</g>
		<g>
			<g>
				<path class="st0" d="M89.11,85.13c13.85-0.23,27.7-0.47,41.55-0.7c-0.44-0.29-0.88-0.57-1.31-0.86
					c0.16,18.97-0.22,37.94-1.12,56.89c-0.07,1.42,2.87,0.95,2.92-0.26c0.9-18.95,1.27-37.92,1.12-56.89
					c-0.01-0.73-0.71-0.87-1.31-0.86c-13.85,0.23-27.7,0.47-41.55,0.7C87.81,83.18,87.13,85.17,89.11,85.13L89.11,85.13z"/>
			</g>
		</g>
		<g>
			<g>
				<path class="st0" d="M84.53,222.96c-0.34-5.7,0.17-11.45,1.5-17.01c0.6-2.5,1.21-5.31,2.69-7.47c1.38-2.01,3.69-3.03,5.86-3.96
					c2.42-1.04,4.98-2.22,7.66-2.25c2.12-0.02,4.17,0.72,5.93,1.88c3.76,2.47,6.25,6.59,7.39,10.88c1.66,6.25,1.13,12.78,1.38,19.17
					c0.06,1.45,2.97,0.95,2.93-0.25c-0.43-10.84,1.04-24.33-9.3-31.3c-4.71-3.18-9.96-2.66-15.03-0.63c-2.5,1-5.18,2.03-7.3,3.73
					c-2.16,1.73-3.25,4.06-4.07,6.65c-2.18,6.9-2.97,14.14-2.53,21.35C81.71,224.96,84.61,224.3,84.53,222.96L84.53,222.96z"/>
			</g>
		</g>
		<g>
			<g>
				<path class="st0" d="M100.32,192.67c0.14,6.79,0.26,13.59,0.39,20.38c0.06,3.41,0.11,6.82,0.2,10.23
					c0.03,1.21,0.33,2.24,1.79,2.08c0.84-0.09,2.39-1.03,1.58-2.02c-0.78-0.96-3.55,0.16-2.66,1.24c0.03,0.04,0.06,0.08,0.1,0.12
					c-0.02-0.25-0.03-0.5-0.05-0.76c0.08-0.06,0.15-0.13,0.23-0.19c0.49-0.13,0.98-0.26,1.46-0.39c-0.06,0-0.12,0-0.18,0
					c0.27,0.13,0.54,0.25,0.81,0.38c-0.33-0.33-0.17-1.25-0.18-1.7c-0.01-0.73-0.03-1.46-0.04-2.18c-0.02-1.27-0.05-2.53-0.07-3.8
					c-0.05-2.62-0.1-5.24-0.15-7.86c-0.1-5.26-0.2-10.52-0.3-15.78C103.21,190.97,100.29,191.46,100.32,192.67L100.32,192.67z"/>
			</g>
		</g>
		<g>
			<g>
				<path class="st0" d="M95.03,206.41c-1.25,1.37-1.46,3.45-0.48,5.02c0.16,0.25,0.56,0.38,0.82,0.41c0.36,0.04,0.82-0.03,1.14-0.2
					c0.55-0.28,1.08-0.86,0.69-1.48c-0.06-0.1-0.12-0.2-0.17-0.3c0.04,0.08,0.08,0.17,0.12,0.25c-0.18-0.38-0.28-0.78-0.31-1.2
					c0.01,0.09,0.01,0.18,0.02,0.28c-0.02-0.42,0.02-0.83,0.14-1.24c-0.03,0.09-0.06,0.18-0.08,0.27c0.09-0.29,0.22-0.56,0.38-0.82
					c-0.06,0.09-0.12,0.17-0.17,0.26c0.1-0.14,0.2-0.28,0.32-0.4c0.19-0.2,0.31-0.53,0.24-0.81c-0.07-0.28-0.35-0.5-0.61-0.58
					C96.37,205.64,95.53,205.86,95.03,206.41L95.03,206.41z"/>
			</g>
		</g>
		<g>
			<g>
				<path class="st0" d="M106.98,205.4c-0.2,1.8-0.12,3.63,0.21,5.41c0.05,0.3,0.37,0.54,0.63,0.64c0.33,0.13,0.77,0.14,1.11,0.04
					c0.64-0.2,1.3-0.7,1.16-1.45c-0.11-0.58-0.19-1.17-0.24-1.76c0.01,0.1,0.02,0.2,0.02,0.3c-0.09-1.12-0.07-2.24,0.05-3.35
					c0.08-0.72-0.76-1.09-1.36-1.04C107.89,204.24,107.06,204.65,106.98,205.4L106.98,205.4z"/>
			</g>
		</g>
		<g>
			<g>
				<path class="st0" d="M99.41,118.61c-0.26,1.23,1.09,1.81,2.07,1.98c1.68,0.29,3.51,0.19,5.21,0.2
					c3.52,0.02,7.03-0.12,10.54-0.44c0.56-0.05,1.53-0.4,1.63-1.06c0.1-0.69-0.81-0.8-1.29-0.76c-2.83,0.25-5.67,0.4-8.51,0.42
					c-1.4,0.01-2.8-0.01-4.2-0.06c-0.36-0.01-2.7,0.16-2.54-0.59C102.59,117.07,99.65,117.49,99.41,118.61L99.41,118.61z"/>
			</g>
		</g>
		<g>
			<g>
				<path class="st0" d="M102.54,118.42c-1.41-5.02-0.8-10.91,2.25-15.25c0.57-0.81,1.37-1.78,2.39-2c1.13-0.24,2.43,0.41,3.29,1.09
					c2.11,1.65,3.14,4.39,3.95,6.84c1.03,3.14,1.56,6.41,1.63,9.72c0.02,0.98,2.92,0.4,2.9-0.78c-0.07-3.41-0.64-6.8-1.73-10.04
					c-0.96-2.84-2.28-5.9-4.94-7.54c-2.63-1.63-6-1.31-8.39,0.61c-2.31,1.85-3.64,4.95-4.36,7.75c-0.88,3.39-0.82,7,0.12,10.37
					C99.94,120.27,102.84,119.49,102.54,118.42L102.54,118.42z"/>
			</g>
		</g>
		<g>
			<g>
				<path class="st0" d="M109.92,31.02C98.63,43.88,88.35,57.63,79.24,72.12c-2.62,4.17-5.14,8.4-7.57,12.69
					c-0.27,0.48,1.09,0.32,1.17,0.31c18.23-3.13,36.74,0.05,55.09-0.79c5.17-0.24,10.32-0.8,15.38-1.86
					c0.11-0.02,1.99-0.5,1.71-0.95c-10.84-17.42-21.68-34.83-32.51-52.25c-0.46-0.73-3.15,0.36-2.9,0.78
					c10.84,17.42,21.68,34.83,32.51,52.25c0.57-0.32,1.14-0.63,1.71-0.95c-18.13,3.78-36.69,0.74-55.01,1.21
					c-5.18,0.13-10.35,0.56-15.46,1.44c0.39,0.1,0.78,0.21,1.17,0.31c8.42-14.84,17.99-29.02,28.66-42.34
					c3.03-3.79,6.15-7.5,9.35-11.14c0.42-0.48-0.38-0.52-0.69-0.51C111.28,30.34,110.33,30.55,109.92,31.02L109.92,31.02z"/>
			</g>
		</g>
		<g>
			<g>
				<path class="st0" d="M99.75,44.69c6.05,3.19,13.14,3.52,19.54,1.18c0.53-0.19,1.09-0.86,0.71-1.41
					c-0.42-0.6-1.41-0.37-1.96-0.17c-5.2,1.9-11.17,1.36-16.04-1.21c-0.64-0.34-1.49-0.23-2.07,0.2
					C99.51,43.6,99.1,44.35,99.75,44.69L99.75,44.69z"/>
			</g>
		</g>
		<g>
			<g>
				<path class="st0" d="M91.89,56.07c3.04,0.76,6.07,1.53,9.11,2.29c2.91,0.73,5.83,1.51,8.82,1.87
					c5.67,0.68,11.36-0.05,16.73-1.95c0.43-0.15,1.11-0.59,0.79-1.1c-0.32-0.5-1.53-0.12-1.91,0.01
					c-5.03,1.77-10.43,2.17-15.68,1.26c-5.41-0.94-10.75-2.55-16.07-3.89C92.82,54.35,90.29,55.67,91.89,56.07L91.89,56.07z"/>
			</g>
		</g>
		<g>
			<g>
				<path class="st0" d="M80.86,71.12c13.18,5.25,28.04,5.98,41.72,2.25c3.88-1.06,7.66-2.49,11.28-4.24
					c1.78-0.86,0.19-2.37-1.27-1.66C117.03,75,98.6,75.59,82.54,69.2C81.34,68.72,79.16,70.44,80.86,71.12L80.86,71.12z"/>
			</g>
		</g>
		<g>
			<g>
				<path class="st0" d="M108.98,3c-0.05,9.13-0.11,18.26-0.16,27.39c0,0.49,2.89,0.08,2.9-0.78c0.05-9.13,0.11-18.26,0.16-27.39
					C111.88,1.73,108.98,2.14,108.98,3L108.98,3z"/>
			</g>
		</g>
		<g>
			<g>
				<path class="st0" d="M110.25,3.07c8.05-0.32,16.1-0.64,24.14-0.95c-0.36-0.5-0.72-0.99-1.08-1.49
					c-1.31,1.38-2.63,2.76-3.94,4.15c-0.6,0.63-1.21,1.27-1.81,1.9c-0.56,0.59-1.36,1.22-1.77,1.93c-0.8,1.38,0.48,2.06,1.56,2.6
					c1.64,0.82,3.27,1.64,4.91,2.46c0.16-0.56,0.32-1.13,0.48-1.69c-3.41,1.7-7.32,1.56-11.04,1.71c-3.8,0.15-7.48,0.65-10.78,2.64
					c-0.55,0.33-0.68,1.09-0.16,1.5c0.61,0.47,1.5,0.17,2.08-0.18c3.1-1.87,6.99-1.79,10.49-1.91c3.66-0.12,7.36-0.4,10.69-2.05
					c0.5-0.25,1.35-1.25,0.48-1.69c-1.3-0.65-2.59-1.3-3.89-1.95c-0.58-0.29-1.33-0.53-1.84-0.92c-0.31-0.24-0.31,0.11-0.1-0.21
					c0.2-0.3,0.58-0.61,0.82-0.86c2.08-2.19,4.16-4.38,6.25-6.57c0.8-0.84-0.29-1.52-1.08-1.49c-8.05,0.32-16.1,0.64-24.14,0.95
					C108.86,1.02,108.27,3.15,110.25,3.07L110.25,3.07z"/>
			</g>
		</g>
		<g>
			<g>
				<path class="st0" d="M153.05,122.07c-0.94,26.07-1.56,52.16-1.83,78.24c-0.08,7.31-0.13,14.62-0.15,21.93
					c-0.01,1.51,2.93,1.07,2.93-0.22c0.09-26.09,0.51-52.18,1.27-78.25c0.21-7.31,0.45-14.62,0.72-21.92
					C156.04,120.34,153.1,120.77,153.05,122.07L153.05,122.07z"/>
			</g>
		</g>
		<g>
			<g>
				<path class="st0" d="M196.44,123.12c-0.3,25.38-1.18,50.74-1.71,76.11c-0.17,7.9-0.3,15.8-0.39,23.7
					c-0.01,0.64,2.89,0.19,2.9-0.78c0.31-26.41,1.17-52.8,1.75-79.2c0.15-6.87,0.28-13.74,0.36-20.61
					C199.34,121.71,196.45,122.16,196.44,123.12L196.44,123.12z"/>
			</g>
		</g>
		<g>
			<g>
				<path class="st0" d="M143.26,122.42c0.01-0.07,0.03-0.14,0.04-0.2c0.26-0.17,0.53-0.35,0.79-0.52c0.29-0.13,1.39,0.11,1.78,0.12
					c0.5,0.01,0.99,0.01,1.49,0.02c1.08,0.02,2.15,0.03,3.23,0.05c2.15,0.03,4.31,0.06,6.46,0.09c4.14,0.06,8.29,0.12,12.43,0.17
					c8.37,0.12,16.74,0.23,25.11,0.35c4.81,0.07,9.61,0.13,14.42,0.2c0.31,0,2.42-0.45,2.03-1.13c-8-13.96-16.53-27.6-25.6-40.89
					c-2.59-3.8-5.23-7.57-7.91-11.31c-0.46-0.65-2.34,0.03-2.69,0.56c-11.52,17.17-22.59,34.63-33.22,52.36
					c-0.63,1.05,2.23,0.7,2.67-0.04c10.63-17.73,21.71-35.19,33.22-52.36c-0.9,0.19-1.79,0.37-2.69,0.56
					c9.33,13.05,18.16,26.45,26.44,40.2c2.33,3.87,4.62,7.77,6.87,11.7c0.68-0.38,1.36-0.75,2.03-1.13
					c-10.77-0.15-21.55-0.3-32.32-0.45c-5.39-0.08-10.77-0.15-16.16-0.23c-2.73-0.04-5.47-0.08-8.2-0.11
					c-2.57-0.04-5.2-0.23-7.76-0.1c-0.96,0.05-2.09,0.28-2.85,0.92c-0.51,0.43-0.86,1.15-0.2,1.58c0.85,0.55,4.3-0.24,3.28-1.49
					C145.4,120.65,142.62,121.64,143.26,122.42L143.26,122.42z"/>
			</g>
		</g>
		<g>
			<g>
				<path class="st0" d="M178.31,69.89c-0.47-6.67-0.56-13.36-0.31-20.05c0.06-1.49-2.89-1.06-2.93,0.23
					c-0.26,6.87-0.13,13.74,0.35,20.59C175.51,71.96,178.41,71.27,178.31,69.89L178.31,69.89z"/>
			</g>
		</g>
		<g>
			<g>
				<path class="st0" d="M176.67,51.54c7.3-1.4,14.68-2.3,22.1-2.7c-0.23-0.15-0.45-0.3-0.68-0.45c-1.37,1.12-2.74,2.23-4.11,3.35
					c-0.89,0.72-2.2,1.51-2.11,2.83c0.08,1.25,1.34,2.39,2.17,3.19c1.13,1.08,2.39,2,3.74,2.77c0.18-0.22,0.36-0.45,0.53-0.67
					c-1.5,0.71-3.13,0.85-4.76,0.95c-1.85,0.11-3.71,0.18-5.57,0.27c-3.75,0.18-7.5,0.36-11.25,0.53c-0.5,0.02-1.66,0.21-1.94,0.69
					c-0.3,0.49,0.26,0.47,0.68,0.45c4.36-0.21,8.72-0.41,13.09-0.62c3.88-0.18,7.84-0.21,11.42-1.91c0.12-0.06,0.89-0.46,0.53-0.67
					c-1.13-0.65-2.19-1.38-3.17-2.24c-0.93-0.82-2.24-1.9-2.52-3.16c-0.31-1.38,1.22-2.18,2.13-2.93c1.25-1.02,2.5-2.04,3.75-3.05
					c0.53-0.43-0.49-0.47-0.68-0.45c-7.66,0.41-15.28,1.35-22.81,2.8c-0.31,0.06-1.7,0.34-1.7,0.78
					C175.51,51.76,176.36,51.6,176.67,51.54L176.67,51.54z"/>
			</g>
		</g>
		<g>
			<g>
				<path class="st0" d="M168.76,83.15c1.06-0.36,2.55,0.24,3.58,0.52c1.31,0.36,2.62,0.66,3.98,0.73c2.87,0.15,5.68-0.49,8.25-1.73
					c0.4-0.19,0.85-0.67,0.3-0.95c-0.57-0.3-1.53,0.07-2.04,0.32c-2.21,1.07-4.72,1.2-7.08,0.65c-1.25-0.29-2.47-0.72-3.74-0.9
					c-1.49-0.22-2.91-0.05-4.32,0.43c-0.34,0.12-1.18,0.55-0.82,1C167.23,83.66,168.37,83.28,168.76,83.15L168.76,83.15z"/>
			</g>
		</g>
		<g>
			<g>
				<path class="st0" d="M163.44,91.56c2.38-0.09,4.64,0.61,6.93,1.14c2.08,0.48,4.2,0.73,6.34,0.68c4.33-0.09,8.56-1.26,12.35-3.33
					c0.45-0.24,0.8-0.7,0.28-1.04c-0.53-0.34-1.57,0.03-2.05,0.29c-3.4,1.86-7.21,2.73-11.08,2.53c-3.94-0.2-7.64-1.95-11.61-1.79
					c-0.57,0.02-1.62,0.19-1.92,0.77C162.39,91.35,162.91,91.58,163.44,91.56L163.44,91.56z"/>
			</g>
		</g>
		<g>
			<g>
				<path class="st0" d="M155.3,102.77c7.4,2.47,15.31,2.69,23.01,1.95c6.31-0.61,13.98-1.32,18.44-6.42
					c1.15-1.31-1.65-1.4-2.35-0.59c-3.96,4.53-11.08,4.85-16.66,5.33c-6.97,0.6-14.03,0.27-20.7-1.96
					C156.03,100.75,153.64,102.22,155.3,102.77L155.3,102.77z"/>
			</g>
		</g>
		<g>
			<g>
				<path class="st0" d="M150.51,112.61c8.88,2.44,18.35,2.55,27.51,2.48c4.27-0.03,8.43-0.53,12.45-2.02
					c3.86-1.43,7.35-3.64,10.35-6.44c0.49-0.46,0.23-1.05-0.34-1.25c-0.69-0.24-1.54,0.08-2.05,0.55c-2.75,2.57-6.03,4.57-9.6,5.78
					c-3.77,1.27-7.71,1.49-11.66,1.46c-8.34-0.08-16.85-0.13-24.95-2.36c-0.67-0.18-1.57,0.02-2.05,0.55
					C149.76,111.83,149.87,112.43,150.51,112.61L150.51,112.61z"/>
			</g>
		</g>
		<g>
			<g>
				<path class="st0" d="M165.34,157.66c6.15-0.47,12.4-0.31,18.51,0.52c0.64,0.09,1.53-0.16,2.05-0.55
					c0.46-0.34,0.38-0.63-0.19-0.71c-6.31-0.85-12.79-1-19.14-0.52c-0.56,0.04-1.58,0.2-1.93,0.71
					C164.29,157.61,164.93,157.69,165.34,157.66L165.34,157.66z"/>
			</g>
		</g>
		<g>
			<g>
				<path class="st0" d="M167.63,156.76c-1.07-0.85-0.77-2.84-0.67-4.04c0.14-1.61,0.5-3.19,1-4.72c0.89-2.73,2.17-5.58,3.99-7.83
					c0.69-0.86,1.66-2,2.79-2.28c1.21-0.31,2.61,0.49,3.52,1.21c2.32,1.87,3.12,4.84,3.63,7.65c0.69,3.85,1.27,7.72,1.9,11.57
					c0.11,0.69,3.03,0.05,2.9-0.78c-0.66-4.03-1.22-8.1-2-12.11c-0.62-3.21-1.87-6.6-4.97-8.18c-2.76-1.4-6.22-0.62-8.58,1.24
					c-2.58,2.04-4.21,5.25-5.41,8.25c-0.77,1.92-1.34,3.92-1.58,5.98c-0.18,1.54-0.61,3.96,0.77,5.06
					C165.56,158.31,168.16,157.18,167.63,156.76L167.63,156.76z"/>
			</g>
		</g>
		<g>
			<g>
				<path class="st0" d="M166.17,203.71c5.21-0.08,10.41,0.16,15.59,0.7c0.54,0.06,2.36-0.24,2.39-0.98
					c0.14-3.23,0.21-6.61-0.42-9.8c-0.51-2.56-1.73-5.14-4.19-6.33c-2.6-1.25-5.77-0.89-8.35,0.21c-2.56,1.09-4.58,3.14-5.75,5.65
					c-1.54,3.28-1.66,7.13-0.51,10.55c0.22,0.67,3.1-0.18,2.9-0.78c-1.61-4.82-0.7-11.33,3.79-14.37c1.85-1.25,4.22-1.04,6.04,0.21
					c1.95,1.34,2.83,3.63,3.24,5.87c0.57,3.12,0.51,6.4,0.37,9.56c0.8-0.33,1.59-0.65,2.39-0.98c-5.18-0.54-10.38-0.78-15.59-0.7
					c-0.68,0.01-1.48,0.15-2.05,0.55C165.59,203.36,165.55,203.72,166.17,203.71L166.17,203.71z"/>
			</g>
		</g>
		<g>
			<g>
				<path class="st0" d="M63.72,121.19c0.67,5.97,1.02,11.97,1.05,17.98c0,0.81,2.9,0.29,2.9-0.78c-0.03-6.01-0.38-12.01-1.05-17.98
					C66.52,119.54,63.61,120.16,63.72,121.19L63.72,121.19z"/>
			</g>
		</g>
		<g>
			<g>
				<path class="st0" d="M13.31,121.64c0.03,18.32-0.05,36.65-0.13,54.97c-0.04,9.14-0.07,18.27-0.08,27.41
					c-0.01,4.62-0.01,9.24,0,13.86c0,1.53-0.41,3.85,0.73,5.11c1.23,1.37,3.99,0.85,5.61,0.86c10.43,0.07,20.87,0.14,31.3,0.2
					c1.68,0.01,2.2-2.19,0.24-2.2c-8.86-0.06-17.72-0.11-26.58-0.17c-2.24-0.01-4.47-0.03-6.71-0.04c-0.38,0-1.1,0.13-1.4-0.17
					c-0.23-0.23-0.22-0.84-0.23-1.13c-0.05-1.13-0.01-2.27-0.01-3.4c0-4.37,0-8.74,0-13.11c0.03-17.51,0.12-35.02,0.17-52.54
					c0.03-9.95,0.05-19.9,0.03-29.84C16.25,119.89,13.31,120.29,13.31,121.64L13.31,121.64z"/>
			</g>
		</g>
		<g>
			<g>
				<path class="st0" d="M40.24,62.86C29.8,78.12,19.37,93.38,8.94,108.64c-2.95,4.31-5.89,8.63-8.83,12.94
					c-0.38,0.56,0.33,0.97,0.81,0.96c19.82-0.54,39.64-1.07,59.47-1.61c5.66-0.15,11.33-0.31,16.99-0.46
					c0.64-0.02,2.51-0.49,1.89-1.48c-9.53-15.15-19.06-30.3-28.59-45.45c-2.7-4.3-5.41-8.6-8.11-12.9
					c-0.56-0.89-3.37,0.08-2.68,1.18c9.53,15.15,19.06,30.3,28.59,45.45c2.7,4.3,5.41,8.6,8.11,12.9c0.63-0.49,1.26-0.99,1.89-1.48
					c-19.82,0.54-39.64,1.07-59.47,1.61c-5.66,0.15-11.33,0.31-16.99,0.46c0.27,0.32,0.54,0.64,0.81,0.96
					c10.42-15.27,20.85-30.53,31.28-45.79c2.95-4.31,5.9-8.62,8.84-12.93c0.4-0.58-0.34-0.92-0.81-0.96
					C41.47,61.98,40.63,62.29,40.24,62.86L40.24,62.86z"/>
			</g>
		</g>
		<g>
			<g>
				<path class="st0" d="M42.71,61.59c-0.69-9.29-0.26-18.61,1.28-27.8c0.25-1.51-2.71-1.17-2.94,0.19
					c-1.54,9.18-1.97,18.51-1.28,27.8C39.88,63.35,42.81,62.94,42.71,61.59L42.71,61.59z"/>
			</g>
		</g>
		<g>
			<g>
				<path class="st0" d="M42.89,34.77c7.36-0.61,14.74-1.02,22.12-1.22c-0.2-0.34-0.39-0.68-0.59-1.02
					c-1.45,1.12-2.9,2.25-4.35,3.37c-1.01,0.78-2.25,1.6-2.2,3.04c0.11,3.02,4.55,3.31,4.7,6.21c0.67-0.4,1.35-0.79,2.02-1.19
					c-7.15-0.22-14.32,0.32-21.36,1.62c-0.49,0.09-1.57,0.34-1.65,0.96c-0.08,0.62,0.84,0.66,1.24,0.59
					c6.81-1.26,13.71-1.79,20.63-1.58c0.65,0.02,2.06-0.33,2.02-1.19c-0.14-2.65-3.37-3.13-4.44-5.21c-0.8-1.57,0.77-2.37,1.85-3.21
					c1.28-0.99,2.56-1.99,3.85-2.98c0.69-0.53,0.04-1.03-0.59-1.02c-7.63,0.21-15.25,0.63-22.85,1.27
					c-0.49,0.04-1.57,0.37-1.65,0.96C41.56,34.83,42.49,34.81,42.89,34.77L42.89,34.77z"/>
			</g>
		</g>
		<g>
			<g>
				<path class="st0" d="M30.01,155.39c0.76-1.69-3.51-0.89-3.02,0.44c0.25,0.67,1.65,0.5,2.21,0.51c0.88,0.01,1.76,0,2.64-0.02
					c3.68-0.09,7.36-0.4,11.04-0.25c0.59,0.02,1.58-0.23,1.92-0.77c0.36-0.57-0.31-0.75-0.76-0.76c-2.44-0.1-4.89,0.02-7.34,0.12
					c-1.27,0.05-2.55,0.1-3.82,0.13c-0.59,0.01-1.19,0.02-1.78,0.02c-0.28,0-0.56,0-0.84-0.01c-0.13,0-0.27-0.01-0.4-0.01
					c-0.07,0-0.13,0-0.2-0.01c-0.49-0.04-0.78,0.31-0.88,1.08c-0.36,0.03-0.72,0.05-1.08,0.08c0.01,0,0.03,0.01,0.04,0.01
					c-0.15-0.06-0.3-0.13-0.45-0.19c-0.07-0.18-0.12-0.17-0.16,0.02c-0.26,0.59,0.97,0.58,1.23,0.54
					C28.95,156.25,29.75,155.99,30.01,155.39L30.01,155.39z"/>
			</g>
		</g>
		<g>
			<g>
				<path class="st0" d="M30,155.83c0.02-3.52,0.45-7.03,1.31-10.45c0.39-1.55,0.82-3.13,1.62-4.52c0.65-1.11,1.73-2.48,3.14-2.53
					c1.36-0.05,2.59,1.03,3.37,2.04c0.98,1.27,1.44,2.86,1.77,4.4c0.78,3.57,1.35,7.2,2.02,10.79c0.2,1.07,3.11,0.36,2.9-0.78
					c-0.62-3.33-1.2-6.67-1.85-10c-0.53-2.7-1.4-5.44-3.74-7.1c-2.35-1.67-5.54-1.33-7.82,0.29c-2.41,1.71-3.45,4.45-4.18,7.21
					c-0.95,3.58-1.42,7.26-1.44,10.96C27.08,157.44,29.99,156.86,30,155.83L30,155.83z"/>
			</g>
		</g>
		<g>
			<g>
				<path class="st0" d="M30.02,201.91c5.43-0.9,10.92-1.36,16.42-1.37c0.61,0,1.53-0.47,1.61-1.14c0.09-0.75-0.78-0.89-1.32-0.89
					c-5.5,0.01-10.99,0.46-16.42,1.37c-0.61,0.1-1.52,0.4-1.61,1.14C28.62,201.69,29.47,202,30.02,201.91L30.02,201.91z"/>
			</g>
		</g>
		<g>
			<g>
				<path class="st0" d="M31.89,199c-0.43-4.52-0.93-10.32,2.86-13.68c1.4-1.24,3.26-1.51,4.91-0.56c1.89,1.08,2.62,3.35,3.12,5.33
					c0.75,2.94,1.26,5.94,1.57,8.96c0.08,0.78,3,0.18,2.9-0.78c-0.32-3.09-0.84-6.18-1.63-9.19c-0.61-2.33-1.62-4.69-3.93-5.76
					c-2.37-1.09-5.38-0.58-7.61,0.6c-2.31,1.21-3.9,3.44-4.69,5.88c-1.04,3.21-0.71,6.68-0.4,9.98
					C29.07,200.55,31.98,199.96,31.89,199L31.89,199z"/>
			</g>
		</g>
		<g>
			<g>
				<path class="st0" d="M32.37,76.37c2.97-0.02,5.8,1.19,8.75,1.41c2.72,0.2,5.74-0.29,7.92-2.05c0.43-0.35,0.37-0.67-0.2-0.74
					c-0.62-0.08-1.55,0.15-2.05,0.55c-1.56,1.26-3.57,1.08-5.44,0.74c-2.6-0.46-5.09-1.23-7.76-1.21c-0.58,0-1.57,0.23-1.93,0.72
					C31.27,76.31,32,76.37,32.37,76.37L32.37,76.37z"/>
			</g>
		</g>
		<g>
			<g>
				<path class="st0" d="M25.4,87.54c2.53,1.05,5.03,2.2,7.6,3.14c2.61,0.95,5.33,1.02,8.07,0.64c4.93-0.68,9.57-2.56,13.61-5.47
					c0.53-0.38,0.69-1.11,0.14-1.55c-0.58-0.46-1.54-0.23-2.08,0.16c-3.49,2.51-7.57,4.19-11.85,4.72
					c-2.52,0.31-4.75,0.11-7.11-0.85c-2.25-0.91-4.48-1.86-6.72-2.8C25.79,85.01,23.69,86.83,25.4,87.54L25.4,87.54z"/>
			</g>
		</g>
		<g>
			<g>
				<path class="st0" d="M17.82,97.64c6.47,4.55,14.5,2.34,21.8,3.25c3.87,0.49,7.44,0.97,11.3,0.1c3.65-0.82,7.07-2.46,10.35-4.21
					c1.74-0.93,0.17-2.54-1.29-1.75c-2.99,1.6-6.06,3.1-9.38,3.88c-3.57,0.84-6.89,0.18-10.45-0.22
					c-6.61-0.74-14.26,1.36-20.09-2.75C18.98,95.19,16.45,96.68,17.82,97.64L17.82,97.64z"/>
			</g>
		</g>
		<g>
			<g>
				<path class="st0" d="M9.42,108.86c0.07,1.4,1.51,1.97,2.7,2.23c2.08,0.46,4.32,0.5,6.44,0.72c4.58,0.47,9.16,0.98,13.75,1.38
					c8.6,0.75,17.34,0.96,25.76-1.18c4.45-1.13,8.69-2.92,12.52-5.45c0.53-0.35,0.27-0.7-0.22-0.82c-0.65-0.16-1.52,0.2-2.05,0.55
					c-8.19,5.41-18.3,6.38-27.87,5.97c-5.18-0.22-10.35-0.81-15.51-1.34c-2.56-0.26-5.12-0.52-7.69-0.79
					c-1.44-0.15-4.84,0.06-4.94-2.03C12.28,107.37,9.37,107.9,9.42,108.86L9.42,108.86z"/>
			</g>
		</g>
		<g>
			<g>
				<path class="st0" d="M57.04,139.93c-2.36,7.43-4.72,14.86-7.08,22.29c-0.32,1,2.59,0.62,2.9-0.36
					c2.36-7.43,4.72-14.86,7.08-22.29C60.26,138.57,57.35,138.95,57.04,139.93L57.04,139.93z"/>
			</g>
		</g>
		<g>
			<g>
				<path class="st0" d="M50.93,163.35c26.23-0.14,52.46-0.29,78.69-0.43c7.49-0.04,14.98-0.08,22.46-0.12
					c1.59-0.01,2.28-1.95,0.3-1.94c-26.28,0.14-52.56,0.29-78.84,0.43c-7.44,0.04-14.87,0.08-22.31,0.12
					C49.65,161.42,48.95,163.37,50.93,163.35L50.93,163.35z"/>
			</g>
		</g>
		<g>
			<g>
				<path class="st0" d="M142.39,141.29c0.1,1,0.59,1.89,0.99,2.8c0.39,0.88,0.77,1.76,1.16,2.63c0.83,1.88,1.66,3.76,2.49,5.64
					c1.48,3.34,2.86,6.79,5.02,9.76c0.77,1.06,3.53-0.07,2.65-1.27c-2.14-2.94-3.48-6.34-4.94-9.64c-0.77-1.76-1.55-3.51-2.32-5.27
					c-0.39-0.88-0.77-1.76-1.16-2.63c-0.4-0.91-0.89-1.8-0.99-2.8C145.16,139.2,142.25,139.9,142.39,141.29L142.39,141.29z"/>
			</g>
		</g>
		<g>
			<g>
				<path class="st0" d="M121.25,190.12c5.12-0.08,10.24,0.15,15.34,0.68c0.53,0.06,2.61-0.16,2.65-0.92
					c0.14-3.23,0.21-6.61-0.42-9.8c-0.51-2.56-1.73-5.13-4.19-6.31c-2.59-1.25-5.77-0.82-8.34,0.24c-2.57,1.06-4.59,3.11-5.76,5.61
					c-1.54,3.28-1.66,7.12-0.52,10.54c0.2,0.59,3.07-0.26,2.9-0.78c-1.63-4.86-0.68-11.3,3.78-14.41c1.84-1.29,4.22-1.02,6.04,0.24
					c1.95,1.34,2.83,3.65,3.24,5.89c0.57,3.12,0.51,6.4,0.37,9.56c0.88-0.31,1.76-0.61,2.65-0.92c-5.26-0.55-10.55-0.8-15.84-0.72
					c-0.67,0.01-1.47,0.18-2.05,0.55C120.68,189.84,120.65,190.12,121.25,190.12L121.25,190.12z"/>
			</g>
		</g>
		<g>
			<g>
				<path class="st0" d="M65.25,187.9c5.12-0.08,10.25,0.14,15.34,0.67c0.52,0.05,2.6-0.16,2.63-0.91c0.14-3.17,0.21-6.5-0.41-9.63
					c-0.51-2.55-1.74-5.1-4.2-6.26c-2.63-1.24-5.84-0.81-8.44,0.29c-2.54,1.08-4.54,3.11-5.7,5.6c-1.49,3.21-1.6,6.95-0.46,10.28
					c0.2,0.59,3.05-0.26,2.88-0.77c-1.63-4.8-0.67-11.18,3.78-14.21c1.79-1.22,4.05-1.02,5.86,0.11c2.05,1.27,3,3.59,3.43,5.86
					c0.59,3.1,0.53,6.37,0.39,9.5c0.88-0.3,1.75-0.61,2.63-0.91c-5.26-0.55-10.55-0.79-15.83-0.71c-0.67,0.01-1.46,0.18-2.03,0.55
					C64.68,187.62,64.66,187.91,65.25,187.9L65.25,187.9z"/>
			</g>
		</g>
	</g>
</g>
</svg>
