<?xml version="1.0" encoding="utf-8"?>
<!-- Generator: Adobe Illustrator 26.2.1, SVG Export Plug-In . SVG Version: 6.00 Build 0)  -->
<svg version="1.1" id="Layer_1" xmlns="http://www.w3.org/2000/svg" xmlns:xlink="http://www.w3.org/1999/xlink" x="0px" y="0px"
	 viewBox="0 0 127.13 131.17" style="enable-background:new 0 0 127.13 131.17;" xml:space="preserve">
<style type="text/css">
	.st0{fill:#FFFFFF;}
</style>
<path class="st0" d="M124.37,17.9c-11.7-27.3-47.13-18.4-56.34,3.36C54.76-0.96,14.81-10.71,3.57,16.76
	c-18.7,45.7,41.64,73.58,53.87,110.4c1.06,3.19,3.93,4.32,6.55,3.95c2.07,0.05,3.99-0.98,4.69-3.39c0.15-0.39,0.26-0.81,0.3-1.25
	c3.6-21.57,26.73-34.83,39.3-51.46C119.96,59.54,132.89,37.78,124.37,17.9z M94.6,73.51C84.2,85.85,69.86,95.95,62.3,110.11
	C51.64,91.93,34.69,78.99,22.5,61.22c-7.33-10.69-16.43-31.78-6.32-43.79c13.61-16.18,42.46,1.71,44.7,18.27
	c0.5,3.68,3.53,4.75,6.33,3.99c3.01,4.38,11.59,1.2,10.36-5.27c-1.28-6.7,5.18-13.88,10.15-17.96c9.85-8.07,23.12-4.18,26.81,8.26
	C119.55,41.61,104.82,61.4,94.6,73.51z"/>
</svg>
