<?xml version="1.0" encoding="utf-8"?>
<!-- Generator: Adobe Illustrator 26.0.3, SVG Export Plug-In . SVG Version: 6.00 Build 0)  -->
<svg version="1.1" id="Layer_1" xmlns="http://www.w3.org/2000/svg" xmlns:xlink="http://www.w3.org/1999/xlink" x="0px" y="0px"
	 viewBox="0 0 308.72 124.16" style="enable-background:new 0 0 308.72 124.16;" xml:space="preserve">
<style type="text/css">
	.st0{fill:#32365D;}
	.st1{display:none;}
	.st2{display:inline;}
</style>
<g>
	<path class="st0" d="M33.98,18.63h1.48c10.83,0,18.22,4.17,22.16,12.52l0.74,3.95c0,3.26-2.95,5.68-8.86,7.25
		c-1.34,0-2.44-0.99-3.32-2.96l1.11-9.55c-3.45-2.42-7.39-3.62-11.82-3.62c-9.67,0-16.69,5.6-21.05,16.8
		c-2.71,9.03-4.06,15.18-4.06,18.44v0.99c0.14,28.2,6.49,44.41,19.05,48.65c3.06,1.32,6.51,1.97,10.34,1.97h1.11
		c6.23,0,11.77-2.52,16.62-7.57l3.69-0.99c3.69,0.69,5.54,2.67,5.54,5.93c-1.37,3.64-5.93,7.26-13.67,10.87
		c-4.19,1.32-8.25,1.98-12.19,1.98h-1.48c-14.39,0-25.47-6.59-33.24-19.76C2.18,94.85,0.14,81.27,0,62.76
		c0-6.24,2.71-15.79,8.13-28.65C15.44,23.79,24.06,18.63,33.98,18.63z"/>
	<path class="st0" d="M184.87,20.09h1.11c7.32,0,12.61,3.18,15.88,9.55h0.37c4.92-6.37,11.45-9.55,19.57-9.55h0.37
		c8.34,0,14.12,4.39,17.36,13.17l0.74,5.93l1.05,69.16l0.37,10.21c-1.41,3.73-3.62,5.6-6.65,5.6c-2.5,0-4.22-2.52-5.17-7.57
		L229.5,110l0.42-70.48v-0.99c0-6.8-3.08-10.21-9.23-10.21c-6.4,0-12.06,5.05-16.99,15.15l1.42,59.94l0.37,13.5
		c-1.34,3.51-3.55,5.27-6.65,5.27h-0.37c-3.45-1.19-5.17-5.14-5.17-11.86v-4.61l0.42-67.19c0-6.8-3.08-10.21-9.23-10.21
		c-6.3,0-11.96,4.94-16.99,14.82v4.28l-0.95,69.92v0.99c-0.46,3.29-2.3,4.94-5.54,4.94h-0.74c-2.71,0-4.31-1.65-4.8-4.94
		c1.62-44.88,2.67-71.48,3.16-79.8c-0.49-3.32-0.74-8.15-0.74-14.49c0.35-0.91,0.97-1.57,1.85-1.98h0.74c2.18,0,3.9,2.74,5.17,8.23
		h0.37C170.5,23.49,176.78,20.09,184.87,20.09z"/>
	<path class="st0" d="M278.44,18.11h0.37c16.74,0,26.59,9.33,29.55,28l0.37,6.59c-0.53,7.06-7.56,13.69-21.1,19.9
		c-4.19,1.54-8,2.31-11.45,2.31c-3.59,0-6.91-0.77-9.97-2.31v0.33l1.48,45.4c-0.77,3.29-2.99,4.94-6.65,4.94
		c-3.45,0-5.17-3.29-5.17-9.88l-2.9-79.47c0.7-8.78,2.8-13.18,6.28-13.18C266.13,18.99,272.53,18.11,278.44,18.11z M262.19,31.62
		l2.9,27.15c4.4,4.17,8.21,6.26,11.45,6.26c10.24,0,17.39-4.33,21.47-12.99v-3.29c0-11.29-4.8-18.43-14.4-21.41l-6.28-0.66
		C272.37,26.68,267.32,28.32,262.19,31.62z"/>
	<path class="st0" d="M97.94,120.68c1.74-4.52,3.58-9.02,5.21-13.58c1.47-4.1,2.77-8.25,4.03-12.41c0.15-0.48,1.41-5.69,2.5-5.18
		c0.58,0.27,2.24,5.75,2.5,6.51c2.18,6.11,2.94,12.31,4.88,18.48c0.71,2.26,1.21,4.58,1.88,6.85c0.2,0.67,0.52,1.31,0.84,1.97
		c9.52-0.2,18.94-0.64,28.29-1.41c-1.38-3.1-1.72-4.88-2.61-7.91c-2.29-7.7-5.28-16.6-7.68-24.26c-6.56-20.92-12.94-41.9-20.32-62.6
		c-2.6-7.3-5.42-13.73-0.77-21.18c2.62-4.19,1.2-5.45-4.71-5.72c-1.21,3.11-2.43,6.26-3.98,10.24c-1.55-3.45-2.65-5.94-3.78-8.41
		c-1.95-4.26-5.2-0.42-8.63-1.55c3.02,5.17,5.96,9.44,8.01,14.03c1.09,2.43,1.48,5.63,0.72,8.12c-4.28,14.08-8.67,28.15-13.65,42.04
		c-5.54,15.43-11.76,30.66-17.66,45.98c-1.46,3.8-2.81,7.63-4.32,11.74c9.55,0.46,18.96,0.79,28.26,0.94
		C97.29,122.43,97.61,121.55,97.94,120.68z"/>
</g>
<g class="st1">
	<g class="st2">
		<g>
			<g>
				<g>
					<path d="M128.73-105.34c0.17-0.01,0-0.4,0-0.48C128.49-105.65,128.77-105.23,128.73-105.34z"/>
					<polygon points="126.41,-103.72 126.41,-103.9 126.13,-103.4 					"/>
					<path d="M124.05-103.28c0.32,0.68,0.84-0.24,1.3-0.07l0.1,0.15l0.07-0.6C125.04-103.61,124.43-103.13,124.05-103.28z"/>
					<path d="M122.75-104.71c0.08,0.27-0.23,0.25,0.26,0.07c-0.03-0.03-0.03-0.05-0.05-0.07
						C122.91-104.7,122.85-104.7,122.75-104.71z"/>
					<path d="M122.96-104.71C123.17-104.74,122.8-104.94,122.96-104.71L122.96-104.71z"/>
					<path d="M121.99-104.54l0.28-0.24c-0.06-0.17-0.29-0.21-0.2-0.32C121.8-104.98,121.84-104.81,121.99-104.54z"/>
					<path d="M121.7-104.03l0.15-0.1C121.83-104.2,121.79-104.22,121.7-104.03z"/>
					<path d="M122.17-104.34l-0.32,0.21c0.04,0.12,0.03,0.35,0.15-0.07C121.96-103.99,122.03-104.19,122.17-104.34z"/>
					<path d="M122.34-104.23c0.16,0.15,0.38,0.24,0.09,0.5C123.01-103.84,122.89-104.34,122.34-104.23z"/>
					<path d="M124.02-102.53l0.28,0.18l0.19-0.27C124.39-102.49,123.97-102.75,124.02-102.53z"/>
					<path d="M120.5-105.11c-0.05,0.14-0.02,0.41-0.05,0.61l0.22-0.13C120.6-104.76,120.45-104.89,120.5-105.11z"/>
					<path d="M120.45-104.51c-0.11,0.07-0.23,0.12-0.35,0.18C120.35-104.23,120.43-104.34,120.45-104.51z"/>
					<path d="M121.59-103.24c0.2-0.17,0.39-0.34,0.57-0.52c-0.22,0.19-0.44,0.35-0.68,0.53L121.59-103.24z"/>
					<path d="M119.58-105.45l0.27-0.27c-0.14,0.13-0.29,0.27-0.44,0.39L119.58-105.45z"/>
					<path d="M118.99-105.68c0.23-0.21,0.14-0.49,0.31-0.59c-0.14-0.03-0.39,0.12-0.61,0.23
						C118.87-106.07,118.96-105.98,118.99-105.68z"/>
					<path d="M118.34-105.9c0.1-0.02,0.23-0.08,0.36-0.14C118.61-106.03,118.5-105.99,118.34-105.9z"/>
					<path d="M119.65-104.55c0.01-0.09,0.05-0.33-0.05-0.49l-0.05,0.44C119.58-104.58,119.61-104.57,119.65-104.55z"/>
					<path d="M119.55-104.59l0-0.01c-0.11-0.06-0.18-0.1-0.22-0.11C119.36-104.7,119.42-104.66,119.55-104.59z"/>
					<path d="M119.68-104.54l-0.03-0.01C119.65-104.51,119.65-104.5,119.68-104.54z"/>
					<path d="M120.79-103.73c-0.22,0.21-0.69,0.36-0.36,0.81C120.62-103.18,120.45-103.42,120.79-103.73z"/>
					<path d="M119.64-103.99c0.09,0.07,0.19,0.13,0.29,0.19c0.02-0.11,0.01-0.28,0.13-0.37
						C119.93-104.11,119.79-104.04,119.64-103.99z"/>
					<polygon points="119.44,-103.92 119.64,-103.99 119.54,-104.07 					"/>
					<path d="M118.47-105.31c-0.21,0.09-0.32,0.02-0.46-0.04c0.08,0.16,0.19,0.31,0.34,0.39
						C118.44-105.07,118.63-105.23,118.47-105.31z"/>
					<path d="M118.94-104.9l-0.04,0.01C118.91-104.85,118.91-104.84,118.94-104.9z"/>
					<polygon points="117.06,-106.37 117,-106.31 117.07,-106.35 					"/>
					<path d="M118.33-104.88c0.06,0.14,0.19,0.09,0.32,0.01c-0.11-0.01-0.21-0.03-0.3-0.09
						C118.31-104.92,118.29-104.89,118.33-104.88z"/>
					<path d="M117.94-105.98c-0.03,0.11-0.02,0.2-0.02,0.3C117.97-105.83,118.03-106.05,117.94-105.98z"/>
					<path d="M118.92-105.02c0.01,0,0.02-0.01,0.02-0.01C118.96-105.13,118.94-105.09,118.92-105.02z"/>
					<path d="M118.92-105.02c-0.08,0.02-0.18,0.09-0.27,0.15c0.09,0.01,0.17,0,0.25-0.02C118.91-104.93,118.91-104.98,118.92-105.02
						z"/>
					<path d="M114.41-105.49c0.37-0.13,0.89,0.07,0.77,0.63c0.48,0.16,1.33-0.9,1.82-1.45c-0.15,0.09-0.27,0.18-0.63,0.05
						c-0.16,0.18-0.05,0.85-0.5,0.83c-0.43-0.28-0.09-0.4-0.01-0.68c-0.35,0.42-0.9-0.22-1.53,0.13c0.14,0.12,0.29,0.23,0.44,0.34
						C114.68-105.58,114.44-105.66,114.41-105.49z"/>
					<path d="M117.27-105.9l0.11,0.05c-0.02-0.14,0.02-0.31,0.19-0.61c-0.24-0.01-0.39,0.04-0.51,0.11c0.09,0.15,0.17,0.3,0.27,0.44
						L117.27-105.9z"/>
					<path d="M117.74-105.5c-0.35,0.28-0.7,0.18-0.89,0.65c0.32,0.25,0.45-0.08,0.74-0.08c-0.52-0.3,0.27-0.08,0.12-0.54
						c0.13,0.01,0.21,0.06,0.3,0.1c-0.05-0.1-0.07-0.21-0.09-0.33l-0.01,0.03l0,0l0,0c-0.02,0.06-0.03,0.08-0.03,0.04
						c0,0-0.01,0-0.01,0C117.83-105.56,117.78-105.53,117.74-105.5c-0.06-0.17,0.06-0.1,0.13-0.11l0.05-0.04l0-0.01
						c-0.19-0.05-0.35-0.12-0.54-0.19C117.41-105.73,117.52-105.63,117.74-105.5z"/>
					<path d="M119.84-102.1c-0.01-0.04-0.01-0.07,0-0.1C119.77-102.17,119.74-102.13,119.84-102.1z"/>
					<path d="M119.59-102.44c0.07-0.04,0.16-0.2,0.32-0.11c0.12,0.16-0.05,0.2-0.08,0.34c0.14-0.09,0.44-0.22,0.16-0.5l-0.07,0.05
						c-0.26-0.22-0.45-0.84-0.38-0.89C119.51-103.14,119.5-102.86,119.59-102.44z"/>
					<path d="M118.31-103.84c-0.2-0.03-0.41-0.06-0.6-0.11c0.02,0.16,0.04,0.32,0.07,0.48l0.1-0.2
						C118.13-103.43,118.2-103.71,118.31-103.84z"/>
					<path d="M117.22-106.53l0.4-0.21c-0.21,0.06-0.43,0.11-0.65,0.16L117.22-106.53z"/>
					<path d="M116.94-106.93l0.37-0.14c-0.09,0-0.18-0.01-0.27-0.02L116.94-106.93z"/>
					<path d="M124.6-153.94l-0.03-0.22C124.56-154.07,124.57-154,124.6-153.94z"/>
					<path d="M124.04-152.63l0.17,0.1C124.13-152.62,124.07-152.68,124.04-152.63z"/>
					<path d="M119.8-126.24c0.44-0.17,1.08-0.31,0.64-0.4l-0.44-0.04C120.01-126.47,119.92-126.34,119.8-126.24z"/>
					<path d="M121.93-140.87c-0.05,0.01-0.1,0.02-0.15,0.03c0.12,0.12,0.22,0.23,0.32,0.33
						C122.04-140.62,121.99-140.74,121.93-140.87z"/>
					<path d="M120.32-141.69l0.4-0.26C120.59-141.9,120.46-141.82,120.32-141.69z"/>
					<path d="M127.04-161.34l-0.33-0.37C126.58-161.38,126.85-161.45,127.04-161.34z"/>
					<path d="M117.06-114.36c0.2-0.21,0.3-0.39,0.35-0.55C117.11-114.66,116.71-114.49,117.06-114.36z"/>
					<path d="M128.66-151.71c-0.03-0.14-0.09-0.22-0.18-0.25C128.5-151.83,128.55-151.73,128.66-151.71z"/>
					<path d="M117.5-115.6c-0.05,0.03-0.08,0.07-0.12,0.11c0.05,0.19,0.08,0.37,0.02,0.58C117.62-115.09,117.77-115.31,117.5-115.6z
						"/>
					<path d="M135.8-187.74c0.02-0.02,0.04-0.04,0.06-0.05C135.81-187.81,135.8-187.79,135.8-187.74z"/>
					<path d="M141.94-194.52c0,0.08-0.04,0.18-0.08,0.29C141.91-194.27,141.94-194.35,141.94-194.52z"/>
					<path d="M116.77-109.28C116.8-109.13,116.82-109.25,116.77-109.28L116.77-109.28z"/>
					<path d="M115.07-108.5c-0.05-0.03-0.11-0.06-0.21-0.06C114.96-108.54,115.03-108.52,115.07-108.5z"/>
					<path d="M115.19-117.87l0-0.02C115.1-117.84,115.12-117.85,115.19-117.87z"/>
					<path d="M116.57-109.06c0.05-0.06,0.1-0.12,0.13-0.19C116.67-109.22,116.63-109.16,116.57-109.06z"/>
					<path d="M116.78-109.09c-0.02,0.05-0.03,0.09-0.04,0.13C116.81-108.94,116.85-108.96,116.78-109.09z"/>
					<path d="M116.76-109.49c0,0.09-0.02,0.17-0.05,0.24c0.03-0.03,0.05-0.04,0.07-0.03C116.77-109.32,116.76-109.38,116.76-109.49z
						"/>
					<path d="M132.95-173.05c0.02-0.01,0.03-0.02,0.05-0.02C132.89-173.31,132.89-173.23,132.95-173.05z"/>
					<path d="M116.86-132.14c0,0.01,0.01,0.02,0.01,0.03l0.02-0.02L116.86-132.14z"/>
					<path d="M116.77-132.87c0.42,0.44,0.31,0.57,0.13,0.74l1.26,0.17L116.77-132.87z"/>
					<path d="M125.74-157.16l-0.53,0.29c-0.39-0.76-0.03-1.05-0.7-0.85c1.24,0.56-0.54,1.73,0.7,2.3l-0.38,0.18
						c0.04-0.08-0.02-0.12,0.02-0.2c-0.83,0.31,0.75,0.78,0.28,1.42c-0.2,0.21-0.45,0.31-0.53,0.08l0.09,0.68
						c-0.09,0.15-0.29,0.03-0.2-0.13l-0.24,0.89l-0.03-0.02c0.15,0.2,0.35,0.6,0.42,0.78c-0.27,0.14-0.09-0.16-0.27-0.17l0.12,0.59
						c-0.4,0.06-0.56-0.45-0.39-0.76c-1.43-0.06,0.16,0.51-0.95,1.17l0.02-0.51c-0.83,0-0.71,0.45-1.35,0.78
						c0.28-0.03,1.52-0.56,1.64,0.07c-0.15,0.11-0.27,0.28-0.13,0.66c-0.45-0.18-0.45,0.14-0.55,0.49l-0.59-0.26
						c0.03,0.43,0.34,0.52,0.52,0.84c-0.22,0.38-0.71,0.29-1.14,0.23c-0.35,0.61,0.92-0.16,0.72,0.66
						c-0.44,0.45-0.35,0.93-0.25,1.72c-0.35,0.3-0.34-0.21-0.56-0.14l0.35,0.52c-0.04,0.08-0.18-0.01-0.25-0.05
						c0.08,0.36,0.59,0.25,0.58,0.77c0.61,0.37-1.31,0.55-0.78,1.39c-0.22,0.07-0.34-0.21-0.59-0.25c0.2,0.95,0.11,0.79,0.53,1.66
						l-0.6,0.38c0.6-0.22,0.94,0.48,1.21,1.08c0.27-0.06,0.51-0.1,0.63-0.15l0.06,0.81c-0.13,0.05-0.31-0.1-0.52-0.31
						c0.03,0.07,0.06,0.13,0.1,0.18c-0.31,0.17-0.61-0.09-0.88-0.39c0.15-0.04,0.31-0.08,0.46-0.11c-0.3-0.31-0.64-0.62-1-0.71
						c0.05,0.07,0.08,0.18,0.07,0.29c-0.08-0.08-0.16-0.14-0.23-0.15c-0.07,0,0.03,0.12,0.14,0.29l-0.73-0.09l0.25,0.14l-0.75,0.77
						c0.44,0.91,1.22,1.84,1.13,2.98c-0.4-0.43-0.78-0.34-1.36-0.56c0.72-0.07,0.03-0.9,0.35-1.4c-0.17,0.26-0.42,0.1-0.49-0.01
						l0.21,1.17c-0.47-0.19-0.43,0.08-0.72,0.26c1.01,0.14,0.37,0.94,0.52,1.44c-0.33-0.09-0.62-0.29-0.37-0.75
						c-0.91,0.28,0.86,1.07,0.09,1.39c0.03-0.12,0.1-0.17-0.04-0.27c0.19,0.37-0.26,0.97-0.48,0.72l0.03-0.12
						c-0.37,0.75-0.8,2.4-0.03,2.77c-0.11-0.03-0.94-0.42-1.09-0.52l2.26,2.27c-0.65-0.34-2.47-0.39-2.65-1.17
						c-0.16,0.15-0.35,0.35-0.23,0.83c0.14-0.1,1.1-0.01,1.12,0.19c-0.92,0.24-0.51,0.21-1.36,0.6c0.21-0.15,1.24,0.4,1.11,0.7
						c-0.15-0.1-1.09-0.3-1.17-0.45l0.85,1.09c-0.14-0.25-0.9-0.31-1.26-0.22c0.23-0.02-0.22,0.66-0.17,0.89l0.35-0.25
						c-0.42,0.82,1.27,1.29,0.96,2.12c-0.19-0.16-1.3-0.64-1.57-0.24c0.5,0.36,2.44,1.62,2.68,2.48l-0.35,0.06l0.22,0.67
						c-0.75-0.57-2.26-2.04-2.8-2.8c-0.33,0.26-0.4-0.01-0.49,0.49c-0.34,0.09-0.38-0.39-0.36-0.54l-0.49,1.1
						c0.66,0.12,0.43,1.05,0.98,1.14l-0.36-1.42c0.66,0.12,1.66,1.2,1.35,1.97c-0.31,0.14-1.12-0.44-1.34-0.48
						c0.2,0.16,0.23,0.87,0.06,0.91l-0.26-0.43c-0.36,0.39,0.68,0.94-0.08,1.34c-0.09,0.18-0.99,0.36-0.6,0.49
						c0.82-0.14,3.15,0.35,3.66,0.67c-0.07,0.05-0.91,0.8-1.33,0.93c-0.65,0.18-1.31-0.77-1.86-0.62c0.18,0.05,0.36,0.27,0.42,0.36
						c-0.19,0.16-0.54-0.2-0.55,0.25c0.65,0.21-0.24,0.86,0.52,0.32c0.1,0.46-0.23,0.42-0.3,0.92c0.46-0.07,1.38,0.74,1.49,1.19
						c-0.17-0.06-0.41-0.01-0.52,0.02c-0.23,0.84-0.65,1.24-0.76,2.04c-0.17,0.05-0.43,0.4-0.69,0.19c0.1,0.14,0.31,0.28,0.29,0.53
						c-0.65,0.39-0.01-0.57-0.76-0.32c0.39,0.1,0.44,0.73,0.63,1.13c0.62-0.02,0.24-0.8,0.05-1.2c0.83,0.14,1.61,0.89,1.88,1.77
						c0.11,0.69-0.58,0.21-0.48,0.34c-0.33,1.22,1.3,1.24,0.55,2.18c-0.58,0.34-1.06-0.1-1.46-0.06c-0.14-0.57,0.46-0.79,0.49-1.15
						l-0.32,0.42c-0.15-0.19-0.23-0.57-0.05-0.75c-0.54,0.29-0.42,2.08-0.89,3.05c0.17,0.19,0.35,0.49,0.57,0.35l-0.06-0.31
						c0.44-0.25,0.58,0.58,0.79,0.21c0.29,0.41,0.77,0.79,0.57,1.29l-0.6,0.16c0.17-0.03,0.33-0.37,0.14-0.5
						c0.27,0.17-0.75,0.91,0.09,1.02c0.12-0.14,0.24-0.28,0.36-0.41c0.36,0.32,1.06,0.5,0.98,0.86c0.53-0.33-0.1-0.06,0.52-0.47
						c-0.82,0.44-0.14-0.83-0.98-0.34c0.78-0.38,0.28-0.53,0.97-0.93c-0.2,0.01-0.39,0.15-0.29-0.19c-0.06-0.01-0.13-0.05-0.18-0.07
						c0.01-0.01,0.01-0.01,0.02-0.02l-0.02,0.02c-0.03-0.02-0.04-0.02-0.01,0.01c-0.09,0.08-0.19,0.15-0.31,0.18
						c-0.47-0.16-0.44-0.77-0.66-1c0.11-0.23,0.23,0.11,0.45,0l-0.34-0.34c0.45,0,0.8-0.55,1.01,0.01l0.07-0.49
						c0.28-0.26,0.43-0.67,0.29-0.96c0.13-0.23-0.4-0.69-0.08-0.43l-0.15-0.86l0.11,0.01c0.18-0.8-0.48-1.79,0.45-2.58
						c-0.07-0.29-0.18-0.6,0.05-1.03l0.4-0.02c-0.06-0.37,0.6-0.97,0.23-1.19c1.1-0.17,0.57-1.63,0.87-2.21l-0.49-0.13
						c0.11-0.41,0.05-0.85-0.01-1.42l-0.44-0.07c-0.24-0.54,0.6-1.08,0.74-1.8c0.15,0.09,0.06,0.26-0.07,0.36
						c1.2-0.59-0.26-1.98,0.65-2.56c-0.11-0.24-0.01-0.36,0.13-0.46c0,0.02,0,0.04,0.01,0.05c0.01-0.02,0.02-0.05,0.03-0.08
						c0.1-0.06,0.21-0.13,0.31-0.2c-0.13,0.05-0.24,0.1-0.3,0.16c0.03-0.15,0.05-0.39,0-0.64l0.49,0.04c0-0.02,0-0.03,0-0.05
						c0.23-0.16-0.17-0.23-0.55-0.22c-0.04-0.13-0.1-0.26-0.19-0.37c0.8,0.04-0.08-0.65,0.79-0.65c-0.34-0.26,0.03-1.18-0.74-1.55
						c0.11,0.02,0.18-0.02,0.15,0.1c0.17-0.22,0.33-0.43,0.17-0.72l0.62,0.08l-0.63-0.78c0.46-0.21,0.71-0.28,1.06,0.18
						c-0.43-0.99-0.05-0.71-0.52-1.58l0.37,0.15c0.06-0.24-0.32-0.78,0.04-0.82c0.9-0.28,0.94-2.57,2.1-3.67
						c-1.19-0.13,0.72-0.44-0.12-0.8c0.29,0.01,0.5-0.12,0.65,0.18c-0.01-0.77,0.78-0.87,0.23-1.6c0.29,0.02,0.33,0.28,0.51,0.27
						c-0.04-0.07-0.15-0.3,0.03-0.31c0.18-0.01,0.18,0.18,0.26,0.33c0.21-0.71-0.56-1.07-1.29-1.4c0.48-0.22,0.5-0.42,0.1-0.85
						c0.29-0.03,0.62-0.14,0.55,0.32c0.13-0.23,0.92-1.35,0.33-1.6c0.18-0.02,0.17-0.32,0.13-0.41c0.24-0.53,0.32-0.56,0.46-1.11
						l-0.15,0.11c-0.64-0.49,0.01-0.51,0.09-0.97l0.07,0.04c0.9-0.79-0.09-0.52,0.89-1.27l-0.47-0.12
						c-0.92-0.47,0.91-0.64,0.76-1.35l-0.34,0.1c-0.21-0.44,1.65-0.35,1.89-0.61c0.11-0.03,0.09,0.16,0.12,0.28
						c0.89-0.59-0.54-0.34-0.44-0.99c0.36,0.01,0.74,0.46,0.96,0.08c0.33-0.1-0.56-1.58,0.27-1.9c-0.29,0.03-0.58,0.05-0.65-0.3
						c0.09-0.46,1.38-0.8,0.77-1.49c0.09-0.03,0.16-0.02,0.22,0c-0.07-0.41,0.1-1.2-0.24-1.56c1.66,0.31,0.07-2.34,1.48-1.77
						l0.33-1.04l0.13,0.08c0.35-0.61,0.1-0.98-0.15-1.34c0.16-0.11,0.25,0.05,0.31,0.09c0.66-0.83,0.64-0.95,0.24-2.03l0.49,0.1
						c-0.19-0.32,1.26-1.1,1.08-2.24c0.05,0.03,0.13,0.08,0.17,0.18c-0.14-1.26,2.26-2.03,0.71-3.06l-0.16-0.85
						c-0.46,0.85-0.68-0.41-1.1-0.14c0.03-0.39,0.85-0.73,0.77-0.26l-0.11,0.04c0.82,0.49,0.72-1.01,1.32-0.76
						c0.63-1.79,1.71-3.37,2.32-5.05l-0.76-0.04l0.24-0.57c0.21-0.1,0.61-0.03,0.44,0.38c0.47-0.09-0.09-0.81-0.24-0.88
						c0.56-0.73,0.7,0.59,0.8,0.34l0.07-0.36l-0.11,0.05c-0.19-0.37-0.48-0.49-0.28-0.99c0.24-0.28,0.48-0.03,0.55-0.15
						c0.05,0.02,0.09-0.02,0.08-0.19l0.29-0.73l-0.64,0.13c-0.17-0.42,0.25-0.7-0.48-0.55c1.12-0.21,1.2-2.69,1.6-2.91
						c-0.25-0.58-0.14-1.05,0.07-1.61c-0.15,0.11-0.8,0.02-0.59-0.45c1.24,0.54,0.8-0.75,1.84-0.91c-0.71,0.2,0.22-1.46-0.8-1.12
						c0.22-0.39,0.49,0.1,0.88-0.14c-0.22-1.11,0.85-2.12,0.96-3.4c-0.17-0.06-0.48,0.09-0.67-0.23l1-0.47
						c-0.03-0.26-0.94-0.43-0.25-0.76c-0.16,0.03-0.4,0.08-0.42-0.09c0.7-1.13,0.74-2.41,0.91-3.61c0.16-1.2,0.48-2.4,1.6-3.14
						c-0.42,0.16-0.39-0.04-0.32-0.25c-0.13,0.11-0.41-0.16-0.64-0.21c0.32-0.22,0.64-0.42,0.96-0.6c-0.53-0.44,0.39-0.86-0.11-1.25
						l-0.04,0.31c-0.45-0.74-1.73-0.29-2.57-0.73c0.26,0.43-0.16,0.6-0.57,0.87c-0.4,0.26-0.77,0.62-0.33,1.23
						c-0.24,0.12-0.24-0.25-0.49-0.22c0.32,0.34,0.32,0.61,0.01,1.03l-0.08-0.08c-0.27,1.34-0.77,1.81-1.32,3.21l0.49-0.02
						c-0.12,0.3-0.28,0.33-0.42,0.45c0.64,0.49,0.21-0.86,0.92-0.38c-1.03,0.23-0.42,2.14-1.57,2.18c-0.11,0.45,0.57-0.03,0.46,0.43
						l-0.32,0.06l0.35,0.19c-0.13,0.29-0.52,0.36-0.77,0.32c0.05-0.07-0.02-0.22-0.03-0.3c-0.43,0.31-0.12,1.11-0.26,1.22l0.27-0.4
						c0,1.3-0.69,2.73-0.45,4.07l0.24-0.04c0.16,1.02-0.43,0.67-0.51,1.72l-0.04-0.05c0.16,0.26,0.2,0.56,0.1,0.83
						c-0.18-0.32-0.62,0.34-0.81-0.07c0.16,1.11,0.21,0.58,0.82,1.47l-0.4,0.05c0.25,0.32,0.42,0.38,0.36,0.91
						c-0.18-0.5-0.64,0.16-0.9-0.42c-1.1,0.81,0.31,1.79-0.97,1.92c0.83,0.78,0.82-0.73,0.95-0.4c0.39-0.13,0.61,0.62,0.41,0.92
						c-0.13,0.33-1.43,0.18-1.66,1.02c0.03-0.08-0.04-0.11-0.01-0.19c-0.34,0.23,0.15,0.72-0.39,0.97c0.52,0.41-0.2,0.48,0.53,0.79
						l0.09-0.82c0.05,0.5,0.79,1.2,0.12,1.77c-0.13-0.11-0.26-0.39-0.32-0.57c-0.29,0.13,0.01,0.45-0.29,0.59
						c-0.73-0.31,0.15-0.98-0.26-1.63c-0.39,0.12,0.25,1.05-0.49,0.55c0.92,0.68-0.41,0.77,0.19,1.6l-0.44-0.19
						c0.04,0.11,0.19,0.37,0.12,0.53l-0.48-0.5c0.34,0.62-0.73,0.72-0.61,1.25c0.3-0.91,0.61-0.02,1.07-0.29
						c0.21,1.34-1.38,0.24-1.62,1.57c0-0.19,0.5-0.54,0.61-0.2c-0.18,0.21-0.47,0.46-0.75,0.52c-0.21,0.86,0.51,0.04,0.65,0.49
						c-0.65,0.09,0.07,0.49,0.11,0.92l-0.45-0.16c-0.64,0.84,0.85,0.6,0.19,1.32l-0.5-0.59l0,0.5l-0.48-0.28
						c0.2,0.62,0.05,0.74-0.27,1.16c0.36,0.01,0.8,0.37,0.66,0.8c-0.37,0.18-0.37-0.32-0.53,0.3c-0.23-0.24-0.53-0.52-0.02-0.62
						c-0.14-0.08-0.23-0.24-0.37-0.32c-0.42,0.19-0.36,0.74-0.44,0.96c0.05-0.08,0.11-0.17,0.19-0.19l0.29,1.1
						c-0.22,0.07-0.32-0.09-0.41-0.25c-0.02,0.19,0.14,0.39,0.08,0.66c-0.34-0.21-0.72-0.34-0.76-0.76l0.09,0.97
						c-0.18-0.01-0.6,0.25-0.69,0.09c-0.39,0.37,0.28,1.39-0.23,1.88c0.06,0.06,0.1,0.15,0.11,0.3c-0.3,0.53-0.95,0.86-0.71,1.72
						l-0.8,0.12c-0.06,0.58,1.03-0.19,0.93,0.78c-0.04,0.7-0.65,0.01-0.92,0.15c0.21,0.44,0.67,1.24-0.09,1.59
						C125.57-156.86,125.72-156.97,125.74-157.16z M123.45-150.57c-0.04-0.16-0.24-0.53,0.07-0.52
						C123.97-150.74,123.68-150.73,123.45-150.57z M120.71-140.22c-0.12-0.15,0.01-0.27,0.24-0.37
						C120.94-140.46,120.88-140.33,120.71-140.22z M116.53-111.09l-0.02-0.02C116.73-111.37,116.64-111.28,116.53-111.09z
						 M116.26-110.53c0.06,0.06,0.13,0.07,0.2,0.05c-0.12-0.05-0.11-0.18-0.06-0.33C116.26-110.78,116.16-110.72,116.26-110.53z
						 M136.66-173.92l-0.16,0.08C136.45-174.15,136.55-174.04,136.66-173.92z"/>
					<path d="M120.5-141.59c0.09-0.01,0.18,0.01,0.27,0.04C120.71-141.63,120.62-141.66,120.5-141.59z"/>
					<path d="M127.1-161.27c0.01-0.01,0.01-0.01,0.01-0.02c-0.02-0.02-0.05-0.04-0.07-0.05L127.1-161.27z"/>
					<path d="M113.83-120.72c0.09-0.11,0.2-0.17,0.29-0.19C114.01-120.95,113.9-120.91,113.83-120.72z"/>
					<path d="M117.07-107.93c-0.06-0.07-0.11-0.15-0.16-0.24c0.04,0.13-0.06,0.18-0.12,0.26C116.9-107.93,117.05-108,117.07-107.93z
						"/>
					<path d="M115.61-104.31c0.08,0.01,0.09,0.09,0.17,0.09l0.15-0.16C115.76-104.55,115.51-104.57,115.61-104.31z"/>
					<path d="M115.55-107.36c-0.39,0.11-0.21,0.3-0.07,0.49c-0.01-0.01-0.01-0.02-0.01-0.04
						C116.03-107.02,115.78-107.17,115.55-107.36z"/>
					<path d="M115.51-106.82c0.04,0.06,0.07,0.13,0.08,0.2C115.81-106.68,115.6-106.72,115.51-106.82z"/>
					<path d="M116.46-109.8c-0.11,0.11,0.51,0.1,0.34,0.16C117.31-109.48,116.24-110.45,116.46-109.8z"/>
					<path d="M114.3-106.85l0.46-0.21l-0.43-0.06C114.32-107.03,114.3-106.94,114.3-106.85z"/>
					<path d="M114.42-109.05l-0.13,0.44c0.08-0.01,0.14,0.04,0.18,0.11C114.46-108.77,114.57-109.06,114.42-109.05z"/>
					<path d="M114.46-108.5c-0.01,0.14,0.02,0.27,0.11,0.34C114.56-108.23,114.53-108.39,114.46-108.5z"/>
					<path d="M114.02-107.43l0.08-0.15l0-0.32C114.07-107.74,114.04-107.58,114.02-107.43z"/>
					<path d="M115.04-113.77l-0.07-0.5c-0.16-0.08-0.29,0.04-0.25,0.23C114.82-113.91,114.86-113.72,115.04-113.77z"/>
					<path d="M113.46-112.49c0.12-0.12,0.24-0.11,0.41-0.17l-0.61-0.1L113.46-112.49z"/>
					<path d="M113.53-113.94c-0.16-0.07-0.38-0.79-0.44-0.16C113.25-114.02,113.32-113.51,113.53-113.94z"/>
					<polygon points="115.65,-121.1 115.63,-120.98 116.63,-120.77 					"/>
					<path d="M114.93-128.08c-0.4,0.5,0.56,0.31,0.12,0.73c0.19,0.2,0.36-0.35,0.52-0.16C115.43-127.91,115.62-128.05,114.93-128.08
						z"/>
					<path d="M115.57-127.5c0.02,0.07,0.05,0.14,0.1,0.22C115.64-127.4,115.6-127.46,115.57-127.5z"/>
					<polygon points="142.91,-195.32 143.24,-195.47 142.85,-195.47 					"/>
					<path d="M142.55-196.2l0.59,0.28l-0.4-0.47C142.72-196.31,142.7-196.17,142.55-196.2z"/>
					<path d="M121.85-150.08l0.13,0.08c0.18,0.01,0.22-0.07,0.31-0.22L121.85-150.08z"/>
					<polygon points="124.18,-154.62 124.14,-154.54 124.74,-154.47 					"/>
					<path d="M125.05-158.83c-0.09,0.15-0.04,0.39-0.13,0.54C124.97-158.68,125.75-158.6,125.05-158.83z"/>
				</g>
			</g>
		</g>
	</g>
</g>
<g class="st1">
	<g class="st2">
		<g>
			<g>
				<g>
					<path d="M117.42-104.36c0.08,0.06,0.13-0.36,0.16-0.43C117.43-104.73,117.39-104.25,117.42-104.36z"/>
					<path d="M115.39-104.36l0.14-0.11c-0.17,0.05-0.34,0.08-0.52,0.1C115.14-104.36,115.26-104.35,115.39-104.36z"/>
					<path d="M114.09-105.97c-0.26,0.26-0.12,0.43,0.07,0.57c0.21,0.13,0.45,0.24,0.48,0.46l-0.08,0.15
						c0.18-0.08,0.36-0.16,0.54-0.25C114.73-105.28,114.09-105.59,114.09-105.97z"/>
					<path d="M115.04-107.57c-0.24,0.15-0.3-0.1,0,0.23c0.02-0.03,0.03-0.04,0.05-0.06C115.08-107.43,115.05-107.47,115.04-107.57z"
						/>
					<path d="M115.09-107.4C115.19-107.24,115.26-107.59,115.09-107.4L115.09-107.4z"/>
					<path d="M114.67-108.16l0.3,0.17c0.14-0.1,0.12-0.3,0.26-0.26C115.04-108.45,114.89-108.37,114.67-108.16z"/>
					<path d="M114.11-108.28l0.13,0.11C114.3-108.21,114.31-108.25,114.11-108.28z"/>
					<path d="M114.53-107.95l-0.29-0.22c-0.1,0.06-0.32,0.13,0.11,0.11C114.14-108.03,114.35-108.02,114.53-107.95z"/>
					<path d="M114.47-107.76c-0.1,0.18-0.12,0.41-0.45,0.22C114.29-107.06,114.73-107.33,114.47-107.76z"/>
					<path d="M113.39-105.72c-0.02,0.11-0.04,0.21-0.06,0.32l0.32,0.06C113.49-105.37,113.57-105.84,113.39-105.72z"/>
					<path d="M114.83-109.7c-0.15-0.02-0.4,0.1-0.6,0.12c0.06,0.07,0.12,0.12,0.19,0.18C114.51-109.49,114.61-109.69,114.83-109.7z"
						/>
					<path d="M114.23-109.58l-0.26-0.31C113.94-109.61,114.07-109.56,114.23-109.58z"/>
					<path d="M113.32-108.16c0.21,0.14,0.44,0.26,0.66,0.38c-0.24-0.14-0.47-0.3-0.69-0.48L113.32-108.16z"/>
					<path d="M114.91-110.82l0.33,0.2c-0.17-0.11-0.34-0.23-0.5-0.36L114.91-110.82z"/>
					<path d="M114.96-111.61c0.26,0.18,0.52-0.09,0.67,0.08c-0.02-0.21-0.22-0.44-0.4-0.66
						C115.31-111.98,115.24-111.81,114.96-111.61z"/>
					<path d="M114.98-112.55c0.04,0.11,0.14,0.23,0.25,0.36C115.18-112.29,115.11-112.41,114.98-112.55z"/>
					<path d="M114.07-110.43c0.09-0.02,0.33-0.05,0.45-0.21l-0.44,0.09C114.08-110.52,114.07-110.48,114.07-110.43z"/>
					<path d="M114.07-110.56l0.01,0c0.03-0.14,0.04-0.23,0.05-0.27C114.12-110.8,114.1-110.71,114.07-110.56z"/>
					<path d="M114.06-110.4l0-0.03C114.02-110.42,114.01-110.42,114.06-110.4z"/>
					<path d="M113.57-109.06c-0.25-0.15-0.53-0.56-0.87-0.13C113-109.07,113.19-109.3,113.57-109.06z"/>
					<path d="M113.52-110.27c-0.04,0.12-0.08,0.24-0.11,0.36c0.11-0.01,0.28-0.07,0.4,0.03
						C113.71-110.01,113.61-110.14,113.52-110.27z"/>
					<polygon points="113.39,-110.45 113.52,-110.27 113.56,-110.4 					"/>
					<path d="M114.45-112.04c-0.15-0.19-0.13-0.36-0.11-0.56c-0.13,0.18-0.22,0.39-0.26,0.59
						C114.2-111.96,114.42-111.83,114.45-112.04z"/>
					<path d="M114.2-111.32l-0.02-0.04C114.15-111.35,114.13-111.33,114.2-111.32z"/>
					<path d="M114.92-114.5c-0.03,0-0.06,0-0.08,0.01l0.07,0.03L114.92-114.5z"/>
					<path d="M113.99-111.99c-0.11,0.14-0.02,0.25,0.09,0.36c-0.02-0.12-0.03-0.25-0.01-0.38
						C114.02-112.04,113.98-112.05,113.99-111.99z"/>
					<path d="M114.92-113.11c-0.11,0.05-0.21,0.12-0.3,0.2C114.77-112.95,115.02-113.05,114.92-113.11z"/>
					<path d="M114.31-111.39c0.01,0.01,0.01,0.02,0.02,0.02C114.42-111.4,114.38-111.4,114.31-111.39z"/>
					<path d="M114.31-111.39c-0.05-0.09-0.15-0.16-0.23-0.24c0.01,0.1,0.05,0.19,0.1,0.27
						C114.22-111.37,114.26-111.39,114.31-111.39z"/>
					<path d="M112.56-116.05c0.36,0.17,0.54,0.74,0,0.99c0.15,0.48,1.47,0.63,2.27,0.57c-0.16-0.07-0.31-0.12-0.4-0.57
						c-0.25,0.05-0.77,0.67-1,0.23c-0.02-0.58,0.28-0.37,0.56-0.54c-0.54,0.04-0.43-0.9-1.15-1.05l0.07,0.55
						C112.81-115.91,112.7-116.14,112.56-116.05z"/>
					<path d="M114.56-113.82l0,0.16c0.12-0.15,0.31-0.22,0.68-0.34c-0.1-0.31-0.22-0.41-0.34-0.47l-0.3,0.72L114.56-113.82z"/>
					<path d="M114.37-113c-0.39-0.22-0.45-0.65-0.97-0.55c-0.1,0.47,0.26,0.41,0.37,0.73c0.08-0.74,0.18,0.26,0.55-0.19
						c0.04,0.16,0.03,0.28,0.01,0.4c0.08-0.11,0.18-0.22,0.28-0.31l-0.03,0.01l0,0l-0.01,0c-0.06,0.02-0.09,0.02-0.05-0.01
						c0,0,0-0.02,0-0.02C114.47-112.94,114.42-112.97,114.37-113c0.14-0.18,0.12,0,0.15,0.07l0.06,0.02l0.01,0
						c-0.02-0.25-0.02-0.5-0.03-0.76C114.46-113.53,114.41-113.34,114.37-113z"/>
					<path d="M111.75-109.55c0.04-0.03,0.07-0.03,0.1-0.03C111.8-109.63,111.76-109.65,111.75-109.55z"/>
					<path d="M112.01-109.88c0.06,0.06,0.23,0.1,0.19,0.29c-0.13,0.16-0.21,0-0.35,0.01c0.11,0.12,0.33,0.37,0.52,0.03l-0.06-0.05
						c0.14-0.32,0.69-0.68,0.75-0.62C112.67-110.16,112.39-110.09,112.01-109.88z"/>
					<path d="M112.99-111.59c-0.04-0.22-0.07-0.43-0.1-0.66l-0.43,0.25l0.22,0.02C112.53-111.63,112.83-111.66,112.99-111.59z"/>
					<polygon points="115.14,-114.5 115.55,-114.27 115.06,-114.83 					"/>
					<polygon points="115.37,-115.29 115.73,-115.12 115.59,-115.4 					"/>
					<path d="M128.8-163.42l-0.04-0.22C128.76-163.54,128.78-163.47,128.8-163.42z"/>
					<path d="M128.3-162.07l0.17,0.1C128.39-162.07,128.33-162.12,128.3-162.07z"/>
					<path d="M123.58-135.33c0.45-0.14,1.1-0.23,0.68-0.36l-0.44-0.08C123.82-135.55,123.72-135.42,123.58-135.33z"/>
					<path d="M126.47-150.16c-0.05,0.01-0.1,0.02-0.15,0.03c0.11,0.12,0.22,0.23,0.32,0.33
						C126.59-149.91,126.53-150.03,126.47-150.16z"/>
					<path d="M124.86-150.98l0.4-0.26C125.13-151.19,125-151.11,124.86-150.98z"/>
					<path d="M130.89-171.02l-0.35-0.36C130.43-171.03,130.69-171.11,130.89-171.02z"/>
					<path d="M118.7-123.62c0.25-0.17,0.39-0.33,0.48-0.48C118.84-123.91,118.4-123.83,118.7-123.62z"/>
					<path d="M132.96-161.38c-0.03-0.14-0.1-0.22-0.19-0.25C132.8-161.48,132.85-161.39,132.96-161.38z"/>
					<path d="M119.46-124.77c-0.06,0.02-0.09,0.06-0.15,0.08c0,0.2-0.02,0.39-0.13,0.59C119.44-124.23,119.64-124.43,119.46-124.77z
						"/>
					<path d="M139.63-198.16c0.02-0.01,0.04-0.04,0.07-0.05C139.64-198.23,139.63-198.21,139.63-198.16z"/>
					<path d="M146.08-205.03c0,0.09-0.03,0.22-0.06,0.34C146.06-204.74,146.09-204.84,146.08-205.03z"/>
					<path d="M116.87-118.4C116.83-118.22,116.91-118.36,116.87-118.4L116.87-118.4z"/>
					<path d="M114.94-118.24c-0.03-0.06-0.07-0.11-0.16-0.15C114.86-118.34,114.91-118.29,114.94-118.24z"/>
					<path d="M117.68-127.53l0.01-0.01C117.58-127.53,117.6-127.53,117.68-127.53z"/>
					<path d="M116.58-118.22c0.08-0.04,0.15-0.1,0.21-0.17C116.75-118.37,116.68-118.32,116.58-118.22z"/>
					<path d="M116.78-118.18c-0.04,0.05-0.07,0.1-0.1,0.13C116.74-117.99,116.79-117.99,116.78-118.18z"/>
					<path d="M116.95-118.65c-0.04,0.1-0.09,0.19-0.16,0.26c0.04-0.02,0.07-0.03,0.08-0.01
						C116.89-118.46,116.91-118.53,116.95-118.65z"/>
					<path d="M136.39-183.17c0.02-0.01,0.03-0.02,0.05-0.03C136.32-183.43,136.32-183.34,136.39-183.17z"/>
					<path d="M121.17-141.52c0,0.01,0.01,0.02,0.01,0.03l0.02-0.02L121.17-141.52z"/>
					<path d="M121.1-142.26c0.4,0.46,0.28,0.59,0.1,0.75l1.25,0.24L121.1-142.26z"/>
					<path d="M129.8-166.72l-0.52,0.32c-0.42-0.74-0.08-1.06-0.74-0.82c1.26,0.5-0.46,1.77,0.81,2.28l-0.37,0.2
						c0.04-0.08-0.03-0.12,0.01-0.2c-0.81,0.36,0.78,0.74,0.35,1.42c-0.19,0.22-0.44,0.34-0.53,0.11l0.12,0.68
						c-0.08,0.16-0.29,0.04-0.21-0.12l-0.2,0.9l-0.04-0.02c0.16,0.19,0.37,0.58,0.45,0.77c-0.26,0.16-0.1-0.16-0.28-0.16l0.14,0.59
						c-0.4,0.08-0.58-0.43-0.42-0.75c-1.44,0,0.18,0.51-0.9,1.22l0-0.51c-0.83,0.04-0.69,0.48-1.32,0.84
						c0.28-0.04,1.5-0.63,1.64,0.01c-0.15,0.11-0.26,0.29-0.1,0.66c-0.46-0.16-0.44,0.16-0.54,0.51l-0.59-0.24
						c0.04,0.43,0.36,0.51,0.56,0.83c-0.21,0.39-0.71,0.31-1.13,0.27c-0.33,0.63,0.91-0.19,0.74,0.63c-0.43,0.47-0.32,0.94-0.2,1.73
						c-0.35,0.31-0.34-0.2-0.57-0.12l0.36,0.51c-0.04,0.08-0.18,0-0.25-0.04c0.08,0.36,0.59,0.24,0.59,0.75
						c0.62,0.36-1.3,0.58-0.75,1.41c-0.22,0.08-0.34-0.2-0.59-0.24c0.22,0.95,0.12,0.79,0.55,1.66l-0.59,0.39
						c0.6-0.23,0.94,0.47,1.22,1.08c0.27-0.06,0.5-0.11,0.63-0.16l0.06,0.83c-0.13,0.05-0.31-0.1-0.52-0.31
						c0.03,0.07,0.06,0.13,0.1,0.18c-0.32,0.17-0.61-0.09-0.88-0.39c0.15-0.04,0.31-0.08,0.46-0.12c-0.3-0.31-0.64-0.62-1.01-0.71
						c0.05,0.07,0.08,0.18,0.08,0.29c-0.08-0.08-0.16-0.14-0.23-0.14c-0.07,0,0.03,0.12,0.14,0.29l-0.73-0.09l0.25,0.14l-0.76,0.77
						c0.43,0.91,1.21,1.85,1.09,3c-0.39-0.44-0.78-0.36-1.35-0.59c0.72-0.06,0.04-0.91,0.37-1.4c-0.17,0.26-0.42,0.09-0.49-0.01
						l0.2,1.18c-0.47-0.2-0.43,0.07-0.72,0.25c1.01,0.16,0.35,0.95,0.49,1.45c-0.32-0.09-0.61-0.31-0.35-0.76
						c-0.91,0.26,0.84,1.1,0.04,1.39c0.04-0.12,0.11-0.16-0.03-0.27c0.18,0.38-0.3,0.96-0.51,0.7l0.04-0.12
						c-0.41,0.73-0.91,2.36-0.16,2.78c-0.11-0.03-0.92-0.47-1.06-0.58l2.14,2.41c-0.63-0.39-2.44-0.55-2.57-1.34
						c-0.17,0.15-0.37,0.33-0.28,0.81c0.15-0.09,1.11,0.07,1.1,0.26c-0.94,0.18-0.53,0.17-1.41,0.5c0.22-0.13,1.21,0.49,1.05,0.78
						c-0.14-0.11-1.06-0.39-1.13-0.54l0.76,1.15c-0.12-0.26-0.87-0.38-1.24-0.33c0.24,0-0.27,0.63-0.24,0.87l0.37-0.22
						c-0.49,0.77,1.15,1.4,0.77,2.21c-0.18-0.19-1.23-0.77-1.53-0.4c0.46,0.41,2.24,1.88,2.35,2.78l-0.36,0.02l0.12,0.7
						c-0.66-0.67-1.96-2.33-2.41-3.13c-0.37,0.22-0.4-0.06-0.56,0.42c-0.35,0.05-0.33-0.43-0.29-0.57l-0.62,1.01
						c0.64,0.2,0.29,1.08,0.83,1.25l-0.17-1.44c0.64,0.2,1.5,1.39,1.08,2.12c-0.33,0.1-1.05-0.59-1.27-0.66
						c0.17,0.19,0.12,0.89-0.06,0.9l-0.2-0.46c-0.41,0.33,0.55,1.03-0.26,1.31c-0.11,0.16-1.02,0.21-0.66,0.39
						c0.83,0,3.05,0.83,3.51,1.24c-0.07,0.04-1.06,0.66-1.49,0.72c-0.68,0.07-1.15-0.98-1.73-0.93c0.17,0.08,0.31,0.33,0.35,0.42
						c-0.22,0.13-0.5-0.29-0.58,0.14c0.6,0.33-0.39,0.8,0.45,0.41c0.02,0.47-0.3,0.37-0.47,0.84c0.47,0.02,1.21,0.99,1.23,1.46
						c-0.15-0.09-0.4-0.09-0.51-0.08c-0.39,0.79-0.86,1.11-1.18,1.86c-0.18,0.01-0.52,0.29-0.72,0.03c0.07,0.16,0.24,0.34,0.16,0.58
						c-0.73,0.22,0.13-0.56-0.67-0.48c0.35,0.18,0.26,0.81,0.34,1.24c0.61,0.14,0.43-0.72,0.34-1.15c0.78,0.32,1.36,1.24,1.38,2.18
						c-0.07,0.71-0.62,0.06-0.55,0.22c-0.63,1.12,0.93,1.58-0.04,2.32c-0.66,0.18-0.99-0.4-1.39-0.47c0.03-0.59,0.65-0.65,0.77-1.01
						l-0.41,0.33c-0.1-0.23-0.08-0.63,0.15-0.75c-0.58,0.14-0.93,1.95-1.72,2.69c0.1,0.23,0.15,0.58,0.41,0.54l0.05-0.32
						c0.51-0.09,0.32,0.78,0.66,0.49c0.12,0.51,0.37,1.13-0.08,1.57l-0.61-0.14c0.17,0.06,0.48-0.21,0.38-0.43
						c0.15,0.33-1.12,0.5-0.48,1.06l0.55-0.21c0.12,0.5,0.53,1.21,0.17,1.6c0.64,0.01-0.02-0.13,0.77-0.2
						c-0.94-0.04,0.52-1.17-0.52-1.07c0.9-0.02,0.57-0.46,1.41-0.64c-0.19-0.07-0.42,0.01-0.16-0.35c-0.05-0.04-0.1-0.11-0.13-0.16
						c0.01-0.01,0.02-0.01,0.03-0.02l-0.03,0.01c-0.02-0.03-0.03-0.03-0.01,0.01c-0.12,0.06-0.25,0.1-0.37,0.08
						c-0.34-0.38-0.06-1.02-0.18-1.33c0.19-0.2,0.17,0.19,0.42,0.15l-0.19-0.47c0.43,0.14,0.96-0.35,0.96,0.32l0.23-0.5
						c0.36-0.2,0.63-0.58,0.56-0.9c0.19-0.2-0.2-0.8,0.03-0.45l0.08-0.91l0.11,0.04c0.39-0.77,0-1.91,1.12-2.51
						c0.01-0.31-0.01-0.64,0.29-1.04l0.39,0.06c0.02-0.39,0.78-0.88,0.47-1.18c1.12,0.03,0.9-1.58,1.32-2.11l-0.46-0.21
						c0.19-0.41,0.22-0.86,0.24-1.45l-0.43-0.14c-0.16-0.58,0.76-1.02,1-1.75c0.14,0.11,0.03,0.27-0.12,0.36
						c1.28-0.47,0.03-2.05,1.02-2.54c-0.08-0.25,0.03-0.37,0.19-0.46c-0.01,0.02,0,0.04,0,0.06c0.01-0.02,0.02-0.05,0.04-0.08
						c0.1-0.06,0.22-0.11,0.33-0.18c-0.13,0.04-0.25,0.08-0.31,0.13c0.05-0.15,0.08-0.39,0.07-0.65l0.48,0.08
						c0-0.02,0.01-0.03,0.01-0.06c0.25-0.15-0.14-0.26-0.53-0.27c-0.03-0.14-0.08-0.27-0.16-0.4c0.79,0.11-0.02-0.67,0.85-0.6
						c-0.32-0.29,0.15-1.21-0.6-1.64c0.11,0.03,0.18-0.01,0.14,0.11c0.19-0.21,0.37-0.42,0.23-0.72l0.61,0.12l-0.56-0.83
						c0.47-0.19,0.73-0.24,1.04,0.25c-0.37-1.04-0.01-0.73-0.43-1.65l0.36,0.17c0.08-0.24-0.28-0.81,0.08-0.83
						c0.9-0.26,1.1-2.58,2.26-3.69c-1.19-0.15,0.72-0.45-0.1-0.82c0.29,0.02,0.5-0.12,0.65,0.19c0-0.79,0.8-0.89,0.26-1.64
						c0.29,0.02,0.32,0.29,0.5,0.28c-0.04-0.08-0.14-0.3,0.04-0.32c0.18-0.01,0.18,0.18,0.25,0.33c0.22-0.73-0.55-1.09-1.28-1.42
						c0.49-0.23,0.5-0.43,0.11-0.87c0.29-0.03,0.62-0.15,0.55,0.32c0.13-0.23,0.92-1.38,0.33-1.63c0.18-0.02,0.17-0.33,0.12-0.42
						c0.24-0.55,0.31-0.57,0.45-1.14l-0.15,0.12c-0.65-0.48,0-0.51,0.07-0.99l0.07,0.04c0.89-0.82-0.09-0.53,0.86-1.31l-0.47-0.11
						c-0.94-0.44,0.89-0.68,0.73-1.39l-0.33,0.12c-0.22-0.43,1.64-0.42,1.87-0.69c0.11-0.04,0.1,0.16,0.13,0.28
						c0.87-0.63-0.55-0.32-0.47-0.99c0.36,0,0.76,0.44,0.97,0.04c0.33-0.12-0.61-1.58,0.2-1.94c-0.29,0.04-0.58,0.08-0.66-0.28
						c0.07-0.47,1.35-0.88,0.72-1.55c0.09-0.03,0.16-0.03,0.22-0.01c-0.08-0.41,0.05-1.22-0.3-1.57c1.67,0.22-0.04-2.37,1.4-1.87
						l0.28-1.07l0.14,0.08c0.32-0.64,0.06-0.99-0.21-1.34c0.15-0.12,0.25,0.04,0.32,0.08c0.63-0.88,0.59-1,0.14-2.06l0.5,0.07
						c-0.2-0.31,1.21-1.17,0.98-2.32c0.05,0.03,0.13,0.08,0.18,0.18c-0.19-1.26,2.16-2.17,0.57-3.12l-0.19-0.85
						c-0.43,0.88-0.7-0.38-1.11-0.09c0.02-0.4,0.82-0.77,0.76-0.3l-0.11,0.04c0.84,0.45,0.69-1.05,1.29-0.83
						c0.55-1.83,1.6-3.46,2.17-5.16l-0.76-0.02l0.23-0.58c0.21-0.11,0.61-0.04,0.45,0.38c0.47-0.1-0.11-0.82-0.26-0.88
						c0.54-0.75,0.71,0.58,0.81,0.33l0.06-0.36l-0.11,0.05c-0.2-0.37-0.49-0.49-0.3-0.99c0.24-0.28,0.48-0.03,0.55-0.15
						c0.05,0.02,0.09-0.02,0.08-0.19l0.29-0.74l-0.64,0.13c-0.17-0.42,0.24-0.7-0.49-0.54c1.12-0.22,1.19-2.71,1.59-2.93
						c-0.26-0.59-0.12-1.05,0.1-1.61c-0.16,0.11-0.81,0.01-0.58-0.46c1.23,0.56,0.83-0.74,1.87-0.87c-0.72,0.18,0.26-1.45-0.78-1.15
						c0.22-0.38,0.49,0.12,0.88-0.11c-0.21-1.13,0.95-2.07,1.14-3.34c-0.16-0.07-0.48,0.06-0.66-0.27l1.03-0.4
						c-0.02-0.26-0.91-0.5-0.2-0.77c-0.16,0.02-0.4,0.05-0.41-0.12c1.5-2.16,0.7-5.06,2.9-7.07c-0.42,0.24-0.39,0.01-0.34-0.24
						c-0.12,0.14-0.42-0.12-0.66-0.15l0.92-0.85c-0.59-0.36,0.25-1.1-0.33-1.37l0.02,0.35c-0.61-0.62-1.77,0.17-2.67-0.14
						c0.69,0.7-1.55,0.93-0.6,2.03c-0.24,0.12-0.26-0.23-0.5-0.19c0.34,0.31,0.36,0.57,0.06,0.97l-0.08-0.08
						c-0.24,1.28-0.78,1.7-1.43,3.03l0.49,0.02c-0.15,0.28-0.31,0.31-0.46,0.42c0.59,0.54,0.28-0.83,0.95-0.31
						c-1.04,0.14-0.61,2.12-1.74,2.09c-0.14,0.46,0.57,0.01,0.43,0.47l-0.32,0.04l0.33,0.22c-0.15,0.29-0.55,0.34-0.79,0.28
						c0.05-0.07-0.01-0.23-0.01-0.31c-0.45,0.3-0.2,1.14-0.35,1.24l0.3-0.39c-0.1,1.34-0.92,2.76-0.69,4.15l0.24-0.03
						c0.13,1.05-0.45,0.68-0.57,1.75l-0.04-0.05c0.15,0.27,0.18,0.57,0.07,0.84c-0.17-0.33-0.63,0.34-0.81-0.08
						c0.12,1.13,0.18,0.6,0.78,1.5l-0.4,0.05c0.25,0.32,0.42,0.39,0.36,0.93c-0.18-0.51-0.64,0.16-0.9-0.43
						c-1.1,0.83,0.31,1.82-0.97,1.97c0.83,0.79,0.82-0.76,0.95-0.42c0.39-0.13,0.61,0.63,0.41,0.93c-0.13,0.33-1.43,0.2-1.67,1.06
						c0.03-0.08-0.04-0.11-0.01-0.2c-0.35,0.24,0.14,0.73-0.38,1c0.52,0.4-0.19,0.5,0.54,0.8l0.07-0.84c0.06,0.5,0.82,1.2,0.16,1.8
						c-0.13-0.1-0.27-0.38-0.33-0.57c-0.29,0.14,0.02,0.46-0.28,0.61c-0.74-0.3,0.13-1-0.3-1.66c-0.39,0.13,0.27,1.07-0.48,0.58
						c0.94,0.67-0.39,0.8,0.22,1.63l-0.44-0.18c0.04,0.11,0.2,0.37,0.13,0.53l-0.49-0.49c0.36,0.62-0.72,0.76-0.58,1.3
						c0.28-0.94,0.61-0.04,1.06-0.33c0.25,1.35-1.39,0.3-1.59,1.66c-0.01-0.2,0.48-0.57,0.6-0.23c-0.17,0.22-0.45,0.49-0.74,0.56
						c-0.18,0.89,0.51,0.02,0.67,0.47c-0.64,0.12,0.09,0.49,0.15,0.93l-0.46-0.14c-0.61,0.88,0.87,0.57,0.24,1.33l-0.52-0.58
						l0.02,0.51l-0.49-0.26c0.23,0.62,0.08,0.75-0.23,1.19c0.36-0.01,0.81,0.33,0.69,0.77c-0.37,0.21-0.38-0.31-0.51,0.33
						c-0.24-0.23-0.55-0.5-0.05-0.63c-0.14-0.08-0.24-0.23-0.38-0.31c-0.42,0.22-0.33,0.78-0.4,1c0.05-0.08,0.1-0.17,0.19-0.2
						l0.34,1.09c-0.22,0.08-0.32-0.07-0.42-0.23c-0.01,0.2,0.16,0.39,0.11,0.67c-0.35-0.19-0.74-0.3-0.79-0.73l0.13,0.98
						c-0.18,0-0.59,0.29-0.69,0.13c-0.37,0.4,0.34,1.39-0.15,1.91c0.06,0.06,0.11,0.14,0.12,0.29c-0.28,0.56-0.9,0.92-0.63,1.78
						l-0.8,0.17c-0.03,0.59,1.02-0.25,0.96,0.74c0,0.71-0.65,0.05-0.91,0.21c0.23,0.43,0.72,1.21-0.02,1.61
						C129.63-166.41,129.78-166.53,129.8-166.72z M127.79-159.97c-0.05-0.16-0.26-0.52,0.05-0.52
						C128.31-160.17,128.02-160.14,127.79-159.97z M125.24-149.51c-0.11-0.15,0.01-0.27,0.25-0.37
						C125.48-149.75,125.41-149.62,125.24-149.51z M117.32-120.46l-0.02-0.02C117.59-120.69,117.48-120.62,117.32-120.46z
						 M116.87-119.95c0.04,0.09,0.1,0.11,0.17,0.11c-0.1-0.09-0.05-0.22,0.05-0.36C116.96-120.21,116.85-120.17,116.87-119.95z
						 M140.08-184.12l-0.16,0.08C139.88-184.35,139.97-184.24,140.08-184.12z"/>
					<path d="M125.05-150.88c0.09-0.01,0.18,0.01,0.27,0.04C125.25-150.92,125.17-150.95,125.05-150.88z"/>
					<path d="M130.95-170.95c0.01-0.01,0.01-0.01,0.01-0.02c-0.02-0.02-0.05-0.04-0.08-0.05L130.95-170.95z"/>
					<path d="M116.88-130.59c0.11-0.09,0.22-0.13,0.32-0.14C117.09-130.78,116.98-130.76,116.88-130.59z"/>
					<path d="M116.32-116.56l0.04-0.41c-0.05,0.19-0.18,0.21-0.28,0.27C116.19-116.67,116.36-116.67,116.32-116.56z"/>
					<path d="M112.34-114.4c0.04,0.07-0.03,0.12,0.01,0.2l0.22,0.05C112.62-114.4,112.51-114.62,112.34-114.4z"/>
					<path d="M114.7-116.83c-0.39-0.13-0.35,0.16-0.39,0.44c0-0.02,0.01-0.03,0.02-0.05C114.83-116.15,114.76-116.49,114.7-116.83z"
						/>
					<path d="M114.3-116.32c-0.02,0.09-0.04,0.17-0.08,0.24C114.42-115.97,114.3-116.16,114.3-116.32z"/>
					<path d="M116.81-119.1c-0.15,0.08,0.44,0.28,0.26,0.29C117.49-118.47,116.85-119.89,116.81-119.1z"/>
					<polygon points="113.38,-117.13 113.88,-117.03 113.57,-117.33 					"/>
					<path d="M114.59-119.05l-0.31,0.36c0.08,0.03,0.1,0.1,0.11,0.18C114.52-118.76,114.73-119.01,114.59-119.05z"/>
					<path d="M114.39-118.51c-0.07,0.13-0.11,0.26-0.07,0.37C114.35-118.22,114.41-118.38,114.39-118.51z"/>
					<polygon points="113.48,-117.76 113.63,-117.85 113.79,-118.13 					"/>
					<path d="M116.59-123.52l0.06-0.51c-0.14-0.11-0.29-0.03-0.3,0.17C116.41-123.71,116.4-123.51,116.59-123.52z"/>
					<path d="M114.74-122.67c0.15-0.08,0.25-0.05,0.44-0.05l-0.57-0.26L114.74-122.67z"/>
					<path d="M115.17-124.05c-0.14-0.11-0.18-0.85-0.38-0.26C114.92-124.2,114.86-123.69,115.17-124.05z"/>
					<polygon points="118.74,-130.65 118.7,-130.53 119.65,-130.17 					"/>
					<path d="M118.92-137.66c-0.44,0.46,0.53,0.36,0.06,0.74c0.17,0.22,0.39-0.31,0.53-0.1C119.4-137.45,119.6-137.57,118.92-137.66
						z"/>
					<path d="M119.51-137.02c0.02,0.07,0.04,0.14,0.08,0.23C119.56-136.92,119.54-136.98,119.51-137.02z"/>
					<polygon points="146.97,-206.23 147.27,-206.54 146.88,-206.39 					"/>
					<path d="M146.43-207.13l0.65,0.08l-0.51-0.37C146.58-207.33,146.59-207.15,146.43-207.13z"/>
					<path d="M126.21-159.42l0.14,0.08c0.18,0,0.22-0.08,0.3-0.24L126.21-159.42z"/>
					<polygon points="128.36,-164.08 128.31,-164 128.92,-163.96 					"/>
					<path d="M129.03-168.37c-0.08,0.16-0.02,0.39-0.1,0.55C128.95-168.21,129.73-168.18,129.03-168.37z"/>
				</g>
			</g>
		</g>
	</g>
</g>
</svg>
