<?xml version="1.0" encoding="utf-8"?>
<!-- Generator: Adobe Illustrator 26.0.3, SVG Export Plug-In . SVG Version: 6.00 Build 0)  -->
<svg version="1.1" id="Layer_1" xmlns="http://www.w3.org/2000/svg" xmlns:xlink="http://www.w3.org/1999/xlink" x="0px" y="0px"
	 viewBox="0 0 1806.4 80.77" style="enable-background:new 0 0 1806.4 80.77;" xml:space="preserve">
<style type="text/css">
	.st0{fill:#74CBC5;}
	.st1{fill:none;stroke:#74CBC5;stroke-width:2;stroke-miterlimit:10;}
	.st2{fill:none;stroke:#74CBC5;stroke-width:2;stroke-miterlimit:10;stroke-dasharray:11.9031,7.9354;}
	.st3{fill:none;stroke:#74CBC5;stroke-width:2;stroke-miterlimit:10;stroke-dasharray:11.8603,7.9069;}
</style>
<g>
	<g>
		<g>
			<g>
				<path class="st0" d="M1802.96,46.9c-14.45,7.84-28.65,16.23-43.65,23.01c-4.07,1.84-8.19,3.55-12.4,5.05
					c-0.5,0.18-1.78,0.81-1.23,1.49c0.53,0.66,2.26,0.1,2.84-0.1c15.75-5.61,30.49-13.87,45.08-21.94c3.98-2.2,7.95-4.41,11.95-6.58
					c0.57-0.31,1.31-0.98,0.46-1.41C1805.19,45.99,1803.69,46.5,1802.96,46.9L1802.96,46.9z"/>
			</g>
		</g>
		<g>
			<g>
				<path class="st0" d="M1736.72,50.39c16.93-0.6,33.87-1.2,50.81-1.8c4.81-0.17,9.63-0.34,14.44-0.51
					c0.83-0.03,2.3-0.62,2.44-1.57c0.15-1.05-1.24-1.12-1.92-1.1c-16.93,0.6-33.87,1.2-50.81,1.8c-4.81,0.17-9.63,0.34-14.44,0.51
					c-0.83,0.03-2.3,0.62-2.44,1.57C1734.65,50.34,1736.04,50.41,1736.72,50.39L1736.72,50.39z"/>
			</g>
		</g>
		<g>
			<g>
				<path class="st0" d="M1735.72,50.47c6.42,7.21,10.02,16.63,10.16,26.28c0.01,0.95,4.37,0.24,4.35-1.16
					c-0.15-9.83-3.91-19.34-10.44-26.67C1738.98,48,1734.88,49.52,1735.72,50.47L1735.72,50.47z"/>
			</g>
		</g>
		<g>
			<g>
				<path class="st0" d="M1730.31,32.66c-3.15-3.9-6.29-7.8-9.44-11.7c-0.22-0.28-0.86-0.32-1.16-0.32c-0.55,0-1.2,0.13-1.7,0.35
					c-0.53,0.23-1.79,0.88-1.19,1.61c3.15,3.9,6.29,7.8,9.44,11.7c0.22,0.28,0.86,0.32,1.16,0.32c0.55,0,1.2-0.13,1.7-0.35
					C1729.65,34.04,1730.9,33.39,1730.31,32.66L1730.31,32.66z"/>
			</g>
		</g>
		<g>
			<g>
				<path class="st0" d="M1718.49,22.78c21.36,5.3,42.54,11.28,63.51,17.96c5.96,1.9,11.9,3.85,17.82,5.85
					c1.49,0.5,5.09-1.66,2.63-2.5c-20.84-7.06-41.91-13.44-63.16-19.13c-6.04-1.62-12.09-3.17-18.16-4.68
					c-0.99-0.25-2.35,0.08-3.07,0.82C1717.39,21.77,1717.55,22.55,1718.49,22.78L1718.49,22.78z"/>
			</g>
		</g>
		<g>
			<g>
				<path class="st0" d="M1727.47,33.4c-3.4,11.34-7.2,22.56-11.39,33.64c-0.35,0.93,3.85,0.48,4.3-0.71
					c4.19-11.08,7.99-22.3,11.39-33.64C1732.08,31.66,1727.82,32.21,1727.47,33.4L1727.47,33.4z"/>
			</g>
		</g>
		<g>
			<g>
				<path class="st0" d="M1736.62,52.59c0.07-1.27,0.74-2.87,1.96-3.46c-1.07-0.04-2.14-0.07-3.22-0.11
					c-2.61,3.04-5.23,6.09-8.09,8.91c-2.74,2.71-5.74,5.33-9.22,7.04c-0.4,0.2-1.44,0.83-0.54,1.11c0.87,0.27,2.26-0.18,3.04-0.56
					c7.65-3.73,13.3-10.5,18.74-16.84c0.44-0.51-0.04-0.69-0.55-0.71c-0.89-0.04-1.87,0.22-2.66,0.6c-2.12,1.03-3.67,2.76-3.8,5.18
					C1732.24,54.36,1736.55,53.86,1736.62,52.59L1736.62,52.59z"/>
			</g>
		</g>
		<g>
			<g>
				<path class="st0" d="M1716.85,67.43c9.14,2.9,18.85,1.03,28.18,0.4c0.92-0.06,2.29-0.67,2.4-1.72c0.12-1.08-1.16-1.41-1.99-1.36
					c-8.56,0.58-17.68,2.49-26.07-0.17c-1.01-0.32-2.37,0-3.07,0.82C1715.67,66.15,1715.87,67.12,1716.85,67.43L1716.85,67.43z"/>
			</g>
		</g>
		<g>
			<g>
				<path class="st0" d="M1795.93,44.91c-16.52-2.31-32.98-5.04-49.36-8.22c-4.66-0.9-9.31-1.84-13.95-2.82
					c-0.96-0.2-2.34,0.18-3.07,0.82c-0.68,0.6-0.52,1.16,0.36,1.35c16.33,3.42,32.74,6.42,49.23,8.97
					c4.69,0.73,9.38,1.41,14.08,2.07c1,0.14,2.31-0.14,3.07-0.82C1796.92,45.7,1796.85,45.04,1795.93,44.91L1795.93,44.91z"/>
			</g>
		</g>
		<g>
			<g>
				<path class="st0" d="M1777.38,45.13c0.01-0.52-0.08-0.9-0.36-1.34c-0.18-0.27-0.45-0.52-0.73-0.68
					c-0.49-0.29-0.88-0.42-1.45-0.52c-0.58-0.11-1.17-0.04-1.74,0.08c-0.99,0.21-1.91,0.83-2.56,1.6c-0.46,0.54-0.8,1.19-1.1,1.83
					c-0.19,0.39-0.16,0.87,0.09,1.23c0.27,0.37,0.81,0.6,1.24,0.64c0.58,0.06,1.2-0.02,1.72-0.3c0.46-0.24,0.88-0.56,1.11-1.05
					c0.17-0.35,0.34-0.7,0.55-1.03c-0.09,0.13-0.17,0.27-0.26,0.4c0.15-0.23,0.32-0.44,0.51-0.63c-0.13,0.12-0.25,0.24-0.38,0.36
					c0.12-0.11,0.24-0.21,0.38-0.29c-0.16,0.1-0.32,0.19-0.48,0.29c0.1-0.06,0.2-0.11,0.31-0.15c-0.19,0.07-0.38,0.14-0.56,0.21
					c0.08-0.03,0.16-0.05,0.25-0.06c-0.2,0.03-0.39,0.07-0.59,0.1c0.1-0.02,0.2-0.02,0.3-0.02c-0.19,0-0.37-0.01-0.56-0.01
					c0.12,0,0.23,0.02,0.35,0.05c-0.17-0.04-0.34-0.08-0.5-0.12c0.13,0.03,0.25,0.07,0.36,0.13c-0.14-0.07-0.28-0.14-0.42-0.22
					c0.12,0.06,0.23,0.14,0.33,0.24c-0.11-0.1-0.21-0.2-0.32-0.3c0.08,0.09,0.15,0.18,0.21,0.28c-0.06-0.13-0.12-0.25-0.19-0.38
					c0.05,0.11,0.08,0.22,0.09,0.35c-0.01-0.14-0.02-0.28-0.03-0.42c0,0.03,0,0.06,0,0.08c-0.04,0.23,0,0.43,0.12,0.62
					c0.07,0.21,0.21,0.37,0.41,0.49c0.39,0.28,1.01,0.4,1.49,0.35c0.57-0.06,1.18-0.23,1.63-0.6
					C1776.96,46.02,1777.37,45.61,1777.38,45.13L1777.38,45.13z"/>
			</g>
		</g>
		<g>
			<g>
				<path class="st0" d="M1768.27,41.46c-2.7,0.8-5.22,2.4-6.89,4.69c-0.26,0.35-0.48,0.74-0.36,1.2c0.11,0.41,0.52,0.73,0.91,0.85
					c0.53,0.16,1.12,0.17,1.65,0.01c0.51-0.15,1.1-0.4,1.42-0.84c0.41-0.56,0.87-1.07,1.37-1.54c-0.13,0.11-0.25,0.23-0.38,0.34
					c0.53-0.48,1.11-0.91,1.73-1.28c-0.16,0.1-0.32,0.19-0.48,0.29c0.55-0.32,1.12-0.59,1.71-0.81c-0.19,0.07-0.38,0.14-0.56,0.21
					c0.22-0.08,0.43-0.15,0.65-0.21c0.52-0.15,1.06-0.42,1.42-0.84c0.25-0.29,0.5-0.79,0.36-1.2
					C1770.49,41.33,1769.13,41.2,1768.27,41.46L1768.27,41.46z"/>
			</g>
		</g>
		<g>
			<g>
				<path class="st0" d="M1759.85,39.96c-4.1,2.83-8.2,5.67-12.3,8.5c-0.57,0.39-1.31,1.23-0.38,1.7c0.86,0.44,2.32,0.12,3.08-0.41
					c4.1-2.83,8.2-5.67,12.3-8.5c0.57-0.39,1.31-1.23,0.38-1.7C1762.07,39.11,1760.61,39.43,1759.85,39.96L1759.85,39.96z"/>
			</g>
		</g>
		<g>
			<g>
				<path class="st0" d="M1751.94,38.82c-3.93,3.11-7.85,6.23-11.78,9.34c-0.2,0.16-0.56,0.48-0.47,0.79
					c0.08,0.31,0.55,0.42,0.8,0.45c1,0.11,2.28-0.19,3.07-0.82c3.93-3.11,7.85-6.23,11.78-9.34c0.2-0.16,0.55-0.48,0.47-0.79
					c-0.08-0.31-0.55-0.42-0.8-0.45C1754.02,37.89,1752.74,38.18,1751.94,38.82L1751.94,38.82z"/>
			</g>
		</g>
		<g>
			<g>
				<path class="st0" d="M1744.86,38.03c-5.78,3.56-11.24,7.61-16.36,12.06c-0.78,0.68,0.67,0.91,1.07,0.89
					c1.03-0.04,2.11-0.4,2.9-1.08c4.92-4.28,10.21-8.14,15.77-11.56c0.74-0.46,0.48-1.05-0.3-1.13
					C1746.88,37.1,1745.74,37.49,1744.86,38.03L1744.86,38.03z"/>
			</g>
		</g>
		<g>
			<g>
				<path class="st0" d="M1739.75,36.1c-1.85,1.47-3.76,2.86-5.74,4.17c-2.01,1.33-3.89,2.45-5.8,3.47
					c-0.67,0.36-1.75,1.19-1.08,2.04c0.61,0.78,2.16,0.62,2.92,0.21c4.4-2.36,8.59-5.07,12.5-8.18c0.65-0.51,1.21-1.45,0.29-2.03
					C1742,35.24,1740.51,35.5,1739.75,36.1L1739.75,36.1z"/>
			</g>
		</g>
	</g>
	<g>
		<g>
			<g>
				<path class="st0" d="M934.9,33.61c27.81-4.59,55.4-10.59,82.59-18.02c7.65-2.09,15.26-4.29,22.85-6.6
					c0.6-0.18,2.14-0.72,1.9-1.61c-0.23-0.86-1.9-0.62-2.45-0.45c-26.58,8.1-53.58,14.86-80.86,20.18
					c-7.78,1.52-15.59,2.92-23.41,4.21c-0.76,0.12-2.31,0.5-2.48,1.44C932.88,33.68,934.35,33.71,934.9,33.61L934.9,33.61z"/>
			</g>
		</g>
		<g>
			<g>
				<path class="st0" d="M963.84,46.61c20.03-9.83,40.06-19.66,60.09-29.49c5.68-2.79,11.36-5.58,17.04-8.36
					c0.67-0.33,1.72-1.09,1.11-1.92c-0.57-0.78-2.2-0.49-2.9-0.15c-20.03,9.83-40.06,19.66-60.09,29.49
					c-5.68,2.79-11.36,5.58-17.04,8.36c-0.67,0.33-1.72,1.09-1.11,1.92C961.51,47.24,963.14,46.95,963.84,46.61L963.84,46.61z"/>
			</g>
		</g>
		<g>
			<g>
				<path class="st0" d="M956.41,29.52c1.42,3.72,2.55,7.54,3.35,11.44c0.2,0.96,0.37,1.93,0.53,2.89c0.14,0.84,0.1,1.93,0.45,2.71
					c0.38,0.86,1.37,0.86,2.18,0.76c1.06-0.12,2.62-0.5,3.15-1.54c0.38-0.74-1.51-0.54-1.76-0.5c-0.77,0.13-2.13,0.44-2.54,1.23
					c-0.02,0.05-0.05,0.09-0.07,0.14c0.16-0.16,0.31-0.32,0.47-0.47c-0.04,0.03-0.08,0.06-0.12,0.09c0.49-0.21,0.99-0.42,1.48-0.63
					c-0.05,0.01-0.1,0.03-0.15,0.04c0.53-0.07,1.06-0.13,1.59-0.2c0.23,0.09,0.25,0.02,0.06-0.21c-0.05-0.16-0.08-0.33-0.1-0.5
					c-0.05-0.32-0.09-0.65-0.13-0.97c-0.11-0.75-0.23-1.51-0.36-2.26c-0.27-1.5-0.58-3-0.95-4.48c-0.73-2.97-1.65-5.88-2.74-8.73
					C960.34,27.25,956.06,28.59,956.41,29.52L956.41,29.52z"/>
			</g>
		</g>
		<g>
			<g>
				<path class="st0" d="M935.55,33.56c7.38-6.04,15.47-11.09,24.15-15.06c0.86-0.4,1.59-1.45,1-2.36
					c-0.62-0.94-2.11-0.79-2.97-0.39c-8.99,4.12-17.45,9.39-25.1,15.66c-0.77,0.63-1.05,1.69-0.2,2.38
					C933.26,34.47,934.76,34.2,935.55,33.56L935.55,33.56z"/>
			</g>
		</g>
		<g>
			<g>
				<path class="st0" d="M1040.45,5.97c-21.38,1.91-42.73,4.2-64.04,6.87c-6.06,0.76-12.12,1.55-18.18,2.37
					c-0.74,0.1-2.32,0.51-2.49,1.41c-0.17,0.92,1.32,0.88,1.84,0.81c21.27-2.88,42.6-5.39,63.96-7.52
					c6.08-0.61,12.16-1.18,18.25-1.72c0.73-0.07,2.32-0.53,2.49-1.41C1042.47,5.84,1040.97,5.92,1040.45,5.97L1040.45,5.97z"/>
			</g>
		</g>
		<g>
			<g>
				<path class="st0" d="M950.91,29.17c-2.67,2.41-4.95,5.26-6.65,8.43c-0.16,0.3-0.26,0.6,0,0.89c0.26,0.29,0.82,0.38,1.17,0.38
					c0.58,0,1.18-0.1,1.7-0.34c0.41-0.18,0.95-0.43,1.17-0.84c0.81-1.5,1.74-2.94,2.79-4.28c0.26-0.33,0.52-0.66,0.8-0.98
					c0.14-0.16,0.28-0.32,0.41-0.48c0.1-0.11,0.1-0.12,0,0c0.08-0.09,0.16-0.17,0.24-0.26c0.59-0.63,1.21-1.23,1.85-1.81
					c0.24-0.21,0.53-0.58,0.43-0.93c-0.09-0.35-0.53-0.54-0.84-0.59C952.97,28.16,951.69,28.47,950.91,29.17L950.91,29.17z"/>
			</g>
		</g>
		<g>
			<g>
				<path class="st0" d="M947.33,38.3c3.92-0.74,7.84-1.47,11.76-2.21c0.74-0.14,2.08-0.91,1.83-1.85
					c-0.27-1.01-1.79-0.82-2.51-0.68c-3.92,0.74-7.84,1.47-11.76,2.21c-0.74,0.14-2.08,0.91-1.83,1.85
					C945.09,38.63,946.61,38.44,947.33,38.3L947.33,38.3z"/>
			</g>
		</g>
		<g>
			<g>
				<path class="st0" d="M953.41,29.64c-2.34,2.06-4.39,4.45-6.11,7.05c-0.2,0.31-0.19,0.74,0.04,1.03c0.26,0.32,0.81,0.47,1.2,0.49
					c1.04,0.04,2.25-0.34,2.85-1.25c0.4-0.61,0.83-1.21,1.27-1.79c0.06-0.08,0.12-0.16,0.18-0.24c0.13-0.17,0.01-0.02-0.05,0.06
					c0.1-0.14,0.22-0.28,0.33-0.42c0.24-0.29,0.48-0.58,0.73-0.86c0.96-1.1,2-2.14,3.1-3.11c0.27-0.24,0.5-0.69,0.4-1.06
					c-0.1-0.38-0.52-0.63-0.88-0.72C955.4,28.55,954.23,28.91,953.41,29.64L953.41,29.64z"/>
			</g>
		</g>
		<g>
			<g>
				<path class="st0" d="M954.33,30.34c-1.04,1.74-1.81,3.59-2.39,5.52c-0.12,0.39,0.23,0.85,0.52,1.05
					c0.4,0.27,1.01,0.36,1.48,0.31c0.57-0.06,1.18-0.23,1.64-0.59c0.13-0.11,0.25-0.23,0.38-0.34c0.21-0.22,0.34-0.48,0.39-0.78
					c0.04-0.12,0.07-0.24,0.11-0.36c-0.04,0.13-0.08,0.27-0.13,0.4c0.54-1.66,1.26-3.26,2.15-4.76c0.21-0.35,0.16-0.85-0.08-1.16
					c-0.26-0.35-0.81-0.56-1.23-0.59C956.07,28.94,954.9,29.38,954.33,30.34L954.33,30.34z"/>
			</g>
		</g>
	</g>
	<g>
		<g>
			<g>
				<path class="st0" d="M89.26,22.27C78.18,34.47,67.5,47.1,55.55,58.49c-3.23,3.08-6.56,6.05-10.04,8.85
					c-0.7,0.57-0.47,1.18,0.36,1.35c0.97,0.2,2.31-0.21,3.07-0.82c12.98-10.46,24.14-23.09,35.22-35.49
					c3.03-3.39,6.05-6.79,9.11-10.15c0.7-0.77-0.6-1.09-1.13-1.1C91.13,21.12,89.95,21.51,89.26,22.27L89.26,22.27z"/>
			</g>
		</g>
		<g>
			<g>
				<path class="st0" d="M29.09,46.62c15.79-6.15,31.58-12.31,47.37-18.46c4.49-1.75,8.98-3.5,13.47-5.25
					c0.43-0.17,1.79-0.7,1.27-1.34c-0.48-0.58-2.32-0.01-2.82,0.19c-15.79,6.15-31.58,12.31-47.37,18.46
					c-4.49,1.75-8.98,3.5-13.47,5.25c-0.43,0.17-1.79,0.7-1.27,1.34C26.75,47.39,28.59,46.82,29.09,46.62L29.09,46.62z"/>
			</g>
		</g>
		<g>
			<g>
				<path class="st0" d="M27.22,47.18c8.44,4.68,15.01,12.31,18.32,21.38c0.46,1.26,4.76-0.04,4.35-1.16
					c-3.36-9.2-10.03-17.05-18.6-21.8c-0.85-0.47-1.97-0.23-2.84,0.11C28.21,45.8,26.44,46.75,27.22,47.18L27.22,47.18z"/>
			</g>
		</g>
		<g>
			<g>
				<path class="st0" d="M16.64,32.97c-4.26-2.64-8.51-5.29-12.77-7.93c-0.91-0.57-2.29-0.4-3.11,0.27
					c-0.67,0.54-1.19,1.63-0.24,2.22c4.26,2.64,8.51,5.29,12.77,7.93c0.91,0.57,2.29,0.4,3.11-0.27
					C17.07,34.65,17.59,33.56,16.64,32.97L16.64,32.97z"/>
			</g>
		</g>
		<g>
			<g>
				<path class="st0" d="M2.07,26.63c21.8-2.04,43.66-3.37,65.55-4c6.2-0.18,12.41-0.29,18.61-0.35c1.02-0.01,2.22-0.22,3.07-0.82
					c0.61-0.43,0.66-0.98-0.26-0.97c-22.13,0.22-44.25,1.14-66.33,2.79c-6.26,0.47-12.52,1-18.77,1.58
					c-0.83,0.08-2.38,0.3-2.91,1.04C0.52,26.62,1.5,26.68,2.07,26.63L2.07,26.63z"/>
			</g>
		</g>
		<g>
			<g>
				<path class="st0" d="M13.91,33.95c0.53,11.73,0.65,23.48,0.35,35.22c-0.04,1.7,4.3,0.78,4.34-0.58
					c0.3-11.94,0.2-23.88-0.34-35.81C18.19,31.5,13.83,32.34,13.91,33.95L13.91,33.95z"/>
			</g>
		</g>
		<g>
			<g>
				<path class="st0" d="M29.46,50.19c-0.46-1.63-0.14-3.43,1.08-4.66c-1.36,0.2-2.73,0.41-4.09,0.61
					c-2.88,7.35-5.76,15.49-11.43,21.22c-0.65,0.66,0.59,0.63,0.99,0.59c0.87-0.09,2.26-0.35,2.92-1.01
					c5.83-5.9,8.82-14.04,11.79-21.62c0.24-0.61-1.23-0.38-1.44-0.35c-0.81,0.12-2.04,0.35-2.65,0.97
					c-1.43,1.45-2.08,3.41-1.51,5.41C25.35,52.21,29.69,51.03,29.46,50.19L29.46,50.19z"/>
			</g>
		</g>
		<g>
			<g>
				<path class="st0" d="M15.24,69.48c9.86-0.29,18.55-5.24,27.4-9.03c0.59-0.25,1.76-0.95,1.17-1.71c-0.56-0.72-2.23-0.3-2.87-0.02
					c-7.63,3.27-15.48,8.09-24,8.34c-0.93,0.03-2.35,0.29-2.87,1.18C13.58,69.08,14.5,69.5,15.24,69.48L15.24,69.48z"/>
			</g>
		</g>
		<g>
			<g>
				<path class="st0" d="M82.04,23.23c-16.32,3.27-32.73,6.11-49.2,8.51c-4.73,0.69-9.46,1.34-14.2,1.96
					c-0.62,0.08-2.4,0.49-2.52,1.28c-0.13,0.84,1.34,0.64,1.78,0.58c16.51-2.15,32.96-4.73,49.33-7.76
					c4.7-0.87,9.39-1.77,14.08-2.71c0.62-0.12,2.39-0.46,2.52-1.28C83.95,22.99,82.48,23.14,82.04,23.23L82.04,23.23z"/>
			</g>
		</g>
		<g>
			<g>
				<path class="st0" d="M65.3,29.31c-0.16-0.48-0.53-0.74-0.97-0.93c-0.26-0.11-0.55-0.16-0.83-0.17
					c-0.48-0.03-0.96-0.01-1.44,0.07c-1.05,0.18-2.14,0.55-2.95,1.26c-0.44,0.38-0.77,0.87-0.95,1.42c-0.16,0.48-0.22,1-0.28,1.5
					c-0.06,0.13-0.05,0.24,0.05,0.34c0.07,0.13,0.18,0.21,0.34,0.23c0.2,0.06,0.41,0.09,0.62,0.08c0.26,0.02,0.52,0,0.78-0.05
					c0.57-0.1,1.15-0.25,1.65-0.53c0.14-0.08,0.27-0.16,0.41-0.25c0.2-0.13,0.36-0.3,0.46-0.51c0.08-0.75,0.18-1.53,0.6-2.17
					c-0.06,0.08-0.11,0.17-0.17,0.25c0.09-0.13,0.2-0.26,0.32-0.37c-0.1,0.09-0.2,0.17-0.3,0.26c0.06-0.05,0.13-0.1,0.2-0.15
					c-0.14,0.08-0.27,0.16-0.41,0.25c0.05-0.03,0.1-0.06,0.16-0.08c-0.17,0.07-0.33,0.15-0.5,0.22c0.05-0.02,0.11-0.05,0.17-0.07
					c-0.19,0.06-0.38,0.12-0.57,0.18c0.06-0.02,0.11-0.03,0.17-0.05c-0.2,0.04-0.39,0.08-0.59,0.13c0.06-0.01,0.12-0.02,0.18-0.03
					c-0.18,0.02-0.36,0.04-0.54,0.06c0.07-0.01,0.14-0.01,0.21-0.01c-0.16,0-0.32-0.01-0.47-0.01c0.09,0,0.18,0.01,0.28,0.03
					c-0.13-0.02-0.26-0.05-0.38-0.07c0.11,0.02,0.21,0.06,0.32,0.1c-0.09-0.05-0.18-0.09-0.27-0.14c0.16,0.08,0.29,0.18,0.39,0.33
					c-0.05-0.07-0.09-0.13-0.14-0.2c0.05,0.08,0.09,0.16,0.12,0.24c0.1,0.3,0.54,0.38,0.79,0.41c0.51,0.06,1.12-0.03,1.6-0.17
					c0.51-0.14,1.05-0.32,1.47-0.65C65.02,29.89,65.4,29.61,65.3,29.31L65.3,29.31z"/>
			</g>
		</g>
		<g>
			<g>
				<path class="st0" d="M54.77,28.88c-1.07,0.77-2.04,1.7-2.8,2.77c-0.41,0.57-0.79,1.15-1.1,1.78c-0.32,0.64-0.55,1.31-0.76,1.99
					c-0.12,0.38,0.22,0.83,0.51,1.02c0.4,0.26,1.01,0.35,1.47,0.29c0.57-0.06,1.18-0.23,1.64-0.59c0.39-0.3,0.63-0.62,0.78-1.1
					c0.03-0.08,0.05-0.16,0.08-0.25c-0.04,0.13-0.09,0.26-0.13,0.39c0.33-0.98,0.8-1.91,1.39-2.76c-0.09,0.12-0.18,0.25-0.26,0.37
					c0.47-0.66,1.01-1.25,1.61-1.79c-0.13,0.11-0.25,0.22-0.38,0.34c0.26-0.23,0.53-0.44,0.81-0.64c0.34-0.25,0.72-0.66,0.78-1.1
					c0.05-0.4-0.16-0.81-0.51-1.02C56.94,28.03,55.61,28.28,54.77,28.88L54.77,28.88z"/>
			</g>
		</g>
		<g>
			<g>
				<path class="st0" d="M46.34,29.94c-2.94,4.03-5.87,8.06-8.81,12.08c-0.62,0.85,0.53,1.5,1.25,1.53c1.09,0.05,2.2-0.36,2.85-1.25
					c2.94-4.03,5.87-8.06,8.81-12.08c0.62-0.85-0.53-1.5-1.25-1.53C48.1,28.64,46.99,29.05,46.34,29.94L46.34,29.94z"/>
			</g>
		</g>
		<g>
			<g>
				<path class="st0" d="M38.73,31.13c-2.68,4.23-5.36,8.47-8.04,12.7c-0.51,0.8,0.44,1.05,1.11,1.03c0.84-0.03,2.38-0.31,2.89-1.12
					c2.68-4.23,5.36-8.47,8.04-12.7c0.51-0.8-0.44-1.05-1.11-1.03C40.78,30.04,39.25,30.32,38.73,31.13L38.73,31.13z"/>
			</g>
		</g>
		<g>
			<g>
				<path class="st0" d="M31.96,32.08c-4.29,5.28-8.16,10.91-11.53,16.82c-0.53,0.92,0.46,1.58,1.28,1.65
					c1.03,0.1,2.31-0.35,2.84-1.29c3.23-5.65,6.9-11.03,11-16.08c0.6-0.74,0.45-1.62-0.52-1.93C34.08,30.95,32.61,31.28,31.96,32.08
					L31.96,32.08z"/>
			</g>
		</g>
		<g>
			<g>
				<path class="st0" d="M26.43,32.56c-2.56,4.06-5.49,7.89-8.74,11.43c-0.68,0.75-0.35,1.88,0.59,2.2
					c1.09,0.37,2.31,0.01,3.07-0.82c3.25-3.54,6.17-7.37,8.74-11.43c0.25-0.4,0.47-0.78,0.34-1.27c-0.12-0.43-0.52-0.79-0.93-0.93
					C28.57,31.42,27.01,31.64,26.43,32.56L26.43,32.56z"/>
			</g>
		</g>
	</g>
	<g>
		<g>
			<path class="st1" d="M124.84,27.36c1.83,0.81,3.65,1.63,5.47,2.46"/>
			<path class="st2" d="M137.52,33.14c19.58,9.12,38.99,18.69,59.63,24.94c23.59,7.14,48.27,9.8,72.81,12.03
				c209.51,19.05,421.57,9.88,628.65-27.19"/>
			<path class="st1" d="M902.52,42.23c1.97-0.36,3.94-0.71,5.9-1.07"/>
		</g>
	</g>
	<g>
		<g>
			<path class="st1" d="M1066.27,32.56c1.66,1.11,3.33,2.21,5.02,3.28"/>
			<path class="st3" d="M1078.01,40c21.19,12.66,44.27,22.28,68.59,26.14c19.24,3.05,177.42-4.8,229.17-17.81
				c29.25-7.35,59.86-11.56,85.88-26.81c2.66-1.56,5.44-3.4,6.54-6.28c1.54-4.03-0.91-8.72-4.54-11.05
				c-3.63-2.33-8.11-2.81-12.42-3.03c-12.48-0.64-25.55,0.58-36.28,6.99c-10.73,6.41-18.47,19.02-16.11,31.29
				c1.88,9.78,9.71,17.59,18.67,21.95s19.02,5.78,28.9,6.99c73.68,9.01,148.39,9.19,222.21,1.3"/>
			<path class="st1" d="M1672.56,69.24c1.99-0.22,3.98-0.45,5.96-0.68"/>
		</g>
	</g>
</g>
</svg>
