<?xml version="1.0" encoding="utf-8"?>
<!-- Generator: Adobe Illustrator 26.0.3, SVG Export Plug-In . SVG Version: 6.00 Build 0)  -->
<svg version="1.1" id="Layer_1" xmlns="http://www.w3.org/2000/svg" xmlns:xlink="http://www.w3.org/1999/xlink" x="0px" y="0px"
	 viewBox="0 0 149.55 185.77" style="enable-background:new 0 0 149.55 185.77;" xml:space="preserve">
<style type="text/css">
	.st0{fill:#FFFFFF;}
	.st1{fill:#FFFFFF;stroke:#FFFFFF;stroke-miterlimit:10;}
</style>
<g>
	<g id="Group_82">
		<path id="Path_491" class="st0" d="M70.46,75.05c-8.46,24.34-11.77,50.17-9.72,75.86c0.58,7.25,1.59,11.46,3.03,18.59
			c0.2,0.99,4.02,0.15,3.8-0.95c-6.49-32.36-4.19-62.87,6.66-94.03C74.57,73.55,70.82,74,70.46,75.05"/>
		<path id="Path_492" class="st0" d="M68.42,69.53c-8.97,9.46-15.78,20.75-19.97,33.09c-4.78,13.64-7.1,27.92-8.01,42.21
			c-0.54,8.53-0.6,14.07-0.49,22.61c0.01,0.74,1.74,0.52,2.16,0.42c0.71-0.18,1.65-0.58,1.64-1.37c-0.2-14.97,0.18-27.02,2.74-41.83
			c2.21-12.77,5.87-25.61,12.23-37.16c3.47-6.33,7.76-12.18,12.75-17.39c0.51-0.53,0.47-1.09-0.36-1.26
			C70.16,68.69,69.18,68.93,68.42,69.53"/>
		<path id="Path_493" class="st0" d="M58.84,99.69c-0.4-0.28-0.84-0.49-1.31-0.64c-0.67-0.23-1.36-0.45-2.05-0.63
			c-0.59-0.16-1.18-0.3-1.78-0.41c-0.66-0.15-1.33-0.2-2-0.14c-0.51,0.06-0.99,0.21-1.44,0.46c-0.25,0.15-0.67,0.47-0.71,0.78
			c-0.1,0.8,1.06,0.91,1.66,0.83c0.18-0.02,0.3,0.04-0.36,0.01c0.03,0,0.06,0,0.09,0c0.09,0.01,0.17,0.01,0.26,0.02
			c0.23,0.02-0.52-0.07-0.21-0.02l0.14,0.02c0.12,0.02,0.24,0.04,0.36,0.06c0.56,0.11,1.12,0.24,1.67,0.39
			c0.28,0.08,0.57,0.15,0.85,0.24c0.14,0.04,0.28,0.08,0.41,0.13c0.06,0.02,0.33,0.11,0.05,0.01s-0.02-0.01,0.04,0.01
			c0.36,0.11,0.71,0.26,1.04,0.45l-0.26-0.18l0.02,0.01c0.78,0.45,1.72,0.48,2.53,0.08c0.4-0.13,0.75-0.38,1.01-0.72
			C58.99,100.25,59.11,99.88,58.84,99.69"/>
		<path id="Path_494" class="st0" d="M52.64,121.49c-0.48-0.32-1-0.55-1.56-0.68c-0.66-0.18-1.34-0.31-2.03-0.37
			c-0.69-0.07-1.39-0.07-2.07,0c-0.38,0.04-0.77,0.1-1.14,0.2c-0.49,0.14-0.96,0.34-1.4,0.61c-0.55,0.26-0.79,0.91-0.53,1.46
			c0.08,0.16,0.19,0.3,0.34,0.41c0.39,0.23,0.85,0.33,1.3,0.29c0.51-0.05,0.99-0.22,1.43-0.49c-0.66,0.38-0.41,0.22-0.28,0.17
			l0.11-0.05c0.23-0.1-0.53,0.17-0.33,0.11c0.04-0.01,0.08-0.02,0.13-0.04c0.09-0.02,0.18-0.04,0.27-0.06
			c0.24-0.05-0.38,0.05-0.34,0.05c0.06,0,0.12-0.02,0.18-0.02c0.21-0.02,0.41-0.03,0.62-0.04h0.17c0.28,0-0.46-0.02-0.25-0.01
			c0.12,0.01,0.23,0.01,0.35,0.02c0.22,0.02,0.45,0.04,0.67,0.07c0.22,0.03,0.45,0.1,0.68,0.12c-0.04,0-0.48-0.12-0.21-0.05
			l0.16,0.04c0.1,0.03,0.2,0.06,0.3,0.09c0.18,0.06,0.35,0.12,0.52,0.2l-0.37-0.18c0.13,0.06,0.25,0.13,0.36,0.21
			c0.39,0.23,0.85,0.33,1.3,0.29c0.51-0.03,1.01-0.2,1.43-0.49c0.35-0.21,0.58-0.56,0.66-0.96
			C53.12,122.03,52.95,121.68,52.64,121.49"/>
		<path id="Path_495" class="st0" d="M51.23,144.49c-1.3-1-2.92-1.47-4.56-1.32c-1.75,0.06-3.41,0.74-4.72,1.9
			c-0.26,0.19-0.4,0.51-0.36,0.83c0.14,0.3,0.43,0.51,0.76,0.55c0.95,0.19,1.94-0.06,2.69-0.67c0.08-0.08,0.17-0.16,0.26-0.23
			c0.05-0.04,0.21-0.16-0.02,0.01s-0.04,0.03,0.02-0.01c0.09-0.06,0.18-0.11,0.27-0.16c0.27-0.15-0.36,0.16-0.18,0.09
			c0.05-0.02,0.1-0.04,0.14-0.06s0.12-0.05,0.18-0.07c0.24-0.1-0.26,0.08-0.27,0.09c0.12-0.02,0.23-0.07,0.35-0.09
			c0.08-0.02,0.3-0.06-0.06,0.01c-0.38,0.07-0.11,0.02-0.02,0.01c0.12-0.02,0.24-0.02,0.36-0.04c0.21-0.02-0.45,0-0.24,0.01H46
			c0.12,0,0.24,0.01,0.36,0.02c0.07,0.01,0.32,0.04,0.02,0c-0.29-0.04-0.08-0.01-0.02,0c0.12,0.02,0.23,0.05,0.35,0.08
			c0.07,0.02,0.44,0.14,0.2,0.06s0.09,0.04,0.15,0.07c0.23,0.1,0.44,0.23,0.65,0.37l-0.26-0.19c0.08,0.06,0.17,0.12,0.25,0.19
			c0.77,0.47,1.73,0.51,2.53,0.1c0.4-0.14,0.75-0.39,1.01-0.73C51.38,145.05,51.48,144.7,51.23,144.49"/>
		<path id="Path_496" class="st0" d="M49.35,158.89c-2.61-0.2-5.21,0.43-7.44,1.8c-0.19,0.12-0.47,0.42-0.4,0.67
			s0.48,0.37,0.71,0.39c0.95,0.08,1.89-0.16,2.69-0.67c-0.48,0.3,0.06-0.02,0.2-0.1c0.09-0.06,0.19-0.1,0.29-0.14
			c-0.03-0.02-0.5,0.21-0.14,0.06c0.17-0.07,0.35-0.13,0.53-0.19c-0.72,0.26-0.07,0.03,0.12-0.02c0.08-0.02,0.16-0.03,0.24-0.05
			c-0.38,0.07-0.47,0.09-0.28,0.05l0.16-0.03c0.18-0.03,0.85-0.07,0.17-0.03c0.19-0.01,0.38-0.02,0.56-0.02c0.08,0,0.16,0,0.24,0
			c0.17,0.01,0.11,0-0.18-0.01l0.16,0.01c0.47,0.04,0.95,0,1.41-0.11c0.46-0.1,0.89-0.29,1.28-0.56c0.18-0.15,0.51-0.41,0.4-0.67
			C49.9,159.03,49.63,158.88,49.35,158.89"/>
		<path id="Path_497" class="st0" d="M85.08,63.28c3.04-1.83,4.49-5.51,5.5-8.57c1.35-4.14,2.07-8.47,2.15-12.82
			c0.07-2.09-0.06-4.19-0.39-6.26c-0.48-2.2-1.17-4.34-2.07-6.4c-2.07-5.65-4.76-11.06-8.01-16.13c-3.4-5.16-7.75-9.88-13.46-12.88
			c-0.92-0.48-2.81-0.15-3.28,0.82c-2.66,5.51-5.51,10.97-7.85,16.61c-2.18,5.25-3.73,10.7-3.37,16.38
			c0.16,3.05,1.01,6.02,2.47,8.69c0.52,0.66,1.42,0.89,2.2,0.58c0.49-0.12,2-0.8,1.6-1.53c-5.65-10.16-0.63-21.49,3.98-31.04
			c1.52-3.15,3.04-6.3,4.56-9.44L65.82,2.1c4.69,2.59,8.7,6.26,11.71,10.69c3.26,4.6,5.94,9.59,7.98,14.85
			c1.06,2.4,1.97,4.87,2.71,7.39c0.43,1.79,0.66,3.62,0.69,5.45C89,44.71,88.48,48.92,87.37,53c-0.5,1.98-1.22,3.9-2.15,5.72
			c-0.4,0.77-0.87,1.5-1.41,2.18c0.19-0.23-0.15,0.16-0.2,0.22c-0.12,0.13-0.24,0.25-0.37,0.37c-0.1,0.09-0.57,0.43-0.17,0.16
			c-0.14,0.1-0.28,0.2-0.43,0.29c-0.6,0.37-1.03,1.17-0.27,1.61C83.27,63.9,84.28,63.8,85.08,63.28"/>
		<path id="Path_498" class="st0" d="M70.39,23.67c3.98,4.06,5.41,9.89,6.52,15.14c1.15,5.7,1.63,11.52,1.43,17.33
			C78.25,59.5,78,62.85,77.7,66.2c-0.1,1.14,3.37,0.5,3.46-0.46c1.07-11.9,1.17-23.93-2.87-35.41c-0.95-2.93-2.54-5.62-4.65-7.87
			C72.91,21.72,69.61,22.87,70.39,23.67"/>
		<path id="Path_499" class="st0" d="M78.73,65.78c-5.05-13.7-16.34-25.21-30.64-30.94c-7.95-3.16-16.47-4.65-25.02-4.37
			c-2.17,0.07-4.33,0.25-6.48,0.54c-1.04,0.11-2.07,0.29-3.08,0.53c-1.04,0.27-2.39,0.75-2.85,1.75c-0.24,0.7-0.22,1.47,0.05,2.16
			c0.27,0.91,0.61,1.8,0.96,2.69c0.67,1.73,1.44,3.42,2.29,5.06c3.95,7.57,9.57,14.15,16.43,19.24c0.57,0.43,1.86,0.02,2.45-0.18
			c0.26-0.09,1.67-0.64,1.12-1.04c-5.84-4.34-10.78-9.77-14.55-16c-1.79-2.97-3.28-6.12-4.45-9.39c-0.33-0.75-0.55-1.54-0.66-2.35
			c0.01-0.33,0.08-0.66,0.2-0.96l0.1-0.12c-0.92,0.28-1.12,0.36-0.6,0.26c0.27-0.03,0.54-0.09,0.81-0.13
			c1.92-0.29,3.86-0.47,5.8-0.55c15.42-0.66,30.44,4.95,41.67,15.54c5.61,5.37,9.94,11.94,12.65,19.21
			C75.25,67.58,79.01,66.54,78.73,65.78"/>
		<path id="Path_500" class="st0" d="M75.41,71.09c-7.14-11.03-17.55-19.54-29.77-24.34c-3.56-1.42-7.24-2.52-10.99-3.31
			c-0.95-0.12-1.91,0.12-2.69,0.67c-0.64,0.47-0.43,0.9,0.3,1.05c12.61,2.7,24.1,9.18,32.93,18.58c2.39,2.56,4.54,5.33,6.42,8.29
			C72.28,73.09,75.89,71.85,75.41,71.09"/>
		<path id="Path_501" class="st0" d="M56.97,84.07c-13.16,6.62-27.53,10.46-42.23,11.3c-4.03,0.24-8.07,0.18-12.09-0.18l1.17,0.8
			c0.95-5.23,2.74-10.28,5.3-14.94c1.22-2.28,2.64-4.45,4.24-6.49c1.89-2.15,4.03-4.06,6.37-5.69c2.04-1.67,4.33-3.02,6.77-4.02
			c2.37-0.83,4.84-1.31,7.34-1.43c5.47-0.21,10.94,0.43,16.21,1.9c7.15,1.81,14.1,4.33,20.74,7.52c0.9,0.29,1.89,0.17,2.69-0.33
			c0.53-0.31,1.13-1.01,0.33-1.4c-6.29-3.02-12.85-5.45-19.58-7.27c-5.78-1.69-11.78-2.54-17.8-2.52
			c-6.15,0.15-12.27,1.59-17.25,5.07c-2.53,1.72-4.93,3.63-7.17,5.72c-2.04,2.05-3.81,4.35-5.26,6.85
			c-3.29,5.36-5.57,11.27-6.73,17.45c-0.12,0.63,0.69,0.76,1.17,0.8c7.72,0.63,15.48,0.31,23.12-0.95
			c7.98-1.24,15.83-3.26,23.41-6.04c3.97-1.46,7.86-3.15,11.63-5.08c0.58-0.3,1.07-1.01,0.33-1.4
			C58.76,83.46,57.78,83.58,56.97,84.07"/>
		<path id="Path_502" class="st0" d="M67.85,73.05l-0.22-0.15l-0.15-0.52v0.02l0.36-0.55c0.3-0.22,0.64-0.39,0.99-0.51
			c-0.08,0.01-0.16,0.03-0.23,0.06L68,71.51c-0.47,0.09,0.45-0.08-0.03,0.01l-0.65,0.12c-0.24,0.04-0.47,0.08-0.71,0.13
			c-0.55,0.09-1.07,0.28-1.56,0.54c-0.62,0.38-1.12,1.14-0.29,1.58l1.73-1.97c-13.68,0.66-27.13,3.75-39.72,9.13
			c-3.53,1.51-6.97,3.2-10.33,5.07c-0.58,0.32-1.06,1.1-0.3,1.5c0.9,0.32,1.89,0.21,2.7-0.3c11.23-6.2,23.49-10.34,36.19-12.2
			c3.64-0.53,7.3-0.89,10.99-1.07c0.78-0.04,3.17-1.2,1.73-1.97l0.22,0.15l0.15,0.52v-0.02l-0.36,0.55
			c-0.3,0.22-0.64,0.39-0.99,0.51c0.08-0.01,0.16-0.03,0.23-0.06c0.2-0.04,0.4-0.08,0.6-0.12c0.47-0.09-0.45,0.08,0.03-0.01
			l0.65-0.12c0.24-0.04,0.47-0.08,0.71-0.13c0.55-0.09,1.07-0.28,1.56-0.54c0.62-0.38,1.12-1.14,0.29-1.58
			c-0.9-0.33-1.9-0.22-2.7,0.3C67.57,71.89,67.05,72.62,67.85,73.05"/>
		<path id="Path_503" class="st0" d="M123.57,81.24C113.2,72.4,99,67.86,84.99,68.45c-4.05,0.17-8.08,0.76-12.01,1.76
			c-0.48,0.12-1.85,0.53-1.69,1.2c0.16,0.65,1.73,0.35,2.11,0.25c12.69-3.07,26.06-1.38,37.6,4.74c3.22,1.71,6.25,3.77,9.03,6.14
			C120.88,83.27,124.4,81.94,123.57,81.24"/>
		<path id="Path_504" class="st0" d="M73.77,71.5c5.32-0.59,10.58,1.16,15.18,3.53c4.09,2.11,7.82,4.85,11.05,8.11
			c11.11,11.03,15,27.41,10.03,42.26l3.41-1.09c-8.26-3.8-16.36-8.32-22.71-14.62c-3.1-3-5.66-6.52-7.55-10.4
			c-2.1-4.44-3.04-9.24-3.86-14.01c-0.94-5.42-1.76-10.92-4.04-16.03c-0.32-0.73-1.51-0.62-2.17-0.46
			c-0.48,0.12-1.95,0.69-1.63,1.41c4.11,9.23,3.43,19.6,7.38,28.87c3.48,8.17,10.2,14.54,17.81,19.53c4.4,2.82,9,5.32,13.77,7.46
			c1,0.46,3.05,0.01,3.41-1.09c3.34-10.08,2.76-21.06-1.61-30.74c-4.09-8.75-10.9-15.95-19.41-20.53c-5.59-3.03-12.02-5-18.55-4.27
			c-0.7,0.08-2.01,0.45-2.15,1.23C71.97,71.48,73.21,71.56,73.77,71.5"/>
		<path id="Path_505" class="st0" d="M74.31,72.2c7.45,7.06,13.78,15.2,18.78,24.16c1.41,2.54,2.7,5.13,3.88,7.78
			c0.32,0.72,1.51,0.6,2.16,0.44c0.47-0.12,1.95-0.68,1.64-1.39c-4.23-9.46-9.87-18.21-16.73-25.97c-1.97-2.22-4.04-4.37-6.21-6.42
			C76.88,69.89,73.28,71.21,74.31,72.2"/>
		<path id="Path_506" class="st0" d="M75.04,70.33c8.85-7.7,20.55-11.27,32.19-9.83c5.9,0.77,11.57,2.77,16.64,5.89
			c4.93,3.12,9.2,7.18,12.56,11.95c3.73,5.36,6.85,11.13,9.27,17.2l3.04-1.54c-4.98-0.81-9.94-0.15-14.84,0.79
			c-4.47,0.85-8.87,2.02-13.45,2.08c-2.49,0.08-4.97-0.35-7.29-1.24c-0.9-0.33-1.9-0.23-2.71,0.28c-0.5,0.32-1.15,1.22-0.28,1.57
			c9.33,3.81,19.15-0.16,28.55-1.33c2.57-0.38,5.17-0.39,7.74-0.04c0.73,0.14,1.48,0.03,2.14-0.31c0.39-0.21,1.12-0.71,0.9-1.23
			c-4.67-11.02-10.74-22.15-21.34-29.22c-10.99-7.11-24.47-9.25-37.13-5.91c-7.06,1.84-13.6,5.29-19.1,10.08
			c-0.61,0.54-0.35,1.25,0.42,1.45C73.31,71.2,74.3,70.95,75.04,70.33"/>
		<path id="Path_507" class="st0" d="M73.02,59.66c0.49,1.36,1.04,2.71,1.48,4.09c0.26,0.77,0.48,1.56,0.65,2.36
			c0.16,0.55,0.19,1.12,0.1,1.68c-0.21,1.04,2.28,0.72,2.47-0.21c0.09-0.65,0.05-1.31-0.1-1.94c-0.16-0.81-0.38-1.61-0.64-2.39
			c-0.46-1.42-1.01-2.8-1.52-4.2c-0.19-0.51-0.96-0.51-1.43-0.4C73.63,58.75,72.83,59.15,73.02,59.66"/>
	</g>
</g>
<g id="Group_83" transform="matrix(0.985, 0.174, -0.174, 0.985, 6.355, 0)">
	<g>
		<g id="Group_82_00000054226335050247539620000009470439981506462878_" transform="translate(0 0)">
			<path id="Path_489" class="st1" d="M154.52,150.36c2.3,1.09,4.84,1.6,7.38,1.49c0.3-0.01,0.76-0.2,0.8-0.49
				c0.04-0.32-0.39-0.4-0.66-0.39c-2.21,0.09-4.41-0.36-6.41-1.31c-0.34-0.14-0.72-0.11-1.03,0.08
				C154.39,149.88,154.21,150.21,154.52,150.36"/>
			<path id="Path_490" class="st1" d="M153.23,152.58c1.94,1.71,4.32,2.85,6.87,3.29c0.36,0.06,0.73-0.02,1.02-0.24
				c0.21-0.18,0.16-0.42-0.15-0.48c-2.38-0.41-4.6-1.48-6.41-3.08C154.2,151.75,152.83,152.22,153.23,152.58"/>
			<path id="Path_491_00000173856921864084414060000015503658426598202028_" class="st1" d="M151.48,154.45
				c0.75,2.27,2.01,4.35,3.68,6.07c0.26,0.27,1.63-0.16,1.35-0.46c-1.63-1.69-2.85-3.73-3.59-5.96
				C152.8,153.76,151.36,154.1,151.48,154.45"/>
			<path id="Path_492_00000120546426306901678600000000418488043378982276_" class="st1" d="M153.63,147.76
				c-0.04,5.81-6.16,9.65-12.04,10.99c-6.83,1.56-15.08,0.56-20.5-3.63c-2.18-1.54-3.68-3.88-4.17-6.51
				c-0.26-2.6,0.67-5.19,2.54-7.02c4.55-4.8,12.56-6.25,19.32-5.38c6.1,0.78,13.11,3.96,14.59,9.66
				C153.54,146.49,153.62,147.12,153.63,147.76c0,0.62,1.46,0.41,1.45-0.12c-0.05-6.23-6.65-10.35-12.94-11.79
				c-7.39-1.69-16.25-0.63-22.13,3.87c-2.38,1.65-4.01,4.18-4.53,7.02c-0.27,2.79,0.74,5.54,2.74,7.5
				c4.88,5.15,13.59,6.76,20.86,5.79c6.57-0.87,14.15-4.23,15.75-10.4c0.17-0.65,0.25-1.33,0.26-2
				C155.08,147.02,153.63,147.23,153.63,147.76"/>
			<path id="Path_493_00000139972315955741629210000000251093021034402458_" class="st1" d="M131.06,148.78
				c0.53-0.19,0.39-0.53-0.15-0.5c-0.56,0.04-1.32,0.22-1.19,0.82c0.25,0.94,0.84,1.75,1.65,2.28c1.94,1.18,4.37,1.21,6.33,0.06
				c1.02-0.51,1.8-1.41,2.17-2.49c0.07-0.23-1.32-0.07-1.42,0.23c-0.46,1.64-2.01,2.72-3.71,2.58c-0.88-0.13-1.71-0.51-2.39-1.1
				c-0.33-0.29-0.61-0.62-0.83-1c-0.12-0.2-0.59-1-0.35-1.2l-0.96,0.29l0.07-0.01l-0.36-0.03c0.04,0.01,0.07,0.04,0.08,0.08
				l0.3-0.18l-0.05,0.02c-0.18,0.06-0.43,0.19-0.18,0.3C130.3,149.04,130.83,148.85,131.06,148.78"/>
			<path id="Path_494_00000150818596724631873490000003805064958644362394_" class="st1" d="M123.47,138.16
				c-0.78-1.3-1.07-2.83-0.82-4.32c0.22-1.52,1.02-2.89,2.25-3.82c1.34-0.91,3.01,0.07,3.86,1.08c1.09,1.3,1.23,3.04,1.38,4.58
				c0.03,0.32,1.48,0.08,1.44-0.34c-0.01-1.51-0.42-3-1.17-4.32c-0.76-1.11-1.97-1.84-3.31-1.99c-3.27-0.33-5.44,2.47-5.87,4.98
				c-0.27,1.54,0.02,3.13,0.81,4.47C122.24,138.87,123.63,138.44,123.47,138.16"/>
			<path id="Path_495_00000125601407853591261050000001639035719484420027_" class="st1" d="M147.99,138.05
				c1.54-2.36,1.44-5.43-0.25-7.69c-0.84-1.18-2.22-1.87-3.67-1.84c-1.48,0.07-2.86,0.73-3.84,1.84c-0.99,1.36-1.56,2.98-1.62,4.66
				c-0.07,0.55,1.38,0.33,1.44-0.14c0.05-1.58,0.56-3.11,1.48-4.4c0.47-0.56,1.1-0.96,1.81-1.14c0.75-0.13,1.52,0.07,2.12,0.55
				c2.56,1.92,2.73,5.64,1.18,8.08C146.29,138.54,147.73,138.45,147.99,138.05"/>
			<path id="Path_496_00000170961580740043972490000018343916218152577156_" class="st0" d="M128.05,132.5
				c-0.1,0.82-0.85,1.41-1.67,1.31c-0.68-0.08-1.22-0.62-1.31-1.31c0.1-0.82,0.85-1.41,1.67-1.31
				C127.43,131.28,127.97,131.82,128.05,132.5"/>
			<path id="Path_497_00000133493785075961008780000000514284795734800260_" class="st0" d="M145.22,132.11
				c-0.1,0.82-0.85,1.41-1.67,1.31c-0.68-0.08-1.22-0.62-1.31-1.31c0.1-0.82,0.85-1.41,1.67-1.31
				C144.59,130.89,145.13,131.43,145.22,132.11"/>
			<path id="Path_498_00000148649180555188687010000013877408139715970207_" class="st1" d="M117.81,153.69
				c-1.91,0.89-3.46,2.4-4.4,4.28c-0.32,0.67,1.13,0.67,1.38,0.15c0.38-0.8,0.89-1.53,1.53-2.15c0.16-0.16,0.32-0.31,0.49-0.45
				c0.13-0.11,0.3-0.24,0.49-0.38c0.19-0.14,0.39-0.27,0.6-0.39c0.1-0.06,0.2-0.12,0.3-0.17c0.15-0.08,0.19-0.1,0.08-0.05l0.19-0.09
				c0.25-0.12,0.56-0.39,0.34-0.65C118.52,153.56,118.14,153.52,117.81,153.69"/>
			<path id="Path_499_00000139251560797855610590000007363365437769760445_" class="st1" d="M119.78,156.69l-3.43,4.46
				c-0.16,0.21,0.52,0.17,0.59,0.16c0.31-0.02,0.61-0.15,0.83-0.37l3.43-4.46c0.16-0.21-0.52-0.17-0.59-0.16
				C120.3,156.34,120.01,156.47,119.78,156.69"/>
			<path id="Path_500_00000117634127781911448420000008360365842857587091_" class="st1" d="M122.28,157.79l-2.36,4.06
				c-0.05,0.09,0.07,0.17,0.14,0.2c0.15,0.05,0.31,0.06,0.47,0.03c0.32-0.01,0.62-0.16,0.82-0.41l2.36-4.07
				c0.05-0.09-0.07-0.17-0.14-0.2c-0.15-0.05-0.31-0.06-0.47-0.03C122.79,157.39,122.49,157.54,122.28,157.79"/>
			<path id="Path_501_00000174595552491545034690000002818979854466682758_" class="st1" d="M157.16,132.5
				c-1.11,1.5-2.41,2.85-3.85,4.03c-0.72,0.59-1.48,1.14-2.26,1.64c-0.4,0.26-0.82,0.48-1.22,0.73c-0.33,0.2-0.76,0.53-0.6,0.92
				c0.17,0.41,1.6,0.05,1.44-0.34c-0.13-0.31,0.59-0.56,0.83-0.71c0.41-0.24,0.81-0.5,1.2-0.76c0.75-0.51,1.48-1.06,2.17-1.65
				c1.35-1.14,2.57-2.44,3.63-3.86c0.18-0.24-0.16-0.34-0.38-0.34C157.76,132.14,157.42,132.26,157.16,132.5"/>
			<path id="Path_502_00000090287396462300979670000013888636849501952947_" class="st1" d="M159.59,133.02
				c-1.59,3.47-4.12,6.42-7.31,8.51c-0.26,0.17-0.12,0.38,0.13,0.44c0.36,0.05,0.72-0.03,1.02-0.24c3.31-2.18,5.95-5.26,7.59-8.87
				c0.12-0.27-0.47-0.28-0.62-0.26C160.09,132.6,159.78,132.76,159.59,133.02"/>
			<path id="Path_503_00000051347948499611417390000011835861904144951704_" class="st1" d="M161.48,129.26
				c0.43-0.76,0.57-1.65,0.39-2.5c-0.28-0.84-1.1-1.37-1.98-1.27c-1.03,0.06-1.99,0.53-2.66,1.31c-0.66,0.84-0.95,1.91-0.8,2.97
				c0.04,0.54,0.17,1.06,0.4,1.55c0.25,0.42,0.42,0.88,0.51,1.35c0.05,0.37,1.22,0.14,1.16-0.27c-0.08-0.45-0.24-0.89-0.47-1.29
				c-0.22-0.44-0.36-0.91-0.42-1.4c-0.22-1.09,0.1-2.23,0.86-3.04c0.59-0.54,1.51-0.87,2.04-0.08c0.41,0.84,0.36,1.82-0.13,2.61
				C160.15,129.69,161.31,129.59,161.48,129.26"/>
			<path id="Path_504_00000098179730375560322310000001327347526761155495_" class="st1" d="M161.84,128.19
				c0.5-0.62,1.23-1.01,2.02-1.06c0.8-0.16,1.6,0.27,1.92,1.03c0.35,0.93,0.13,1.98-0.57,2.7c-0.33,0.38-0.73,0.68-1.19,0.89
				c-0.42,0.17-0.86,0.27-1.32,0.3c-1.13-0.02-2.21,0.44-2.98,1.27c-0.15,0.21,0.13,0.34,0.33,0.36c0.28,0.03,0.56-0.08,0.75-0.29
				c0.57-0.81,1.95-0.66,2.88-0.87c1.2-0.27,2.26-1,2.93-2.03c0.63-0.92,0.65-2.12,0.04-3.06c-0.67-0.8-1.74-1.16-2.76-0.93
				c-1.23,0.08-2.36,0.67-3.14,1.62c-0.14,0.21,0.12,0.34,0.33,0.36C161.38,128.51,161.65,128.4,161.84,128.19"/>
			<path id="Path_505_00000124143274422683194940000007591986298466695864_" class="st1" d="M109.85,134.8
				c1.35,1.24,2.83,2.33,4.42,3.25c0.8,0.46,1.63,0.89,2.48,1.26c0.41,0.18,0.83,0.36,1.25,0.52c0.27,0.1,1.11,0.29,1.04,0.65
				c-0.06,0.32,1.36,0.11,1.42-0.21c0.06-0.34-0.19-0.52-0.52-0.66c-0.44-0.18-0.9-0.34-1.34-0.52c-0.92-0.39-1.83-0.83-2.7-1.32
				c-1.69-0.95-3.26-2.09-4.69-3.4C110.95,134.12,109.61,134.57,109.85,134.8"/>
			<path id="Path_506_00000027588072971014999410000007415291905065926799_" class="st1" d="M107.51,135.64
				c2.35,3.26,5.53,5.82,9.21,7.42c0.34,0.09,0.71,0.04,1.02-0.13c0.19-0.1,0.44-0.33,0.14-0.45c-3.61-1.59-6.73-4.11-9.03-7.32
				C108.61,134.84,107.21,135.24,107.51,135.64"/>
			<path id="Path_507_00000001623570520424472370000005810614698731763636_" class="st1" d="M107.34,131.66
				c-0.51-0.59-0.79-1.35-0.78-2.13c0.01-0.32,0.15-0.62,0.39-0.82c0.21-0.12,0.46-0.15,0.69-0.08c1.91,0.34,2.57,2.3,2.57,3.79
				c-0.01,0.4-0.07,0.79-0.2,1.17c-0.12,0.39-0.16,0.8-0.13,1.21c0.02,0.36,1.18,0.14,1.16-0.27c-0.01-0.41,0.05-0.82,0.19-1.21
				c0.12-0.43,0.17-0.87,0.15-1.32c0-1.02-0.36-2.01-1.01-2.8c-0.66-0.74-1.6-1.17-2.59-1.21c-0.97-0.1-1.89,0.42-2.3,1.3
				c-0.2,1.01,0.1,2.05,0.8,2.8C106.5,132.37,107.63,132.03,107.34,131.66"/>
			<path id="Path_508" class="st1" d="M106.74,130.65c-0.78-0.68-1.78-1.04-2.82-1.02c-1.06-0.13-2.12,0.26-2.86,1.03
				c-0.61,0.88-0.6,2.05,0.02,2.93c0.68,0.99,1.73,1.66,2.91,1.88c0.69,0.09,1.39,0.11,2.09,0.06c0.61-0.08,1.22,0.1,1.69,0.49
				c0.3,0.3,1.39-0.08,1.05-0.42c-0.83-0.63-1.88-0.88-2.91-0.71c-0.48,0.04-0.96,0.02-1.44-0.07c-0.52-0.13-1.01-0.36-1.44-0.68
				c-0.84-0.55-1.32-1.5-1.27-2.49c0.03-0.42,0.23-0.81,0.55-1.09c0.23-0.17,0.52-0.27,0.81-0.27c0.93-0.11,1.86,0.17,2.57,0.78
				C105.98,131.37,107.07,131,106.74,130.65"/>
		</g>
	</g>
</g>
</svg>
