<?xml version="1.0" encoding="utf-8"?>
<!-- Generator: Adobe Illustrator 26.2.1, SVG Export Plug-In . SVG Version: 6.00 Build 0)  -->
<svg version="1.1" id="Layer_1" xmlns="http://www.w3.org/2000/svg" xmlns:xlink="http://www.w3.org/1999/xlink" x="0px" y="0px"
	 viewBox="0 0 25.97 25.96" style="enable-background:new 0 0 25.97 25.96;" xml:space="preserve">
<style type="text/css">
	.st0{fill:#F490AE;}
</style>
<path class="st0" d="M25.96,20.48c0.05,0.42-0.07,0.79-0.39,1.1l-3.66,3.63c-0.17,0.18-0.38,0.34-0.65,0.47
	c-0.27,0.13-0.53,0.21-0.78,0.25c-0.02,0-0.07,0-0.17,0.01c-0.09,0.01-0.21,0.01-0.36,0.01c-0.35,0-0.91-0.06-1.69-0.18
	c-0.78-0.12-1.73-0.41-2.86-0.88c-1.13-0.47-2.41-1.17-3.84-2.1c-1.43-0.93-2.95-2.22-4.56-3.85c-1.28-1.26-2.35-2.47-3.19-3.63
	c-0.84-1.15-1.52-2.22-2.03-3.2c-0.51-0.98-0.9-1.87-1.15-2.67c-0.26-0.8-0.43-1.48-0.52-2.06C0.02,6.81-0.01,6.35,0,6.02
	c0.02-0.33,0.03-0.51,0.03-0.55c0.04-0.26,0.12-0.52,0.25-0.78c0.13-0.27,0.28-0.48,0.47-0.65L4.4,0.38C4.66,0.13,4.95,0,5.28,0
	c0.24,0,0.45,0.07,0.63,0.21C6.1,0.34,6.26,0.51,6.38,0.71L9.33,6.3c0.16,0.29,0.21,0.61,0.14,0.96C9.39,7.61,9.23,7.9,9,8.14
	L7.65,9.49c-0.04,0.04-0.07,0.1-0.1,0.18C7.52,9.75,7.51,9.82,7.51,9.87c0.07,0.39,0.24,0.82,0.49,1.32
	c0.22,0.44,0.56,0.98,1.02,1.61c0.46,0.63,1.11,1.36,1.95,2.19c0.82,0.84,1.56,1.5,2.2,1.97c0.64,0.47,1.18,0.81,1.61,1.03
	c0.43,0.22,0.76,0.35,0.99,0.4l0.34,0.07c0.04,0,0.1-0.01,0.18-0.04c0.08-0.03,0.14-0.06,0.18-0.1l1.57-1.59
	c0.33-0.29,0.71-0.44,1.15-0.44c0.31,0,0.56,0.06,0.74,0.17h0.03l5.31,3.13C25.66,19.82,25.89,20.12,25.96,20.48L25.96,20.48z
	 M25.96,20.48"/>
</svg>
