<?xml version="1.0" encoding="utf-8"?>
<!-- Generator: Adobe Illustrator 26.0.3, SVG Export Plug-In . SVG Version: 6.00 Build 0)  -->
<svg version="1.1" id="Layer_1" xmlns="http://www.w3.org/2000/svg" xmlns:xlink="http://www.w3.org/1999/xlink" x="0px" y="0px"
	 viewBox="0 0 29.24 29.24" style="enable-background:new 0 0 29.24 29.24;" xml:space="preserve">
<style type="text/css">
	.st0{fill:#FFFFFF;}
</style>
<path class="st0" d="M29.24,7.65C29.24,3.44,25.8,0,21.59,0H7.65C3.44,0,0,3.44,0,7.65v13.94c0,4.21,3.44,7.65,7.65,7.65h13.94
	c4.21,0,7.65-3.44,7.65-7.65L29.24,7.65z M19.9,17.14c-1.82,2.25-4.76,2.4-6.12,1.02c-0.1-0.11-0.19-0.23-0.29-0.36
	c-0.02,0.05-0.03,0.09-0.04,0.14c-0.65,2.55-0.72,3.12-1.39,4.31c-0.32,0.56-0.68,1.1-1.08,1.61c-0.05,0.06-0.09,0.13-0.18,0.11
	c-0.1-0.02-0.11-0.11-0.12-0.19c-0.11-0.78-0.17-1.55-0.14-2.34c0.03-1.02,0.16-1.37,1.48-6.9c0.02-0.08,0-0.15-0.03-0.23
	c-0.31-0.85-0.38-1.71-0.1-2.59c0.6-1.89,2.73-2.03,3.11-0.47c0.23,0.96-0.38,2.22-0.85,4.09c-0.39,1.54,1.42,2.63,2.97,1.51
	c1.43-1.03,1.98-3.51,1.87-5.27c-0.21-3.5-4.05-4.26-6.49-3.13c-2.79,1.29-3.43,4.76-2.17,6.34c0.16,0.2,0.28,0.32,0.23,0.53
	c-0.08,0.32-0.15,0.64-0.24,0.95c-0.07,0.23-0.26,0.32-0.5,0.22C9.37,16.29,8.98,16,8.67,15.61c-1.07-1.33-1.38-3.95,0.04-6.17
	c1.57-2.46,4.49-3.46,7.15-3.16c3.18,0.36,5.2,2.54,5.57,5.01C21.6,12.41,21.48,15.18,19.9,17.14z"/>
</svg>
