<?xml version="1.0" encoding="utf-8"?>
<!-- Generator: Adobe Illustrator 26.0.3, SVG Export Plug-In . SVG Version: 6.00 Build 0)  -->
<svg version="1.1" id="Layer_1" xmlns="http://www.w3.org/2000/svg" xmlns:xlink="http://www.w3.org/1999/xlink" x="0px" y="0px"
	 viewBox="0 0 213.45 124.53" style="enable-background:new 0 0 213.45 124.53;" xml:space="preserve">
<style type="text/css">
	.st0{fill:#474C6B;}
</style>
<g>
	<g>
		<g>
			<path class="st0" d="M41.43,112.01c0.03,0,0.06-0.01,0.09-0.02c1.23-0.05,2.33-0.47,3.31-1.14c3.46-1.99,5.83-6.05,7.71-9.32
				c2.15-3.75,3.97-7.66,5.5-11.69c25.03,3.41,48.92-6.19,72.87-11.88c0.76,1.07,1.58,2.08,2.41,2.99c2.41,2.64,5.25,4.93,7.91,7.36
				c4.71,5.9,7.96,12.35,11.53,19.05c2.85,5.35,6.43,10.69,11.89,13.65c0.95,0.52,1.93,0.91,2.92,1.19c1.12,0.43,2.3,0.76,3.57,0.96
				c0.42,0.07,0.67-0.24,0.71-0.56c0.48-0.05,0.96-0.15,1.43-0.27c2.44-0.33,4.62-1.6,6.14-3.76c1.52-2.17,2.11-4.67,2.28-7.24
				c0.69-7.71-1.74-15.24-4.26-22.41c-2.61-7.43-3.95-14.9-5.16-22.53c11.98-2.32,24.66-7.14,33.44-15.89
				c3.8-3.78,7.27-8.93,7.68-14.42c0.03-0.44,0.03-0.86,0.02-1.28c0.14-2.02-0.22-4.02-1.3-5.8c-1.69-2.77-5.1-4.46-7.69-6.23
				c-2.96-2.03-5.91-4.09-9.05-5.82c-13.85-7.63-30.09-3.24-43.75,2.74c-2.75,1.2-5.46,2.49-8.14,3.83
				c-0.05-0.07-0.12-0.13-0.2-0.18c-9.08-5.14-17.91-10.73-26.41-16.79c-3.1-2.21-6.21-5.03-9.95-6.09
				c-3.06-0.87-7.18-0.55-10.09,0.75c-0.22,0.1-0.42,0.2-0.62,0.31c-0.15,0.01-0.3,0.08-0.42,0.24c-0.01,0.01-0.01,0.02-0.02,0.03
				c-5.27,3.42-3.96,12.05-1.94,17.04c3.52,8.68,10.92,14.96,14.99,23.32c-0.71,0.36-1.43,0.71-2.15,1.06
				c-15.23,7.4-30.86,13.92-46.53,20.3c0.23-3.73-0.71-9.26-5.14-9.59c-3.15-0.24-6.61,2.5-8.24,5.43
				c-0.02,0.03-0.04,0.06-0.05,0.09c-0.24,0.44-0.44,0.88-0.59,1.32c-1.87-1.69-3.79-3.33-5.77-4.88
				c-4.86-3.79-10.47-5.47-16.58-4.3c-0.27,0.05-0.42,0.23-0.48,0.44c-0.07,0.05-0.12,0.12-0.16,0.19
				c-2.84,2.37-3.16,6.04-2.15,9.41c0.12,0.69,0.3,1.37,0.53,2.02c1.22,3.36,3.63,6.11,5.94,8.77c2.69,3.09,5.4,6.16,8.1,9.24
				c0.2,0.23,0.47,0.26,0.7,0.19c1.27,1.46,2.55,2.92,3.82,4.38c0.11,0.13,0.25,0.19,0.38,0.21c-1.27,3.99-2.69,8.02-3.82,12.08
				c-0.01,0.03-0.02,0.06-0.03,0.09c-0.29,1.04-0.55,2.09-0.79,3.14c-0.18,0.16-0.21,0.39-0.13,0.6c-0.15,0.68-0.29,1.35-0.41,2.03
				C34.52,108.69,36.62,112.57,41.43,112.01z M25,53.17c5.8,0.2,10.03,4.52,13.89,8.5c4.16,4.29,8.32,8.58,12.48,12.88
				c0.08,0.09,0.18,0.14,0.27,0.17c-1.64,1.21-3.53,2.2-4.94,2.91c-3,1.52-6.2,2.46-9.52,2.97c-0.06,0.01-0.1,0.04-0.15,0.06
				c-3.71-3.93-7.26-8-10.6-12.26c-1.39-1.78-3.05-4.15-4.02-6.59C21.62,58.61,22.04,55.33,25,53.17z M54.79,71.17
				c-0.44,1.05-1.27,2.01-2.29,2.88c-0.02-0.09-0.07-0.18-0.15-0.27c-5.02-5.18-9.92-10.49-15.08-15.52
				c-2.56-2.49-5.39-4.66-8.65-5.7c4.69,0.3,8.77,2.48,12.64,5.71C46.05,62.27,50.54,66.61,54.79,71.17z M52.89,58.94
				c1.92-0.21,3.78-0.16,5.64,0.38c0.02,0.01,0.04,0,0.06,0c0.38,1.6,0.4,3.37,0.25,4.75c-2.13,0.87-4.26,1.73-6.38,2.59
				c-0.06,0.03-0.1,0.06-0.15,0.1c-1.7-1.73-3.44-3.43-5.22-5.08c0.05-0.07,0.09-0.15,0.12-0.24c0.1-0.41,0.29-0.84,0.53-1.28
				C49.01,59.18,51.36,59.11,52.89,58.94z M58.14,57.95c-1.79-0.4-3.58-0.44-5.42-0.24c-1.1,0.12-2.4,0.2-3.59,0.5
				c1.54-1.71,3.68-3.11,5.44-2.99C56.38,55.34,57.5,56.46,58.14,57.95z M113.58,5.72c-7.1,2.82-13.04,7.69-17.16,14.09
				c-2.87-5.48-3.88-11.12-0.05-16.7c1.07-0.77,2.47-1.32,4.27-1.56c4.7-0.62,8.06,0.68,11.85,3.38
				C112.85,5.2,113.21,5.46,113.58,5.72z M117.92,8.82c-4.31,2.05-8.29,4.69-11.76,7.99c-2.11,2.01-5.57,4.99-6.57,8.13
				c-0.9-1.28-1.74-2.58-2.49-3.89c4.13-6.63,10.16-11.62,17.49-14.4c0.07-0.02,0.11-0.06,0.16-0.1
				C115.8,7.32,116.86,8.07,117.92,8.82z M132.2,18.24c-9.67,3.44-18.09,9.44-24.51,17.42c-2.16-2.99-4.76-6.13-7.13-9.37
				c0.22-2.1,2.47-4.3,3.72-5.73c1.39-1.59,2.91-3.07,4.52-4.44c3.12-2.65,6.58-4.78,10.3-6.48c1.08,0.76,2.16,1.51,3.25,2.25
				C125.59,14.08,128.87,16.19,132.2,18.24z M136.61,20.9c-0.08,0.09-0.13,0.19-0.14,0.3c-9.8,4.44-18.73,10.42-26.56,17.79
				c-0.45-0.75-0.95-1.51-1.48-2.28c6.48-8.17,15.06-14.21,24.96-17.58c0.06-0.02,0.1-0.05,0.14-0.08
				C134.55,19.68,135.58,20.29,136.61,20.9z M141.37,24.62c-10.22,5.24-20.12,11.17-30.34,16.42c-0.15-0.31-0.31-0.63-0.49-0.94
				c7.89-7.46,16.9-13.5,26.84-17.95c0.12-0.05,0.2-0.13,0.26-0.22c0.85,0.12,1.51,0.89,2.1,1.49
				C140.24,23.92,140.75,24.35,141.37,24.62z M203.56,23.67c-0.41,0.53-0.83,1.07-1.24,1.61c-2.61-2.39-5.39-4.57-8.34-6.53
				c-0.04-0.03-0.08-0.03-0.12-0.05c0.06-0.31,0.11-0.62,0.15-0.94c1.9,0.95,3.77,2.05,5.63,3.29
				C200.95,21.92,202.25,22.79,203.56,23.67z M201.56,26.28c-2.64,3.43-5.43,6.75-9.43,8.66c-2.48,1.18-5.27,1.87-8.03,1.9
				c-0.58-0.02-1.16-0.05-1.74-0.07c-2.37-2.13-2.5-3.7-0.41-4.72c0.18-0.12,0.37-0.24,0.56-0.35c0.88-0.38,1.78-0.74,2.47-1.16
				c1.62-0.98,3.14-2.11,4.47-3.47c1.99-2.02,3.4-4.42,4.12-7.08C196.39,21.89,199.05,23.99,201.56,26.28z M172.09,65.19
				c-0.08-0.48-0.15-0.97-0.23-1.45c7.58-1.94,14.99-4.54,22.03-7.96c4.91-2.38,9.87-5.27,13.7-9.25c-1.63,2.13-3.56,4.04-5.64,5.72
				C193.5,59.09,182.69,63.14,172.09,65.19z M158.24,112.18c-1.26-2.04-2.35-4.19-3.39-6.36c6.6-5.3,14.46-8.48,22.3-11.53
				c1.84,5.49,3.79,11.39,3.15,17.09c-0.54,4.72-3.42,8.57-7.37,9.69c-2.01,0.22-4.16-0.28-6.12-1.35
				C163.54,117.94,160.68,115.26,158.24,112.18z M153.14,102.27c6.33-5.97,14.55-9.16,22.74-11.83c0.12,0.37,0.24,0.74,0.36,1.11
				c0.17,0.51,0.34,1.03,0.51,1.56c-7.89,3.07-15.8,6.28-22.46,11.57c-0.28-0.58-0.56-1.17-0.84-1.75
				C153.35,102.69,153.25,102.48,153.14,102.27z M142.9,86.05c8.3-6.23,17.98-10.13,28.33-11.38c0.05-0.01,0.08-0.03,0.13-0.04
				c1.03,4.97,2.58,9.8,4.14,14.62c-8.28,2.71-16.46,5.94-22.92,11.87c-2.05-4.09-4.37-8.02-7.05-11.73
				C144.69,88.23,143.81,87.12,142.9,86.05z M139.4,82.12c8.16-8.36,19.65-12.11,31.12-13.23c0.16,1.53,0.34,3.05,0.61,4.55
				c-0.03,0-0.05-0.01-0.07-0.01c-10.57,1.27-20.5,5.29-28.97,11.67C141.2,84.09,140.31,83.1,139.4,82.12z M133.03,60.74
				c0.06-0.05,11.43-6.43,17.46-8.74c2.67-1.03,8.88-2.52,9.14-2.57c0.68-0.14,1.31-0.19,1.9-0.19c3.44,0.55,5.52,3.37,6.78,6.84
				c1.34,3.68,1.7,7.63,2.09,11.57c-11.75,1.14-23.44,5.05-31.82,13.57c-1.4-1.52-2.81-3.05-4.16-4.64
				C130.79,72.3,127.64,65.07,133.03,60.74z M128.72,70.04c0.24,0.8,0.54,1.59,0.89,2.35C129.21,71.64,128.91,70.86,128.72,70.04z
				 M60.57,88.9c23.57-0.79,46.73-5.1,68.9-13.24c0.23,0.41,0.46,0.82,0.71,1.21C107.3,82.34,84.43,91.41,60.57,88.9z M58.85,87.72
				c0.53-1.51,1.02-3.03,1.47-4.56c0.14-0.48-0.27-0.85-0.65-0.86c-0.55-1.22-5.23-2.3-5.77-2.36c-3.69-0.44-7.34,0.48-10.38,2.47
				c-0.77,0.32-1.47,0.72-1.99,1.22c-0.11,0.04-0.2,0.14-0.26,0.28c-0.29,0.34-0.5,0.73-0.59,1.17c-0.96-1.1-1.92-2.2-2.88-3.3
				c4.03-0.67,7.85-1.97,11.37-4.08c2.42-1.45,5.55-3.21,6.73-5.93c0.36-0.14,0.6-0.57,0.27-0.93c-0.97-1.05-1.95-2.08-2.95-3.11
				c14.25-5.78,28.5-11.57,42.5-17.94c13.89-6.32,27.2-13.54,40.56-20.91c12.72-7.02,26.5-14,41.29-14.75
				c4.78-0.24,9.09,0.6,13.19,2.21c0.03,0.05,0.06,0.11,0.1,0.16c2.59,2.62-1.25,7.43-3.01,9.43c-1.96,2.22-4.23,3.47-6.61,5.12
				c-0.02,0.01-0.04,0.03-0.06,0.05c-0.34,0.19-0.68,0.38-1.01,0.57c-2.94,1.63-4.13,5.35-0.19,6.69c4.43,1.5,10.7-0.96,14.49-3.17
				c4.33-2.52,7.74-6.18,10.05-10.6c0.02,0.02,0.04,0.04,0.07,0.05c3.36,2.24,5.99,4.75,7.02,7.91c-1.5-2.4-4.31-4.23-6.75-5.27
				c-0.74-0.32-1.21,0.84-0.47,1.15c3.21,1.37,7.6,4.42,7.02,8.39c-0.04,0.29,0.09,0.48,0.29,0.59c-0.01,0.02-0.01,0.05-0.02,0.07
				c-2.14,7.72-9.73,12.8-16.46,16.26c-7.46,3.84-15.42,6.7-23.54,8.78c-0.14-0.87-0.27-1.73-0.41-2.6
				c-0.72-4.47-3.01-9.78-7.23-11.4c-2.56-1.22-5.37-0.55-7.99,0.25c-2.05,0.62-4.08,1.33-6.08,2.1c-0.09-0.01-0.18,0-0.29,0.03
				c-4.48,1.59-8.79,3.54-12.93,5.82c-0.16-0.04-2.1,1.11-2.9,1.68c-0.42,0.25-1.52,1.01-1.53,1.16c-0.18,0.15-0.37,0.29-0.55,0.44
				c-0.03,0.02-0.06,0.03-0.08,0.05c-0.09,0.06-0.15,0.12-0.19,0.19c-2.97,2.62-5.15,5.93-4.14,10.2c0.17,0.71,0.42,1.39,0.74,2.05
				c0.23,0.7,0.51,1.39,0.82,2.07C106.37,82.8,82.82,87.07,58.85,87.72z M179.36,36.65c-0.67-0.4-1.01-1.01-0.61-1.92
				C178.69,35.4,178.86,36.06,179.36,36.65z M52.25,99.42c1.3-2.8,2.51-5.63,3.64-8.5c-0.56,1.94-1.18,3.81-1.83,5.14
				c-0.54,1.11-1.1,2.27-1.7,3.43C52.32,99.46,52.28,99.44,52.25,99.42z M38.45,97.65l3.76-12.64c0.53-0.49,1.08-0.94,1.66-1.35
				c2.07-0.91,5.12-1.39,5.88-1.47c1.89-0.21,5.15-0.49,7.23,0.54c0.8,1.96-2.04,7.23-2.74,8.96c-0.96,2.39-1.99,4.75-3.07,7.09
				C47.22,96.64,42.7,96.23,38.45,97.65z M49,103.55c-3.39-2.5-7.59-3.3-11.65-2.29c0.15-0.45,0.29-0.88,0.41-1.28
				c0.08-0.28,0.17-0.56,0.25-0.85c4.19-1.67,8.72-1.4,12.65,0.77C50.18,100.99,49.63,102.26,49,103.55z M36.41,107.69
				c-0.41-1.54-0.03-3.33,0.48-5.01c4.01-1.27,8.19-0.52,11.52,2c-0.84,1.57-1.82,3.08-2.97,4.21c-1.18,0.89-2.77,1.67-4.32,1.89
				c-0.55-0.02-1.12-0.14-1.72-0.35c-0.27-0.1-0.51-0.01-0.67,0.15C37.69,110.18,36.84,109.29,36.41,107.69z"/>
		</g>
		<g>
			<path class="st0" d="M161.03,41.83c0.44,0.44,0.98,0.74,1.56,0.93c0.01,0.01,0.01,0.02,0.02,0.03c0.23,0.25,0.54,0.26,0.78,0.15
				c1.69,0.22,3.52-0.51,4.36-2.07c1.21-2.23,0.21-5.17-2-6.26c-0.08-0.1-0.19-0.18-0.33-0.23c-0.24-0.07-0.48-0.11-0.72-0.13
				c-1.03-0.2-2.02-0.01-2.82,0.46c-0.01,0-0.02,0-0.03,0C158.63,35.19,159.29,40.11,161.03,41.83z M164.97,41.59
				c-0.1-0.07-0.22-0.12-0.37-0.11c-1.33,0.07-2.22-1.67-2.39-3c0.01-0.37,0.03-0.84,0.11-1.29c0.21-0.62,0.65-1.13,1.2-1.41
				c0.11-0.01,0.19-0.06,0.26-0.12c0.27-0.1,0.56-0.16,0.86-0.14c0.22,0.05,0.43,0.12,0.63,0.22c1.53,0.76,2.2,2.84,1.49,4.38
				C166.4,40.86,165.73,41.36,164.97,41.59z"/>
		</g>
		<g>
			<path class="st0" d="M146.42,45.24c1.25,2.31,4.07,2.16,5.02,1.59c1.95-1.16,2.2-3.69,1.12-5.55c-0.9-1.56-3.18-2.91-4.74-1.71
				C145.66,40.41,145.46,43.48,146.42,45.24z M147.86,44.86c-0.34-1.03-0.45-2.14-0.06-3.03c0.51-0.6,3.2-1.2,3.93,0.63
				c0.53,1.32,0.12,2.87-1.25,3.46C150.26,46.02,148.51,46.07,147.86,44.86z"/>
		</g>
		<g>
			<path class="st0" d="M132.89,49.02c0.88,1.83,2.83,2.85,4.69,2.1c1.66-0.67,2.43-2.58,1.95-4.23c0-0.02,0-0.04,0-0.07
				C137.44,40.94,131.13,45.37,132.89,49.02z M134.86,46.12c1.03-0.72,2.64-0.52,3.3,0.69c0.62,1.14,0.19,2.81-1.07,3.17
				C132.9,51.16,133.91,46.79,134.86,46.12z"/>
		</g>
		<g>
			<path class="st0" d="M123.18,57.86c1.83-0.82,2.3-3.06,1.6-4.81c-0.51-1.29-1.87-2.42-3.2-2.25c-0.29-0.03-0.55,0.03-0.77,0.16
				C117.13,51.9,118.76,59.85,123.18,57.86z M122.68,56.72c-0.07,0.05-0.15,0.05-0.23,0.08c-2.92,0.38-2.7-3.28-2.44-3.92
				c0.01-0.01,0.78-0.73,1.64-0.79C122.68,52.22,126.38,53.91,122.68,56.72z"/>
		</g>
		<g>
			<path class="st0" d="M111.9,57.92c-1.48-3.3-5.43-0.55-5.49-0.52c-0.24,0.1-1.99,2.25-0.7,4.45c0.96,1.62,3.12,2.22,4.76,1.23
				C112.18,62.03,112.7,59.71,111.9,57.92z M109.97,61.92c-1.01,0.72-2.39,0.4-3.1-0.58c-0.71-0.98-0.38-2.18,0.4-2.94
				c1.26-0.68,2.62-0.76,3.3,0.02C111.42,59.39,110.95,61.22,109.97,61.92z"/>
		</g>
	</g>
	<g>
		<path class="st0" d="M73.29,105.31c13.92,3.91,28.44,4.65,42.69,2.18c0.77-0.13,0.86,1.08,0.09,1.22
			c-14.34,2.48-28.99,1.73-43-2.2C72.31,106.3,72.53,105.1,73.29,105.31z"/>
	</g>
	<g>
		<path class="st0" d="M77.29,115c8.18,2.32,16.61,2.75,24.98,1.3c0.77-0.13,0.86,1.08,0.09,1.22c-8.47,1.47-17.03,1.02-25.3-1.32
			C76.32,115.98,76.54,114.78,77.29,115z"/>
	</g>
	<g>
		<path class="st0" d="M71.03,120.43c5.62,2.23,11.47,3.16,17.51,2.81c0.78-0.05,0.87,1.17,0.09,1.22
			c-6.24,0.36-12.31-0.62-18.12-2.93C69.77,121.24,70.3,120.14,71.03,120.43z"/>
	</g>
	<g>
		<path class="st0" d="M1.24,44.6c5.08-13.29,19.93-21.33,33.84-18.4c1.18,0.25,0.83,2.09-0.35,1.84
			C21.59,25.27,7.73,32.88,2.94,45.4C2.51,46.53,0.82,45.72,1.24,44.6z"/>
	</g>
	<g>
		<path class="st0" d="M0.2,24.19c4.67-6.26,11.94-9.89,19.76-9.85c1.2,0.01,1.34,1.88,0.13,1.87C12.73,16.17,6.03,19.5,1.63,25.4
			C0.91,26.37-0.52,25.16,0.2,24.19z"/>
	</g>
</g>
</svg>
