<?xml version="1.0" encoding="utf-8"?>
<!-- Generator: Adobe Illustrator 26.2.1, SVG Export Plug-In . SVG Version: 6.00 Build 0)  -->
<svg version="1.1" id="Layer_1" xmlns="http://www.w3.org/2000/svg" xmlns:xlink="http://www.w3.org/1999/xlink" x="0px" y="0px"
	 viewBox="0 0 991.96 171.09" style="enable-background:new 0 0 991.96 171.09;" xml:space="preserve">
<style type="text/css">
	.st0{fill:#FFFFFF;}
</style>
<rect x="-1537.7" y="-299.61" style="fill:none;" width="10" height="73.33"/>
<text transform="matrix(1 0 0 1 -1537.7041 -291.0874)"><tspan x="0" y="0" style="font-family:'MyriadPro-Regular'; font-size:12px;">L</tspan><tspan x="0" y="14.4" style="font-family:'MyriadPro-Regular'; font-size:12px;">o</tspan><tspan x="0" y="28.8" style="font-family:'MyriadPro-Regular'; font-size:12px;">re</tspan></text>
<g>
	<path class="st0" d="M77.22,109.58l-0.14,0.28c-0.56,1.5-1.12,3.13-1.68,4.9l-1.4,4.62c-0.37,1.4-0.56,2.2-0.56,2.38
		c-3.18,9.53-6.73,16.49-10.65,20.88c-4.95,5.42-12,8.78-21.16,10.09c-1.03,0.09-1.94-0.16-2.73-0.77
		c-0.79-0.61-1.29-1.38-1.47-2.31v-0.84c-6.45,1.49-12.57-0.42-18.36-5.75c-5.42-4.95-9.57-11.63-12.47-20.04
		c-1.87-5.51-3.43-12.84-4.69-22C0.65,91.88,0.01,82.53,0.01,73c-0.28-23.82,3.13-40.17,10.23-49.04c2.9-3.73,6.54-5.89,10.93-6.45
		c1.12-0.09,2.85-0.14,5.19-0.14c2.05,0,3.64-0.09,4.76-0.28c18.68-8.13,34.14-8.92,46.38-2.38c5.42,2.9,9.95,7.19,13.59,12.89
		c0,0.09,0.05,0.14,0.14,0.14l1.12-0.98c4.39-4.39,7.15-7.05,8.27-7.99c9.43-8.03,18.17-9.9,26.2-5.6
		c4.48,2.43,8.41,8.13,11.77,17.1c0.47,1.5,0.98,3.04,1.54,4.62c3.27,7.85,5.84,17.84,7.71,29.99c1.96,12.89,2.89,25.92,2.8,39.1
		c0.09,0.93,0.14,1.82,0.14,2.66c0,0.65,0.05,1.71,0.14,3.15c0.09,1.45,0.14,2.55,0.14,3.29c0.19,2.99,0.23,5.56,0.14,7.71
		c-0.37,5.42-1.64,9.67-3.78,12.75c-1.78,6.17-4.3,10.23-7.57,12.19c-2.52,1.4-5,1.45-7.43,0.14c-1.78-0.93-3.41-2.57-4.9-4.9
		l-0.42-0.7c-3.74-1.96-6.63-5.51-8.69-10.65c-1.03-2.61-1.96-5.93-2.8-9.95l-0.98,3.22c-1.31,4.67-2.43,8.27-3.36,10.79
		c-1.59,4.11-3.27,6.91-5.04,8.41c-1.12,1.12-2.29,1.96-3.5,2.52c-0.84,0.47-1.68,0.84-2.52,1.12c-2.15,0.56-4.16,0.23-6.03-0.98
		c-0.75-0.37-1.45-0.79-2.1-1.26c-3.08-2.24-5.89-6.31-8.41-12.19C80.96,125.04,78.81,117.8,77.22,109.58z M7.44,65.02
		c9.25,0.65,16.02,0.28,20.32-1.12c0-0.37-0.23-2.54-0.7-6.52c-0.47-3.97-0.84-6.98-1.12-9.04l-0.14-1.68
		c-4.95-0.09-10.46-0.37-16.54-0.84c-1.03,5.6-1.68,12-1.96,19.2H7.44z M28.6,71.32c-4.95,1.31-12.05,1.64-21.3,0.98V73
		c0,4.11,0.14,8.32,0.42,12.61c7.48,0.56,14.76,0.56,21.86,0c-0.19-3.83-0.42-7.47-0.7-10.93L28.6,71.32z M13.75,108.88
		c4.48,0.93,9.95,1.17,16.4,0.7c0-1.12-0.02-2.82-0.07-5.11c-0.05-2.29-0.07-3.99-0.07-5.11c0-2.43-0.05-4.58-0.14-6.45
		c-7.01,0.56-14.2,0.61-21.58,0.14c0.65,5.98,1.5,11.54,2.52,16.68C11.65,108.97,12.63,108.69,13.75,108.88z M24.4,26.34
		c-0.47-0.37-0.84-0.79-1.12-1.26c-0.09-0.09-0.14-0.23-0.14-0.42c-0.37,0.09-0.7,0.14-0.98,0.14c-2.52,0.28-4.62,1.5-6.31,3.64
		c-1.87,2.43-3.5,5.84-4.9,10.23c5.14,0.37,9.85,0.61,14.15,0.7C24.72,34.7,24.49,30.36,24.4,26.34z M21.03,128.21
		c1.31,0.84,2.29,1.5,2.94,1.96l0.14,0.14h0.14l1.26,0.14c1.4,0.19,2.8,0.42,4.2,0.7c0.75,0.19,1.4,0.56,1.96,1.12
		c-0.65-2.43-1.03-5.09-1.12-7.99c-0.09-2.24-0.19-4.72-0.28-7.43c-6.91,0.47-12.89,0.23-17.94-0.7l-0.14-0.14
		c0.47,1.78,0.93,3.36,1.4,4.76c0.84,2.52,1.96,5.04,3.36,7.57C18.28,127.33,19.63,127.28,21.03,128.21z M32.66,135.5
		c-0.28,1.03-0.82,1.82-1.61,2.38c-0.79,0.56-1.71,0.75-2.73,0.56c-1.31-0.28-2.62-0.51-3.92-0.7l-0.56-0.14l0.14,0.14
		c3.92,3.55,7.85,4.86,11.77,3.92c-0.19-0.37-0.42-0.7-0.7-0.98C34.11,139.19,33.32,137.46,32.66,135.5z M33.08,24.24l-1.54,0.7
		c0.09,4.39,0.37,9.3,0.84,14.71c1.87,0.47,2.8,1.64,2.8,3.5c0,1.5-0.7,2.62-2.1,3.36l0.14,0.98c0.19,1.68,0.65,5.7,1.4,12.05
		c0.75,5.89,1.26,10.74,1.54,14.57c0.56,6.73,0.93,15.09,1.12,25.08c0,1.12,0.02,3.06,0.07,5.82c0.05,2.76,0.07,4.83,0.07,6.24
		c0.19,0.47,0.33,0.94,0.42,1.4c0,0.56-0.09,1.17-0.28,1.82c0.09,3.46,0.19,6.63,0.28,9.53c0.28,5.32,1.4,9.53,3.36,12.61
		c2.05,3.27,5.09,4.3,9.11,3.08c3.36-1.03,6.12-3.88,8.27-8.55c1.77-3.55,3.41-8.97,4.9-16.25c1.96-9.43,3.17-14.9,3.64-16.4
		c2.24-6.35,5.61-9.34,10.09-8.97c4.95,0.47,8.78,4.16,11.49,11.07c1.49,3.83,2.99,9.9,4.48,18.22c1.49,8.6,2.61,13.97,3.36,16.11
		c0.47,1.5,0.93,2.62,1.4,3.36h0.42c0.19,0,0.37-0.05,0.56-0.14c0.19-0.19,0.37-0.42,0.56-0.7c0.65-1.12,1.26-2.75,1.82-4.9
		c0.75-2.89,1.54-8.03,2.38-15.41c0.84-7.38,1.68-12.38,2.52-14.99c0.75-2.52,1.77-4.34,3.08-5.46c2.15-1.87,4.58-2.05,7.29-0.56
		c1.4,0.84,2.71,2.43,3.92,4.76c0.84,1.59,1.73,3.78,2.66,6.59l2.66,8.41l2.38,7.85c1.49,4.58,2.85,8.13,4.06,10.65
		c2.52,0.37,5.28-0.89,8.27-3.78l0.14-0.28c0.19-0.65,0.37-1.35,0.56-2.1c0.84-3.92,1.45-8.97,1.82-15.13
		c0.19-2.61,0.28-5.56,0.28-8.83c-0.84-15.6-2.57-30.78-5.18-45.54c-1.5-8.31-3.13-15.46-4.9-21.44c-2.43-5.6-5.09-9.69-7.99-12.26
		c-2.9-2.57-5.65-3.57-8.27-3.01c-2.24,0.47-4.72,2.06-7.43,4.76c-1.31,1.4-3.64,4.3-7.01,8.69c-1.31,1.78-2.38,3.13-3.22,4.06
		c-1.4,1.4-2.71,2.34-3.92,2.8c-1.21,0.47-2.62,0.37-4.2-0.28c-0.94-0.37-1.96-0.93-3.08-1.68c-1.68-1.03-3.92-2.71-6.73-5.04
		C74.61,29.8,71.06,27,70.78,26.9c-1.96-1.12-4.04-2.03-6.24-2.73c-2.2-0.7-4.02-1.21-5.46-1.54c-1.45-0.33-3.6-0.44-6.45-0.35
		c-2.85,0.09-4.76,0.19-5.75,0.28c-0.98,0.09-3.32,0.37-7.01,0.84C36.19,23.87,33.92,24.15,33.08,24.24z M75.68,97.53l0.28-0.28
		c0.19-0.19,0.42-0.33,0.7-0.42C76.38,96.73,76.05,96.97,75.68,97.53z"/>
	<path class="st0" d="M192.83,13.31c0-0.84,0.28-1.63,0.84-2.38c0.28-0.28,0.61-0.56,0.98-0.84c0.37-0.28,0.93-0.56,1.68-0.84
		c1.21-0.47,2.29-0.79,3.22-0.98c1.59-0.28,3.46-0.42,5.6-0.42c2.89-0.93,4.95-1.49,6.17-1.68c12.98-2.61,22.98-2.94,29.99-0.98
		c6.91,1.96,13.01,5.56,18.29,10.79c5.28,5.23,9.41,11.12,12.4,17.66c2.8,6.35,5,13.59,6.59,21.72c2.24,11.49,2.75,22.98,1.54,34.47
		c-1.31,11.68-4.11,21.49-8.41,29.43c-4.02,7.48-7.99,12.75-11.91,15.83c-4.86,3.92-10.51,6.45-16.96,7.57
		c-5.61,1.12-10.42,0.7-14.43-1.26c-0.65,0.19-1.31,0.33-1.96,0.42c-8.13,1.21-15.74,0.05-22.84-3.5
		c-7.01-3.55-13.27-8.69-18.78-15.41c-4.95-6.17-8.97-12.98-12.05-20.46c-3.18-7.66-5.18-15.04-6.03-22.14
		c-1.87-17.1,1.07-33.21,8.83-48.34C180.17,23.07,185.91,16.86,192.83,13.31z M200.81,18.07c-7.48,1.78-13.73,7.52-18.78,17.24
		c-7.1,13.83-9.76,28.54-7.99,44.14c0.75,6.45,2.54,13.15,5.4,20.11c2.85,6.96,6.52,13.2,11,18.71
		c9.81,12.05,20.78,17.56,32.93,16.54c0.19-0.65,0.51-1.17,0.98-1.54c0.65-0.75,1.49-1.12,2.52-1.12c1.03,0,1.87,0.33,2.52,0.98
		c2.71-1.31,5.46-3.69,8.27-7.15c4.48-5.6,7.61-12.56,9.39-20.88c1.77-8.31,2.19-17.28,1.26-26.9c-0.75-9.15-2.55-18.08-5.4-26.76
		c-2.85-8.69-6.28-16.11-10.3-22.28c-2.71-4.11-5.58-7.24-8.62-9.39c-3.04-2.15-6.8-3.55-11.28-4.2c-1.87-0.28-4.02-0.42-6.45-0.42
		l-0.84,0.14c-0.75,0.28-1.45,0.51-2.1,0.7C202.87,17.09,202.03,17.79,200.81,18.07z M212.02,51.85c0.65,5.98,1.07,14.62,1.26,25.92
		c0.19,11.68,0.56,20.13,1.12,25.36c0.09,1.03-0.19,1.94-0.84,2.73c-0.65,0.79-1.45,1.24-2.38,1.33c-0.84,0.09-1.59-0.09-2.24-0.56
		c-0.28,0.28-0.61,0.47-0.98,0.56c-0.94,0.28-1.85,0.19-2.73-0.28c-0.89-0.47-1.52-1.17-1.89-2.1c-2.24-7.01-4.16-16.3-5.75-27.88
		c-0.84-6.63-1.21-12.19-1.12-16.68c0.19-5.98,1.4-10.09,3.64-12.33c1.03-0.93,2.38-1.45,4.06-1.54h0.84h0.28l0.28-0.14
		c0.93-0.09,1.8,0.09,2.59,0.56c0.79,0.47,1.33,1.17,1.61,2.1C211.09,49.46,211.84,50.44,212.02,51.85z M229.82,14.99
		c0.65-1.12,1.63-1.73,2.94-1.82c2.05-0.09,4.67-0.28,7.85-0.56c-0.37-0.19-0.79-0.33-1.26-0.42c-3.83-1.12-8.88-1.35-15.13-0.7
		C226.18,12.42,228.04,13.59,229.82,14.99z M238.23,24.38c6.91,0.09,13.87,0.75,20.88,1.96c-2.15-2.89-4.53-5.42-7.15-7.57
		c-0.28,0.09-0.51,0.14-0.7,0.14c-0.47,0-3.46,0.28-8.97,0.84c-2.9,0.28-5.28,0.47-7.15,0.56C236.17,21.53,237.2,22.89,238.23,24.38
		z M246.21,126.53c-0.94,1.4-1.92,2.71-2.94,3.92c-1.68,2.15-3.41,3.97-5.18,5.46c1.12,0,2.29-0.14,3.5-0.42
		c4.86-0.84,9.2-2.71,13.03-5.6C253.03,129.34,250.23,128.21,246.21,126.53z M247.62,42.88c4.86-0.37,11.86,0.51,21.02,2.66
		c-1.59-5.04-3.6-9.67-6.03-13.87c-0.75,1.68-2.06,2.38-3.92,2.1c-5.42-1.03-10.79-1.68-16.11-1.96
		C244.44,35.26,246.12,38.95,247.62,42.88z M249.72,120.09c4.76,2.06,8.31,3.36,10.65,3.92c1.4-1.96,3.03-4.67,4.9-8.13
		c0.37-0.75,0.75-1.54,1.12-2.38c-2.06-1.12-6.31-2.61-12.75-4.48C252.61,113.03,251.3,116.72,249.72,120.09z M253.5,63.06
		c8.59,0.65,15.04,1.5,19.34,2.52c-0.37-2.99-0.84-5.93-1.4-8.83c-0.19-1.31-0.42-2.61-0.7-3.92c-0.75,0.28-1.5,0.33-2.24,0.14
		c-8.69-1.96-14.81-2.94-18.36-2.94C251.44,54.23,252.57,58.57,253.5,63.06z M256.02,82.25c5.42,1.21,11.07,2.71,16.96,4.48
		c0.37-4.48,0.47-8.97,0.28-13.45c-0.09-0.09-0.19-0.14-0.28-0.14c-4.2-1.12-10.28-2.01-18.22-2.66c0.37,2.34,0.65,4.67,0.84,7.01
		C255.79,79.08,255.93,80.67,256.02,82.25z M255.04,101.87c6.91,1.96,11.58,3.55,14.01,4.76c1.31-3.83,2.33-8.03,3.08-12.61
		c-5.6-1.59-10.98-3.03-16.11-4.34C255.93,93.98,255.6,98.04,255.04,101.87z"/>
	<path class="st0" d="M330.99,148.95c-0.56,0.28-1.12,0.42-1.68,0.42c-5.42,0-10.25-0.98-14.5-2.94c-4.25-1.96-7.62-4.18-10.09-6.66
		c-2.48-2.47-4.76-6.05-6.87-10.72c-2.1-4.67-3.57-8.41-4.41-11.21c-0.84-2.71-1.96-6.82-3.36-12.33c-0.19-0.75-0.33-1.35-0.42-1.82
		c-0.19-0.56-0.61-2.15-1.26-4.76c-0.65-2.61-1.07-4.34-1.26-5.18c-0.19-0.84-0.56-2.43-1.12-4.76c-0.56-2.33-0.96-4.06-1.19-5.18
		c-0.23-1.12-0.54-2.75-0.91-4.9c-0.37-2.15-0.63-3.95-0.77-5.39c-0.14-1.45-0.28-3.1-0.42-4.97c-0.14-1.87-0.21-3.69-0.21-5.46
		c0-7.85,0.84-14.85,2.52-21.02c2.71-10,7.43-15.79,14.15-17.38c0.84-0.19,1.45-0.33,1.82-0.42c4.86-1.87,8.36-3.08,10.51-3.64
		c4.67-1.31,8.5-1.59,11.49-0.84c4.86,1.22,8.69,5.28,11.49,12.19c3.46-5.7,8.31-10.37,14.57-14.01c6.17-3.64,12.61-5.75,19.34-6.31
		c8.13-0.75,14.99,0.89,20.6,4.9c6.35,4.58,9.95,11.54,10.79,20.88c0.19,1.96-0.09,3.78-0.84,5.47c0.09,1.12-0.09,2.15-0.56,3.08
		c-0.75,1.22-2.01,2.06-3.78,2.52l-1.4,0.28c-1.87,1.03-5.37,2.34-10.51,3.92c-4.95,1.59-8.74,3.18-11.35,4.76
		c-2.62,1.59-4.34,3.92-5.19,7.01c-1.87,6.82-3.22,15.37-4.06,25.64c-0.09,3.83-0.14,9.32-0.14,16.46s-0.05,11.79-0.14,13.94
		c-0.47,8.13-1.17,13.73-2.1,16.82c-2.34,7.66-6.96,12-13.87,13.03c-2.52,0.37-5.32,0.09-8.41-0.84
		C335.19,149.61,333.04,149.42,330.99,148.95z M290.35,72.44c4.48-5.04,9.15-9.71,14.01-14.01c0.19-0.19,0.37-0.33,0.56-0.42
		c-0.09-0.93-0.19-1.77-0.28-2.52c-0.47-5.51-0.84-9.57-1.12-12.19c-4.58,5.23-8.64,9.39-12.19,12.47c-0.37,0.28-0.79,0.51-1.26,0.7
		c-0.19,2.24-0.28,4.44-0.28,6.59C289.79,66.05,289.98,69.18,290.35,72.44z M296.94,97.11c-1.49-1.4-1.73-2.94-0.7-4.62
		c2.99-5.23,5.93-9.25,8.83-12.05c0.65-0.75,1.45-1.12,2.38-1.12c-0.56-4.3-1.07-8.45-1.54-12.47c-3.83,3.64-7.47,7.48-10.93,11.49
		c-0.93,1.12-2.15,1.5-3.64,1.12c0.75,4.2,2.24,10.56,4.48,19.06c0-0.09,0.05-0.14,0.14-0.14L296.94,97.11z M291.61,45.4
		c2.15-2.15,5.09-5.37,8.83-9.67c0.56-0.56,1.17-0.93,1.82-1.12c-0.09-0.47-0.14-0.93-0.14-1.4c-0.19-0.56-0.33-1.07-0.42-1.54
		l-1.54,0.56c-0.37,0.19-0.79,0.28-1.26,0.28c-2.99,1.78-5.28,5.6-6.87,11.49C291.94,44.47,291.8,44.93,291.61,45.4z M301.84,119.95
		c2.71-3.55,5.6-7.66,8.69-12.33c0.37-0.47,0.79-0.84,1.26-1.12l-1.54-8.97l-0.84-5.04l-7.57,10.09c-0.56,0.75-1.29,1.21-2.17,1.4
		c-0.89,0.19-1.75,0.09-2.59-0.28C298.95,110.98,300.53,116.4,301.84,119.95z M312.49,136.76c0.09-0.09,0.19-0.23,0.28-0.42
		l4.62-6.17c-0.65-2.15-1.45-4.95-2.38-8.41c-0.47-1.87-0.89-3.78-1.26-5.75l-8.55,11.63C307.26,131.49,309.69,134.52,312.49,136.76
		z M390.82,41.62c0-0.19-0.05-0.37-0.14-0.56c-0.94-5.42-2.08-9.67-3.43-12.75c-1.36-3.08-3.67-5.28-6.94-6.59
		c-5.32-2.15-11.63-1.87-18.92,0.84c-7.1,2.62-12.38,6.45-15.83,11.49c-3.46,5.14-5.33,10.23-5.61,15.27v0.7v1.54v1.96v2.94
		c0,0.47-0.05,0.84-0.14,1.12v0.56c-0.09,0.37-0.19,0.7-0.28,0.98c-0.28,0.56-0.65,1.03-1.12,1.4c-1.31,0.94-2.66,0.98-4.06,0.14
		c-0.75-0.37-1.31-1.03-1.68-1.96l-0.28-0.84c-0.09-0.47-0.19-1.03-0.28-1.68c-0.09-0.84-0.23-2.19-0.42-4.06
		c-0.37-4.2-0.65-6.73-0.84-7.57c-1.59-6.26-3.15-10.67-4.69-13.24c-1.54-2.57-3.15-4.04-4.83-4.41c-1.78-0.47-4.39-0.23-7.85,0.7
		c-1.4,0.37-3.04,0.89-4.9,1.54c0.19,0.65,0.37,1.5,0.56,2.52c0.47,2.34,0.93,5.23,1.4,8.69c0.37,3.27,0.84,8.13,1.4,14.57
		c1.03,12.15,2.85,25.97,5.46,41.48c1.49,8.97,3.08,16.81,4.76,23.54c0.75,3.18,1.35,5.56,1.82,7.15c1.4,1.03,1.87,2.34,1.4,3.92
		c0.56,1.5,1.07,2.62,1.54,3.36c1.49,2.43,4.16,4.58,7.99,6.45c1.12,0.56,2.24,1.03,3.36,1.4c5.32-0.56,9.06-2.85,11.21-6.87
		c0.93-1.68,1.68-3.71,2.24-6.1c0.56-2.38,0.91-4.44,1.05-6.17c0.14-1.73,0.28-4.25,0.42-7.57c0.14-3.31,0.26-5.72,0.35-7.22
		c0.09-0.93,0.28-3.67,0.56-8.2c0.28-4.53,0.51-8.01,0.7-10.44c0.09-1.68,0.14-3.27,0.14-4.76c0.28-7.94,0.89-14.52,1.82-19.76
		c1.03-6.82,2.71-11.63,5.04-14.43c3.83-4.95,10.56-7.8,20.18-8.55c1.21-0.09,2.8-0.19,4.76-0.28c1.96-0.09,3.22-0.14,3.78-0.14
		h0.14L390.82,41.62z M318.94,140.41c1.4,0.56,2.89,0.98,4.48,1.26c-1.12-1.12-2.01-2.24-2.66-3.36l-0.14-0.14L318.94,140.41z"/>
	<path class="st0" d="M427.82,6.3c0.65,0.09,8.13,0.56,22.42,1.4c13.54,0.84,24.24,1.87,32.09,3.08c12.61,2.06,22.23,4.9,28.87,8.55
		c9.15,5.04,13.22,11.72,12.19,20.04c-0.09,0.94-0.28,1.87-0.56,2.8c-0.28,0.93-0.65,1.92-1.12,2.94c-0.47,1.03-0.89,1.92-1.26,2.66
		c-0.37,0.75-0.98,1.73-1.82,2.94c-0.84,1.22-1.43,2.1-1.75,2.66c-0.33,0.56-1.03,1.5-2.1,2.8c-1.08,1.31-1.75,2.15-2.03,2.52
		c-0.28,0.37-1,1.26-2.17,2.66c-1.17,1.4-1.8,2.2-1.89,2.38c-3.83,4.58-6.4,8.04-7.71,10.37c-1.78,2.99-2.43,5.37-1.96,7.15
		c0.28,0.84,1.96,2.15,5.04,3.92c2.33,1.31,6.63,3.41,12.89,6.31c7.85,3.64,12.75,5.98,14.71,7.01c5.32,2.99,9.11,5.89,11.35,8.69
		c4.48,5.89,6.07,12.05,4.76,18.5c0.47,3.27-0.05,6.31-1.54,9.11c-2.06,3.83-5.93,6.63-11.63,8.41c-1.5,0.47-3.13,0.89-4.9,1.26
		c-0.37,0.19-0.79,0.33-1.26,0.42c-5.6,1.68-12,2.92-19.2,3.71c-7.19,0.79-12.96,1.24-17.31,1.33c-4.34,0.09-11.19,0.07-20.53-0.07
		c-9.34-0.14-15.13-0.21-17.38-0.21h-0.14c-0.47,1.77-1.64,2.66-3.5,2.66c-1.31,0-5.04,0.23-11.21,0.7
		c-4.95,0.37-8.97,0.42-12.05,0.14c-4.02-0.37-7.92-1.38-11.7-3.01c-3.78-1.64-6.61-4.23-8.48-7.78c-1.21-2.24-1.63-5.89-1.26-10.93
		c0.28-3.83,0.94-8.5,1.96-14.01c1.96-9.9,4.06-17.89,6.31-23.96c0.37-1.12,1.03-2.66,1.96-4.62l0.42-0.84
		c-0.47-0.65-0.65-1.4-0.56-2.24c0.19-1.68,1.12-2.71,2.8-3.08c0.56-1.4,0.89-2.61,0.98-3.64c-1.12-0.84-1.64-1.91-1.54-3.22
		c0-0.28,0.05-0.56,0.14-0.84l-4.9-4.34c-5.79-5.14-9.29-8.97-10.51-11.49c-0.84-1.68-1.47-3.46-1.89-5.32
		c-0.42-1.87-0.63-3.31-0.63-4.34v-5.04c0.19-8.5,2.31-15.72,6.38-21.65c4.06-5.93,9.78-10.3,17.17-13.1V9.53
		c0.09-1.03,0.54-1.84,1.33-2.45C425.88,6.47,426.79,6.21,427.82,6.3z M425.57,72.44c0.65,0.09,2.17,0.19,4.55,0.28
		c2.38,0.09,4.02,0.16,4.9,0.21c0.89,0.05,2.36,0.09,4.41,0.14c2.05,0.05,3.67,0.07,4.83,0.07c1.17,0,2.59-0.02,4.27-0.07
		c1.68-0.05,3.24-0.14,4.69-0.28c1.45-0.14,2.87-0.3,4.27-0.49l1.82-2.94l6.03-8.69l2.66-4.2c-1.31,0.09-2.85,0.28-4.62,0.56
		c-1.68,0.19-3.69,0.51-6.03,0.98c0.19,0.56,0.28,1.08,0.28,1.54c-0.09,1.03-0.54,1.87-1.33,2.52c-0.79,0.65-1.66,0.93-2.59,0.84
		c-8.13-0.75-19.81-1.31-35.03-1.68c-0.93,0-1.75-0.37-2.45-1.12c-0.7-0.75-1.05-1.61-1.05-2.59s0.37-1.82,1.12-2.52
		c0.75-0.7,1.63-1.05,2.66-1.05c2.8,0.09,5.19,0.14,7.15,0.14c-2.15-1.96-3.6-4.48-4.34-7.57c0-0.19-0.05-0.42-0.14-0.7
		c-1.59-0.19-3.55-0.56-5.89-1.12c-3.64-0.75-6.21-1.21-7.71-1.4c-0.19-0.09-0.37-0.14-0.56-0.14v1.26
		c-0.09,2.99-0.05,5.23,0.14,6.73c0.19,1.5,0.7,3.13,1.54,4.9c0.94,1.78,3.88,4.81,8.83,9.11c2.71,2.24,4.53,3.88,5.46,4.9
		C424.41,71,425.11,71.79,425.57,72.44z M409.18,36.01c0.56,0.09,3.27,0.65,8.13,1.68c1.77,0.37,3.17,0.61,4.2,0.7
		c0.19-2.05,0.65-4.3,1.4-6.73c-3.92-0.84-7.66-1.96-11.21-3.36c-1.4,2.34-2.47,4.9-3.22,7.71H409.18z M412.82,135.78
		c0.09,1.59,0.28,2.66,0.56,3.22c2.15,3.92,6.91,6.21,14.29,6.87c2.71,0.28,6.35,0.23,10.93-0.14l3.08-0.28
		c-4.48-1.68-7.71-4.06-9.67-7.15C422.02,137.09,415.63,136.25,412.82,135.78z M414.5,120.23c-0.56,2.99-0.98,5.75-1.26,8.27
		c3.46,0.65,8.97,1.4,16.54,2.24c-0.09-2.43,0.33-5.28,1.26-8.55c-1.68-0.19-4.11-0.51-7.29-0.98
		C419.45,120.65,416.37,120.32,414.5,120.23z M418.15,104.67c-0.75,2.71-1.45,5.47-2.1,8.27c1.96,0.19,4.86,0.56,8.69,1.12
		c3.83,0.56,6.73,0.89,8.69,0.98c1.12-2.8,2.52-5.89,4.2-9.25C429.78,105.79,423.28,105.42,418.15,104.67z M420.67,19.2
		c-1.5,0.94-2.9,1.96-4.2,3.08c2.8,1.03,5.79,1.87,8.97,2.52c0.47-1.12,0.98-2.29,1.54-3.5c-0.65-0.09-1.12-0.19-1.4-0.28
		c-0.28,0-1.73-0.51-4.34-1.54C421.04,19.48,420.86,19.38,420.67,19.2z M420.25,97.53c4.76,0.65,11.3,0.98,19.62,0.98
		c0.47,0,0.93,0.09,1.4,0.28l4.48-7.85c-8.78-0.09-16.25-0.37-22.42-0.84l-0.84,1.82c-0.94,2.15-1.54,3.5-1.82,4.06
		C420.58,96.45,420.44,96.97,420.25,97.53z M426.84,79.87c-0.09,1.03-0.33,2.1-0.7,3.22c5.98,0.37,13.82,0.56,23.54,0.56h0.42
		l2.24-3.5C447.11,80.53,438.61,80.43,426.84,79.87z M540.2,125.55c-0.37-1.21-0.98-2.52-1.82-3.92
		c-3.83-6.17-12.99-11.63-27.46-16.4l-7.99-2.52c-3.55-1.03-6.07-1.82-7.57-2.38c-2.52-0.84-4.53-1.63-6.03-2.38
		c-2.06-1.12-3.5-2.43-4.34-3.92c-2.34-4.3-2.1-9.39,0.7-15.27c1.96-4.11,5.33-9.01,10.09-14.71c1.12-1.4,3.03-3.64,5.75-6.73
		l6.03-7.15c3.74-4.67,5.98-8.22,6.73-10.65c0.93-3.36-0.33-6.4-3.78-9.11c-2.9-2.15-7.15-4.06-12.75-5.75
		c-3.83-1.12-7.69-2.03-11.56-2.73c-3.88-0.7-8.29-1.17-13.24-1.4c-4.95-0.23-8.76-0.37-11.42-0.42c-2.66-0.05-7.19-0.02-13.59,0.07
		c-6.4,0.09-10.49,0.14-12.26,0.14c-5.89,10.84-8.13,19.01-6.73,24.52c0.65,2.71,2.38,4.67,5.18,5.89c3.74,1.68,9.15,2.1,16.25,1.26
		c0.19,0,0.7-0.09,1.54-0.28l2.8-0.56c2.99-0.65,5.51-1.12,7.57-1.4c3.17-0.47,5.75-0.65,7.71-0.56c1.4,0.09,2.61,0.37,3.64,0.84
		c1.77,0.84,2.8,2.15,3.08,3.92c0.09,0.65,0,1.36-0.28,2.1c-0.09,0.28-0.23,0.65-0.42,1.12c-0.28,0.56-0.7,1.26-1.26,2.1
		c-0.75,1.4-1.87,3.22-3.36,5.46l-5.89,8.55c-8.32,12.71-14.57,22.98-18.78,30.83c-3.92,7.29-6.63,13.27-8.13,17.94
		c-1.31,4.11-1.82,7.33-1.54,9.67c0.93,0.19,1.68,0.65,2.24,1.4c0.56,0.75,0.79,1.59,0.7,2.52c0,0.19-0.05,0.37-0.14,0.56
		c2.24,1.78,5.46,3.04,9.67,3.78c10,1.4,21.86,1.84,35.59,1.33c13.73-0.51,25.74-1.47,36.01-2.87c2.99-0.37,5.23-0.7,6.73-0.98
		c5.7-2.05,9.62-5.47,11.77-10.23L540.2,125.55z M493.4,86.04c-0.65-1.03-1.12-2.05-1.4-3.08c0-0.09-0.05-0.19-0.14-0.28
		c-0.28,0.75-0.51,1.45-0.7,2.1c0.19,0,0.37,0.09,0.56,0.28L493.4,86.04z M516.24,99.21l-0.14,0.14l2.94,0.98L516.24,99.21z"/>
	<path class="st0" d="M563.6,31.95c0.75-7.01,3.88-12.94,9.39-17.8c5.51-4.76,12.28-8.36,20.32-10.79C600.68,1.12,608.21,0,615.87,0
		c7.66,0,14.2,1.12,19.62,3.36c7.75,3.27,13.45,8.18,17.1,14.71c3.73,6.63,5.42,14.2,5.04,22.7c-0.19,5.04-1.08,10.28-2.66,15.69
		c2.8-1.4,5.72-2.54,8.76-3.43c3.03-0.89,6.31-1.33,9.81-1.33s6.66,0.61,9.46,1.82c1.68,0.75,3.22,1.54,4.62,2.38l0.7-0.28
		c0.93-0.28,1.84-0.19,2.73,0.28c0.89,0.47,1.52,1.17,1.89,2.1c0.19,0.65,0.19,1.26,0,1.82c0.56,0.56,1.03,1.12,1.4,1.68
		c2.05,2.8,3.43,6.33,4.13,10.58c0.7,4.25,0.82,8.48,0.35,12.68c-0.47,4.11-1.36,8.5-2.66,13.17c-1.68,6.07-3.92,11.77-6.73,17.1
		v0.7c-0.19,1.12-0.79,1.96-1.82,2.52c-2.9,5.14-5.89,9.06-8.97,11.77c-3.18,2.8-7.71,5.37-13.59,7.71
		c-0.65,0.28-2.64,1.03-5.96,2.24c-3.32,1.21-5.81,2.24-7.5,3.08c-0.94,0.37-1.87,0.4-2.8,0.07c-0.93-0.33-1.64-0.96-2.1-1.89
		c0-0.09-0.05-0.23-0.14-0.42c-1.03,0.28-2.1,0.51-3.22,0.7c-9.44,1.4-18.75,0.72-27.96-2.03c-9.2-2.75-17.38-7.01-24.52-12.75
		c-7.15-5.75-13.29-12.63-18.43-20.67c-5.23-7.94-8.78-16.39-10.65-25.36c-1.87-8.69-1.96-18.22-0.28-28.59
		c1.03-5.89,2.75-11.26,5.18-16.11c-0.93-0.19-1.71-0.65-2.31-1.4C563.76,33.86,563.5,32.98,563.6,31.95z M604.24,81.41l7.15-1.68
		c1.59-0.37,3.52-1,5.81-1.89c2.29-0.89,4.23-1.84,5.82-2.87c2.43-1.68,4.48-3.74,6.17-6.17c-0.28-0.19-0.47-0.37-0.56-0.56
		c-0.56-0.93-0.72-1.89-0.49-2.87c0.23-0.98,0.77-1.7,1.61-2.17l2.94-1.68c2.33-8.13,1.49-16.58-2.52-25.36
		c-3.46-7.29-8.34-12.63-14.64-16.04c-6.31-3.41-13.15-3.81-20.53-1.19c-7.94,2.9-14.25,8.04-18.92,15.41
		c-3.74,5.89-6.17,12.19-7.29,18.92c-1.59,9.62-1.59,18.22,0,25.78c1.77,8.22,5.02,16,9.74,23.33c4.72,7.33,10.32,13.57,16.82,18.71
		c6.49,5.14,13.85,8.95,22.07,11.42c8.22,2.48,16.49,3.06,24.8,1.75c4.76-0.75,9.18-2.5,13.24-5.25c4.06-2.75,7.54-6.17,10.44-10.23
		c2.89-4.06,5.35-8.41,7.36-13.03c2.01-4.62,3.57-9.46,4.69-14.5c-0.56-0.65-0.84-1.4-0.84-2.24c0-1.68,0.75-2.85,2.24-3.5
		c0.28-1.31,0.47-2.47,0.56-3.5c0.56-3.08,0.61-5.32,0.14-6.73c-0.37-1.21-2.1-1.82-5.19-1.82c-3.46,0.09-6.49,0.75-9.11,1.96
		c-1.68,0.84-5.98,3.18-12.89,7.01c-5.79,3.27-10.51,5.6-14.15,7.01c-11.86,4.58-22.42,4.3-31.67-0.84l-0.28-0.28l-1.12,0.14
		c-0.94,0.28-1.82,0.14-2.66-0.42s-1.38-1.33-1.61-2.31c-0.23-0.98-0.07-1.89,0.49-2.73S603.21,81.6,604.24,81.41z M599.47,9.25
		l-4.06,1.12c-11.77,3.55-19.39,8.97-22.84,16.25c5.23-6.73,11.86-11.54,19.9-14.43c2.33-0.84,4.62-1.45,6.87-1.82
		C599.33,10,599.38,9.62,599.47,9.25z M600.31,40.64c0.75,2.34,1.59,5.46,2.52,9.39c1.03,4.67,1.73,7.71,2.1,9.11
		c0.28,0.94,0.16,1.85-0.35,2.73c-0.51,0.89-1.24,1.47-2.17,1.75c-0.94,0.28-1.85,0.16-2.73-0.35c-0.89-0.51-1.47-1.24-1.75-2.17
		c-0.28-1.03-1.03-4.16-2.24-9.39c-0.84-3.73-1.64-6.68-2.38-8.83c-0.28-0.93-0.19-1.84,0.28-2.73c0.47-0.89,1.17-1.49,2.1-1.82
		c0.93-0.33,1.84-0.26,2.73,0.21C599.31,39,599.94,39.7,600.31,40.64z M630.72,9.39c-2.9-0.93-6.26-1.59-10.09-1.96
		c-0.37,0.47-0.89,0.79-1.54,0.98c-2.52,0.75-5,1.54-7.43,2.38c2.71,0.65,5.28,1.68,7.71,3.08c0.28-0.19,0.61-0.37,0.98-0.56
		C624.09,11.72,627.54,10.42,630.72,9.39z M626.52,83.37c10.84-4.3,22.89-11.12,36.15-20.46c0.84-0.56,1.75-0.77,2.73-0.63
		s1.75,0.63,2.31,1.47c0.47,0.56,0.7,1.21,0.7,1.96c0.28-0.37,0.61-0.7,0.98-0.98c2.71-1.96,5.65-3.69,8.83-5.18
		c-3.18-0.84-6.75-0.82-10.72,0.07c-3.97,0.89-7.54,2.31-10.72,4.27c-0.09,0.09-0.89,1.03-2.38,2.8c-2.43,2.9-4.95,3.83-7.57,2.8
		c-2.06-0.75-2.99-2.19-2.8-4.34c0.09-0.47,0.23-1.03,0.42-1.68l-5.75,2.94c-2.34,5.98-6.17,10.79-11.49,14.43
		c-2.34,1.68-5.14,3.08-8.41,4.2c1.87,0.28,3.78,0.37,5.75,0.28C624.93,84.4,625.58,83.75,626.52,83.37z M644.87,19.48
		c-1.5-2.05-3.27-3.88-5.32-5.46c-0.47,0.28-0.94,0.51-1.4,0.7c-3.92,1.12-7.9,2.48-11.91,4.06c1.4,1.22,2.75,2.62,4.06,4.2
		c0.19-0.19,0.42-0.28,0.7-0.28C633.24,22.14,637.87,21.07,644.87,19.48z M650.06,32.93c-0.37-2.33-0.94-4.58-1.68-6.73
		c-8.6,1.96-13.13,2.99-13.59,3.08l1.96,3.78c0.56,1.22,1.07,2.48,1.54,3.78c2.24-0.56,5.46-1.77,9.67-3.64
		C648.61,32.93,649.31,32.84,650.06,32.93z M650.34,40.07c-4.2,1.87-7.57,3.18-10.09,3.92c0.93,4.48,1.17,8.88,0.7,13.17
		c2.33-1.12,4.72-2.1,7.15-2.94c1.31-4.86,2.05-9.43,2.24-13.73V40.07z M679.34,117.84l-1.54-0.56c-0.75-0.19-1.31-0.33-1.68-0.42
		c-0.09-0.09-0.19-0.14-0.28-0.14c-2.71,4.76-5.79,8.88-9.25,12.33c2.99-1.4,5.42-2.94,7.29-4.62
		C675.65,122.94,677.47,120.74,679.34,117.84z M689.99,92.48c-1.31-0.09-2.9-0.14-4.76-0.14c-1.4,6.26-3.41,12.19-6.03,17.8
		c1.59,0.56,2.47,0.84,2.66,0.84c0.09,0,0.47,0.05,1.12,0.14h0.28c2.43-4.76,4.39-9.85,5.89-15.27
		C689.52,94.72,689.8,93.6,689.99,92.48z M686.63,63.9c-2.43,0.93-4.62,1.92-6.59,2.94c3.64,0.94,5.98,2.99,7.01,6.17
		c0.75,2.52,0.79,5.93,0.14,10.23c-0.09,0.56-0.23,1.17-0.42,1.82c1.68,0,3.22,0.09,4.62,0.28c1.12-8.87,0.14-15.41-2.94-19.62
		C687.98,65.16,687.38,64.55,686.63,63.9z"/>
	<path class="st0" d="M731.47,22.42c-1.31-0.56-2.06-1.54-2.24-2.94c-0.09-1.03,0.19-1.94,0.84-2.73c0.65-0.79,1.45-1.24,2.38-1.33
		c0.37,0,1.21-0.09,2.52-0.28c0.56-0.37,1.17-0.75,1.82-1.12c0.65-0.37,1.26-0.7,1.82-0.98s1.26-0.54,2.1-0.77
		c0.84-0.23,1.49-0.4,1.96-0.49c0.47-0.09,1.12-0.23,1.96-0.42l1.82-0.28c0.28,0,0.89-0.05,1.82-0.14l1.26-0.14
		c10.18-1.03,18.82,0.75,25.92,5.33c7.19,4.76,11.96,12.15,14.29,22.14c3.27,13.64,2.47,27.65-2.38,42.04
		c-4.86,14.39-12.71,25.92-23.54,34.61c-0.75,0.65-1.59,0.94-2.52,0.84c-0.94-0.09-1.73-0.47-2.38-1.12
		c-2.06,3.27-4.44,5.28-7.15,6.03c-5.98,1.59-10.74-1.68-14.29-9.81c-1.59-3.73-2.94-8.64-4.06-14.71
		c-0.47-2.99-1.03-8.5-1.68-16.54c-0.75-7.85-1.26-15.88-1.54-24.1c-0.37-10-0.33-18.12,0.14-24.38
		C730.54,27.65,730.91,24.75,731.47,22.42z M757.53,157.36c-4.02,1.21-7.8,1.4-11.35,0.56c-4.76-1.03-7.99-3.5-9.67-7.43
		c-1.68-4.3-1.17-9.67,1.54-16.11c0.56-1.31,1.49-2.05,2.8-2.24c0.56-0.65,1.28-1.35,2.17-2.1c0.89-0.75,2.03-1.4,3.43-1.96
		l1.26-0.42c0.47-0.19,0.79-0.33,0.98-0.42c7.19-3.55,13.87-4.72,20.04-3.5c3.64,0.75,6.66,2.48,9.04,5.18
		c2.38,2.71,3.71,6.35,3.99,10.93c0.19,2.33,0.19,4.02,0,5.04c-0.28,1.68-1.08,3.41-2.38,5.19c-0.65,0.93-1.33,1.75-2.03,2.45
		s-1.52,1.38-2.45,2.03l-2.52,1.4c-0.65,0.47-1.59,0.93-2.8,1.4c-1.22,0.47-2.03,0.79-2.45,0.98c-0.42,0.19-1.31,0.49-2.66,0.91
		c-1.36,0.42-2.13,0.68-2.31,0.77c-0.94,0.28-1.85,0.19-2.73-0.28c-0.89-0.47-1.52-1.17-1.89-2.1V157.36z M764.26,41.9
		c-1.68-11.4-6.82-17.98-15.41-19.76c-2.43-0.47-5.7-0.51-9.81-0.14c-0.09,0.47-0.23,1.03-0.42,1.68c-0.47,1.96-0.79,4.62-0.98,7.99
		c-0.47,5.98-0.51,13.87-0.14,23.68c0.28,8.04,0.75,15.88,1.4,23.54c0.65,7.85,1.26,13.13,1.82,15.83c0.93,5.6,2.1,10.04,3.5,13.31
		c1.87,4.2,3.74,6.07,5.61,5.6c1.03-0.28,2.1-1.4,3.22-3.36c1.21-2.05,2.33-4.9,3.36-8.55c0.65-2.05,2.05-8.13,4.2-18.22
		c3.17-15.32,4.53-27.37,4.06-36.15c-1.03-0.65-1.54-1.63-1.54-2.94C763.14,43.39,763.51,42.55,764.26,41.9z M752.21,139.98
		c-1.5-0.09-3.22-0.09-5.18,0h-1.4c-0.56,0-0.93,0.02-1.12,0.07c-0.19,0.05-0.47,0.07-0.84,0.07c-1.03,3.17-1.17,5.7-0.42,7.57
		c0.75,1.59,2.24,2.66,4.48,3.22c2.43,0.47,5.04,0.28,7.85-0.56c2.61-0.84,4.3-1.92,5.04-3.22c0.56-0.94,0.84-1.68,0.84-2.24
		c0-1.4-0.7-2.48-2.1-3.22l-2.94,0.56c-0.94,0.19-1.8,0.07-2.59-0.35C753.03,141.46,752.49,140.83,752.21,139.98z M760.06,134.1
		c3.36-0.65,7.01-1.21,10.93-1.68c-1.03-0.75-2.29-1.26-3.78-1.54c-3.83-0.84-8.27-0.19-13.31,1.96c0.28,0.09,0.56,0.14,0.84,0.14
		C756.69,133.17,758.47,133.54,760.06,134.1z M765.8,19.48c-2.43-0.84-5.04-1.35-7.85-1.54c1.03,0.56,2.01,1.22,2.94,1.96
		c0.56-0.28,1.12-0.42,1.68-0.42H765.8z M776.45,87.44c-3.36,0-6.45-0.05-9.25-0.14c-1.4,7.38-2.66,12.89-3.78,16.54l-0.84,2.52
		C768.18,101.12,772.81,94.82,776.45,87.44z M777.01,27.46c-2.9-0.37-6.31-0.61-10.23-0.7c2.24,3.83,3.78,8.5,4.62,14.01
		c4.39,0,8.08,0.09,11.07,0.28h0.56l-0.28-1.12C781.54,34.98,779.63,30.83,777.01,27.46z M767.76,140.27
		c0.65,1.4,0.98,2.94,0.98,4.62v0.14c0.37,0.19,0.65,0.37,0.84,0.56c0.75,0.75,1.12,1.63,1.12,2.66c0,0.09,0,0.19,0,0.28
		c1.12-0.84,2.05-1.73,2.8-2.66c0.65-0.84,1.03-1.59,1.12-2.24c0-0.37-0.05-1.45-0.14-3.22c0-0.37-0.05-0.7-0.14-0.98h-0.14
		L767.76,140.27z M779.39,80.71c1.49-3.92,2.66-7.89,3.5-11.91c-0.65,0.93-1.54,1.45-2.66,1.54c-4.11,0.28-7.43,0.47-9.95,0.56
		c-0.37,2.8-0.89,5.84-1.54,9.11c1.68,0.09,4.62,0.14,8.83,0.14C778.22,80.15,778.83,80.34,779.39,80.71z M784.02,47.92
		c-0.56,0.28-1.17,0.42-1.82,0.42c-2.9-0.19-6.26-0.28-10.09-0.28c0.09,4.67-0.19,9.86-0.84,15.55c1.49-0.09,4.3-0.28,8.41-0.56
		c0.93-0.09,1.75,0.12,2.45,0.63c0.7,0.51,1.14,1.19,1.33,2.03C784.48,59.65,784.67,53.72,784.02,47.92z"/>
	<path class="st0" d="M824.09,22.42c-1.31-0.56-2.06-1.54-2.24-2.94c-0.09-1.03,0.19-1.94,0.84-2.73c0.65-0.79,1.45-1.24,2.38-1.33
		c0.37,0,1.21-0.09,2.52-0.28c0.56-0.37,1.17-0.75,1.82-1.12c0.65-0.37,1.26-0.7,1.82-0.98s1.26-0.54,2.1-0.77
		c0.84-0.23,1.49-0.4,1.96-0.49c0.47-0.09,1.12-0.23,1.96-0.42l1.82-0.28c0.28,0,0.89-0.05,1.82-0.14l1.26-0.14
		c10.18-1.03,18.82,0.75,25.92,5.33c7.19,4.76,11.96,12.15,14.29,22.14c3.27,13.64,2.47,27.65-2.38,42.04
		c-4.86,14.39-12.71,25.92-23.54,34.61c-0.75,0.65-1.59,0.94-2.52,0.84c-0.94-0.09-1.73-0.47-2.38-1.12
		c-2.06,3.27-4.44,5.28-7.15,6.03c-5.98,1.59-10.74-1.68-14.29-9.81c-1.59-3.73-2.94-8.64-4.06-14.71
		c-0.47-2.99-1.03-8.5-1.68-16.54c-0.75-7.85-1.26-15.88-1.54-24.1c-0.37-10-0.33-18.12,0.14-24.38
		C823.16,27.65,823.53,24.75,824.09,22.42z M850.16,157.36c-4.02,1.21-7.8,1.4-11.35,0.56c-4.76-1.03-7.99-3.5-9.67-7.43
		c-1.68-4.3-1.17-9.67,1.54-16.11c0.56-1.31,1.49-2.05,2.8-2.24c0.56-0.65,1.28-1.35,2.17-2.1c0.89-0.75,2.03-1.4,3.43-1.96
		l1.26-0.42c0.47-0.19,0.79-0.33,0.98-0.42c7.19-3.55,13.87-4.72,20.04-3.5c3.64,0.75,6.66,2.48,9.04,5.18
		c2.38,2.71,3.71,6.35,3.99,10.93c0.19,2.33,0.19,4.02,0,5.04c-0.28,1.68-1.08,3.41-2.38,5.19c-0.65,0.93-1.33,1.75-2.03,2.45
		s-1.52,1.38-2.45,2.03l-2.52,1.4c-0.65,0.47-1.59,0.93-2.8,1.4c-1.22,0.47-2.03,0.79-2.45,0.98c-0.42,0.19-1.31,0.49-2.66,0.91
		c-1.36,0.42-2.13,0.68-2.31,0.77c-0.94,0.28-1.85,0.19-2.73-0.28c-0.89-0.47-1.52-1.17-1.89-2.1V157.36z M856.88,41.9
		c-1.68-11.4-6.82-17.98-15.41-19.76c-2.43-0.47-5.7-0.51-9.81-0.14c-0.09,0.47-0.23,1.03-0.42,1.68c-0.47,1.96-0.79,4.62-0.98,7.99
		c-0.47,5.98-0.51,13.87-0.14,23.68c0.28,8.04,0.75,15.88,1.4,23.54c0.65,7.85,1.26,13.13,1.82,15.83c0.93,5.6,2.1,10.04,3.5,13.31
		c1.87,4.2,3.74,6.07,5.61,5.6c1.03-0.28,2.1-1.4,3.22-3.36c1.21-2.05,2.33-4.9,3.36-8.55c0.65-2.05,2.05-8.13,4.2-18.22
		c3.17-15.32,4.53-27.37,4.06-36.15c-1.03-0.65-1.54-1.63-1.54-2.94C855.76,43.39,856.13,42.55,856.88,41.9z M844.83,139.98
		c-1.5-0.09-3.22-0.09-5.18,0h-1.4c-0.56,0-0.93,0.02-1.12,0.07c-0.19,0.05-0.47,0.07-0.84,0.07c-1.03,3.17-1.17,5.7-0.42,7.57
		c0.75,1.59,2.24,2.66,4.48,3.22c2.43,0.47,5.04,0.28,7.85-0.56c2.61-0.84,4.3-1.92,5.04-3.22c0.56-0.94,0.84-1.68,0.84-2.24
		c0-1.4-0.7-2.48-2.1-3.22l-2.94,0.56c-0.94,0.19-1.8,0.07-2.59-0.35C845.65,141.46,845.11,140.83,844.83,139.98z M852.68,134.1
		c3.36-0.65,7.01-1.21,10.93-1.68c-1.03-0.75-2.29-1.26-3.78-1.54c-3.83-0.84-8.27-0.19-13.31,1.96c0.28,0.09,0.56,0.14,0.84,0.14
		C849.32,133.17,851.09,133.54,852.68,134.1z M858.42,19.48c-2.43-0.84-5.04-1.35-7.85-1.54c1.03,0.56,2.01,1.22,2.94,1.96
		c0.56-0.28,1.12-0.42,1.68-0.42H858.42z M869.07,87.44c-3.36,0-6.45-0.05-9.25-0.14c-1.4,7.38-2.66,12.89-3.78,16.54l-0.84,2.52
		C860.81,101.12,865.43,94.82,869.07,87.44z M869.63,27.46c-2.9-0.37-6.31-0.61-10.23-0.7c2.24,3.83,3.78,8.5,4.62,14.01
		c4.39,0,8.08,0.09,11.07,0.28h0.56l-0.28-1.12C874.16,34.98,872.25,30.83,869.63,27.46z M860.39,140.27
		c0.65,1.4,0.98,2.94,0.98,4.62v0.14c0.37,0.19,0.65,0.37,0.84,0.56c0.75,0.75,1.12,1.63,1.12,2.66c0,0.09,0,0.19,0,0.28
		c1.12-0.84,2.05-1.73,2.8-2.66c0.65-0.84,1.03-1.59,1.12-2.24c0-0.37-0.05-1.45-0.14-3.22c0-0.37-0.05-0.7-0.14-0.98h-0.14
		L860.39,140.27z M872.02,80.71c1.49-3.92,2.66-7.89,3.5-11.91c-0.65,0.93-1.54,1.45-2.66,1.54c-4.11,0.28-7.43,0.47-9.95,0.56
		c-0.37,2.8-0.89,5.84-1.54,9.11c1.68,0.09,4.62,0.14,8.83,0.14C870.85,80.15,871.46,80.34,872.02,80.71z M876.64,47.92
		c-0.56,0.28-1.17,0.42-1.82,0.42c-2.9-0.19-6.26-0.28-10.09-0.28c0.09,4.67-0.19,9.86-0.84,15.55c1.49-0.09,4.3-0.28,8.41-0.56
		c0.93-0.09,1.75,0.12,2.45,0.63c0.7,0.51,1.14,1.19,1.33,2.03C877.11,59.65,877.29,53.72,876.64,47.92z"/>
	<path class="st0" d="M916.72,22.42c-1.31-0.56-2.06-1.54-2.24-2.94c-0.09-1.03,0.19-1.94,0.84-2.73c0.65-0.79,1.45-1.24,2.38-1.33
		c0.37,0,1.21-0.09,2.52-0.28c0.56-0.37,1.17-0.75,1.82-1.12c0.65-0.37,1.26-0.7,1.82-0.98s1.26-0.54,2.1-0.77
		c0.84-0.23,1.49-0.4,1.96-0.49c0.47-0.09,1.12-0.23,1.96-0.42l1.82-0.28c0.28,0,0.89-0.05,1.82-0.14l1.26-0.14
		c10.18-1.03,18.82,0.75,25.92,5.33c7.19,4.76,11.96,12.15,14.29,22.14c3.27,13.64,2.47,27.65-2.38,42.04
		c-4.86,14.39-12.71,25.92-23.54,34.61c-0.75,0.65-1.59,0.94-2.52,0.84c-0.94-0.09-1.73-0.47-2.38-1.12
		c-2.06,3.27-4.44,5.28-7.15,6.03c-5.98,1.59-10.74-1.68-14.29-9.81c-1.59-3.73-2.94-8.64-4.06-14.71
		c-0.47-2.99-1.03-8.5-1.68-16.54c-0.75-7.85-1.26-15.88-1.54-24.1c-0.37-10-0.33-18.12,0.14-24.38
		C915.78,27.65,916.16,24.75,916.72,22.42z M942.78,157.36c-4.02,1.21-7.8,1.4-11.35,0.56c-4.76-1.03-7.99-3.5-9.67-7.43
		c-1.68-4.3-1.17-9.67,1.54-16.11c0.56-1.31,1.49-2.05,2.8-2.24c0.56-0.65,1.28-1.35,2.17-2.1c0.89-0.75,2.03-1.4,3.43-1.96
		l1.26-0.42c0.47-0.19,0.79-0.33,0.98-0.42c7.19-3.55,13.87-4.72,20.04-3.5c3.64,0.75,6.66,2.48,9.04,5.18
		c2.38,2.71,3.71,6.35,3.99,10.93c0.19,2.33,0.19,4.02,0,5.04c-0.28,1.68-1.07,3.41-2.38,5.19c-0.65,0.93-1.33,1.75-2.03,2.45
		c-0.7,0.7-1.52,1.38-2.45,2.03l-2.52,1.4c-0.65,0.47-1.59,0.93-2.8,1.4c-1.22,0.47-2.03,0.79-2.45,0.98
		c-0.42,0.19-1.31,0.49-2.66,0.91c-1.36,0.42-2.13,0.68-2.31,0.77c-0.94,0.28-1.85,0.19-2.73-0.28c-0.89-0.47-1.52-1.17-1.89-2.1
		V157.36z M949.51,41.9c-1.68-11.4-6.82-17.98-15.41-19.76c-2.43-0.47-5.7-0.51-9.81-0.14c-0.09,0.47-0.23,1.03-0.42,1.68
		c-0.47,1.96-0.79,4.62-0.98,7.99c-0.47,5.98-0.51,13.87-0.14,23.68c0.28,8.04,0.75,15.88,1.4,23.54
		c0.65,7.85,1.26,13.13,1.82,15.83c0.93,5.6,2.1,10.04,3.5,13.31c1.87,4.2,3.74,6.07,5.61,5.6c1.03-0.28,2.1-1.4,3.22-3.36
		c1.21-2.05,2.33-4.9,3.36-8.55c0.65-2.05,2.05-8.13,4.2-18.22c3.17-15.32,4.53-27.37,4.06-36.15c-1.03-0.65-1.54-1.63-1.54-2.94
		C948.38,43.39,948.76,42.55,949.51,41.9z M937.45,139.98c-1.5-0.09-3.22-0.09-5.18,0h-1.4c-0.56,0-0.93,0.02-1.12,0.07
		c-0.19,0.05-0.47,0.07-0.84,0.07c-1.03,3.17-1.17,5.7-0.42,7.57c0.75,1.59,2.24,2.66,4.48,3.22c2.43,0.47,5.04,0.28,7.85-0.56
		c2.61-0.84,4.3-1.92,5.04-3.22c0.56-0.94,0.84-1.68,0.84-2.24c0-1.4-0.7-2.48-2.1-3.22l-2.94,0.56c-0.94,0.19-1.8,0.07-2.59-0.35
		C938.27,141.46,937.73,140.83,937.45,139.98z M945.3,134.1c3.36-0.65,7.01-1.21,10.93-1.68c-1.03-0.75-2.29-1.26-3.78-1.54
		c-3.83-0.84-8.27-0.19-13.31,1.96c0.28,0.09,0.56,0.14,0.84,0.14C941.94,133.17,943.71,133.54,945.3,134.1z M951.05,19.48
		c-2.43-0.84-5.04-1.35-7.85-1.54c1.03,0.56,2.01,1.22,2.94,1.96c0.56-0.28,1.12-0.42,1.68-0.42H951.05z M961.7,87.44
		c-3.36,0-6.45-0.05-9.25-0.14c-1.4,7.38-2.66,12.89-3.78,16.54l-0.84,2.52C953.43,101.12,958.05,94.82,961.7,87.44z M962.26,27.46
		c-2.9-0.37-6.31-0.61-10.23-0.7c2.24,3.83,3.78,8.5,4.62,14.01c4.39,0,8.08,0.09,11.07,0.28h0.56L968,39.93
		C966.79,34.98,964.87,30.83,962.26,27.46z M953.01,140.27c0.65,1.4,0.98,2.94,0.98,4.62v0.14c0.37,0.19,0.65,0.37,0.84,0.56
		c0.75,0.75,1.12,1.63,1.12,2.66c0,0.09,0,0.19,0,0.28c1.12-0.84,2.05-1.73,2.8-2.66c0.65-0.84,1.03-1.59,1.12-2.24
		c0-0.37-0.05-1.45-0.14-3.22c0-0.37-0.05-0.7-0.14-0.98h-0.14L953.01,140.27z M964.64,80.71c1.49-3.92,2.66-7.89,3.5-11.91
		c-0.65,0.93-1.54,1.45-2.66,1.54c-4.11,0.28-7.43,0.47-9.95,0.56c-0.37,2.8-0.89,5.84-1.54,9.11c1.68,0.09,4.62,0.14,8.83,0.14
		C963.47,80.15,964.08,80.34,964.64,80.71z M969.26,47.92c-0.56,0.28-1.17,0.42-1.82,0.42c-2.9-0.19-6.26-0.28-10.09-0.28
		c0.09,4.67-0.19,9.86-0.84,15.55c1.49-0.09,4.3-0.28,8.41-0.56c0.93-0.09,1.75,0.12,2.45,0.63c0.7,0.51,1.14,1.19,1.33,2.03
		C969.73,59.65,969.92,53.72,969.26,47.92z"/>
</g>
</svg>
