<?xml version="1.0" encoding="utf-8"?>
<!-- Generator: Adobe Illustrator 26.2.1, SVG Export Plug-In . SVG Version: 6.00 Build 0)  -->
<svg version="1.1" id="Layer_1" xmlns="http://www.w3.org/2000/svg" xmlns:xlink="http://www.w3.org/1999/xlink" x="0px" y="0px"
	 viewBox="0 0 280.7 80" style="enable-background:new 0 0 280.7 80;" xml:space="preserve">
<style type="text/css">
	.st0{fill:#FFFFFF;}
</style>
<g>
	<g>
		<path class="st0" d="M26.2,24c1.8-0.8,3.7-1.1,5.5-0.9c1.8,0.2,3.5,0.7,5.1,1.5c1.6,0.8,3,1.9,4.3,3.3c0.4,0.2,0.6,0.4,0.7,0.8
			c1.3,1.7,2.1,3.5,2.6,5.4c1,3.8,1.7,7,2,9.5h0.2c0.3,0,0.5,0.2,0.7,0.4c0.2,0.2,0.3,0.5,0.2,0.8c0,0.3-0.1,0.5-0.3,0.6
			c-0.2,0.2-0.4,0.3-0.6,0.3c0.3,4.6-0.1,9.6-1,15.1c-1.2,7.2-3.2,12-5.9,14.3c-1.7,1.5-4.5,2.7-8.3,3.7c-1.2,0.3-2,0.5-2.6,0.6
			c-0.6,0.1-1.4,0.3-2.5,0.4C25.3,80,24.3,80,23.3,80c-0.9-0.1-1.8-0.2-2.6-0.5c-0.2-0.1-0.4-0.2-0.5-0.3c-3,0.5-5.8,0.5-8.2,0
			c-4.1-0.9-7.2-2.9-9.2-5.9C0.9,70.4,0,66.9,0,62.7c0-1.8,0.1-3.3,0.4-4.5c0.5-2.1,1.5-3.4,3-4c1.4-0.5,2.5-0.4,3.5,0.2
			c0.2,0.1,0.4,0.3,0.6,0.5c-0.9-2.4-1.4-5-1.3-7.6c0-2.6,0.5-5.3,1.3-8c0.6-2,1.4-3.8,2.4-5.4c1.8-3.5,4.2-6.1,7.1-7.8
			c0.9-0.5,1.9-0.9,3.1-1.2c0.4-0.1,0.8-0.2,1.2-0.3c0.2-0.1,0.4-0.1,0.6,0c1.1-0.1,2.1-0.1,3.1,0.1c0.2-0.5,0.5-0.7,1.1-0.6h0
			C26.1,24,26.1,24,26.2,24z M30,29c0,0.2,0,0.4,0,0.6v0.1v0.2c0,0,0,0.1,0,0.1c0,0.3-0.2,0.5-0.5,0.7c-0.3,0.1-0.5,0.2-0.7,0.1
			c-0.2,0-0.4-0.1-0.5-0.2l-0.2-0.2c-0.1-0.1-0.1-0.1-0.1-0.2L27.9,30v-0.1c-0.1-0.1-0.1-0.3-0.1-0.4c-0.4-1.1-1-1.8-1.9-2.3
			c-1.3-0.7-3.1-0.8-5.3-0.3c-3.5,1.1-6.4,3.7-8.8,7.8c-1.2,2.2-2,4.6-2.5,7.2c-0.5,2.6-0.7,5.1-0.6,7.5c0.1,1.2,0.4,2.5,0.9,4
			c0.6,1.4,1.3,2.8,2.2,3.9c0.4,0.6,0.9,1.2,1.4,1.6c1.8,1.1,3.8,1.3,5.9,0.8c2.1-0.5,3.9-1.7,5.4-3.5c0.2-0.3,0.4-0.5,0.6-0.9
			c0.2-0.3,0.4-0.6,0.5-0.9c0.4-0.8,0.7-1.9,1.2-3.3c0-0.1,0-0.2,0-0.3c0-0.1,0-0.3,0-0.5c0-0.2,0-0.4,0-0.6c0-0.4,0.1-0.7,0.2-1
			c0.2-0.4,0.5-0.7,1-0.7c0.4,0,0.7,0.1,1.1,0.4c0,0,0,0.1,0,0.1c0.3,0.3,0.4,0.6,0.4,1c-0.1,0.7-0.3,1.4-0.5,2.1l-0.2,1.5
			c-0.1,0.5-0.1,0.8-0.1,0.8c0,0.4-0.1,1-0.1,2c-0.1,1-0.1,1.8-0.1,2.5c-0.2,2.2-0.4,4.2-0.7,5.8c-0.4,2.2-0.9,4.1-1.6,5.4
			c-0.9,1.9-2.1,3-3.5,3.5c-4.1,1.3-7.5,0.8-10-1.6c-1.9-1.7-3.5-4.7-4.8-8.9c-0.1-0.4-0.3-1.3-0.5-2.6c-0.2-1.3-0.4-2.1-0.6-2.6
			c-0.3-0.7-0.6-1.2-0.9-1.5c-0.4-0.2-0.9-0.2-1.5,0c-0.8,0.3-1.4,1.1-1.7,2.5c-0.2,1-0.3,2.3-0.3,3.9c0,3.8,0.8,7,2.4,9.3
			c1.7,2.6,4.4,4.2,8,5c1,0.2,2,0.3,3.1,0.3c1.1,0,2.1,0,3.3-0.2c1.1-0.2,2.1-0.4,3.1-0.6c0.9-0.2,2-0.5,3.3-0.8
			c0.3-0.1,0.7-0.2,1.3-0.3l1.3-0.3c0.3-0.1,0.6-0.2,1-0.4c0.4-0.1,0.8-0.3,1.1-0.5c0.3-0.2,0.7-0.3,1-0.5c2.2-1.4,3.9-4.1,5-8
			c-0.3-0.5-0.2-1,0.2-1.3c0,0,0.1-0.1,0.1-0.1l0.4-2c0.1-0.7,0.2-1.4,0.3-2.1c0.1-0.7,0.2-1.5,0.2-2.3c0.1-0.8,0.1-1.5,0.1-2
			c0-0.5,0.1-1.2,0.1-2.2c0-0.9,0.1-1.6,0.1-1.9c0-0.3,0-1,0-2c0-1,0-1.6,0-1.6c0-1.8,0-3.2,0-4.2c-0.1-0.2-0.2-0.5-0.1-0.7
			c0-0.1,0.1-0.2,0.1-0.3c-0.1-3.9-0.5-6.9-1.3-9.1c-1.3-3.3-3.7-5.5-7.2-6.6l0.5,0.8C29.8,28.3,30,28.6,30,29z M12.1,60.8
			c-0.7-0.4-1.3-1-1.9-1.6c-0.5-0.6-1-1.2-1.4-1.8C9,58,9.1,58.9,9.3,60c0.2,1.2,0.3,2,0.4,2.3c1.2,3.8,2.6,6.5,4.2,8
			c2,1.8,4.6,2.2,7.9,1.2c0.9-0.3,1.6-1.1,2.3-2.4c0.6-1.2,1.1-2.9,1.4-4.9c0.3-1.5,0.5-3.4,0.6-5.6c0-0.3,0.1-0.6,0.1-1
			c-1,1.4-2.1,2.6-3.3,3.6c-1.3,1-2.6,1.6-4,1.9C16.5,63.4,14.2,62.7,12.1,60.8z M22.5,36.1c0.3,3,0.1,6-0.4,9
			c-0.1,0.4-0.2,1.2-0.3,2.4c0,0.5-0.1,0.9-0.1,1.1c0,0.2-0.1,0.3-0.1,0.4c0,0.1-0.1,0.2-0.1,0.3c-0.1,0.2-0.3,0.4-0.5,0.5
			c-0.3,0.1-0.5,0.1-0.8,0c-0.2-0.1-0.4-0.2-0.5-0.3c-0.2-0.2-0.3-0.4-0.3-0.7h-0.3c-0.3,0-0.5-0.2-0.7-0.4
			c-0.2-0.2-0.2-0.5-0.2-0.8c0.1-0.9,0.3-2.1,0.5-3.7c0.3-1.6,0.4-3.1,0.6-4.3c0.1-1.3,0.2-2.5,0.2-3.6c0-0.3,0.1-0.5,0.3-0.7
			c0.2-0.2,0.5-0.3,0.7-0.3c0.3,0,0.5,0.1,0.7,0.2h0.1c0.3,0,0.5,0,0.8,0.2C22.3,35.6,22.5,35.8,22.5,36.1z M33,76.2
			c-0.2-0.1-0.7-0.2-1.5-0.4C31,76,30.5,76.3,30,76.5c-0.6,0.2-1,0.4-1.3,0.5c-0.3,0.1-0.8,0.2-1.6,0.4l-1.3,0.3
			c1.2-0.1,2.9-0.4,5.2-1L33,76.2z M32.8,26.3c0.1-0.4,0.4-0.7,0.9-0.7c-1.1-0.3-2.2-0.4-3.3-0.4C31,25.5,31.8,25.8,32.8,26.3z
			 M34.5,27.7v0.1c0.2,0.2,0.3,0.3,0.5,0.4c0.1-0.3,0.3-0.4,0.6-0.6C35.6,27.7,34.5,27.7,34.5,27.7z M39.5,72.3
			c-2.3-0.3-3.4-0.5-3.5-0.5c-0.2,0-0.3-0.1-0.5-0.1l-0.9,1.3l0.6,0.3c0.2,0.1,0.3,0.1,0.4,0.1l0.2,0.1c0.1,0,0.1,0,0.1,0
			c0.1,0,0.1,0,0.2,0s0.2,0,0.5,0.1c0.3,0,0.6,0.1,0.9,0.1c0.1,0,0.2,0.1,0.2,0.1l0.5-0.4C38.8,73.2,39.2,72.8,39.5,72.3z
			 M35.1,75.4L35.1,75.4L35.1,75.4L35.1,75.4z M37.9,30.7c0.9-0.1,1.8-0.1,2.6,0c-0.2-0.3-0.4-0.6-0.6-0.8c-0.4,0-1,0-1.7,0
			c-1.1,0-1.8-0.1-2-0.1c0.3,0.4,0.6,0.9,0.9,1.4C37.4,30.9,37.6,30.8,37.9,30.7z M40.7,70.4c0.1-0.3,0.3-0.6,0.4-1l-0.3-0.1
			c-1.4-0.6-2.5-1.2-3.3-1.9c-0.3,0.8-0.6,1.6-0.9,2.3c0.4,0,1.1,0.1,1.9,0.2c0.8,0.1,1.4,0.2,1.8,0.2
			C40.4,70.2,40.5,70.3,40.7,70.4z M36.9,27.7h0.9l-0.4-0.3C37.2,27.5,37.1,27.6,36.9,27.7z M41.8,32.9h-0.2c-1.1-0.2-2.2-0.2-3.4,0
			H38l0.1,0.3c0.2,0.5,0.3,1,0.5,1.5c0.6,0.1,1.9,0.3,3.9,0.6l-0.1-0.7C42.2,34.1,42,33.5,41.8,32.9z M42.6,65.1c-0.4,0-1-0.1-2-0.3
			c-1-0.1-1.7-0.2-2.3-0.3l-0.1,0.7c0.8,0.7,2,1.5,3.6,2.2c0.1,0,0.1,0.1,0.1,0.1C42.1,66.7,42.3,65.9,42.6,65.1z M43.3,61.6
			c-0.3,0.2-0.5,0.3-0.8,0.3c-1-0.1-2-0.2-3-0.4c-0.2-0.1-0.4-0.2-0.6-0.3l-0.2,1.3l2.3,0.3c1,0.1,1.6,0.2,2.1,0.3L43.3,61.6z
			 M43.5,39.3l-0.4-2c-0.2,0.1-0.4,0.1-0.6,0.1c-1.8-0.3-2.9-0.4-3.3-0.5c0.1,0.7,0.2,1.5,0.3,2.4H43.5z M43.9,57.9l0-0.5
			c-0.2,0.2-0.5,0.3-0.8,0.2c-1.4-0.2-2.7-0.5-3.8-1c0,0.3,0,0.6,0,1c0.3,0,1,0,2,0.1c1,0.1,1.8,0.1,2.4,0.1
			C43.8,57.9,43.8,57.9,43.9,57.9z M40.1,54.7c1,0.5,2.1,0.8,3.3,0.9c0.3,0,0.6,0.2,0.8,0.4c0.1-1.3,0.2-2.6,0.3-3.9
			c-0.3,0-0.7,0-1.1,0c0.3,0.2,0.5,0.5,0.5,0.9c0,0.3-0.1,0.5-0.3,0.7C43.3,53.9,43,54,42.7,54h-0.8h-0.5h-0.3c-0.1,0-0.3,0-0.5,0
			l-0.9-0.1c-0.1,0-0.1,0-0.1,0v0.9C39.7,54.6,39.9,54.6,40.1,54.7z M39.7,49.6c0.6,0,1.5,0.1,2.6,0.2c1,0.1,1.7,0.1,2.2,0.1v-1.7
			c-0.5,0-1.4,0-2.5-0.1s-1.9-0.1-2.5-0.1v0.2C39.6,48.5,39.6,49,39.7,49.6L39.7,49.6L39.7,49.6z M43.9,41.5h-4.3c0,0.4,0,0.8,0,1.3
			c1.3,0.3,2.9,0.5,4.6,0.6L43.9,41.5z M44.5,46.1c0-0.2,0-0.4,0-0.6c-1.8-0.2-3.4-0.4-4.8-0.6V46c0.5,0,1.3,0,2.4,0.1
			C43.1,46.1,43.9,46.1,44.5,46.1z M41.5,51.8c-0.3,0-0.5,0-0.7,0c0.2,0,0.3,0,0.3,0H41.5z M43.3,60c0.1,0.1,0.2,0.2,0.2,0.3
			l0.1-0.3H43.3z"/>
		<path class="st0" d="M61.8,25.8c0-0.3,0.1-0.6,0.3-0.8c0.1-0.1,0.2-0.2,0.3-0.3c0.1-0.1,0.3-0.2,0.6-0.3c0.4-0.2,0.8-0.3,1.1-0.3
			c0.5-0.1,1.2-0.1,1.9-0.1c1-0.3,1.7-0.5,2.1-0.6c4.5-0.9,7.9-1,10.3-0.3c2.4,0.7,4.5,1.9,6.3,3.7c1.8,1.8,3.2,3.8,4.3,6.1
			c1,2.2,1.7,4.7,2.3,7.5c0.8,3.9,0.9,7.9,0.5,11.8c-0.4,4-1.4,7.4-2.9,10.1c-1.4,2.6-2.7,4.4-4.1,5.4c-1.7,1.3-3.6,2.2-5.8,2.6
			c-1.9,0.4-3.6,0.2-5-0.4c-0.2,0.1-0.5,0.1-0.7,0.1c-2.8,0.4-5.4,0-7.8-1.2c-2.4-1.2-4.6-3-6.4-5.3c-1.7-2.1-3.1-4.5-4.1-7
			c-1.1-2.6-1.8-5.2-2.1-7.6c-0.6-5.9,0.4-11.4,3-16.6C57.5,29.2,59.5,27,61.8,25.8z M64.6,27.5c-2.6,0.6-4.7,2.6-6.4,5.9
			c-2.4,4.7-3.4,9.8-2.7,15.1c0.3,2.2,0.9,4.5,1.9,6.9c1,2.4,2.2,4.5,3.8,6.4c3.4,4.1,7.1,6,11.3,5.7c0.1-0.2,0.2-0.4,0.3-0.5
			c0.2-0.3,0.5-0.4,0.9-0.4s0.6,0.1,0.9,0.3c0.9-0.4,1.9-1.3,2.8-2.5c1.5-1.9,2.6-4.3,3.2-7.2s0.8-5.9,0.4-9.2
			C80.6,45,80,41.9,79,38.9c-1-3-2.2-5.5-3.5-7.6c-0.9-1.4-1.9-2.5-3-3.2c-1-0.7-2.3-1.2-3.9-1.4c-0.6-0.1-1.4-0.1-2.2-0.1l-0.3,0
			c-0.3,0.1-0.5,0.2-0.7,0.2C65.3,27.1,65,27.4,64.6,27.5z M68.4,39.1c0.2,2.1,0.4,5,0.4,8.9c0.1,4,0.2,6.9,0.4,8.7
			c0,0.4-0.1,0.7-0.3,0.9c-0.2,0.3-0.5,0.4-0.8,0.5c-0.3,0-0.5,0-0.8-0.2C67.3,57.9,67.2,58,67,58c-0.3,0.1-0.6,0.1-0.9-0.1
			c-0.3-0.2-0.5-0.4-0.6-0.7c-0.8-2.4-1.4-5.6-2-9.6c-0.3-2.3-0.4-4.2-0.4-5.7c0.1-2.1,0.5-3.5,1.3-4.2c0.4-0.3,0.8-0.5,1.4-0.5H66
			h0.1l0.1,0c0.3,0,0.6,0,0.9,0.2c0.3,0.2,0.5,0.4,0.6,0.7C68.1,38.2,68.4,38.6,68.4,39.1z M74.5,26.4c0.2-0.4,0.6-0.6,1-0.6
			c0.7,0,1.6-0.1,2.7-0.2c-0.1-0.1-0.3-0.1-0.4-0.1c-1.3-0.4-3-0.5-5.2-0.2C73.3,25.5,73.9,25.9,74.5,26.4z M77.4,29.6
			c2.4,0,4.8,0.3,7.2,0.7c-0.7-1-1.6-1.9-2.5-2.6c-0.1,0-0.2,0-0.2,0c-0.2,0-1.2,0.1-3.1,0.3c-1,0.1-1.8,0.2-2.5,0.2
			C76.7,28.7,77.1,29.1,77.4,29.6z M80.1,64.7c-0.3,0.5-0.7,0.9-1,1.3c-0.6,0.7-1.2,1.4-1.8,1.9c0.4,0,0.8,0,1.2-0.1
			c1.7-0.3,3.2-0.9,4.5-1.9C82.5,65.6,81.5,65.3,80.1,64.7z M80.6,36c1.7-0.1,4.1,0.2,7.2,0.9c-0.5-1.7-1.2-3.3-2.1-4.8
			c-0.3,0.6-0.7,0.8-1.3,0.7c-1.9-0.4-3.7-0.6-5.5-0.7C79.5,33.4,80.1,34.6,80.6,36z M81.4,62.5c1.6,0.7,2.9,1.2,3.7,1.3
			c0.5-0.7,1-1.6,1.7-2.8c0.1-0.3,0.3-0.5,0.4-0.8c-0.7-0.4-2.2-0.9-4.4-1.5C82.3,60,81.9,61.3,81.4,62.5z M82.7,42.9
			c2.9,0.2,5.2,0.5,6.6,0.9c-0.1-1-0.3-2-0.5-3c-0.1-0.4-0.1-0.9-0.2-1.3c-0.3,0.1-0.5,0.1-0.8,0c-3-0.7-5.1-1-6.3-1
			C81.9,39.9,82.3,41.4,82.7,42.9z M83.5,49.5c1.9,0.4,3.8,0.9,5.8,1.5c0.1-1.5,0.2-3.1,0.1-4.6c0,0-0.1,0-0.1,0
			c-1.4-0.4-3.5-0.7-6.3-0.9c0.1,0.8,0.2,1.6,0.3,2.4C83.4,48.4,83.5,48.9,83.5,49.5z M83.2,56.2c2.4,0.7,4,1.2,4.8,1.6
			c0.4-1.3,0.8-2.8,1.1-4.3c-1.9-0.5-3.8-1-5.5-1.5C83.5,53.5,83.4,54.9,83.2,56.2z"/>
		<path class="st0" d="M109.2,72.4c-0.2,0.1-0.4,0.1-0.6,0.1c-1.9,0-3.5-0.3-5-1c-1.5-0.7-2.6-1.4-3.5-2.3s-1.6-2.1-2.4-3.7
			c-0.7-1.6-1.2-2.9-1.5-3.8c-0.3-0.9-0.7-2.3-1.2-4.2c-0.1-0.3-0.1-0.5-0.1-0.6c-0.1-0.2-0.2-0.7-0.4-1.6c-0.2-0.9-0.4-1.5-0.4-1.8
			c-0.1-0.3-0.2-0.8-0.4-1.6c-0.2-0.8-0.3-1.4-0.4-1.8c-0.1-0.4-0.2-0.9-0.3-1.7c-0.1-0.7-0.2-1.4-0.3-1.9c0-0.5-0.1-1.1-0.1-1.7
			c0-0.6-0.1-1.3-0.1-1.9c0-2.7,0.3-5.1,0.9-7.2c0.9-3.4,2.5-5.4,4.9-6c0.3-0.1,0.5-0.1,0.6-0.1c1.7-0.6,2.9-1.1,3.6-1.3
			c1.6-0.4,2.9-0.5,3.9-0.3c1.7,0.4,3,1.8,3.9,4.2c1.2-2,2.9-3.6,5-4.8c2.1-1.3,4.3-2,6.6-2.2c2.8-0.3,5.1,0.3,7.1,1.7
			c2.2,1.6,3.4,4,3.7,7.2c0.1,0.7,0,1.3-0.3,1.9c0,0.4,0,0.7-0.2,1.1c-0.3,0.4-0.7,0.7-1.3,0.9l-0.5,0.1c-0.6,0.4-1.8,0.8-3.6,1.3
			c-1.7,0.5-3,1.1-3.9,1.6c-0.9,0.5-1.5,1.3-1.8,2.4c-0.6,2.3-1.1,5.3-1.4,8.8c0,1.3,0,3.2,0,5.6c0,2.5,0,4,0,4.8
			c-0.2,2.8-0.4,4.7-0.7,5.8c-0.8,2.6-2.4,4.1-4.8,4.5c-0.9,0.1-1.8,0-2.9-0.3C110.7,72.6,109.9,72.5,109.2,72.4z M95.3,46.1
			c1.5-1.7,3.1-3.3,4.8-4.8c0.1-0.1,0.1-0.1,0.2-0.1c0-0.3-0.1-0.6-0.1-0.9c-0.2-1.9-0.3-3.3-0.4-4.2c-1.6,1.8-3,3.2-4.2,4.3
			c-0.1,0.1-0.3,0.2-0.4,0.2c-0.1,0.8-0.1,1.5-0.1,2.3C95.1,43.9,95.2,45,95.3,46.1z M97.6,54.6c-0.5-0.5-0.6-1-0.2-1.6
			c1-1.8,2-3.2,3-4.1c0.2-0.3,0.5-0.4,0.8-0.4c-0.2-1.5-0.4-2.9-0.5-4.3c-1.3,1.3-2.6,2.6-3.7,3.9c-0.3,0.4-0.7,0.5-1.3,0.4
			c0.3,1.4,0.8,3.6,1.5,6.5c0,0,0,0,0,0L97.6,54.6z M95.7,36.8c0.7-0.7,1.7-1.8,3-3.3c0.2-0.2,0.4-0.3,0.6-0.4c0-0.2,0-0.3,0-0.5
			c-0.1-0.2-0.1-0.4-0.1-0.5l-0.5,0.2c-0.1,0.1-0.3,0.1-0.4,0.1c-1,0.6-1.8,1.9-2.4,3.9C95.8,36.5,95.8,36.7,95.7,36.8z M99.2,62.4
			c0.9-1.2,1.9-2.6,3-4.2c0.1-0.2,0.3-0.3,0.4-0.4l-0.5-3.1l-0.3-1.7l-2.6,3.5c-0.2,0.3-0.4,0.4-0.7,0.5s-0.6,0-0.9-0.1
			C98.2,59.3,98.8,61.2,99.2,62.4z M102.9,68.2c0,0,0.1-0.1,0.1-0.1l1.6-2.1c-0.2-0.7-0.5-1.7-0.8-2.9c-0.2-0.6-0.3-1.3-0.4-2
			l-2.9,4C101.1,66.4,101.9,67.4,102.9,68.2z M129.8,35.5c0-0.1,0-0.1,0-0.2c-0.3-1.9-0.7-3.3-1.2-4.4c-0.5-1.1-1.3-1.8-2.4-2.3
			c-1.8-0.7-4-0.6-6.5,0.3c-2.4,0.9-4.2,2.2-5.4,3.9c-1.2,1.8-1.8,3.5-1.9,5.2v0.2V39v0.7v1c0,0.2,0,0.3,0,0.4v0.2
			c0,0.1-0.1,0.2-0.1,0.3c-0.1,0.2-0.2,0.4-0.4,0.5c-0.4,0.3-0.9,0.3-1.4,0c-0.3-0.1-0.5-0.4-0.6-0.7l-0.1-0.3
			c0-0.2-0.1-0.4-0.1-0.6c0-0.3-0.1-0.8-0.1-1.4c-0.1-1.4-0.2-2.3-0.3-2.6c-0.5-2.1-1.1-3.7-1.6-4.5c-0.5-0.9-1.1-1.4-1.7-1.5
			c-0.6-0.2-1.5-0.1-2.7,0.2c-0.5,0.1-1,0.3-1.7,0.5c0.1,0.2,0.1,0.5,0.2,0.9c0.2,0.8,0.3,1.8,0.5,3c0.1,1.1,0.3,2.8,0.5,5
			c0.4,4.2,1,8.9,1.9,14.2c0.5,3.1,1.1,5.8,1.6,8.1c0.3,1.1,0.5,1.9,0.6,2.5c0.5,0.4,0.6,0.8,0.5,1.3c0.2,0.5,0.4,0.9,0.5,1.2
			c0.5,0.8,1.4,1.6,2.7,2.2c0.4,0.2,0.8,0.4,1.2,0.5c1.8-0.2,3.1-1,3.8-2.4c0.3-0.6,0.6-1.3,0.8-2.1c0.2-0.8,0.3-1.5,0.4-2.1
			c0-0.6,0.1-1.5,0.1-2.6c0-1.1,0.1-2,0.1-2.5c0-0.3,0.1-1.3,0.2-2.8c0.1-1.6,0.2-2.7,0.2-3.6c0-0.6,0-1.1,0-1.6
			c0.1-2.7,0.3-5,0.6-6.8c0.4-2.3,0.9-4,1.7-5c1.3-1.7,3.6-2.7,6.9-2.9c0.4,0,1-0.1,1.6-0.1c0.7,0,1.1,0,1.3,0L129.8,35.5
			L129.8,35.5z M105.1,69.4c0.5,0.2,1,0.3,1.5,0.4c-0.4-0.4-0.7-0.8-0.9-1.2l0,0L105.1,69.4z"/>
		<path class="st0" d="M166.5,24.6c4.2-1.4,8.2-1.6,11.9-0.3c4.7,1.6,7,5.4,6.9,11.3c-0.1,3.8-1.1,8.3-3.1,13.3
			c-1.5,3.7-3.5,7.3-6.2,10.7c-2.6,3.4-5.6,6.5-8.9,9.1c-3.3,2.7-7,4.9-11,6.6c-4,1.7-8,2.8-12,3.1c-0.3,0-0.6,0-0.8-0.2
			c-0.2-0.2-0.4-0.4-0.5-0.6c-2.9,0.7-5.4,0.2-7.6-1.6c-1.7-1.3-2.7-3.5-2.9-6.6c-0.4-5.1,1.5-10.2,5.8-15.2l1-1.2
			c0.5-0.5,0.8-0.9,1-1.2l0.8-1c0.3-0.4,0.6-0.9,0.7-1.2c0.2-0.4,0.3-0.8,0.4-1.2c0.5-2.1,0.3-5.1-0.6-8.9c-0.1-0.3-0.3-1.2-0.7-2.7
			c-0.4-1.5-0.7-2.7-0.9-3.7c-0.2-1-0.4-1.9-0.5-2.8c-0.4,0-0.6-0.2-0.9-0.4c-0.2-0.3-0.3-0.6-0.3-0.9c0-0.3,0.2-0.6,0.4-0.8
			c2.2-1.9,4.3-2.7,6.3-2.6c1.8,0.1,3.5,0.9,5,2.5c1.8,2,3.6,5.4,5.3,10.4c0.2,0.6,0.4,1.4,0.7,2.3c0-0.1,0-0.2,0-0.2
			c0.8-2.9,1.7-5.6,2.8-7.8c1.1-2.3,2.6-4.2,4.6-5.7c0.8-0.6,1.6-1.2,2.5-1.5C165.8,25.1,166.1,24.8,166.5,24.6z M150.3,70.3
			c2-1.7,4.3-4,7-6.9s5.4-6.1,8-9.3c6.2-7.9,9.9-14,11-18.3c0.4-1.8,0.4-3.4-0.2-4.8c-0.6-1.4-1.5-2.4-2.7-3.1
			c-1.1-0.7-2.5-1-4.1-0.8c-1.6,0.2-3.1,0.8-4.5,1.9c-1.6,1.3-2.9,3-3.9,5c-1,2-1.8,4.5-2.6,7.3c0,0.1,0,0.2-0.1,0.5
			c-0.1,0.3-0.1,0.6-0.2,1.1c-0.1,0.4-0.2,0.8-0.2,1.1c-0.1,0.7-0.2,1.3-0.3,1.7l-0.1,0.6c0,0.1-0.1,0.2-0.1,0.3
			c0,0.1-0.1,0.2-0.1,0.2c-0.1,0.2-0.3,0.4-0.5,0.5c-0.4,0.2-0.7,0.2-1.1,0.1c-0.3-0.1-0.6-0.3-0.8-0.6c-0.1-0.2-0.2-0.5-0.3-0.9
			c0,0,0-0.2,0-0.5v-0.1c-0.1-0.4-0.4-1.5-0.8-3c-0.3-1.2-0.6-2.2-0.9-2.9c-1.6-4.6-3.2-7.8-4.7-9.4c-1-1.1-2.1-1.7-3.2-1.8
			c-1,0-2.1,0.3-3.2,1c0.1,0.2,0.1,0.3,0.1,0.5c0.1,0.7,0.2,1.5,0.3,2.3c0.1,0.8,0.3,1.6,0.5,2.2l0.6,2.6c0.3,1.1,0.5,1.9,0.6,2.4
			c1,4.2,1.2,7.6,0.6,10.1c-0.1,0.6-0.3,1.1-0.5,1.6c-0.2,0.5-0.5,1-0.9,1.6c-0.4,0.5-0.7,0.9-0.9,1.2s-0.6,0.7-1.1,1.3
			c-0.5,0.6-0.8,0.9-0.9,1.1c-1.9,2.2-3.3,4.3-4.2,6.5c-0.9,2.1-1.2,4.4-1,6.9c0.2,2.3,0.8,3.9,2,4.9c1.9,1.5,4.1,1.7,6.7,0.7
			c1.5-0.6,3.2-1.7,5.2-3.3c0-0.3,0.1-0.6,0.3-0.9C149.4,70.3,149.8,70.2,150.3,70.3z M151.5,74.5l-1.1-1c-1,0.8-2,1.5-2.8,2
			C148.8,75.2,150.1,74.9,151.5,74.5z M157.1,72.2l-1.2-1.5l-1-1.3l-2.7,2.5l1.9,1.6C155.2,73.1,156.2,72.7,157.1,72.2z M162.6,69
			c-0.4,0-0.8-0.2-1.1-0.6c-1-1.5-1.7-2.6-2.4-3.3l-2.4,2.5l1.2,1.6c0.5,0.7,1,1.3,1.5,1.8C160.5,70.4,161.5,69.7,162.6,69z
			 M169.1,54.5c1.3,2.3,2.2,3.8,2.5,4.7c0.2,0.3,0.2,0.6,0.1,0.9c-0.1,0.3-0.3,0.6-0.6,0.7c-0.3,0.1-0.6,0.2-1,0
			c-0.3-0.1-0.6-0.3-0.7-0.6c-0.4-0.9-1.3-2.3-2.4-4.3l-2.5,3.1c0,0,0.1,0.1,0.1,0.1c0.9,1.3,1.9,2.7,3,4.4c0.2,0.3,0.2,0.6,0.2,0.9
			c-0.1,0.3-0.3,0.6-0.6,0.8c-0.3,0.2-0.6,0.2-0.9,0.2s-0.6-0.3-0.8-0.6c-1-1.5-1.8-2.8-2.6-3.9l-2,2.3c0.8,0.8,1.7,2.1,2.8,3.8
			c0.2,0.4,0.3,0.7,0.1,1.1c4.3-3.1,7.9-6.7,11-10.9h-0.1c-0.3,0.2-0.6,0.2-0.9,0.2c-0.3-0.1-0.6-0.3-0.7-0.6
			c-0.3-0.4-0.8-1.4-1.6-2.9c-0.5-0.9-0.9-1.6-1.2-2.1l-1.6,2.1C168.8,54.1,169,54.3,169.1,54.5z M177.8,41.4c0.6,2.3,1.3,4.1,2,5.4
			c0.2,0.3,0.2,0.6,0.1,0.9c-0.1,0.3-0.3,0.6-0.6,0.8c-0.3,0.2-0.6,0.2-0.9,0.1c-0.3-0.1-0.6-0.3-0.7-0.6c-0.7-1.3-1.4-2.8-2-4.7
			l-1,1.6c0,0.1,0.1,0.1,0.1,0.1c0.4,0.7,0.8,1.6,1.4,2.9l1.2,2.7c0.2,0.3,0.2,0.6,0.1,0.9c-0.1,0.3-0.3,0.6-0.6,0.7
			c-0.3,0.1-0.6,0.2-1,0c-0.3-0.1-0.6-0.3-0.7-0.6c-0.3-0.5-0.7-1.3-1.1-2.3l-0.9-2l-1.5,2.2l0.2,0.2c0.4,0.7,1,1.7,1.7,2.9l1.5,2.8
			c0.2,0.3,0.2,0.6,0.1,1c2-2.8,3.5-5.7,4.7-8.7c0.6-1.6,1.2-3.3,1.6-4.9c0,0-0.1,0.1-0.1,0.1c-0.3,0.2-0.6,0.2-0.9,0.2
			c-0.3-0.1-0.6-0.3-0.7-0.6c-0.4-0.6-0.8-1.6-1.3-2.8c-0.2-0.5-0.3-0.9-0.4-1.2l-0.8,1.8C177.4,40.8,177.7,41.1,177.8,41.4z
			 M182.2,31.1c-0.8-2.2-2.3-3.7-4.6-4.4c-0.8-0.3-1.6-0.5-2.4-0.6c1,0.7,1.9,1.5,2.5,2.5v0c0.2-0.2,0.5-0.3,0.9-0.4
			c0.4,0,0.7,0.1,0.9,0.3L182.2,31.1z M179.2,31.6l-0.3-0.3c0,0.1,0.1,0.3,0.1,0.4C179,31.7,179.1,31.6,179.2,31.6z M179.5,36.3
			c0.3,0.6,0.7,1.5,1.3,2.8c0.4,1.1,0.8,1.9,1.1,2.5l0.1,0.2c0.3-1.3,0.6-2.5,0.7-3.7c-0.5,0.1-1-0.1-1.3-0.5l-2.3-3.3
			c-0.1,0.5-0.1,1-0.2,1.5C179.1,35.8,179.3,36,179.5,36.3z M181.6,33.4l1.3,1.8c0-0.9-0.1-1.8-0.2-2.6c-0.1,0.2-0.2,0.3-0.3,0.4
			C182.1,33.2,181.8,33.3,181.6,33.4z"/>
		<path class="st0" d="M196.5,29c-0.4-0.2-0.7-0.5-0.8-1c0-0.4,0.1-0.7,0.3-0.9c0.2-0.3,0.5-0.4,0.8-0.5c0.1,0,0.4,0,0.9-0.1
			c0.2-0.1,0.4-0.3,0.6-0.4c0.2-0.1,0.4-0.2,0.6-0.3c0.2-0.1,0.4-0.2,0.7-0.3c0.3-0.1,0.5-0.1,0.7-0.2s0.4-0.1,0.7-0.1l0.6-0.1
			c0.1,0,0.3,0,0.6,0l0.4,0c3.5-0.4,6.5,0.3,8.9,1.8c2.5,1.6,4.1,4.2,4.9,7.6c1.1,4.7,0.8,9.5-0.8,14.4c-1.7,4.9-4.4,8.9-8.1,11.9
			c-0.3,0.2-0.5,0.3-0.9,0.3c-0.3,0-0.6-0.2-0.8-0.4c-0.7,1.1-1.5,1.8-2.5,2.1c-2.1,0.5-3.7-0.6-4.9-3.4c-0.5-1.3-1-3-1.4-5
			c-0.2-1-0.4-2.9-0.6-5.7c-0.3-2.7-0.4-5.4-0.5-8.3c-0.1-3.4-0.1-6.2,0-8.4C196.1,30.8,196.3,29.8,196.5,29z M205.4,75.3
			c-1.4,0.4-2.7,0.5-3.9,0.2c-1.6-0.4-2.7-1.2-3.3-2.5c-0.6-1.5-0.4-3.3,0.5-5.5c0.2-0.4,0.5-0.7,1-0.8c0.2-0.2,0.4-0.5,0.7-0.7
			c0.3-0.3,0.7-0.5,1.2-0.7l0.4-0.1c0.2-0.1,0.3-0.1,0.3-0.1c2.5-1.2,4.8-1.6,6.9-1.2c1.3,0.3,2.3,0.8,3.1,1.8
			c0.8,0.9,1.3,2.2,1.4,3.7c0.1,0.8,0.1,1.4,0,1.7c-0.1,0.6-0.4,1.2-0.8,1.8c-0.2,0.3-0.5,0.6-0.7,0.8c-0.2,0.2-0.5,0.5-0.8,0.7
			l-0.9,0.5c-0.2,0.2-0.5,0.3-1,0.5c-0.4,0.2-0.7,0.3-0.8,0.3c-0.1,0.1-0.5,0.2-0.9,0.3c-0.5,0.1-0.7,0.2-0.8,0.3
			c-0.3,0.1-0.6,0.1-0.9-0.1C205.7,75.9,205.5,75.7,205.4,75.3L205.4,75.3L205.4,75.3z M207.7,35.6c-0.6-3.9-2.3-6.2-5.3-6.8
			c-0.8-0.2-2-0.2-3.4,0c0,0.2-0.1,0.4-0.1,0.6c-0.2,0.7-0.3,1.6-0.3,2.7c-0.2,2.1-0.2,4.8,0,8.1c0.1,2.8,0.3,5.5,0.5,8.1
			c0.2,2.7,0.4,4.5,0.6,5.4c0.3,1.9,0.7,3.4,1.2,4.6c0.6,1.4,1.3,2.1,1.9,1.9c0.4-0.1,0.7-0.5,1.1-1.2c0.4-0.7,0.8-1.7,1.2-2.9
			c0.2-0.7,0.7-2.8,1.4-6.3c1.1-5.3,1.6-9.4,1.4-12.4c-0.4-0.2-0.5-0.6-0.5-1C207.3,36.2,207.5,35.9,207.7,35.6z M203.6,69.3
			c-0.5,0-1.1,0-1.8,0h-0.5c-0.2,0-0.3,0-0.4,0c-0.1,0-0.2,0-0.3,0c-0.4,1.1-0.4,2-0.1,2.6c0.3,0.5,0.8,0.9,1.5,1.1
			c0.8,0.2,1.7,0.1,2.7-0.2c0.9-0.3,1.5-0.7,1.7-1.1c0.2-0.3,0.3-0.6,0.3-0.8c0-0.5-0.2-0.8-0.7-1.1l-1,0.2c-0.3,0.1-0.6,0-0.9-0.1
			C203.9,69.8,203.7,69.6,203.6,69.3z M206.3,67.3c1.2-0.2,2.4-0.4,3.7-0.6c-0.4-0.3-0.8-0.4-1.3-0.5c-1.3-0.3-2.8-0.1-4.6,0.7
			c0.1,0,0.2,0,0.3,0C205.1,67,205.7,67.1,206.3,67.3z M208.2,27.9c-0.8-0.3-1.7-0.5-2.7-0.5c0.4,0.2,0.7,0.4,1,0.7
			c0.2-0.1,0.4-0.1,0.6-0.1H208.2z M211.9,51.3c-1.2,0-2.2,0-3.2,0c-0.5,2.5-0.9,4.4-1.3,5.7l-0.3,0.9
			C209.1,56,210.6,53.8,211.9,51.3z M212.1,30.7c-1-0.1-2.2-0.2-3.5-0.2c0.8,1.3,1.3,2.9,1.6,4.8c1.5,0,2.8,0,3.8,0.1h0.2l-0.1-0.4
			C213.6,33.3,213,31.8,212.1,30.7z M208.9,69.4c0.2,0.5,0.3,1,0.3,1.6v0c0.1,0.1,0.2,0.1,0.3,0.2c0.3,0.3,0.4,0.6,0.4,0.9
			c0,0,0,0.1,0,0.1c0.4-0.3,0.7-0.6,1-0.9c0.2-0.3,0.4-0.5,0.4-0.8c0-0.1,0-0.5,0-1.1c0-0.1,0-0.2,0-0.3h0L208.9,69.4z M212.9,49
			c0.5-1.3,0.9-2.7,1.2-4.1c-0.2,0.3-0.5,0.5-0.9,0.5c-1.4,0.1-2.5,0.2-3.4,0.2c-0.1,1-0.3,2-0.5,3.1c0.6,0,1.6,0,3,0
			C212.5,48.8,212.7,48.8,212.9,49z M214.5,37.7c-0.2,0.1-0.4,0.1-0.6,0.1c-1-0.1-2.1-0.1-3.5-0.1c0,1.6-0.1,3.4-0.3,5.3
			c0.5,0,1.5-0.1,2.9-0.2c0.3,0,0.6,0,0.8,0.2c0.2,0.2,0.4,0.4,0.5,0.7C214.6,41.7,214.7,39.7,214.5,37.7z"/>
		<path class="st0" d="M228.2,29c-0.4-0.2-0.7-0.5-0.8-1c0-0.4,0.1-0.7,0.3-0.9c0.2-0.3,0.5-0.4,0.8-0.5c0.1,0,0.4,0,0.9-0.1
			c0.2-0.1,0.4-0.3,0.6-0.4c0.2-0.1,0.4-0.2,0.6-0.3c0.2-0.1,0.4-0.2,0.7-0.3c0.3-0.1,0.5-0.1,0.7-0.2s0.4-0.1,0.7-0.1l0.6-0.1
			c0.1,0,0.3,0,0.6,0l0.4,0c3.5-0.4,6.5,0.3,8.9,1.8c2.5,1.6,4.1,4.2,4.9,7.6c1.1,4.7,0.8,9.5-0.8,14.4c-1.7,4.9-4.4,8.9-8.1,11.9
			c-0.3,0.2-0.5,0.3-0.9,0.3c-0.3,0-0.6-0.2-0.8-0.4c-0.7,1.1-1.5,1.8-2.5,2.1c-2.1,0.5-3.7-0.6-4.9-3.4c-0.5-1.3-1-3-1.4-5
			c-0.2-1-0.4-2.9-0.6-5.7c-0.3-2.7-0.4-5.4-0.5-8.3c-0.1-3.4-0.1-6.2,0-8.4C227.9,30.8,228,29.8,228.2,29z M237.2,75.3
			c-1.4,0.4-2.7,0.5-3.9,0.2c-1.6-0.4-2.7-1.2-3.3-2.5c-0.6-1.5-0.4-3.3,0.5-5.5c0.2-0.4,0.5-0.7,1-0.8c0.2-0.2,0.4-0.5,0.7-0.7
			c0.3-0.3,0.7-0.5,1.2-0.7l0.4-0.1c0.2-0.1,0.3-0.1,0.3-0.1c2.5-1.2,4.8-1.6,6.9-1.2c1.3,0.3,2.3,0.8,3.1,1.8
			c0.8,0.9,1.3,2.2,1.4,3.7c0.1,0.8,0.1,1.4,0,1.7c-0.1,0.6-0.4,1.2-0.8,1.8c-0.2,0.3-0.5,0.6-0.7,0.8c-0.2,0.2-0.5,0.5-0.8,0.7
			l-0.9,0.5c-0.2,0.2-0.5,0.3-1,0.5c-0.4,0.2-0.7,0.3-0.8,0.3c-0.1,0.1-0.5,0.2-0.9,0.3c-0.5,0.1-0.7,0.2-0.8,0.3
			c-0.3,0.1-0.6,0.1-0.9-0.1C237.5,75.9,237.3,75.7,237.2,75.3L237.2,75.3L237.2,75.3z M239.5,35.6c-0.6-3.9-2.3-6.2-5.3-6.8
			c-0.8-0.2-2-0.2-3.4,0c0,0.2-0.1,0.4-0.1,0.6c-0.2,0.7-0.3,1.6-0.3,2.7c-0.2,2.1-0.2,4.8,0,8.1c0.1,2.8,0.3,5.5,0.5,8.1
			c0.2,2.7,0.4,4.5,0.6,5.4c0.3,1.9,0.7,3.4,1.2,4.6c0.6,1.4,1.3,2.1,1.9,1.9c0.4-0.1,0.7-0.5,1.1-1.2c0.4-0.7,0.8-1.7,1.2-2.9
			c0.2-0.7,0.7-2.8,1.4-6.3c1.1-5.3,1.6-9.4,1.4-12.4c-0.4-0.2-0.5-0.6-0.5-1C239.1,36.2,239.2,35.9,239.5,35.6z M235.4,69.3
			c-0.5,0-1.1,0-1.8,0h-0.5c-0.2,0-0.3,0-0.4,0c-0.1,0-0.2,0-0.3,0c-0.4,1.1-0.4,2-0.1,2.6c0.3,0.5,0.8,0.9,1.5,1.1
			c0.8,0.2,1.7,0.1,2.7-0.2c0.9-0.3,1.5-0.7,1.7-1.1c0.2-0.3,0.3-0.6,0.3-0.8c0-0.5-0.2-0.8-0.7-1.1l-1,0.2c-0.3,0.1-0.6,0-0.9-0.1
			C235.6,69.8,235.5,69.6,235.4,69.3z M238,67.3c1.2-0.2,2.4-0.4,3.7-0.6c-0.4-0.3-0.8-0.4-1.3-0.5c-1.3-0.3-2.8-0.1-4.6,0.7
			c0.1,0,0.2,0,0.3,0C236.9,67,237.5,67.1,238,67.3z M240,27.9c-0.8-0.3-1.7-0.5-2.7-0.5c0.4,0.2,0.7,0.4,1,0.7
			c0.2-0.1,0.4-0.1,0.6-0.1H240z M243.7,51.3c-1.2,0-2.2,0-3.2,0c-0.5,2.5-0.9,4.4-1.3,5.7l-0.3,0.9C240.8,56,242.4,53.8,243.7,51.3
			z M243.9,30.7c-1-0.1-2.2-0.2-3.5-0.2c0.8,1.3,1.3,2.9,1.6,4.8c1.5,0,2.8,0,3.8,0.1h0.2l-0.1-0.4
			C245.4,33.3,244.8,31.8,243.9,30.7z M240.7,69.4c0.2,0.5,0.3,1,0.3,1.6v0c0.1,0.1,0.2,0.1,0.3,0.2c0.3,0.3,0.4,0.6,0.4,0.9
			c0,0,0,0.1,0,0.1c0.4-0.3,0.7-0.6,1-0.9c0.2-0.3,0.4-0.5,0.4-0.8c0-0.1,0-0.5,0-1.1c0-0.1,0-0.2,0-0.3h0L240.7,69.4z M244.7,49
			c0.5-1.3,0.9-2.7,1.2-4.1c-0.2,0.3-0.5,0.5-0.9,0.5c-1.4,0.1-2.5,0.2-3.4,0.2c-0.1,1-0.3,2-0.5,3.1c0.6,0,1.6,0,3,0
			C244.3,48.8,244.5,48.8,244.7,49z M246.3,37.7c-0.2,0.1-0.4,0.1-0.6,0.1c-1-0.1-2.1-0.1-3.5-0.1c0,1.6-0.1,3.4-0.3,5.3
			c0.5,0,1.5-0.1,2.9-0.2c0.3,0,0.6,0,0.8,0.2c0.2,0.2,0.4,0.4,0.5,0.7C246.4,41.7,246.5,39.7,246.3,37.7z"/>
		<path class="st0" d="M260,29c-0.4-0.2-0.7-0.5-0.8-1c0-0.4,0.1-0.7,0.3-0.9c0.2-0.3,0.5-0.4,0.8-0.5c0.1,0,0.4,0,0.9-0.1
			c0.2-0.1,0.4-0.3,0.6-0.4c0.2-0.1,0.4-0.2,0.6-0.3c0.2-0.1,0.4-0.2,0.7-0.3c0.3-0.1,0.5-0.1,0.7-0.2c0.2,0,0.4-0.1,0.7-0.1
			l0.6-0.1c0.1,0,0.3,0,0.6,0l0.4,0c3.5-0.4,6.5,0.3,8.9,1.8c2.5,1.6,4.1,4.2,4.9,7.6c1.1,4.7,0.8,9.5-0.8,14.4
			c-1.7,4.9-4.4,8.9-8.1,11.9c-0.3,0.2-0.5,0.3-0.9,0.3c-0.3,0-0.6-0.2-0.8-0.4c-0.7,1.1-1.5,1.8-2.5,2.1c-2.1,0.5-3.7-0.6-4.9-3.4
			c-0.5-1.3-1-3-1.4-5c-0.2-1-0.4-2.9-0.6-5.7c-0.3-2.7-0.4-5.4-0.5-8.3c-0.1-3.4-0.1-6.2,0-8.4C259.7,30.8,259.8,29.8,260,29z
			 M269,75.3c-1.4,0.4-2.7,0.5-3.9,0.2c-1.6-0.4-2.7-1.2-3.3-2.5c-0.6-1.5-0.4-3.3,0.5-5.5c0.2-0.4,0.5-0.7,1-0.8
			c0.2-0.2,0.4-0.5,0.7-0.7c0.3-0.3,0.7-0.5,1.2-0.7l0.4-0.1c0.2-0.1,0.3-0.1,0.3-0.1c2.5-1.2,4.8-1.6,6.9-1.2
			c1.3,0.3,2.3,0.8,3.1,1.8c0.8,0.9,1.3,2.2,1.4,3.7c0.1,0.8,0.1,1.4,0,1.7c-0.1,0.6-0.4,1.2-0.8,1.8c-0.2,0.3-0.5,0.6-0.7,0.8
			c-0.2,0.2-0.5,0.5-0.8,0.7l-0.9,0.5c-0.2,0.2-0.5,0.3-1,0.5c-0.4,0.2-0.7,0.3-0.8,0.3c-0.1,0.1-0.5,0.2-0.9,0.3
			c-0.5,0.1-0.7,0.2-0.8,0.3c-0.3,0.1-0.6,0.1-0.9-0.1C269.3,75.9,269.1,75.7,269,75.3L269,75.3L269,75.3z M271.3,35.6
			c-0.6-3.9-2.3-6.2-5.3-6.8c-0.8-0.2-2-0.2-3.4,0c0,0.2-0.1,0.4-0.1,0.6c-0.2,0.7-0.3,1.6-0.3,2.7c-0.2,2.1-0.2,4.8,0,8.1
			c0.1,2.8,0.3,5.5,0.5,8.1c0.2,2.7,0.4,4.5,0.6,5.4c0.3,1.9,0.7,3.4,1.2,4.6c0.6,1.4,1.3,2.1,1.9,1.9c0.4-0.1,0.7-0.5,1.1-1.2
			c0.4-0.7,0.8-1.7,1.2-2.9c0.2-0.7,0.7-2.8,1.4-6.3c1.1-5.3,1.6-9.4,1.4-12.4c-0.4-0.2-0.5-0.6-0.5-1
			C270.9,36.2,271,35.9,271.3,35.6z M267.1,69.3c-0.5,0-1.1,0-1.8,0h-0.5c-0.2,0-0.3,0-0.4,0s-0.2,0-0.3,0c-0.4,1.1-0.4,2-0.1,2.6
			c0.3,0.5,0.8,0.9,1.5,1.1c0.8,0.2,1.7,0.1,2.7-0.2c0.9-0.3,1.5-0.7,1.7-1.1c0.2-0.3,0.3-0.6,0.3-0.8c0-0.5-0.2-0.8-0.7-1.1l-1,0.2
			c-0.3,0.1-0.6,0-0.9-0.1C267.4,69.8,267.2,69.6,267.1,69.3z M269.8,67.3c1.2-0.2,2.4-0.4,3.7-0.6c-0.4-0.3-0.8-0.4-1.3-0.5
			c-1.3-0.3-2.8-0.1-4.6,0.7c0.1,0,0.2,0,0.3,0C268.7,67,269.3,67.1,269.8,67.3z M271.8,27.9c-0.8-0.3-1.7-0.5-2.7-0.5
			c0.4,0.2,0.7,0.4,1,0.7c0.2-0.1,0.4-0.1,0.6-0.1H271.8z M275.5,51.3c-1.2,0-2.2,0-3.2,0c-0.5,2.5-0.9,4.4-1.3,5.7l-0.3,0.9
			C272.6,56,274.2,53.8,275.5,51.3z M275.6,30.7c-1-0.1-2.2-0.2-3.5-0.2c0.8,1.3,1.3,2.9,1.6,4.8c1.5,0,2.8,0,3.8,0.1h0.2l-0.1-0.4
			C277.2,33.3,276.5,31.8,275.6,30.7z M272.5,69.4c0.2,0.5,0.3,1,0.3,1.6v0c0.1,0.1,0.2,0.1,0.3,0.2c0.3,0.3,0.4,0.6,0.4,0.9
			c0,0,0,0.1,0,0.1c0.4-0.3,0.7-0.6,1-0.9c0.2-0.3,0.4-0.5,0.4-0.8c0-0.1,0-0.5,0-1.1c0-0.1,0-0.2,0-0.3h0L272.5,69.4z M276.5,49
			c0.5-1.3,0.9-2.7,1.2-4.1c-0.2,0.3-0.5,0.5-0.9,0.5c-1.4,0.1-2.5,0.2-3.4,0.2c-0.1,1-0.3,2-0.5,3.1c0.6,0,1.6,0,3,0
			C276.1,48.8,276.3,48.8,276.5,49z M278.1,37.7c-0.2,0.1-0.4,0.1-0.6,0.1c-1-0.1-2.1-0.1-3.5-0.1c0,1.6-0.1,3.4-0.3,5.3
			c0.5,0,1.5-0.1,2.9-0.2c0.3,0,0.6,0,0.8,0.2s0.4,0.4,0.5,0.7C278.2,41.7,278.3,39.7,278.1,37.7z"/>
	</g>
	<g>
		<g>
			<path class="st0" d="M73.6,1.6c-0.2-0.2-0.2-0.5-0.2-0.8c0.1-0.3,0.2-0.5,0.5-0.7C74.1,0,74.4,0,74.7,0L76,0.3
				c0.2-0.1,0.4-0.1,0.6-0.1h1.3h0.9c0.1,0,0.2,0,0.3,0c0.2,0,0.3,0,0.4,0c0.8,0.3,1.6,0.8,2.3,1.5s1.3,1.5,1.7,2.4
				c1,2.2,1,4.1-0.1,5.7c-1.8,2.6-5.3,3.9-10.5,3.9h-0.2c-0.4,0.2-0.8,0.4-1.1,0.5c-0.9,0.3-1.6,0.3-2.1,0c-1.3-0.6-1.8-1.9-1.4-3.7
				c0.2-1.3,0.8-2.8,1.9-4.4c0.9-1.5,2-2.9,3.1-4C73.2,2,73.4,1.8,73.6,1.6z M76.3,8.4c0.2-0.2,0.4-0.4,0.6-0.6
				c1.2-1.4,1.7-2.6,1.4-3.5c-0.2-0.7-0.9-1.3-2.2-1.8c-0.5,0.3-1,0.7-1.6,1.3c-1,1-2,2.1-2.8,3.5c-0.9,1.4-1.4,2.6-1.5,3.7
				c-0.1,0.7-0.1,1.2,0.2,1.4c0.2,0,0.3,0,0.5-0.1c0.5-0.2,1.1-0.5,1.8-1c0.8-0.5,1.6-1.1,2.4-1.8c0-0.3,0-0.5,0.2-0.7
				C75.5,8.5,75.8,8.3,76.3,8.4z M77.1,11.3L76.6,11L76,11.5L77.1,11.3z M80.4,10l-0.2-0.1c-0.3-0.1-0.4-0.2-0.5-0.3
				c-0.2-0.1-0.3-0.3-0.5-0.5l-0.3-0.4l-0.4,0.5l-0.4,0.4l0.6,0.4c0.3,0.2,0.4,0.4,0.4,0.8C79.7,10.5,80.1,10.2,80.4,10z M80.4,7.1
				l0.5,0.7c0,0,0,0.1,0,0.1l0.2,0.1l0.7,0.3c0.4-0.9,0.3-2-0.2-3.2c-0.4-0.8-0.8-1.4-1.5-2c0.1,0.2,0.2,0.5,0.2,0.7
				c0.2,0.9,0.1,1.9-0.4,3C80.1,6.9,80.3,6.9,80.4,7.1z"/>
		</g>
	</g>
</g>
</svg>
