<?xml version="1.0" encoding="utf-8"?>
<!-- Generator: Adobe Illustrator 26.0.3, SVG Export Plug-In . SVG Version: 6.00 Build 0)  -->
<svg version="1.1" id="Layer_1" xmlns="http://www.w3.org/2000/svg" xmlns:xlink="http://www.w3.org/1999/xlink" x="0px" y="0px"
	 viewBox="0 0 162.99 114.21" style="enable-background:new 0 0 162.99 114.21;" xml:space="preserve">
<metadata><?xpacket begin="﻿" id="W5M0MpCehiHzreSzNTczkc9d"?>
<x:xmpmeta xmlns:x="adobe:ns:meta/" x:xmptk="Adobe XMP Core 7.1-c000 79.4d2f597, 2021/09/01-20:51:22        ">
   <rdf:RDF xmlns:rdf="http://www.w3.org/1999/02/22-rdf-syntax-ns#">
      <rdf:Description rdf:about=""
            xmlns:xmp="http://ns.adobe.com/xap/1.0/"
            xmlns:xmpMM="http://ns.adobe.com/xap/1.0/mm/"
            xmlns:stEvt="http://ns.adobe.com/xap/1.0/sType/ResourceEvent#">
         <xmp:MetadataDate>2022-04-27T12:35:53+02:00</xmp:MetadataDate>
         <xmp:Rating>5</xmp:Rating>
         <xmpMM:InstanceID>xmp.iid:09fc1635-272a-6441-a26b-5c015e459506</xmpMM:InstanceID>
         <xmpMM:DocumentID>xmp.did:531ce721-dfc3-0546-81fc-c7a780803ed7</xmpMM:DocumentID>
         <xmpMM:OriginalDocumentID>xmp.did:531ce721-dfc3-0546-81fc-c7a780803ed7</xmpMM:OriginalDocumentID>
         <xmpMM:History>
            <rdf:Seq>
               <rdf:li>
                  <rdf:Description>
                     <stEvt:action>saved</stEvt:action>
                     <stEvt:instanceID>xmp.iid:531ce721-dfc3-0546-81fc-c7a780803ed7</stEvt:instanceID>
                     <stEvt:when>2022-04-27T12:32:21+02:00</stEvt:when>
                     <stEvt:softwareAgent>Adobe Bridge 2022 (Windows)</stEvt:softwareAgent>
                     <stEvt:changed>/metadata</stEvt:changed>
                  </rdf:Description>
               </rdf:li>
               <rdf:li>
                  <rdf:Description>
                     <stEvt:action>saved</stEvt:action>
                     <stEvt:instanceID>xmp.iid:09fc1635-272a-6441-a26b-5c015e459506</stEvt:instanceID>
                     <stEvt:when>2022-04-27T12:35:53+02:00</stEvt:when>
                     <stEvt:softwareAgent>Adobe Bridge 2022 (Windows)</stEvt:softwareAgent>
                     <stEvt:changed>/metadata</stEvt:changed>
                  </rdf:Description>
               </rdf:li>
            </rdf:Seq>
         </xmpMM:History>
      </rdf:Description>
   </rdf:RDF>
</x:xmpmeta>
                                                                                                    
                                                                                                    
                                                                                                    
                                                                                                    
                                                                                                    
                                                                                                    
                                                                                                    
                                                                                                    
                                                                                                    
                                                                                                    
                                                                                                    
                                                                                                    
                                                                                                    
                                                                                                    
                                                                                                    
                         
<?xpacket end="w"?></metadata>
<style type="text/css">
	.st0{fill:#F490AE;}
	.st1{fill:#FFFFFF;}
	.st2{fill:none;stroke:#F490AE;stroke-width:1.0288;stroke-miterlimit:10;}
</style>
<g>
	<g>
		<g>
			<path class="st0" d="M139.3,113.78c4.15,1.01,8.03-2.02,9.05-5.98c0.44-1.7,0.32-3.6,0.05-5.32c-0.26-1.68-0.77-3.4-1.78-4.8
				c-1.05-1.46-2.98-2.53-4.82-2.14c0.36,0.02,0.71,0.03,1.07,0.05c-2.32-1.3-5.24,0.3-6.86,2.07c-1.55,1.7-1.89,3.81-1.81,6.02
				C134.31,107.17,135.4,112.64,139.3,113.78c0.51,0.15,1.25-0.05,1.62-0.43c0.35-0.36,0.25-0.75-0.24-0.89
				c-2.32-0.68-3.3-3.91-3.76-5.97c-0.55-2.48-0.95-5.8,0.64-7.99c0.47-0.64,1.08-1.15,1.76-1.55c0.3-0.18,0.69-0.45,1.04-0.46
				c0.3-0.01,0.53,0.22,0.81,0.31c0.23,0.07,0.42,0.07,0.65,0.07c0.8,0,0-0.12-0.05,0.01c0.03-0.08,0.74,0.14,0.83,0.17
				c0.59,0.21,1.09,0.61,1.5,1.07c1.78,1.99,2.24,5.15,2.21,7.72c-0.03,2.96-1.94,7.53-5.63,6.63c-0.52-0.13-1.24,0.04-1.62,0.43
				C138.72,113.24,138.8,113.66,139.3,113.78z"/>
		</g>
	</g>
	<g>
		<g>
			<path class="st0" d="M49.02,113.78c4.15,1.01,8.03-2.02,9.05-5.98c0.44-1.7,0.32-3.6,0.05-5.32c-0.26-1.68-0.77-3.4-1.78-4.8
				c-1.05-1.46-2.98-2.53-4.82-2.14c0.36,0.02,0.71,0.03,1.07,0.05c-2.32-1.3-5.24,0.3-6.86,2.07c-1.55,1.7-1.89,3.81-1.81,6.02
				C44.04,107.17,45.12,112.64,49.02,113.78c0.51,0.15,1.25-0.05,1.62-0.43c0.35-0.36,0.25-0.75-0.24-0.89
				c-2.32-0.68-3.3-3.91-3.76-5.97c-0.55-2.48-0.95-5.8,0.64-7.99c0.47-0.64,1.08-1.15,1.76-1.55c0.3-0.18,0.69-0.45,1.04-0.46
				c0.3-0.01,0.53,0.22,0.81,0.31c0.23,0.07,0.42,0.07,0.65,0.07c0.8,0,0-0.12-0.05,0.01c0.03-0.08,0.74,0.14,0.83,0.17
				c0.59,0.21,1.09,0.61,1.5,1.07c1.78,1.99,2.24,5.15,2.21,7.72c-0.03,2.96-1.94,7.53-5.63,6.63c-0.52-0.13-1.24,0.04-1.62,0.43
				C48.45,113.24,48.53,113.66,49.02,113.78z"/>
		</g>
	</g>
	<g>
		<path class="st1" d="M6.22,104.82c2.09-0.15,2.51-1.87,2.36-3.58c0.21-0.29,0.31-0.65,0.16-1.08c-3.41-10.1,9.27-17.66,16.05-9.33
			c3.2,3.94,3.44,9.74,3.7,14.55c0.04,0.72,0.72,1.06,1.35,1.06c4.52,0.06,15.44-0.01,18.98-0.03c3.46-0.02,19.26-0.67,25.93-1.12
			c3.54-0.24,7.08-0.51,10.61-0.82c1.81-0.16,4.39,0.03,5.96-0.99c1.36-0.89,1.47-1.94,2.02-3.28c1.67-4.02,3.71-7.54,8.69-7.72
			c6.66-0.24,9.46,5.37,11.04,10.65c0.31,1.04,0.22,2.1,1.11,2.93c2.51,2.34,8.77,0.38,11.61,0.12c3.35-0.31,21.99-1.44,21.62-2.64
			c0.29-0.04,0.59-0.08,0.88-0.13c3.85-0.59,8.08-0.62,11.24-2.88c0.71,0.4,1.94-0.05,1.93-1.15c-0.1-10.98,0.05-23.1-3.11-33.72
			c-0.61-2.05-1.42-4.05-2.46-5.9c-0.02-0.19-0.07-0.38-0.21-0.57c-0.2-0.28-0.41-0.53-0.63-0.79c-0.71-1.07-1.51-2.09-2.43-3.02
			c-1.56-1.57-3.58-2.43-5.57-3.27c-0.04-0.03-0.09-0.06-0.13-0.1c-5.11-4.02-6.68-9.91-7.6-16.03c-1.42-9.48-2.95-17.63-9.16-25.29
			c-0.22-0.27-0.49-0.39-0.76-0.43c-1.1-1.19-2.37-2.29-3.85-3.27c-13.67-9.04-34.45-5.44-49.81-4.74
			c-17.81,0.81-38.79,0.1-54.62,9.6C6.73,20.47,7.88,39.97,8.33,54.67c0,0.07,0.03,0.12,0.04,0.18c-0.29,0.22-0.49,0.55-0.46,1.01
			c-0.06-0.98-4.13,2.8-4.19,2.9c-1.63,2.5-1.55,6.08-1.77,8.9C1.32,76.01,1.29,84.4,1.89,92.75C2.05,95.06,1.35,105.17,6.22,104.82
			z"/>
		<g>
			<path class="st0" d="M6.06,105.77c1.67-0.2,3.26-0.97,3.8-2.67c0.21-0.66,0.09-1.29,0.19-1.96c0.05-0.34,0.23-0.59,0.21-0.98
				c-0.03-0.45-0.23-0.89-0.34-1.33c-0.7-2.84-0.07-5.9,1.93-8.07c1.66-1.81,4.09-2.87,6.56-2.46c3.38,0.55,5.8,3.47,6.96,6.52
				c0.71,1.87,1.07,3.86,1.3,5.84c0.11,0.96,0.18,1.92,0.25,2.88c0.05,0.83-0.1,2.02,0.31,2.77c0.72,1.33,2.58,1.09,3.86,1.1
				c1.57,0.01,3.14,0.01,4.7,0.01c5.38,0,10.77,0.03,16.14-0.13c6.4-0.2,12.8-0.48,19.19-0.83c3.9-0.21,7.79-0.5,11.67-0.82
				c2.06-0.17,4.19-0.16,6.23-0.47c1.79-0.27,3.63-0.95,4.68-2.52c0.94-1.4,1.33-3.21,2.12-4.72c0.72-1.37,1.61-2.75,2.94-3.61
				c2.84-1.84,6.77-0.73,8.97,1.59c2.26,2.37,3.48,5.68,4.16,8.83c0.78,3.59,5.05,3.62,7.98,3.3c2.4-0.26,4.74-0.83,7.14-1.01
				c2.31-0.18,4.62-0.35,6.93-0.54c2.73-0.22,5.47-0.46,8.19-0.79c1.8-0.22,3.85-0.33,5.53-1.08c0.58-0.26,1.33-0.73,1.2-1.47
				c-0.54,0.45-1.07,0.89-1.61,1.34c4.49-0.65,9.35-0.75,13.22-3.4c-0.6,0.11-1.2,0.22-1.8,0.33c1.55,0.65,3.96-0.25,4.24-2.03
				c0.18-1.16,0-2.48-0.01-3.66c-0.01-1.34-0.02-2.67-0.04-4.01c-0.07-5.05-0.24-10.12-0.83-15.14c-0.59-5.06-1.49-10.29-3.57-14.98
				c-0.96-2.17-2.07-4.08-3.62-5.89c-1.53-1.79-3.39-2.98-5.53-3.92c-4-1.76-6.21-6.42-7.34-10.41c-1.24-4.36-1.57-8.93-2.49-13.35
				c-0.89-4.3-2.19-8.49-4.27-12.37c-0.53-1-1.11-1.97-1.73-2.9c-0.64-0.97-1.32-2.15-2.21-2.91c-0.25-0.21-0.56-0.31-0.81-0.5
				c-0.43-0.33-0.79-0.78-1.19-1.14c-0.91-0.81-1.87-1.54-2.89-2.2c-7.23-4.65-16.14-5.86-24.58-6C93.14-0.13,84.53,0.9,75.89,1.3
				c-18.21,0.84-37.93,0-54.36,9.2c-3.37,1.89-6.28,4.28-8.56,7.42c-2.12,2.92-3.54,6.28-4.49,9.74c-2,7.29-1.97,14.99-1.76,22.49
				c0.04,1.61-0.17,3.54,0.2,5.09C7.01,55,7.1,54.75,7.18,54.51c-0.44,0.42-0.7,0.89-0.73,1.5c0.97-0.18,1.94-0.35,2.92-0.53
				c-0.32-1.52-2.71-0.39-3.44,0.08c-1.11,0.73-2.2,1.65-3.14,2.6c-1.27,1.28-1.71,3.34-1.95,5.07c-0.36,2.64-0.43,5.35-0.58,8
				c-0.34,6.07-0.35,12.15-0.06,18.21c0.16,3.22,0.11,6.52,0.48,9.73C1.07,102.41,2.22,105.93,6.06,105.77
				c1.56-0.06,2.31-1.98,0.32-1.9c-2.03,0.08-2.55-3.74-2.73-5.09c-0.28-2.13-0.19-4.27-0.31-6.41c-0.29-5.17-0.49-10.32-0.37-15.5
				c0.1-4.66,0.16-9.49,0.84-14.1c0.22-1.53,0.55-3.15,1.72-4.22c0.46-0.42,0.93-0.83,1.41-1.21c0.23-0.18,0.46-0.36,0.7-0.53
				c0.07-0.05,0.26-0.14,0.32-0.21c-0.01,0-0.03,0.01-0.04,0.01c0.61-0.27,0.13-0.39-1.46-0.35c0.24,1.14,2.86,0.49,2.92-0.53
				c-0.05-0.22,0.01-0.4,0.19-0.53c0.19-0.18,0.32-0.48,0.26-0.74c-0.19-0.79-0.09-1.74-0.12-2.55c-0.03-0.9-0.06-1.79-0.08-2.69
				c-0.05-1.85-0.08-3.7-0.06-5.55c0.02-3.75,0.21-7.51,0.78-11.23c1.1-7.17,3.84-14.4,9.88-18.83C27.4,8.36,36.83,6.17,45.49,5
				c9.14-1.24,18.37-1.34,27.57-1.69c8.58-0.33,17.14-1.37,25.74-1.39c8.42-0.02,17.35,0.82,24.7,5.28
				c0.93,0.56,1.82,1.17,2.66,1.86c0.47,0.39,0.91,0.8,1.34,1.23c0.44,0.44,0.85,0.66,1.33,1.02c0.79,0.59,1.43,1.87,1.98,2.68
				c0.69,1.03,1.32,2.1,1.89,3.2c2,3.89,3.19,8.13,4.04,12.4c0.86,4.36,1.2,8.86,2.49,13.13c0.6,1.97,1.42,3.89,2.52,5.64
				c1.03,1.64,2.49,3.52,4.18,4.54c0.91,0.55,2.01,0.85,2.95,1.36c1.15,0.63,2.14,1.4,3.02,2.37c1.62,1.8,2.81,3.77,3.77,5.98
				c2,4.63,2.9,9.78,3.47,14.77c0.6,5.16,0.75,10.35,0.82,15.54c0.01,1.18,0.02,2.37,0.03,3.55c0,0.66,0.01,1.32,0.01,1.97
				c0,0.29,0.02,0.58,0.01,0.87c0.01,0.18,0,0.35-0.03,0.53c0.22-0.03,0.44-0.07,0.65-0.1c-0.03-0.27-1.18-0.12-1.32-0.08
				c-0.52,0.14-0.91,0.49-1.37,0.75c-1.05,0.6-2.22,0.95-3.4,1.2c-2.29,0.49-4.65,0.65-6.96,0.99c-0.63,0.09-1.76,0.49-1.61,1.34
				c-0.09-0.51,0.31-0.6,0.58-0.85c-0.19,0.17,0,0.01,0.01,0.01c-0.33,0.06-0.66,0.18-0.99,0.25c-0.64,0.13-1.78,0.29-2.65,0.4
				c-2.61,0.33-5.23,0.56-7.85,0.78c-2.38,0.2-4.76,0.38-7.14,0.56c-2.17,0.17-4.28,0.56-6.43,0.89c-1.49,0.23-3.11,0.47-4.6,0.13
				c-1.95-0.45-1.96-2-2.45-3.64c-0.89-2.98-2.23-6.15-4.57-8.29c-2.47-2.25-5.84-3.03-9.11-2.47c-3.35,0.58-5.83,2.68-7.46,5.6
				c-0.82,1.48-1.27,3.12-2.04,4.62c-0.88,1.71-3.07,1.48-4.72,1.55c-4.3,0.19-8.58,0.7-12.88,0.96
				c-6.27,0.38-12.54,0.64-18.82,0.87c-5.01,0.18-9.45,0.19-14.62,0.21c-3.11,0.01-6.21,0.02-9.32-0.01c-0.4,0-0.71,0.06-0.91-0.32
				c-0.18-0.34-0.09-0.91-0.12-1.28c-0.06-1.01-0.12-2.03-0.21-3.04c-0.18-1.93-0.46-3.86-1.03-5.72c-0.98-3.21-2.96-6.27-6.05-7.78
				c-2.5-1.22-5.41-1.35-8.04-0.49c-5.5,1.79-9.04,7.34-7.46,13.07c0.21,0.76,0.08,1.55,0.04,2.35c-0.03,0.55-0.1,1.51-0.76,1.59
				c-0.57,0.07-1.55,0.4-1.62,1.09C4.68,105.65,5.54,105.83,6.06,105.77z"/>
		</g>
	</g>
	<g>
		<g>
			<path class="st0" d="M133.81,53.04c0.08-0.15,0.1-0.2,0.06-0.15c0.12-0.11,0.23-0.22,0.35-0.33c0,0,0,0-0.01,0
				c0.39-0.1,0.77-0.21,1.16-0.31c0,0,0,0-0.01,0c0.16,0.04,0.31,0.08,0.47,0.11c0.15,0.08,0.18,0.32,0.19,0.16
				c0-0.07-0.04-0.16-0.06-0.23c-0.06-0.25-0.11-0.51-0.16-0.76c-0.15-0.75-0.32-1.51-0.53-2.25c-0.47-1.68-1.15-3.61-2.51-4.79
				c-0.88-0.77-2.08-1.22-3.25-0.97c0.36,0.02,0.71,0.03,1.07,0.05c-2.56-1.47-5.9,0.66-7.43,2.77c-0.84,1.15-1.12,2.59-1.47,3.94
				c-0.4,1.53-0.64,3.24,0.03,4.74c0.63,1.41,2.58,1.18,3.85,1.01c1.89-0.26,3.74-0.78,5.56-1.33c0.87-0.26,1.73-0.53,2.59-0.8
				c0.28-0.09,0.57-0.18,0.85-0.26c0.1-0.03,0.21-0.05,0.31-0.08c0.09-0.03,0.3-0.03-0.19,0.03c0.02,0,0.03,0,0.05-0.01
				C134.35,53.65,134.04,53.47,133.81,53.04c-0.12,0.98,2.2,0.58,2.3-0.26c0.12-1.04-1.84-0.42-2.35-0.26
				c-1.14,0.35-2.26,0.71-3.4,1.05c-0.69,0.2-1.37,0.4-2.07,0.57c-0.34,0.09-0.68,0.17-1.03,0.25c-0.15,0.03-0.3,0.07-0.45,0.1
				c-0.07,0.02-0.15,0.03-0.22,0.04c-0.29,0.06,0.14-0.02-0.12,0.02c-0.3,0.05-0.61,0.1-0.91,0.14c-0.12,0.01-0.25,0.03-0.38,0.04
				c-0.06,0-0.12,0.01-0.18,0.01c-0.26,0.02,0.18,0-0.05,0c-0.12,0-0.24,0-0.35-0.01c-0.07,0-0.41-0.07-0.13-0.01
				c-0.08-0.02-0.16-0.03-0.24-0.06c-0.15-0.04,0.03,0.01,0.05,0.02c-0.04-0.02-0.11-0.04-0.14-0.07c-0.06-0.06,0.07,0.12-0.04-0.05
				c-0.01-0.02-0.07-0.1-0.02-0.01c0.12,0.19-0.18-0.42-0.16-0.36c-0.23-0.59-0.34-1.22-0.32-1.85c0.02-1.16,0.37-2.28,0.67-3.39
				c0.27-1,0.52-1.94,1.2-2.75c0.59-0.71,1.45-1.37,2.33-1.68c0.24-0.09,0.4-0.08,0.64,0.02c0.19,0.08,0.35,0.21,0.55,0.26
				c0.17,0.04,0.37,0.05,0.55,0.03c0.39-0.07,0.41-0.08,0.08-0.03c-0.26,0.02-0.31,0.03-0.13,0.04c0.04,0.05,0.07,0,0.22,0.05
				c0.18,0.06,0.13,0.03,0.27,0.1c0.25,0.11,0.47,0.26,0.67,0.43c0.95,0.82,1.5,2.03,1.92,3.18c0.44,1.21,0.73,2.47,0.98,3.72
				c0.06,0.28,0.08,0.63,0.2,0.89c0.41,0.9,2.07,0.34,2.35-0.43c0.18-0.51-0.72-0.59-1.01-0.56C134.6,52.29,134,52.53,133.81,53.04z
				"/>
		</g>
	</g>
	<g>
		<g>
			<path class="st0" d="M147.1,69.81c1.51,2.65,5.02,3.41,7.66,1.98c0.93-0.5,1.55-1.35,1.63-2.42c0.08-1-0.11-1.99-0.41-2.93
				c-0.14-0.45-0.31-0.89-0.5-1.32c-0.33-0.73-0.85-1.18-1.67-1.26c0.15,0.06,0.3,0.13,0.45,0.19c-1.03-0.81-2.34-1.01-3.61-0.78
				c-1.25,0.23-2.53,0.81-3.31,1.85C146.36,66.45,146.33,68.38,147.1,69.81c0.29,0.53,1.14,0.42,1.63,0.27
				c0.34-0.1,0.7-0.23,0.97-0.47c0.13-0.11,0.41-0.38,0.3-0.58c-0.32-0.6-0.5-1.26-0.53-1.94c-0.01-0.27,0.02-0.57,0.09-0.87
				c0.04-0.17,0.09-0.34,0.15-0.5c0.07-0.17,0.12-0.29,0.16-0.35c0.09-0.15,0.2-0.28,0.3-0.42c0.03-0.04,0.14-0.13-0.01,0.01
				c0.06-0.06,0.13-0.11,0.2-0.17c0.22-0.2-0.23,0.12,0.03-0.02c0.1-0.05,0.3-0.09,0.03-0.03c0.06-0.01,0.29-0.1-0.03,0
				c0.17-0.04,0.16-0.04-0.04,0c0.08-0.01,0.16-0.02,0.23-0.03c-0.42,0.03,0.21,0.03-0.11,0c0.09,0.01,0.19,0.03,0.28,0.04
				c0.19,0.04-0.2-0.09,0.12,0.03c0.11,0.04,0.21,0.08,0.31,0.13c0.14,0.07,0.25,0.16,0.38,0.24c0.17,0.12,0.33,0.18,0.54,0.2
				c0.12,0.02,0.12,0.02,0.01-0.01c0.06,0.02,0.12,0.05,0.17,0.08c-0.1-0.07,0.12,0.14,0.11,0.13c0.03,0.04,0.05,0.07,0.08,0.11
				c0.06,0.11,0.11,0.23,0.16,0.34c0.12,0.27,0.22,0.54,0.32,0.82c0.21,0.6,0.38,1.21,0.48,1.84c0.09,0.6,0.12,1.05-0.01,1.61
				c-0.03,0.14-0.09,0.27-0.13,0.4c-0.06,0.19,0.1-0.12-0.02,0.05c-0.03,0.04-0.05,0.08-0.07,0.11c-0.04,0.06-0.09,0.11-0.13,0.16
				c0.16-0.21,0.06-0.05-0.01,0c-0.21,0.15,0.26-0.15,0.03-0.02c-0.25,0.14,0.32-0.15,0.06-0.03c-0.27,0.12,0.35-0.1,0.01-0.01
				c-0.16,0.04-0.13,0.03,0.09-0.01c-0.07,0.01-0.14,0.02-0.2,0.03c-0.27,0.04,0.04,0.01,0.06,0c-0.04,0.03-0.5-0.03-0.19,0.01
				c-0.51-0.05-0.64-0.09-1.11-0.31c-0.71-0.33-1.39-0.91-1.8-1.63c-0.3-0.53-1.13-0.42-1.63-0.27c-0.34,0.1-0.7,0.23-0.97,0.47
				C147.27,69.34,146.99,69.61,147.1,69.81z"/>
		</g>
	</g>
	<g>
		<g>
			<path class="st0" d="M121.69,75.53c2.2,1.58,5.29,0.51,7.13-1.13c0.94-0.84,1.66-1.82,1.99-3.05c0.27-1.01,0.19-2.16-0.23-3.12
				c-0.23-0.5-0.5-0.97-0.89-1.36c-0.22-0.22-0.45-0.43-0.7-0.61c-0.04-0.03-0.1-0.06-0.14-0.09c0.13,0.11,0.04,0.02,0.01-0.02
				c-0.11-0.15-0.29-0.28-0.44-0.4c-0.94-0.74-2.23-1.01-3.4-0.91c-1.23,0.11-2.48,0.59-3.42,1.4c-0.91,0.78-1.48,1.74-1.79,2.9
				C119.21,71.36,119.81,74.08,121.69,75.53c0.55,0.43,1.57,0.22,2.08-0.18c0.49-0.39,0.74-1.02,0.17-1.46
				c-0.08-0.06-0.15-0.12-0.23-0.18c0.18,0.16-0.05-0.06-0.07-0.08c-0.13-0.14-0.25-0.3-0.36-0.46c-0.06-0.08-0.11-0.17-0.16-0.25
				c-0.01-0.01-0.15-0.3-0.06-0.11c-0.09-0.18-0.16-0.37-0.23-0.57c-0.13-0.39-0.22-0.8-0.27-1.21c-0.01-0.1-0.02-0.21-0.03-0.31
				c0.01,0.16,0-0.02,0-0.04c0-0.24,0-0.48,0.02-0.73c0.03-0.4,0.1-0.8,0.22-1.19c-0.06,0.21,0.09-0.22,0.11-0.28
				c0.09-0.21,0.19-0.41,0.31-0.6c-0.14,0.23,0.04-0.05,0.06-0.08c0.06-0.08,0.13-0.16,0.2-0.23c0.04-0.04,0.29-0.27,0.04-0.05
				c0.05-0.04,0.1-0.09,0.16-0.13c0.08-0.06,0.17-0.12,0.25-0.18c0.27-0.21-0.28,0.13,0.03-0.02c0.09-0.05,0.18-0.09,0.27-0.14
				c0.06-0.03,0.12-0.05,0.19-0.08c-0.22,0.08-0.25,0.09-0.09,0.04c0.1-0.03,0.19-0.05,0.29-0.08c0.32-0.09-0.26,0.01-0.05,0.01
				c0.08,0,0.17-0.02,0.25-0.03c0.03,0,0.07,0,0.1-0.01c0.16,0,0.13-0.01-0.07-0.01c0.07-0.03,0.23,0.01,0.3,0.02
				c0.06,0.01,0.38,0.08,0.06,0c0.1,0.02,0.19,0.05,0.29,0.08c0.05,0.02,0.43,0.19,0.19,0.06c0.15,0.08,0.3,0.17,0.44,0.27
				c0.04,0.03,0.23,0.24,0.11,0.08c0.11,0.14,0.15,0.22,0.31,0.35c0.17,0.13,0.36,0.24,0.53,0.38c-0.16-0.14,0.09,0.1,0.1,0.11
				c0.07,0.08,0.14,0.16,0.2,0.24c0.3,0.39,0.36,0.52,0.51,0.96c0.06,0.2,0.11,0.41,0.15,0.61c0.01,0.07,0.02,0.14,0.03,0.21
				c0.01,0.12,0.01,0.14,0.01,0.05c0,0.07,0,0.14,0,0.21c0,0.21-0.02,0.43-0.06,0.64c-0.02,0.11-0.04,0.21-0.07,0.32
				c-0.06,0.32,0.07-0.16-0.04,0.15c-0.06,0.17-0.13,0.34-0.22,0.5c-0.05,0.09-0.11,0.18-0.16,0.28c-0.07,0.11-0.07,0.11,0.01-0.01
				c-0.04,0.06-0.08,0.11-0.12,0.16c-0.15,0.2-0.31,0.39-0.49,0.56c-0.03,0.03-0.3,0.28-0.07,0.07c-0.08,0.07-0.17,0.15-0.26,0.22
				c-0.21,0.17-0.42,0.32-0.65,0.46c0.3-0.19-0.02,0-0.07,0.03c-0.13,0.07-0.27,0.13-0.41,0.19c-0.34,0.16,0.32-0.08-0.04,0.01
				c-0.12,0.03-0.25,0.06-0.37,0.1c-0.21,0.06,0.37-0.03,0.02-0.01c-0.09,0.01-0.52,0.1-0.15,0.03c-0.09,0.02-0.22-0.02-0.31-0.03
				c-0.15-0.03-0.14-0.02,0.03,0.01c-0.07-0.02-0.13-0.04-0.2-0.06c-0.03-0.01-0.34-0.15-0.11-0.03c-0.13-0.07-0.25-0.15-0.37-0.24
				c-0.57-0.41-1.55-0.23-2.08,0.18C121.38,74.45,121.09,75.1,121.69,75.53z"/>
		</g>
	</g>
	<g>
		<g>
			<path class="st0" d="M57.35,60.04c0.43,1.43,1.96,1.56,3.22,1.21c-0.36,0.01-0.73,0.02-1.09,0.03c7,1.66,14.1,0.83,21.09-0.42
				c2.41-0.43,4.77-0.72,7.2-0.99c2.05-0.23,4.24-0.59,6.02-1.7c2.02-1.27,2.47-3.13,2.42-5.4c-0.06-2.84-0.7-5.63-1.24-8.41
				c-1.18-6.03-1.09-12.39-4.07-17.94c-1.28-2.38-3.04-4.47-5.33-5.94c-2.2-1.42-5.86-3.01-8.32-1.51c0.49-0.13,0.98-0.26,1.46-0.39
				c-6.73-1.01-13.23,2.23-17.09,7.71c-4.32,6.14-4.94,14.07-4.81,21.34c0.04,2.09,0.14,4.19,0.24,6.28
				c0.05,1.09,0.11,2.18,0.16,3.27C57.25,58.1,56.97,59.17,57.35,60.04c0.49,1.12,3.35,0.25,2.9-0.78c-0.33-0.76-0.1-2.01-0.14-2.87
				c-0.05-1.16-0.11-2.31-0.17-3.47c-0.12-2.36-0.22-4.71-0.23-7.07c-0.01-4.39,0.3-8.85,1.6-13.07c1.24-4.02,3.49-7.88,7.01-10.3
				c1.5-1.03,3.2-1.79,4.99-2.1c0.94-0.16,1.89-0.21,2.84-0.15c0.49,0.03,0.99,0.15,1.48,0.17c0.26,0.01,0.51-0.02,0.76-0.08
				c0.13-0.04,0.25-0.09,0.38-0.13c0.42-0.2,0.43-0.23,0.04-0.1c-0.56-0.2-0.05,0.1,0.1,0.15c0.22,0.07,0.47,0.1,0.69,0.15
				c0.44,0.11,0.88,0.24,1.31,0.39c0.89,0.32,1.73,0.77,2.52,1.29c1.51,1,2.76,2.34,3.77,3.83c2.5,3.68,3.33,8.15,3.88,12.48
				c0.29,2.26,0.55,4.51,0.99,6.75c0.41,2.09,0.86,4.17,1.1,6.29c0.17,1.49,0.53,3.77-0.47,5.06c-0.74,0.97-2.18,1.23-3.31,1.41
				c-1.64,0.27-3.31,0.31-4.96,0.54c-2.6,0.36-5.18,0.95-7.78,1.33c-2.85,0.42-5.74,0.72-8.63,0.66c-1.53-0.03-3.07-0.15-4.58-0.4
				c-0.74-0.12-1.48-0.35-2.22-0.45c-0.25-0.04-0.43-0.06-0.7-0.04c-0.58,0.04-0.1,0.33-0.27-0.25
				C59.91,58.12,57.01,58.91,57.35,60.04z"/>
		</g>
	</g>
	<g>
		<g>
			<path class="st0" d="M19.6,60.17c0.34,2.03,3.34,1.07,4.48,0.38c-0.68,0.18-1.37,0.37-2.05,0.55c5.92,0.52,11.84,1.27,17.79,1.16
				c3.19-0.06,9.16,0.19,10.89-3.3c0.75-1.51,0.66-3.42,0.67-5.06c0.03-2.92-0.03-5.84-0.2-8.75c-0.33-5.59-0.95-11.43-2.72-16.76
				c-1.3-3.9-5.39-9.68-10.12-6.82c0.77-0.18,1.53-0.35,2.3-0.53c-6.29-1.34-13,1.36-16.96,6.34c-4.5,5.67-5.15,13.37-4.92,20.33
				C18.9,51.87,19.35,56.02,19.6,60.17c0.03,0.46,2.94-0.02,2.9-0.78c-0.47-7.88-1.8-16.03,0.03-23.84
				c1.6-6.79,6.8-14.85,14.81-13.61c0.87,0.14,1.54,0.25,2.41-0.02c0.23-0.07,0.45-0.16,0.66-0.27c0.54-0.25-0.85,0.37-0.85,0.34
				c0,0.03,1.15,0.55,1.28,0.62c1.51,0.88,2.67,2.19,3.52,3.7c1.87,3.38,2.5,7.51,3.07,11.28c0.67,4.43,0.97,8.91,1.04,13.39
				c0.03,1.95,0.08,3.92-0.05,5.87c-0.08,1.11-0.23,2.42-1.01,3.29c-0.39,0.44-0.81,0.57-1.38,0.67c-1.19,0.19-2.42,0.23-3.62,0.27
				c-2.59,0.08-5.18-0.02-7.76-0.2c-2.58-0.17-5.16-0.43-7.73-0.67c-1.12-0.11-2.37-0.37-3.49-0.24c-0.47,0.06-1.01,0.2-1.42,0.44
				c-0.58,0.33,0.96-0.39,0.92-0.26c-0.11,0.28-0.44-0.85-0.43-0.79C22.4,58.86,19.48,59.49,19.6,60.17z"/>
		</g>
	</g>
	<g>
		<g>
			<path class="st0" d="M98.35,112.71c3.73,2.75,8.99,1.55,11.62-2.15c2.34-3.29,2.36-8.12,0.29-11.54
				c-1.1-1.82-3.89-4.44-6.14-3.05c0.33-0.06,0.67-0.11,1-0.17c-4.03-0.26-9.01,2.14-10.26,6.21
				C93.69,105.84,95.22,110.26,98.35,112.71c0.93,0.73,3.11-0.59,1.94-1.51c-2.33-1.82-3.56-5.01-3.17-7.93
				c0.18-1.32,0.71-2.57,1.73-3.45c1.16-1,2.63-1.74,4.14-2.02c0.64-0.12,1.88,0.12,2.36-0.31c0.16-0.14-0.59-0.17-0.17,0.1
				c0.13,0.09,0.31,0.15,0.45,0.23c0.33,0.19,0.64,0.42,0.93,0.66c0.99,0.84,1.69,2.02,2.09,3.24c0.83,2.49,0.76,5.61-0.71,7.86
				c-1.75,2.67-5.01,3.56-7.65,1.61C99.34,110.5,97.16,111.83,98.35,112.71z"/>
		</g>
	</g>
	<g>
		<g>
			<path class="st0" d="M16.37,113.56c4.69,1.27,9-2.47,10.06-6.83c0.51-2.12,0.4-4.4,0.09-6.55c-0.29-1.96-0.8-4.03-1.96-5.68
				c-1.17-1.68-3.04-2.63-5.09-2.14c0.44-0.03,0.88-0.05,1.32-0.08c-2.42-1.52-5.81,0.47-7.51,2.29c-1.79,1.92-2.18,4.43-2.13,6.96
				c0.05,2.52,0.47,5.1,1.36,7.47c0.67,1.79,1.76,3.87,3.7,4.5c0.52,0.17,1.16-0.01,1.66-0.19c0.09-0.03,1.16-0.55,0.79-0.67
				c-2.71-0.89-3.76-4.45-4.32-6.92c-0.67-2.95-1.16-6.72,0.1-9.58c0.4-0.92,1.01-1.74,1.76-2.4c0.32-0.29,0.67-0.54,1.04-0.77
				c0.09-0.06,0.57-0.23,0.23-0.22c0.22-0.01,0.47,0.18,0.66,0.27c0.45,0.2,0.66,0.18,1.16,0.12c0.86-0.1-0.4,0.02-0.35,0.07
				c0.08,0.07,0.39,0.06,0.51,0.09c0.69,0.18,1.31,0.59,1.82,1.09c2.27,2.22,2.76,6.12,2.86,9.13c0.07,2.16-0.19,4.25-1.22,6.18
				c-0.49,0.92-1.13,1.78-1.94,2.44c-0.85,0.69-1.41,0.75-2.46,0.46c-0.54-0.15-1.32,0.12-1.81,0.35
				C16.48,113.07,15.83,113.41,16.37,113.56z"/>
		</g>
	</g>
	<g>
		<path class="st0" d="M44.03,74.22c1.4-0.81,2.79,0.76,4.13,0.15c0.71-0.32,1.16,0.8,0.45,1.12c-0.6,0.27-1.19,0.28-1.83,0.13
			c-0.3-0.07-0.59-0.18-0.89-0.27c-0.32-0.11-0.65-0.17-0.99-0.16c-0.42,0.05-0.57,0.27-0.46,0.65c0.49,0.61-0.48,1.33-0.97,0.72
			C42.87,75.79,43.21,74.7,44.03,74.22z"/>
	</g>
	<g>
		<path class="st0" d="M59.19,73.57c0.98-0.17,1.96-0.29,2.95-0.34c0.59-0.03,1.35-0.16,1.91,0.07c0.39,0.16,0.65,0.5,0.72,0.91
			c0.08,0.5-0.37,1.12-0.13,1.57c0.37,0.69-0.76,1.13-1.12,0.45c-0.15-0.27-0.18-0.55-0.15-0.86c0.04-0.44,0.41-0.85-0.11-0.97
			c-0.56-0.12-1.33,0.04-1.9,0.1c-0.68,0.06-1.35,0.16-2.02,0.27C58.56,74.91,58.42,73.71,59.19,73.57z"/>
	</g>
	<g>
		<g>
			<path class="st0" d="M100.98,55.31c0.41,1.37,2.02,1.14,3.12,0.84c-0.44,0.04-0.87,0.07-1.31,0.11
				c7.72,1.83,15.55,0.58,23.22-0.83c2.35-0.43,4.75-0.57,7.08-1.1c1.97-0.45,4.3-1.17,5.56-2.87c1.6-2.16,0.85-5.83,0.49-8.27
				c-0.51-3.52-1.11-7.02-1.57-10.55c-0.44-3.4-1.32-6.61-2.22-9.9c-0.68-2.49-1.34-5.14-2.89-7.25c-0.77-1.05-1.74-1.9-2.94-2.44
				c-0.98-0.44-2.04-0.52-3.01-0.94c-1.68-0.72-3.77-2.2-5.67-1.64c0.44-0.04,0.87-0.07,1.31-0.11c-7.76-1.18-16.32,2.03-19.89,9.36
				c-1.58,3.25-2.13,6.94-2.37,10.51c-0.27,4.1-0.08,8.22,0.21,12.32c0.16,2.26,0.35,4.51,0.52,6.77c0.07,0.97,0.14,1.95,0.2,2.93
				C100.88,53.19,100.6,54.44,100.98,55.31c0.31,0.71,3.13-0.24,2.9-0.78c-0.33-0.75-0.1-1.93-0.15-2.77
				c-0.06-1.08-0.14-2.16-0.22-3.24c-0.17-2.26-0.37-4.51-0.52-6.77c-0.32-4.63-0.54-9.3-0.08-13.93c0.43-4.27,1.52-8.73,4.44-12.02
				c1.51-1.7,3.4-3.07,5.54-3.83c2.29-0.81,4.5-0.69,6.87-0.5c0.44,0.03,0.89,0.04,1.31-0.11c-1.11,0.4-1.43-0.01-0.58,0.3
				c0.72,0.26,1.42,0.59,2.12,0.9c0.57,0.25,1.13,0.53,1.71,0.74c0.67,0.25,1.38,0.3,2.06,0.55c3.96,1.43,5.07,6.01,6.06,9.63
				c0.69,2.51,1.46,4.98,1.88,7.56c0.44,2.71,0.67,5.46,1.12,8.17c0.43,2.59,0.97,5.18,1.13,7.81c0.11,1.82,0.29,4.18-1.33,5.43
				c-1.34,1.03-3.36,1.11-4.97,1.3c-2.53,0.3-5.02,0.81-7.53,1.23c-3.45,0.58-6.95,1.04-10.46,0.99c-1.74-0.03-3.49-0.17-5.21-0.47
				c-0.71-0.13-1.44-0.4-2.16-0.44c-0.3-0.02-0.57,0.06-0.87,0.1c-0.33,0.07-0.26,0.06,0.2-0.05c-0.22-0.14-0.35-0.35-0.38-0.6
				C103.68,53.86,100.79,54.66,100.98,55.31z"/>
		</g>
	</g>
	<g>
		<g>
			<path class="st0" d="M53.01,60.8c0.34,5.18,0.68,10.35,1.01,15.53c0.54,8.25,1.08,16.51,1.62,24.76c0.12,1.9,0.25,3.81,0.37,5.71
				c0.08,1.19,2.98,0.53,2.9-0.78c-0.34-5.18-0.68-10.35-1.01-15.53c-0.54-8.25-1.08-16.51-1.62-24.76
				c-0.12-1.9-0.25-3.81-0.37-5.71C55.83,58.84,52.93,59.5,53.01,60.8L53.01,60.8z"/>
		</g>
	</g>
	<g>
		<g>
			<g>
				<path class="st0" d="M145.1,73.78c-7.08-1.41-13.07,3.47-15.63,9.77c-1.23,3.02-1.76,6.37-1.39,9.61
					c0.29,2.54,0.85,5.05,1.4,7.54c0.28,1.25,0.57,2.5,0.86,3.74c0.13,0.55,0.38,1.18,0.4,1.75c0.56-0.43,1.12-0.86,1.68-1.29
					c0,0,0,0,0,0c0.44,0.16,0.87,0.33,1.31,0.49c-0.12-0.26-0.18-0.58-0.26-0.85c-0.42,0.41-0.85,0.81-1.27,1.22
					c-0.8,0.19,0.05,0.04,0.33,0.03c0.61-0.04,1.22-0.08,1.83-0.11c1.98-0.12,3.96-0.25,5.94-0.38c4.2-0.28,8.42-0.53,12.6-1.04
					c1.08-0.13,2.73-0.17,3.54-1.01c0.51-0.53,0.2-1.13,0.08-1.76c-0.16-0.81-0.3-1.63-0.43-2.45c-0.79-4.79-1.55-9.6-2.95-14.26
					C151.88,80.65,149.85,74.89,145.1,73.78c-0.68-0.16-1.61,0.05-2.11,0.56c-0.44,0.45-0.34,1,0.31,1.15
					c3.7,0.87,5.43,5.75,6.47,8.91c1.46,4.41,2.26,9.02,3.01,13.6c0.15,0.93,0.3,1.86,0.46,2.78c0.11,0.62,0.11,1.47,0.38,2.03
					c0.17,0.35-0.17,0.5,0.35-0.01c0.28-0.27,0.47-0.4,0.64-0.55c0.19-0.16-0.41,0.06-0.04,0c-0.57,0.1-1.15,0.17-1.73,0.24
					c-3.97,0.46-7.97,0.71-11.96,0.98c-2.06,0.14-4.12,0.27-6.18,0.4c-0.97,0.06-2.02,0.02-2.97,0.24
					c-0.46,0.11-1.45,0.58-1.27,1.22c0.08,0.28,0.13,0.59,0.26,0.85c0.24,0.5,0.81,0.52,1.31,0.49c0,0,0,0,0,0
					c0.68-0.03,1.71-0.5,1.68-1.29c-0.05-1.2-0.58-2.52-0.85-3.68c-0.52-2.28-1.03-4.56-1.43-6.86c-0.99-5.58-0.14-11.55,3.66-16
					c2.09-2.45,4.94-4,8.2-3.35c0.7,0.14,1.6-0.04,2.11-0.56C145.83,74.5,145.76,73.91,145.1,73.78z"/>
			</g>
		</g>
		<line class="st2" x1="134.96" y1="76.92" x2="136.96" y2="105.92"/>
		<line class="st2" x1="139.96" y1="74.92" x2="142.96" y2="103.92"/>
		<line class="st2" x1="143.96" y1="74.92" x2="146.96" y2="103.92"/>
		<line class="st2" x1="149.96" y1="77.92" x2="149.96" y2="103.92"/>
	</g>
</g>
</svg>
