<?xml version="1.0" encoding="utf-8"?>
<!-- Generator: Adobe Illustrator 26.2.1, SVG Export Plug-In . SVG Version: 6.00 Build 0)  -->
<svg version="1.1" id="Layer_1" xmlns="http://www.w3.org/2000/svg" xmlns:xlink="http://www.w3.org/1999/xlink" x="0px" y="0px"
	 viewBox="0 0 211.1 223.9" style="enable-background:new 0 0 211.1 223.9;" xml:space="preserve">
<style type="text/css">
	.st0{fill:#474C6B;}
</style>
<g>
	<g>
		<g>
			<g>
				<path class="st0" d="M50.7,162.8c-0.4,20.4-0.3,38.9-0.2,59.4c0,0.6,2.9,1.2,2.9,0.2c-0.1-20.5-0.2-39.9,0.2-60.4
					C53.6,161.4,50.8,161.9,50.7,162.8L50.7,162.8z"/>
			</g>
		</g>
		<g>
			<g>
				<path class="st0" d="M150.6,161.5c0.1,20.7-0.2,39.5-0.9,60.2c-0.1,1.5,2.9,1,2.9-0.2c0.7-20.7,1-39.5,0.9-60.2
					C153.5,159.8,150.6,160.2,150.6,161.5L150.6,161.5z"/>
			</g>
		</g>
		<g>
			<g>
				<path class="st0" d="M59,141.6c21.6,0.5,43.1,1.1,64.7,1c6.1-0.1,12.3-0.1,18.4-0.2c0.6,0,1.6-0.2,1.9-0.8s-0.2-0.9-0.8-0.9
					c-21.6,0.4-43.2,0.1-64.9-0.4c-6.1-0.1-12.2-0.3-18.3-0.4c-0.6,0-1.6,0.2-1.9,0.8C57.9,141.3,58.4,141.6,59,141.6L59,141.6z"/>
			</g>
		</g>
		<g>
			<g>
				<path class="st0" d="M87.1,85.3C85.6,104,85.3,123,86,141.7c0,0.5,2.9,0,2.9-0.8c-0.7-18.8-0.3-37.6,1.1-56.4
					C90.1,84.1,87.2,84.4,87.1,85.3L87.1,85.3z"/>
			</g>
		</g>
		<g>
			<g>
				<path class="st0" d="M88.8,85.6c13.8-0.3,27.7-0.8,41.6-1.1c-0.4-0.3-0.9-0.6-1.3-0.9c0.4,19,0.2,37.9-0.6,56.9
					c-0.1,1.4,2.9,0.9,2.9-0.3c0.7-19,0.9-37.9,0.6-56.9c0-0.7-0.7-0.9-1.3-0.9c-13.8,0.3-27.7,0.8-41.6,1.1
					C87.5,83.7,86.8,85.7,88.8,85.6L88.8,85.6z"/>
			</g>
		</g>
		<g>
			<g>
				<g>
					<path class="st0" d="M85.4,221.6c-0.4-5.7,0.1-11.4,1.3-17c0.6-2.5,1.2-5.3,2.6-7.5c1.4-2,3.7-3,5.9-4.1c2.4-1,5-2.2,7.7-2.3
						c2.1,0,4.2,0.7,5.9,1.8c3.8,2.5,6.3,6.5,7.5,10.8c1.8,6.2,1.2,12.8,1.6,19.2c0.1,1.4,3,0.9,2.9-0.2
						c-0.5-10.8,0.8-24.3-9.6-31.2c-4.7-3.2-10-2.6-15-0.5c-2.5,1-5.2,2-7.3,3.8c-2.2,1.7-3.2,4.1-4,6.6c-2.1,6.9-2.9,14.1-2.3,21.4
						C82.7,223.6,85.5,222.9,85.4,221.6L85.4,221.6z"/>
				</g>
			</g>
			<g>
				<g>
					<path class="st0" d="M101,191.1c0.2,6.8,0.4,13.6,0.6,20.4c0.1,3.4,0.2,6.8,0.3,10.2c0,1.2,4.2,1.1,3.4,0.1s-3.6,0.2-2.7,1.2
						c0,0,0.1-0.4,0-0.6c0.1-0.1,0.2-0.1,0.2-0.2c0.5-0.1,1-0.3,1.5-0.4c-0.1,0-0.1,0-0.2,0c0.3,0.1,0.5,0.2,0.8,0.4
						c-0.3-0.3-0.2-1.2-0.2-1.7c0-0.7,0-1.5,0-2.2c0-1.3-0.1-2.5-0.1-3.8c-0.1-2.6-0.1-5.2-0.3-7.9c-0.1-5.3-0.3-10.5-0.4-15.8
						C103.8,189.4,100.9,189.9,101,191.1L101,191.1z"/>
				</g>
			</g>
			<g>
				<g>
					<path class="st0" d="M95.8,204.9c-1.2,1.4-1.5,3.4-0.5,5c0.2,0.2,0.6,0.4,0.8,0.4c0.4,0,0.8,0,1.1-0.2c0.6-0.3,1.1-0.9,0.7-1.5
						c-0.1-0.1-0.1-0.2-0.2-0.3c0,0.1,0.1,0.2,0.1,0.2c-0.2-0.4-0.3-0.8-0.3-1.2c0,0.1,0,0.2,0,0.3c0-0.4,0-0.8,0.1-1.2
						c0,0.1-0.1,0.2-0.1,0.3c0.1-0.3,0.2-0.6,0.4-0.8c-0.1,0.1-0.1,0.2-0.2,0.3c0.1-0.1,0.2-0.3,0.3-0.4c0.2-0.2,0.3-0.5,0.2-0.8
						s-0.3-0.5-0.6-0.6C97.2,204,96.3,204.4,95.8,204.9L95.8,204.9z"/>
				</g>
			</g>
			<g>
				<g>
					<path class="st0" d="M107.8,203.7c-0.2,1.8-0.1,3.6,0.3,5.4c0.1,0.3,0.4,0.5,0.6,0.6c0.3,0.1,0.8,0.1,1.1,0
						c0.6-0.2,1.3-0.7,1.2-1.4c-0.1-0.6-0.2-1.2-0.2-1.8c0,0.1,0,0.2,0,0.3c-0.1-1.1-0.1-2.2,0.1-3.4c0.1-0.7-0.8-1.1-1.4-1
						C108.7,202.5,107.9,202.9,107.8,203.7L107.8,203.7z"/>
				</g>
			</g>
		</g>
		<g>
			<g>
				<path class="st0" d="M99.4,119c-0.3,1.2,1.1,1.8,2.1,2c1.7,0.3,3.5,0.2,5.2,0.2c3.5,0,7-0.2,10.5-0.5c0.6-0.1,1.5-0.4,1.6-1.1
					c0.1-0.7-0.8-0.8-1.3-0.8c-2.8,0.2-5.7,0.5-8.5,0.5c-1.4,0-2.8,0-4.2-0.1c-0.4,0-2.7,0.2-2.5-0.6
					C102.6,117.5,99.7,117.9,99.4,119L99.4,119z"/>
			</g>
		</g>
		<g>
			<g>
				<path class="st0" d="M102.5,118.8c-1.4-5-0.9-10.9,2.1-15.2c0.6-0.8,1.4-1.8,2.4-2c1.1-0.2,2.4,0.4,3.3,1.1
					c2.1,1.7,3.1,4.4,4,6.8c1,3.1,1.7,6.4,1.7,9.7c0,1,2.9,0.4,2.9-0.8c-0.1-3.4-0.7-6.8-1.8-10c-1-2.8-2.4-5.9-5-7.5
					c-2.6-1.6-6-1.2-8.4,0.7c-2.3,1.8-3.6,4.9-4.3,7.8c-0.9,3.4-0.7,7,0.2,10.4C99.9,120.7,102.8,119.9,102.5,118.8L102.5,118.8z"/>
			</g>
		</g>
		<g>
			<g>
				<path class="st0" d="M109.1,31.3c-11.2,13-21.4,26.8-30.3,41.4c-2.6,4.2-5,8.4-7.5,12.8c-0.3,0.5,1.1,0.3,1.2,0.3
					c18.2-3.3,36.7-0.2,55.1-1.3c5.2-0.2,10.3-0.9,15.4-2c0.1,0,2-0.5,1.7-0.9c-11-17.3-22-34.6-33-51.9c-0.5-0.7-3.2,0.4-2.9,0.8
					c11,17.3,22,34.6,33,51.9c0.6-0.3,1.1-0.6,1.7-0.9c-18.1,4-36.7,1-55,1.7c-5.2,0.1-10.3,0.7-15.5,1.5c0.4,0.1,0.8,0.2,1.2,0.3
					c8.3-14.9,17.7-29.2,28.3-42.6c3-3.8,6.1-7.6,9.2-11.2c0.4-0.5-0.4-0.5-0.7-0.5C110.5,30.6,109.5,30.8,109.1,31.3L109.1,31.3z"
					/>
			</g>
		</g>
		<g>
			<g>
				<path class="st0" d="M99.1,45.1c6.1,3.1,13.1,3.4,19.5,1c0.5-0.2,1.1-0.9,0.7-1.4c-0.4-0.6-1.4-0.4-2-0.2
					c-5.2,1.9-11.2,1.5-16-1.1c-0.6-0.3-1.5-0.2-2.1,0.2C98.8,44,98.4,44.7,99.1,45.1L99.1,45.1z"/>
			</g>
		</g>
		<g>
			<g>
				<path class="st0" d="M91.3,56.6c3,0.8,6.1,1.4,9.1,2.2c2.9,0.7,5.8,1.4,8.8,1.8c5.7,0.6,11.4-0.1,16.7-2.2
					c0.4-0.2,1.1-0.6,0.8-1.1c-0.3-0.5-1.5-0.1-1.9,0c-5,1.8-10.4,2.3-15.7,1.4c-5.4-0.8-10.8-2.4-16.1-3.8
					C92.2,54.8,89.7,56.2,91.3,56.6L91.3,56.6z"/>
			</g>
		</g>
		<g>
			<g>
				<path class="st0" d="M80.4,71.7c13.2,5.1,28.1,5.7,41.7,1.8c3.9-1.1,7.7-2.6,11.3-4.3c1.8-0.9,0.2-2.4-1.3-1.7
					c-15.5,7.6-33.9,8.4-50,2.2C80.8,69.3,78.7,71,80.4,71.7L80.4,71.7z"/>
			</g>
		</g>
		<g>
			<g>
				<path class="st0" d="M107.9,3.3c0,9.1,0.1,18.3,0.1,27.4c0,0.5,2.9,0.1,2.9-0.8c0-9.1-0.1-18.3-0.1-27.4
					C110.8,2,107.9,2.4,107.9,3.3L107.9,3.3z"/>
			</g>
		</g>
		<g>
			<g>
				<path class="st0" d="M109.1,3.4c8.1-0.4,16.1-0.7,24.1-1.2c-0.4-0.5-0.7-1-1.1-1.5c-1.3,1.4-2.6,2.8-3.9,4.2
					c-0.6,0.6-1.2,1.3-1.8,1.9c-0.6,0.6-1.4,1.2-1.8,1.9c-0.8,1.4,0.5,2.1,1.6,2.6c1.6,0.8,3.3,1.6,4.9,2.5c0.2-0.6,0.3-1.1,0.5-1.7
					c-3.4,1.7-7.3,1.7-11,1.8c-3.8,0.1-7.5,0.7-10.8,2.7c-0.6,0.3-0.7,1.1-0.2,1.5c0.6,0.5,1.5,0.2,2.1-0.2c3.1-1.9,7-1.9,10.5-2
					c3.7-0.1,7.4-0.5,10.7-2.2c0.5-0.2,1.4-1.2,0.5-1.7c-1.3-0.6-2.6-1.3-3.9-1.9c-0.6-0.3-1.3-0.5-1.8-0.9
					c-0.3-0.2-0.3,0.1-0.1-0.2c0.2-0.3,0.6-0.6,0.8-0.9c2.1-2.2,4.2-4.4,6.1-6.7c0.8-0.8-0.3-1.5-1.1-1.5
					c-8.1,0.4-16.1,0.7-24.1,1.1C107.8,1.3,107.2,3.4,109.1,3.4L109.1,3.4z"/>
			</g>
		</g>
		<g>
			<g>
				<path class="st0" d="M153.1,122c-0.7,26.1-1.1,52.2-1.1,78.2c0,7.3,0,14.6,0.1,21.9c0,1.5,2.9,1.1,2.9-0.2
					c-0.1-26.1,0-52.2,0.6-78.2c0.1-7.3,0.3-14.6,0.5-21.9C156,120.2,153.1,120.7,153.1,122L153.1,122z"/>
			</g>
		</g>
		<g>
			<g>
				<path class="st0" d="M196.4,122.6c-0.1,25.4-0.7,50.7-1,76.1c-0.1,7.9-0.2,15.5-0.2,23.4c0,0.6,2,0.9,2,0
					c0.1-26.4,1.6-53.2,2-79.6c0-6.9,0.2-13.7,0.2-20.6C199.3,121.2,196.4,121.7,196.4,122.6L196.4,122.6z"/>
			</g>
		</g>
		<g>
			<g>
				<path class="st0" d="M143.3,122.4c0-0.1,0-0.1,0-0.2c0.3-0.2,0.5-0.3,0.8-0.5c0.3-0.1,1.4,0.1,1.8,0.1c0.5,0,1,0,1.5,0
					c1.1,0,2.1,0,3.2,0.1c2.1,0,4.3,0.1,6.5,0c4.1,0.1,8.3,0,12.4,0.1c8.4,0,16.7,0,25.1,0.1c4.8,0.1,9.6,0,14.4,0.1
					c0.3,0,2.4-0.4,2-1.1c-8.1-13.9-16.8-27.4-26-40.7c-2.6-3.8-5.3-7.6-8-11.2c-0.5-0.7-2.3,0-2.7,0.6
					c-11.3,17.3-22.3,34.8-32.7,52.7c-0.6,1.1,2.2,0.7,2.7,0c10.4-17.8,21.4-35.4,32.7-52.7c-0.9,0.2-1.8,0.4-2.7,0.6
					c9.4,13,18.4,26.2,26.8,40c2.3,3.9,4.7,7.8,7,11.6c0.7-0.4,1.4-0.8,2-1.1c-10.8-0.1-21.6-0.1-32.3-0.1c-5.4,0-10.8-0.1-16.2,0
					c-2.7,0-5.5,0-8.2,0c-2.6,0-5.2-0.2-7.8,0c-1,0.1-2.1,0.3-2.9,0.9c-0.5,0.4-0.9,1.2-0.2,1.6c0.9,0.6,4.3-0.2,3.3-1.5
					C145.4,120.6,142.6,121.6,143.3,122.4L143.3,122.4z"/>
			</g>
		</g>
		<g>
			<g>
				<path class="st0" d="M177.8,69.6c-0.6-6.7-0.7-13.4-0.5-20c0.1-1.5-2.9-1.1-2.9,0.2c-0.2,6.9,0,13.7,0.6,20.6
					C175,71.7,177.9,71,177.8,69.6L177.8,69.6z"/>
			</g>
		</g>
		<g>
			<g>
				<path class="st0" d="M176.1,51.2c7.3-1.5,14.7-2.4,22.1-2.9c-0.2-0.2-0.4-0.3-0.7-0.5c-1.4,1.1-2.7,2.2-4.1,3.3
					c-0.9,0.7-2.2,1.5-2.1,2.8c0.1,1.2,1.3,2.4,2.2,3.2c1.1,1.1,2.4,2,3.7,2.8c0.2-0.2,0.4-0.5,0.5-0.7c-1.5,0.7-3.1,0.8-4.8,1
					c-1.9,0.1-3.7,0.2-5.6,0.4c-3.8,0.2-7.5,0.5-11.2,0.6c-0.5,0-1.7,0.2-1.9,0.7c-0.3,0.5,0.3,0.5,0.7,0.5
					c4.4-0.2,8.7-0.5,13.1-0.7c3.9-0.2,7.8-0.3,11.4-2c0.1-0.1,0.9-0.5,0.5-0.7c-1.1-0.7-2.2-1.4-3.2-2.2c-0.9-0.8-2.2-1.9-2.5-3.2
					c-0.3-1.4,1.2-2.2,2.1-2.9c1.2-1,2.5-2,3.8-3c0.5-0.4-0.5-0.5-0.7-0.5c-7.7,0.5-15.3,1.4-22.8,3c-0.3,0.1-1.7,0.3-1.7,0.8
					C174.9,51.5,175.8,51.3,176.1,51.2L176.1,51.2z"/>
			</g>
		</g>
		<g>
			<g>
				<path class="st0" d="M168.5,82.9c1.1-0.4,2.6,0.2,3.6,0.5c1.3,0.4,2.6,0.7,4,0.7c2.9,0.2,5.7-0.6,8.2-1.8
					c0.4-0.2,0.9-0.7,0.3-0.9c-0.6-0.3-1.5,0.1-2,0.3c-2.2,1.1-4.7,1.2-7.1,0.8c-1.2-0.3-2.5-0.7-3.7-0.9c-1.5-0.2-2.9-0.1-4.3,0.4
					c-0.3,0.1-1.2,0.6-0.8,1C166.9,83.5,168.1,83.1,168.5,82.9L168.5,82.9z"/>
			</g>
		</g>
		<g>
			<g>
				<path class="st0" d="M163.1,91.4c2.4-0.1,4.6,0.6,6.9,1c2.1,0.5,4.2,0.7,6.3,0.6c4.3-0.1,8.6-1.4,12.4-3.4
					c0.4-0.2,0.8-0.7,0.3-1c-0.5-0.3-1.6,0-2.1,0.3c-3.4,1.9-7.2,2.8-11.1,2.6c-3.9-0.2-7.6-1.8-11.6-1.7c-0.6,0-1.6,0.2-1.9,0.8
					C162.1,91.1,162.6,91.4,163.1,91.4L163.1,91.4z"/>
			</g>
		</g>
		<g>
			<g>
				<path class="st0" d="M155.1,102.7c7.4,2.4,15.3,2.6,23,1.7c6.3-0.7,14-1.4,18.3-6.6c1.1-1.3-1.6-1.4-2.4-0.6
					c-4,4.5-11.1,4.9-16.7,5.5c-7,0.7-14,0.4-20.7-1.8C155.8,100.6,153.4,102.1,155.1,102.7L155.1,102.7z"/>
			</g>
		</g>
		<g>
			<g>
				<path class="st0" d="M150.4,112.5c8.9,2.3,18.4,2.4,27.5,2.2c4.3,0,8.4-0.6,12.4-2.1c3.9-1.4,7.4-3.7,10.3-6.5
					c0.5-0.5,0.2-1.1-0.3-1.2c-0.7-0.2-1.5,0.1-2.1,0.6c-2.8,2.6-6,4.7-9.5,5.9c-3.8,1.3-7.7,1.6-11.7,1.6c-8.3,0-16.9,0.1-24.9-2.2
					c-0.7-0.2-1.6,0-2.1,0.6C149.7,111.8,149.8,112.4,150.4,112.5L150.4,112.5z"/>
			</g>
		</g>
		<g>
			<g>
				<path class="st0" d="M165.6,157.5c6.1-0.6,12.4-0.4,18.5,0.3c0.6,0.1,1.5-0.2,2.1-0.6c0.5-0.3,0.4-0.6-0.2-0.7
					c-6.3-0.8-12.8-0.9-19.1-0.3c-0.6,0-1.6,0.2-1.9,0.7C164.6,157.4,165.2,157.5,165.6,157.5L165.6,157.5z"/>
			</g>
		</g>
		<g>
			<g>
				<path class="st0" d="M167.9,156.6c-1.1-0.9-0.8-2.8-0.7-4c0.1-1.6,0.5-3.2,1-4.7c0.9-2.7,2.1-5.6,3.9-7.8c0.7-0.9,1.7-2,2.8-2.3
					c1.2-0.3,2.6,0.5,3.5,1.2c2.3,1.9,3.1,4.8,3.7,7.6c0.7,3.9,1.4,7.7,2,11.6c0.1,0.7,3,0.1,2.9-0.8c-0.7-4-1.3-8.1-2.1-12.1
					c-0.6-3.2-2-6.6-5.1-8.2c-2.8-1.4-6.2-0.5-8.6,1.3c-2.6,2-4.2,5.2-5.3,8.2c-0.8,1.9-1.3,3.9-1.5,6c-0.2,1.5-0.6,4,0.8,5.1
					C166,158.1,168.5,157,167.9,156.6L167.9,156.6z"/>
			</g>
		</g>
		<g>
			<g>
				<path class="st0" d="M167,203.5c5.2-0.1,10.4,0.1,15.6,0.6c0.5,0.1,2.4-0.2,2.4-1c0.1-3.2,0.1-6.6-0.5-9.8
					c-0.5-2.6-1.7-5.1-4.3-6.3c-2.6-1.2-5.8-0.8-8.4,0.3c-2.6,1.1-4.6,3.1-5.7,5.7c-1.5,3.3-1.6,7.1-0.4,10.6
					c0.2,0.7,3.1-0.2,2.9-0.8c-1.6-4.8-0.8-11.3,3.7-14.4c1.9-1.2,4.2-1,6,0.1c1.9,1.3,2.8,3.6,3.3,5.9c0.6,3.1,0.6,6.4,0.5,9.6
					c0.8-0.3,1.6-0.6,2.4-1c-5.2-0.5-10.4-0.7-15.6-0.6c-0.7,0-1.5,0.1-2.1,0.6C166.4,203.2,166.4,203.5,167,203.5L167,203.5z"/>
			</g>
		</g>
		<g>
			<g>
				<path class="st0" d="M63.7,122c0.8,6,1.1,12,1.3,18c0,0.8,2.9,0.3,2.9-0.8c-0.1-6-0.5-12-1.3-18C66.5,120.2,63.6,121,63.7,122
					L63.7,122z"/>
			</g>
		</g>
		<g>
			<g>
				<path class="st0" d="M13.3,122.8c0.2,18.3,0.2,36.7,0.4,55c0.1,9.1,0.1,18.3,0.2,27.4c0,4.6,0.1,14.1,0.2,18.7l3.2-0.1
					c0-4.4-0.3-14.4-0.4-18.8c-0.2-17.5-0.2-35-0.3-52.5c-0.1-9.9-0.2-19.9-0.3-29.8C16.2,121.1,13.3,121.5,13.3,122.8L13.3,122.8z"
					/>
			</g>
		</g>
		<g>
			<g>
				<path class="st0" d="M39.7,63.9c-10.3,15.3-20.5,30.7-30.9,46c-2.9,4.3-5.8,8.7-8.7,13c-0.4,0.6,0.3,1,0.8,1
					c19.8-0.7,39.6-1.5,59.5-2.2c5.7-0.3,11.3-0.4,17-0.7c0.6,0,2.5-0.5,1.9-1.5c-9.6-15.1-19.4-30.1-29-45.2
					c-2.7-4.3-5.5-8.5-8.2-12.8c-0.6-0.9-3.4,0.1-2.7,1.2c9.6,15.1,19.4,30.1,29,45.1c2.7,4.3,5.5,8.5,8.2,12.8
					c0.6-0.5,1.3-1,1.9-1.5c-19.8,0.7-39.6,1.5-59.5,2.2c-5.7,0.3-11.3,0.4-17,0.7c0.3,0.3,0.5,0.6,0.8,1
					c10.3-15.4,20.6-30.7,30.9-46.1c3-4.3,5.8-8.7,8.7-13c0.4-0.6-0.3-0.9-0.8-1C41,63,40.1,63.3,39.7,63.9L39.7,63.9z"/>
			</g>
		</g>
		<g>
			<g>
				<path class="st0" d="M42.2,62.6c-0.8-9.3-0.4-18.6,1-27.8c0.2-1.5-2.7-1.2-2.9,0.2c-1.4,9.2-1.8,18.5-1,27.8
					C39.4,64.3,42.3,63.9,42.2,62.6L42.2,62.6z"/>
			</g>
		</g>
		<g>
			<g>
				<path class="st0" d="M42.1,35.8c7.4-0.7,14.7-1.1,22.1-1.4c-0.2-0.3-0.4-0.7-0.6-1c-1.5,1.1-2.9,2.2-4.3,3.4
					c-1,0.8-2.2,1.6-2.2,3c0.1,3,4.5,3.3,4.8,6.2c0.7-0.4,1.3-0.8,2-1.2c-7.2-0.1-14.3,0.4-21.4,1.8c-0.5,0.1-1.6,0.3-1.7,1
					c-0.1,0.7,0.8,0.7,1.2,0.6c6.8-1.4,13.7-1.9,20.6-1.8c0.7,0,2.1-0.3,2-1.2c-0.1-2.7-3.4-3.1-4.4-5.2c-0.8-1.6,0.8-2.4,1.8-3.2
					c1.3-1,2.6-2,3.9-3c0.7-0.5,0-1-0.6-1C57.6,33,50,33.5,42.4,34.2c-0.5,0-1.6,0.4-1.7,1C40.8,35.8,41.7,35.8,42.1,35.8L42.1,35.8
					z"/>
			</g>
		</g>
		<g>
			<g>
				<path class="st0" d="M30.3,156.5c0.8-1.7-3.5-0.9-3,0.4c0.2,0.7,1.6,0.5,2.2,0.5c0.9,0,1.8,0,2.6,0c3.7-0.1,7.4-0.5,11-0.3
					c0.6,0,1.6-0.2,1.9-0.8c0.4-0.6-0.3-0.8-0.8-0.8c-2.4-0.1-4.9,0-7.3,0.2c-1.3,0.1-2.5,0.1-3.8,0.1c-0.6,0-1.2,0-1.8,0
					c-0.3,0-0.6,0-0.8,0c-0.1,0-0.3,0-0.4,0s-0.1,0-0.2,0c-0.5,0-0.8,0.3-0.9,1.1c-0.4,0-0.7,0.1-1.1,0.1l0,0
					c-0.1-0.1-0.3-0.1-0.5-0.2c-0.1-0.2-0.1-0.2-0.2,0c-0.3,0.6,1,0.6,1.2,0.5C29.3,157.3,30.1,157.1,30.3,156.5L30.3,156.5z"/>
			</g>
		</g>
		<g>
			<g>
				<path class="st0" d="M30.3,156.9c0-3.5,0.4-7,1.2-10.4c0.4-1.6,0.8-3.1,1.6-4.5c0.7-1.1,1.7-2.5,3.1-2.5c1.4-0.1,2.6,1,3.4,2
					c1,1.3,1.4,2.9,1.8,4.4c0.8,3.6,1.4,7.2,2.1,10.8c0.2,1.1,3.1,0.4,2.9-0.8c-0.6-3.3-1.3-6.7-1.9-10c-0.5-2.7-1.5-5.4-3.8-7.1
					c-2.3-1.7-5.5-1.2-7.8,0.4c-2.4,1.7-3.5,4.4-4.1,7.2c-1,3.6-1.3,7.3-1.3,11C27.4,158.5,30.3,158,30.3,156.9L30.3,156.9z"/>
			</g>
		</g>
		<g>
			<g>
				<path class="st0" d="M30.8,203c5.4-1,10.9-1.5,16.4-1.6c0.6,0,1.5-0.5,1.6-1.1c0.1-0.8-0.8-0.9-1.3-0.9
					c-5.5,0.1-11,0.6-16.4,1.6c-0.6,0.1-1.5,0.4-1.6,1.1C29.4,202.8,30.3,203.1,30.8,203L30.8,203z"/>
			</g>
		</g>
		<g>
			<g>
				<path class="st0" d="M32.6,200c-0.4-4.5-1-10.3,2.8-13.7c1.4-1.2,3.3-1.5,4.9-0.6c1.9,1.1,2.6,3.4,3.1,5.3
					c0.8,2.9,1.4,5.9,1.7,9c0.1,0.8,3,0.2,2.9-0.8c-0.3-3.1-0.9-6.2-1.7-9.2c-0.6-2.3-1.6-4.7-4-5.8c-2.4-1.1-5.4-0.5-7.6,0.7
					c-2.3,1.2-3.9,3.4-4.6,5.9c-1,3.2-0.6,6.7-0.3,10C29.8,201.6,32.7,201,32.6,200L32.6,200z"/>
			</g>
		</g>
		<g>
			<g>
				<path class="st0" d="M32,77.4c3,0,5.8,1.1,8.8,1.3c2.7,0.2,5.7-0.4,7.9-2.2c0.4-0.3,0.4-0.7-0.2-0.7c-0.6-0.1-1.5,0.2-2,0.6
					c-1.6,1.3-3.6,1.1-5.4,0.8c-2.6-0.5-5.1-1.2-7.8-1.1c-0.6,0-1.6,0.2-1.9,0.7C30.9,77.4,31.6,77.5,32,77.4L32,77.4z"/>
			</g>
		</g>
		<g>
			<g>
				<path class="st0" d="M25.1,88.6c2.5,1.1,5,2.2,7.6,3c2.6,0.9,5.3,1,8.1,0.5c4.9-0.7,9.6-2.7,13.5-5.6c0.5-0.4,0.7-1.1,0.1-1.6
					c-0.6-0.5-1.5-0.2-2.1,0.2c-3.5,2.5-7.6,4.3-11.8,4.8c-2.5,0.3-4.8,0.1-7.1-0.7c-2.2-0.9-4.5-1.9-6.7-2.7
					C25.5,86.1,23.4,87.9,25.1,88.6L25.1,88.6z"/>
			</g>
		</g>
		<g>
			<g>
				<path class="st0" d="M17.6,98.8c6.5,4.5,14.5,2.2,21.8,3c3.9,0.5,7.4,0.9,11.3,0c3.7-0.8,7.1-2.6,10.3-4.3
					c1.7-0.9,0.2-2.5-1.3-1.8c-3,1.6-6.1,3.2-9.4,4c-3.6,0.8-6.9,0.3-10.5-0.1c-6.6-0.6-14.3,1.5-20.1-2.6
					C18.8,96.4,16.3,97.9,17.6,98.8L17.6,98.8z"/>
			</g>
		</g>
		<g>
			<g>
				<path class="st0" d="M9.3,110.2c0.1,1.4,1.5,2,2.7,2.2c2.1,0.5,4.3,0.5,6.4,0.6c4.6,0.5,9.2,0.9,13.7,1.3
					c8.6,0.7,17.3,0.8,25.8-1.4c4.5-1.1,8.7-3,12.4-5.5c0.5-0.3,0.3-0.7-0.2-0.8c-0.7-0.2-1.5,0.2-2.1,0.6
					c-8.1,5.5-18.2,6.6-27.8,6.3c-5.2-0.2-10.4-0.7-15.5-1.2c-2.6-0.3-5.1-0.5-7.7-0.7c-1.4-0.2-4.8,0.1-4.9-2
					C12.2,108.6,9.3,109.2,9.3,110.2L9.3,110.2z"/>
			</g>
		</g>
		<g>
			<g>
				<path class="st0" d="M57.2,140.7c-2.3,7.4-4.6,14.9-6.9,22.4c-0.3,1,2.6,0.6,2.9-0.4c2.3-7.4,4.6-14.9,6.9-22.4
					C60.5,139.4,57.5,139.7,57.2,140.7L57.2,140.7z"/>
			</g>
		</g>
		<g>
			<g>
				<path class="st0" d="M51.3,164.2c26.2-0.3,52.5-0.8,78.7-1.1c7.5-0.1,15-0.2,22.5-0.3c1.6,0,2.3-1.9,0.3-1.9
					c-26.3,0.3-52.6,0.8-78.8,1.1c-7.4,0.1-14.9,0.2-22.3,0.3C50.1,162.3,49.4,164.3,51.3,164.2L51.3,164.2z"/>
			</g>
		</g>
		<g>
			<g>
				<path class="st0" d="M142.6,141.3c0.1,1,0.6,1.9,1,2.8s0.8,1.8,1.2,2.6c0.8,1.9,1.7,3.8,2.6,5.6c1.5,3.3,3,6.8,5.1,9.8
					c0.8,1.1,3.5-0.1,2.6-1.3c-2.1-2.9-3.6-6.3-5-9.6c-0.8-1.8-1.6-3.5-2.3-5.3c-0.4-0.9-0.8-1.8-1.2-2.6c-0.4-0.9-0.9-1.8-1-2.8
					C145.4,139.2,142.4,139.9,142.6,141.3L142.6,141.3z"/>
			</g>
		</g>
		<g>
			<g>
				<path class="st0" d="M121.8,190.3c5.1-0.1,10.2,0,15.3,0.6c0.5,0.1,2.6-0.2,2.6-0.9c0.1-3.2,0.1-6.6-0.5-9.8
					c-0.5-2.6-1.7-5.1-4.3-6.3c-2.6-1.2-5.8-0.7-8.3,0.3c-2.6,1.1-4.6,3.1-5.7,5.7c-1.5,3.3-1.6,7.1-0.4,10.5
					c0.2,0.6,3.1-0.3,2.9-0.8c-1.6-4.9-0.8-11.3,3.7-14.4c1.8-1.3,4.2-1,6,0.1c1.9,1.3,2.8,3.6,3.3,5.9c0.6,3.1,0.6,6.4,0.5,9.6
					c0.9-0.3,1.8-0.6,2.6-0.9c-5.3-0.6-10.6-0.7-15.8-0.6c-0.7,0-1.5,0.2-2.1,0.6C121.3,190,121.3,190.3,121.8,190.3L121.8,190.3z"
					/>
			</g>
		</g>
		<g>
			<g>
				<path class="st0" d="M65.8,188.6c5.1-0.1,10.2,0,15.3,0.6c0.5,0.1,2.6-0.2,2.6-0.9c0.1-3.2,0.1-6.5-0.5-9.6
					c-0.5-2.6-1.7-5.1-4.3-6.3c-2.6-1.2-5.8-0.7-8.4,0.4c-2.5,1.1-4.5,3.1-5.6,5.7c-1.5,3.2-1.5,6.9-0.4,10.3
					c0.2,0.6,3.1-0.3,2.9-0.8c-1.6-4.8-0.8-11.2,3.7-14.2c1.8-1.2,4.1-1,5.9,0c2.1,1.3,3,3.6,3.5,5.9c0.6,3.1,0.6,6.4,0.5,9.5
					c0.9-0.3,1.8-0.6,2.6-0.9c-5.3-0.6-10.6-0.7-15.8-0.6c-0.7,0-1.5,0.2-2,0.6C65.3,188.3,65.3,188.6,65.8,188.6L65.8,188.6z"/>
			</g>
		</g>
		<g>
			<g>
				<path class="st0" d="M15.7,223.5c56.7,0.1,179.5,0.3,181.5-0.1l0.1-1.4c-56.7,0.8-123.6-0.5-180.3-0.4c-2.5,0-2.4,0,0,0
					L15.7,223.5z"/>
			</g>
		</g>
	</g>
</g>
<rect x="15.1" y="223.5" class="st0" width="181.6" height="37.8"/>
</svg>
