<?xml version="1.0" encoding="utf-8"?>
<!-- Generator: Adobe Illustrator 26.0.3, SVG Export Plug-In . SVG Version: 6.00 Build 0)  -->
<svg version="1.1" id="Layer_1" xmlns="http://www.w3.org/2000/svg" xmlns:xlink="http://www.w3.org/1999/xlink" x="0px" y="0px"
	 viewBox="0 0 222.1 157.17" style="enable-background:new 0 0 222.1 157.17;" xml:space="preserve">
<style type="text/css">
	.st0{fill:#FFFFFF;}
</style>
<g>
	<g>
		<g>
			<path class="st0" d="M143.18,77.74c6.75-10.1,13.51-20.21,20.26-30.31c-2.16,0.43-4.32,0.86-6.47,1.29
				c7.96,13.18,15.89,26.37,23.71,39.64c7.05,11.98,14,24.02,20.84,36.12c4.54,8.02,9.03,16.05,13.51,24.1
				c0.75,1.34,2.66,1.17,3.95,0.82c0.7-0.19,3.72-1.41,3.01-2.69c-7.56-13.57-15.16-27.11-22.91-40.58
				c-7.02-12.21-14.17-24.34-21.39-36.43c-4.73-7.92-9.49-15.82-14.26-23.72c-0.52-0.87-2.52-0.62-3.23-0.48
				c-1.15,0.23-2.56,0.74-3.24,1.77c-6.75,10.1-13.51,20.21-20.26,30.31c-0.91,1.36,0.78,2.03,1.89,2.07
				C140.12,79.69,142.27,79.09,143.18,77.74L143.18,77.74z"/>
		</g>
	</g>
	<g>
		<g>
			<path class="st0" d="M186.18,88.45c-0.61-5.26-7.38-6.73-10.91-3.19c-1.08,1.09-1.58,2.58-2.42,3.84
				c-0.77,1.16-1.32,1.65-2.61,1.38c-2.79-0.59-5.17-2.82-6.85-5c-0.5-0.64-3.49,0.18-3.37,1.08c0.55,4.13,0.18,8.27-1.13,12.22
				c1.15-0.25,2.31-0.5,3.46-0.75c-2.21-5.2-3.77-10.64-4.71-16.22c-0.18-1.08-3.14,0.26-3.46,0.75c-1,1.52-2.32,3.93-4.09,4.68
				c-1.22,0.52-2.73-0.99-3.22-2.1c-0.42-0.94-3.81,0.19-3.48,0.93c1.24,2.8,4.35,3.24,7.04,2.47c3.37-0.96,5.36-3.77,7.19-6.54
				c-1.15,0.25-2.31,0.5-3.46,0.75c0.94,5.57,2.5,11.01,4.71,16.22c0.39,0.91,3.21,0,3.46-0.75c1.35-4.05,1.73-8.35,1.17-12.59
				c-1.12,0.36-2.25,0.72-3.37,1.08c3.26,4.21,9.1,7.43,14.12,4c1.14-0.78,1.9-1.85,2.56-3.05c0.38-0.69,0.72-1.42,1.2-2.06
				c0.18-0.23,0.47-0.44,0.62-0.67c0.19-0.29,0.2-0.03-0.16-0.04c2.37,0.05,3.98,2.32,4.23,4.5
				C182.79,90.19,186.3,89.48,186.18,88.45L186.18,88.45z"/>
		</g>
	</g>
	<g>
		<g>
			<path class="st0" d="M116.8,48.4c2.78,2.62,5.97,6.49,3.67,10.46c-0.05,0.08-0.72,0.91-0.73,0.89c0.35-0.09,0.7-0.18,1.06-0.27
				c-0.08-0.02-0.16-0.04-0.25-0.07c-0.12-0.1-0.36-0.16-0.5-0.24c-0.66-0.38-1.2-0.94-1.75-1.46c-1.2-1.13-2.34-1.94-4.06-1.77
				c-0.61,0.06-2.45,0.33-2.49,1.19c-0.09,2.09-0.18,4.18-0.27,6.27c1.06-0.39,2.11-0.77,3.17-1.16c-1.07-0.32-2.13-0.64-3.2-0.97
				c-0.64-0.19-3.21,0.2-3.17,1.16c0.3,6.72,0.59,13.44,0.89,20.16c1.16-0.31,2.32-0.62,3.48-0.93
				c-3.66-6.68-7.31-13.35-10.97-20.03c-0.44-0.81-2.9,0.05-3.32,0.58c-4.87,6.27-9.74,12.54-14.61,18.82
				c1.11-0.19,2.21-0.39,3.32-0.58c-1.13-2.92-0.74-6.02-1.11-9.06c-0.24-2.05-0.95-4.59-2.73-5.85c-2.06-1.46-5.07-0.47-6.99,0.75
				c-0.98,0.62-1.8,1.46-2.76,2.11c-0.45,0.31-0.58,0.42-0.79,0.37c-0.66-0.14-1.14-0.7-1.41-1.28c-1.27-2.78,0.94-9.26-4.24-8.4
				c-1.74,0.29-3.07,1.21-4.2,2.5c-0.52,0.59-0.99,1.22-1.51,1.8c-0.24,0.28-0.49,0.55-0.77,0.8c-0.94,0.84,0.5-0.55,0.75,0.03
				c0.01,0.02-0.47-0.32-0.36-0.2c-0.25-0.28-0.48-0.48-0.66-0.83c-0.26-0.51-0.37-1.1-0.45-1.67c-0.19-1.35-0.04-2.74-0.39-4.07
				c-0.25-0.95-0.76-2.14-1.68-2.64c-1.15-0.62-2.7-0.11-3.79,0.38c-0.46,0.21-1.03,0.61-0.42,0.94c0.6,0.33,1.9-0.19,2.44-0.43
				c-0.5,0.1-1,0.21-1.51,0.31c0.12,0.05,0.22,0.12,0.31,0.21c0.09,0.19,0.42,0.45,0.53,0.63c0.27,0.42,0.45,0.9,0.58,1.37
				c0.32,1.1,0.26,2.25,0.35,3.38c0.13,1.69,0.56,3.71,2.51,4.05c3.63,0.64,5.56-2.6,7.68-4.8c0.2-0.21,0.46-0.39,0.64-0.6
				c0.53-0.61-1.44-0.18-1.04,0.27c0.3,0.35,0.61,0.42,0.84,0.88c0.2,0.4,0.28,0.85,0.34,1.28c0.25,1.87-0.24,3.96,0.57,5.72
				c0.95,2.09,3.33,2.05,5.25,1.53c1.04-0.28,2.06-0.72,2.96-1.32c0.95-0.63,1.96-1.96,3.05-2.3c0.57-0.17,1.77,1.2,2.17,1.91
				c0.64,1.13,1,2.43,1.18,3.71c0.46,3.15-0.03,6.39,1.15,9.42c0.33,0.85,2.95-0.11,3.32-0.58c4.87-6.27,9.74-12.54,14.61-18.82
				c-1.11,0.19-2.21,0.39-3.32,0.58c3.66,6.68,7.31,13.35,10.97,20.03c0.43,0.78,3.52-0.04,3.48-0.93
				c-0.3-6.72-0.59-13.44-0.89-20.16c-1.06,0.39-2.11,0.77-3.17,1.16c1.07,0.32,2.13,0.64,3.2,0.97c0.7,0.21,3.12-0.19,3.17-1.16
				c0.09-2.09,0.18-4.18,0.27-6.27c-0.83,0.4-1.66,0.79-2.49,1.19c0.76-0.07,1.67,0.96,2.17,1.42c0.72,0.67,1.42,1.4,2.33,1.8
				c1.88,0.83,4.53,0.09,5.92-1.35c1.46-1.52,1.87-3.98,1.31-5.96c-0.69-2.49-2.58-4.38-4.4-6.11
				C119.39,46.56,116.22,47.86,116.8,48.4L116.8,48.4z"/>
		</g>
	</g>
	<g>
		<g>
			<path class="st0" d="M180.12,152.97c-10.18-20.2-20.59-40.28-31.23-60.24c-10.6-19.87-21.42-39.63-32.47-59.25
				c-6.18-10.97-12.43-21.91-18.76-32.8c-0.59-1.01-2.45-0.64-3.35-0.44c-1.02,0.22-3.21,0.75-3.57,1.93
				c-2.48,8-6.18,15.63-11.23,22.32c2.15-0.47,4.29-0.93,6.44-1.4c-2.4-2.23-4.31-4.83-5.82-7.74c-0.53-1.03-2.5-0.63-3.35-0.44
				c-1.19,0.26-2.97,0.74-3.57,1.93c-9.14,17.97-19.1,35.51-28.94,53.1c-10.45,18.68-20.9,37.38-30.5,56.52
				c-4.89,9.75-9.56,19.61-13.69,29.71c-0.52,1.28,2.33,1,2.85,0.91c1.19-0.19,3.51-0.73,4.04-2.04
				c7.61-18.57,16.9-36.44,26.43-54.08C43.57,82.1,54.21,63.49,64.58,44.72c5.3-9.59,10.53-19.23,15.5-29
				c-2.31,0.5-4.62,1-6.93,1.49c1.61,3.11,3.68,5.96,6.25,8.35c0.7,0.65,2.39,0.3,3.14,0.14c1.03-0.23,2.63-0.64,3.3-1.54
				C91.1,17.2,95.03,9.37,97.62,1.05c-2.31,0.5-4.62,1-6.93,1.49c11.28,19.43,22.33,38.99,33.16,58.68
				c10.87,19.77,21.52,39.67,31.93,59.69c5.86,11.27,11.65,22.58,17.37,33.92C174.12,156.73,180.82,154.36,180.12,152.97
				L180.12,152.97z"/>
		</g>
	</g>
</g>
</svg>
