<?xml version="1.0" encoding="utf-8"?>
<!-- Generator: Adobe Illustrator 26.2.1, SVG Export Plug-In . SVG Version: 6.00 Build 0)  -->
<svg version="1.1" id="Layer_1" xmlns="http://www.w3.org/2000/svg" xmlns:xlink="http://www.w3.org/1999/xlink" x="0px" y="0px"
	 viewBox="0 0 62.95 64.95" style="enable-background:new 0 0 62.95 64.95;" xml:space="preserve">
<style type="text/css">
	.st0{fill:#FFFFFF;}
</style>
<path class="st0" d="M61.59,8.86c-5.8-13.52-23.34-9.11-27.9,1.66C27.12-0.47,7.33-5.31,1.77,8.3
	c-9.26,22.63,20.62,36.44,26.68,54.67c0.53,1.58,1.95,2.14,3.24,1.96c1.02,0.03,1.97-0.48,2.32-1.68c0.08-0.19,0.13-0.4,0.15-0.62
	c1.78-10.68,13.24-17.25,19.46-25.48C59.41,29.48,65.81,18.71,61.59,8.86z M46.85,36.4c-5.15,6.11-12.25,11.11-16,18.12
	c-5.28-9-13.67-15.41-19.71-24.21C7.51,25.02,3.01,14.58,8.01,8.63c6.74-8.01,21.02,0.85,22.14,9.05c0.25,1.82,1.75,2.35,3.13,1.98
	c1.49,2.17,5.74,0.6,5.13-2.61c-0.63-3.32,2.56-6.88,5.03-8.89c4.88-4,11.45-2.07,13.28,4.09C59.2,20.61,51.91,30.41,46.85,36.4z"/>
</svg>
