<?xml version="1.0" encoding="utf-8"?>
<!-- Generator: Adobe Illustrator 26.2.1, SVG Export Plug-In . SVG Version: 6.00 Build 0)  -->
<svg version="1.1" id="Layer_1" xmlns="http://www.w3.org/2000/svg" xmlns:xlink="http://www.w3.org/1999/xlink" x="0px" y="0px"
	 viewBox="0 0 535.85 379.3" style="enable-background:new 0 0 535.85 379.3;" xml:space="preserve">
<style type="text/css">
	.st0{fill:#FFFFFF;}
</style>
<g>
	<g>
		<g>
			<path class="st0" d="M345.43,187.21c12.69-18.98,25.37-37.96,38.06-56.95c3.61-5.4,7.22-10.81,10.83-16.21
				c-5.37,0.82-10.75,1.63-16.12,2.45c10.25,16.97,20.48,33.95,30.66,50.96c8.95,14.96,17.87,29.95,26.72,44.98
				c8.42,14.3,16.79,28.64,25.08,43.02c8.65,14.99,17.23,30.03,25.75,45.09c9.63,17.03,19.2,34.09,28.72,51.18
				c1.27,2.27,2.53,4.54,3.79,6.81c1.61,2.9,6.72,1.96,9.33,1.21c1.96-0.56,4.09-1.28,5.67-2.6c0.7-0.59,2.42-2,1.8-3.11
				c-9.7-17.42-19.43-34.83-29.24-52.19c-8.6-15.24-17.26-30.45-25.99-45.61c-8.28-14.39-16.63-28.74-25.04-43.06
				c-8.74-14.88-17.55-29.72-26.4-44.53c-9.98-16.7-20.01-33.37-30.06-50.02c-1.33-2.21-2.67-4.42-4-6.63
				c-0.58-0.96-1.25-1.35-2.36-1.61c-1.52-0.35-3.17-0.33-4.69-0.07c-1.52,0.25-3.02,0.66-4.47,1.2c-1.36,0.51-3.72,1.63-4.59,2.93
				c-12.69,18.98-25.37,37.96-38.06,56.95c-3.61,5.4-7.22,10.81-10.83,16.21c-0.64,0.96-1.09,1.95-0.13,2.89
				c0.97,0.96,3.21,1.08,4.41,1.03c2.22-0.09,4.51-0.52,6.56-1.39C342.4,189.49,344.46,188.66,345.43,187.21L345.43,187.21z"/>
		</g>
	</g>
	<g>
		<g>
			<path class="st0" d="M449.3,213.46c-0.46-4.67-3.3-8.88-7.38-11.18c-4.65-2.63-10.55-2.55-15.22-0.02
				c-2.65,1.43-4.59,3.58-6.13,6.14c-1.39,2.31-2.66,5.33-4.26,7.15c-0.38,0.43-0.8,0.82-1.21,1.21c-0.75,0.7,0.58-0.32-0.27,0.2
				c-0.26,0.16-0.54,0.33-0.79,0.51c0.93-0.65-0.43,0.38-0.71,0.28c0.18-0.06,0.35-0.12,0.53-0.19c-0.19,0.06-0.38,0.12-0.58,0.17
				c-0.14,0.04-0.29,0.07-0.44,0.1c-0.33,0.07-0.19,0.04,0.4-0.08c-0.04,0.08-0.8,0.09-0.89,0.1c-1,0.12,0.87,0.07-0.14,0.01
				c-0.51-0.03-1.02-0.06-1.54-0.11c0.79,0.09-0.64-0.14-0.92-0.2c-0.74-0.18-1.48-0.41-2.19-0.68c0.14,0.05,0.45,0.2-0.15-0.07
				c-0.42-0.19-0.84-0.37-1.25-0.57c-0.63-0.31-1.25-0.65-1.85-1c-1.2-0.71-2.36-1.49-3.45-2.36c-2.48-1.97-4.67-4.31-6.59-6.83
				c-1.06-1.39-3.71-0.94-5.06-0.47c-1.4,0.49-3.26,1.57-3.02,3.31c1.35,9.81,0.39,19.87-2.79,29.26c2.81-0.53,5.61-1.05,8.42-1.58
				c-5.36-12.53-9.13-25.69-11.38-39.13c-0.24-1.43-2.65-1.6-3.7-1.47c-1.67,0.22-3.49,0.9-4.45,2.36c-1.6,2.43-3.22,4.94-5.1,7.1
				c-0.95,1.09-1.97,2.16-3.11,3.07c0.37-0.3-0.19,0.13-0.32,0.22c-0.31,0.22-0.63,0.43-0.96,0.63c-0.25,0.15-0.75,0.39-0.22,0.14
				c-0.08,0.04-0.77,0.42-0.84,0.38c0.16,0.08,0.94-0.26,0.08-0.04c-0.15,0.04-0.58,0.25-0.74,0.19c0.64-0.11,0.72-0.13,0.23-0.06
				c-0.1,0.01-0.2,0.02-0.3,0.03c-0.29,0.03-1.09-0.07-0.15,0.03c-0.25-0.03-0.51-0.02-0.76-0.04c-0.37-0.02-0.6-0.09-0.1,0.01
				c-0.3-0.06-0.59-0.12-0.88-0.2c-0.13-0.03-0.95-0.31-0.36-0.08c-2.01-0.78-3.43-2.15-4.3-4.25c-0.73-1.76-3.29-1.71-4.84-1.25
				c-1.13,0.33-4.3,1.73-3.56,3.5c2.81,6.74,10.55,8.85,17.19,6.83c7.85-2.38,12.65-9.24,16.95-15.76c-2.72,0.3-5.43,0.6-8.15,0.9
				c2.25,13.44,6.02,26.6,11.38,39.13c0.69,1.61,2.8,1.64,4.27,1.36c1.71-0.32,3.56-1.18,4.15-2.94c3.32-9.81,4.17-20.36,2.75-30.6
				c-2.69,0.95-5.39,1.89-8.08,2.84c6.48,8.49,17.75,16.42,28.91,12.75c2.94-0.97,5.68-2.58,7.75-4.91
				c2.07-2.34,3.38-5.08,4.91-7.77c0.59-1.04,1.3-2.2,2-2.93c0.16-0.17,0.34-0.33,0.51-0.5c0.63-0.64-0.64,0.38,0.11-0.09
				c0.15-0.09,0.3-0.19,0.45-0.3c0.6-0.42-0.82,0.42,0.22-0.09c0.83-0.41-1.02,0.25-0.13,0.04c0.11-0.03,0.42-0.08,0.49-0.13
				c-0.52,0.39-0.86,0.12-0.13,0.04c0.15-0.02,0.9,0.03,0.23-0.04c-0.71-0.07,0.13,0.01,0.23,0.02c0.26,0.01,0.51,0.04,0.77,0.07
				c-0.89-0.07-0.3-0.06-0.05,0.01c0.3,0.08,0.6,0.14,0.89,0.23c0.12,0.03,0.95,0.33,0.22,0.04c0.25,0.1,0.49,0.21,0.74,0.32
				c0.49,0.24,0.96,0.5,1.42,0.8c0.23,0.15,0.46,0.31,0.67,0.47c-0.39-0.3,0.41,0.37,0.49,0.44c0.41,0.39,0.8,0.8,1.16,1.23
				c1.53,1.85,2.32,3.98,2.57,6.52c0.07,0.72,1.13,1.2,1.68,1.35c0.96,0.26,2.21,0.18,3.16-0.1
				C447.34,216.49,449.49,215.43,449.3,213.46L449.3,213.46z"/>
		</g>
	</g>
	<g>
		<g>
			<path class="st0" d="M281.86,116.8c5.62,5.29,12.04,12.14,10.5,20.57c-0.31,1.69-0.87,3.35-1.74,4.84
				c-0.33,0.56-0.7,1.07-1.16,1.53c-0.13,0.13-0.26,0.26-0.4,0.38c-0.35,0.31,0.3-0.24-0.05,0.04c-0.14,0.11-0.59,0.24-0.16,0.12
				c0.43-0.12,0.84-0.37,1.28-0.49c0.39-0.11,0.76-0.16,1.16-0.22c0.44-0.07,0.33,0.17,0.11-0.03c0,0,0.67,0.16-0.05-0.03
				c-0.17-0.05-0.34-0.09-0.51-0.15c-0.55-0.19-1.14-0.55-1.67-0.91c-1.35-0.92-2.53-2.08-3.71-3.2c-1.24-1.17-2.51-2.4-4.03-3.22
				c-2.16-1.17-4.37-1.21-6.76-0.89c-1.21,0.16-4.89,1.02-4.96,2.74c-0.22,5.04-0.43,10.08-0.65,15.13
				c2.55-0.93,5.09-1.86,7.64-2.79c-2.57-0.78-5.14-1.55-7.71-2.33c-1.45-0.44-3.55,0.12-4.91,0.64c-0.86,0.33-2.78,0.98-2.73,2.15
				c0.72,16.21,1.43,32.43,2.15,48.64c2.8-0.75,5.6-1.5,8.4-2.25c-8.83-16.11-17.65-32.22-26.48-48.33
				c-0.54-0.99-2.59-0.65-3.44-0.49c-1.39,0.26-3.65,0.71-4.57,1.9c-11.75,15.14-23.51,30.27-35.26,45.41
				c2.67-0.47,5.34-0.94,8.01-1.41c-2.65-6.53-1.97-13.71-2.54-20.58c-0.44-5.25-1.97-11.55-6.25-15.06
				c-5.74-4.71-14.53-0.83-19.59,3.08c-1.27,0.98-2.48,2.02-3.74,3c-0.46,0.36-0.94,0.67-1.43,0.99c-0.88,0.59,0.55-0.23-0.41,0.24
				c-0.2,0.1-0.41,0.2-0.62,0.3c0.44-0.18,0.45-0.19,0.02-0.02c-1.07,0.39,0.92-0.22-0.17,0.05c1.47-0.36-0.71-0.03,0.58-0.12
				c-0.77,0.05,0.38,0.24-0.33-0.01c0.33,0.12-0.12-0.03-0.17-0.04c-1.22-0.27-2.27-1.12-2.93-2.17c-2.57-4.1-1.35-9.67-1.81-14.23
				c-0.21-2.1-0.78-4.24-2.42-5.69c-1.77-1.58-4.3-1.64-6.52-1.27c-4.76,0.8-8.03,3.51-11.01,7.08c-1.2,1.44-2.35,2.91-3.64,4.27
				c-0.3,0.31-0.61,0.62-0.93,0.92c-0.17,0.16-1.18,0.93-0.51,0.46c-0.25,0.17-1.4,0.85-0.32,0.27c-0.1,0.06-0.21,0.11-0.32,0.16
				c0.7-0.28,0.86-0.35,0.48-0.21c0.51-0.19,1.04-0.33,1.58-0.42c-0.71,0.13,1.15-0.07,1.12-0.07c-0.73-0.01,0.29,0.18-0.1-0.01
				c-0.15-0.07-0.35-0.1-0.51-0.16c0.44,0.17-0.38-0.24-0.48-0.31c-1.02-0.7-1.6-1.74-2.01-2.89c-1.04-2.88-1.03-6.09-1.14-9.11
				c-0.12-3.11-0.88-6.27-2.86-8.75c-2.63-3.3-7.55-2.32-10.87-0.59c-0.75,0.39-2.83,1.75-1,2.28c1.74,0.5,4.33-0.24,5.88-1.05
				c1.84-0.96-5.34-0.2-3.7,0.73c0.69,0.39-0.32-0.25,0.38,0.19c0.46,0.29,0.88,0.68,1.22,1.11c0.81,1.01,1.34,2.28,1.74,3.49
				c0.86,2.61,0.78,5.28,0.95,7.98c0.28,4.49,1.31,10.13,6.76,10.59c4.88,0.41,9.52-2.16,12.71-5.65c1.24-1.36,2.37-2.82,3.56-4.22
				c0.56-0.66,1.13-1.32,1.74-1.94c0.25-0.25,0.5-0.5,0.76-0.74c0.15-0.14,0.31-0.27,0.46-0.41c0.6-0.53-0.21,0.08,0.18-0.14
				c0.25-0.15,1.21-0.68,0.13-0.12c0.63-0.33-1,0.37-0.34,0.14c0.2-0.07-2.24,0.52-1.45,0.39c0.22-0.04-1.63,0.09-1.23,0.1
				c0.31,0.01,0.38,0.17-0.17-0.03c0.15,0.06,0.33,0.08,0.48,0.13c-0.48-0.15,0.2,0.11,0.31,0.17c1.69,1.01,2.29,2.9,2.57,4.75
				c0.68,4.54-0.48,9.49,1.3,13.85c2.76,6.79,11.46,4.95,16.73,2.59c2.98-1.34,5.35-3.42,7.89-5.43c0.44-0.35,0.88-0.68,1.33-1.01
				c0.32-0.23,0.64-0.45,0.97-0.66c-0.05,0.03,1.03-0.6,0.53-0.33c0.11-0.06,0.22-0.11,0.33-0.17c0.43-0.2,0.45-0.21,0.05-0.03
				c-0.05-0.01-0.99,0.23-0.07,0.03c-0.18,0.04-0.8,0.08-0.96,0.17c0.18-0.11,0.58,0.08,0.84,0.15c2.45,0.69,4.18,3.07,5.28,5.23
				c1.41,2.77,2.21,5.87,2.59,8.95c0.91,7.36-0.16,15.05,2.69,22.09c0.41,1.01,2.71,0.63,3.44,0.49c1.39-0.26,3.65-0.71,4.57-1.9
				c11.75-15.14,23.51-30.27,35.26-45.41c-2.67,0.47-5.34,0.94-8.01,1.41c8.83,16.11,17.65,32.22,26.48,48.33
				c0.7,1.28,3.5,0.55,4.57,0.24c1.02-0.29,3.9-1.02,3.83-2.49c-0.72-16.21-1.43-32.43-2.15-48.64c-2.55,0.93-5.09,1.86-7.64,2.79
				c2.57,0.78,5.14,1.55,7.71,2.33c1.45,0.44,3.55-0.12,4.91-0.64c0.93-0.36,2.68-0.95,2.73-2.15c0.22-5.04,0.43-10.08,0.65-15.13
				c-1.65,0.91-3.31,1.83-4.96,2.74c-0.28,0.04-0.63,0.04-0.91,0.09c0.63-0.12-0.19-0.06,0.14,0.02c0.25,0.07,0.68,0.2,0.81,0.26
				c0.74,0.33,1.42,0.83,2.06,1.33c1.37,1.08,2.58,2.34,3.87,3.51c1.32,1.19,2.69,2.24,4.36,2.9c2.34,0.93,5.02,0.67,7.4,0.03
				c4.48-1.2,7.84-4.08,9.28-8.51c1.33-4.1,0.98-8.35-0.79-12.25c-2.13-4.69-5.88-8.39-9.57-11.87c-0.44-0.41-1.67-0.33-2.15-0.3
				c-1.08,0.07-2.27,0.34-3.27,0.73C283.69,114.58,280.74,115.75,281.86,116.8L281.86,116.8z"/>
		</g>
	</g>
	<g>
		<g>
			<path class="st0" d="M434.67,369.15c-12.32-24.43-24.77-48.8-37.37-73.09c-12.51-24.12-25.15-48.17-37.93-72.14
				c-12.82-24.04-25.78-48.01-38.87-71.91c-13-23.72-26.14-47.37-39.41-70.95c-13.31-23.64-26.76-47.2-40.35-70.68
				c-1.69-2.92-3.38-5.83-5.07-8.75c-1.42-2.45-5.91-1.54-8.09-1.07c-1.79,0.39-3.65,0.92-5.26,1.8c-1.16,0.63-2.95,1.51-3.37,2.87
				c-5.98,19.29-14.91,37.74-27.11,53.87c5.18-1.13,10.36-2.25,15.55-3.38c-5.79-5.37-10.43-11.66-14.05-18.67
				c-1.29-2.49-6.03-1.51-8.09-1.07c-2.88,0.62-7.17,1.8-8.63,4.67c-10.52,20.7-21.55,41.13-32.73,61.48
				c-12.28,22.34-24.76,44.57-37.21,66.82c-12.76,22.81-25.49,45.63-37.97,68.58c-12.22,22.48-24.22,45.09-35.69,67.96
				c-10.5,20.96-20.58,42.15-29.71,63.75c-1.07,2.53-2.12,5.07-3.16,7.61c-1.26,3.07,5.62,2.43,6.88,2.21
				c2.18-0.39,4.43-0.97,6.39-2.04c1.24-0.68,2.8-1.49,3.37-2.87c8.75-21.38,18.51-42.34,28.73-63.05
				c11.24-22.78,23.07-45.28,35.14-67.63c12.42-22.99,25.11-45.82,37.85-68.63c12.52-22.41,25.1-44.78,37.51-67.25
				c11.39-20.63,22.66-41.33,33.46-62.28c1.27-2.45,2.52-4.91,3.78-7.37c-5.57,1.2-11.14,2.4-16.72,3.6
				c3.87,7.49,8.89,14.4,15.08,20.14c1.69,1.57,5.75,0.72,7.57,0.33c2.48-0.54,6.34-1.54,7.98-3.71
				c12.69-16.78,22.19-35.71,28.41-55.79c-5.57,1.2-11.14,2.4-16.72,3.6c13.62,23.46,27.1,46.99,40.44,70.6
				c13.31,23.55,26.47,47.17,39.51,70.87c13.13,23.87,26.11,47.81,38.96,71.83c12.81,23.95,25.49,47.98,38.03,72.07
				c12.63,24.27,25.11,48.61,37.46,73.02c1.54,3.04,3.07,6.08,4.61,9.12C420.19,378.24,436.36,372.5,434.67,369.15L434.67,369.15z"
				/>
		</g>
	</g>
</g>
</svg>
