<?xml version="1.0" encoding="utf-8"?>
<!-- Generator: Adobe Illustrator 26.2.1, SVG Export Plug-In . SVG Version: 6.00 Build 0)  -->
<svg version="1.1" id="Layer_1" xmlns="http://www.w3.org/2000/svg" xmlns:xlink="http://www.w3.org/1999/xlink" x="0px" y="0px"
	 viewBox="0 0 417.44 493.94" style="enable-background:new 0 0 417.44 493.94;" xml:space="preserve">
<style type="text/css">
	.st0{clip-path:url(#SVGID_00000081643852070355577750000001369111032652301441_);}
	.st1{fill:#FFFFFF;}
</style>
<g>
	<defs>
		<rect id="SVGID_1_" width="417.44" height="493.94"/>
	</defs>
	<clipPath id="SVGID_00000119106378345829373350000010249151093947795607_">
		<use xlink:href="#SVGID_1_"  style="overflow:visible;"/>
	</clipPath>
	<g id="Group_82" style="clip-path:url(#SVGID_00000119106378345829373350000010249151093947795607_);">
		<path id="Path_491" class="st1" d="M196.67,209.49c-23.62,67.94-32.86,140.05-27.13,211.76c1.62,20.24,4.45,31.99,8.46,51.89
			c0.56,2.76,11.23,0.43,10.61-2.65c-18.12-90.32-11.7-175.48,18.6-262.48C208.15,205.29,197.69,206.56,196.67,209.49"/>
		<path id="Path_492" class="st1" d="M190.98,194.08c-25.04,26.4-44.06,57.91-55.75,92.37c-13.35,38.07-19.82,77.94-22.34,117.83
			c-1.5,23.8-1.67,39.27-1.36,63.1c0.03,2.08,4.87,1.46,6.02,1.17c1.99-0.5,4.62-1.62,4.59-3.82c-0.56-41.79,0.5-75.41,7.64-116.75
			c6.15-35.64,16.39-71.48,34.14-103.72c9.68-17.67,21.65-33.99,35.59-48.54c1.42-1.48,1.31-3.05-1.01-3.53
			c-2.65-0.47-5.38,0.21-7.5,1.87"/>
		<path id="Path_493" class="st1" d="M164.24,278.28c-1.12-0.77-2.35-1.37-3.65-1.78c-1.88-0.66-3.79-1.24-5.72-1.76
			c-1.64-0.44-3.29-0.84-4.97-1.14c-1.83-0.42-3.71-0.55-5.58-0.38c-1.41,0.16-2.77,0.59-4.01,1.29c-0.7,0.42-1.87,1.3-1.98,2.19
			c-0.28,2.23,2.96,2.55,4.64,2.33c0.49-0.07,0.84,0.12-0.99,0.02c0.09,0,0.17,0,0.26,0c0.24,0.01,0.48,0.03,0.73,0.05
			c0.64,0.06-1.46-0.2-0.58-0.07l0.4,0.06c0.34,0.05,0.68,0.11,1.01,0.18c1.57,0.3,3.13,0.68,4.67,1.09
			c0.79,0.21,1.58,0.43,2.36,0.67c0.39,0.12,0.77,0.23,1.16,0.36c0.16,0.05,0.92,0.3,0.13,0.04c-0.78-0.26-0.06-0.02,0.1,0.04
			c1.01,0.29,1.98,0.71,2.89,1.25l-0.71-0.5l0.05,0.04c2.17,1.25,4.81,1.33,7.05,0.22c1.12-0.37,2.1-1.07,2.82-2
			c0.36-0.62,0.7-1.63-0.05-2.17"/>
		<path id="Path_494" class="st1" d="M146.94,339.12c-1.33-0.88-2.79-1.53-4.34-1.91c-1.85-0.51-3.75-0.86-5.66-1.03
			c-1.93-0.19-3.87-0.19-5.79,0c-1.07,0.1-2.14,0.29-3.18,0.56c-1.37,0.39-2.69,0.96-3.91,1.69c-1.53,0.72-2.19,2.55-1.47,4.09
			c0.21,0.45,0.54,0.85,0.94,1.15c1.09,0.65,2.36,0.93,3.63,0.81c1.41-0.15,2.78-0.62,3.99-1.37c-1.83,1.05-1.16,0.62-0.78,0.47
			l0.3-0.13c0.64-0.28-1.49,0.47-0.92,0.32c0.12-0.03,0.23-0.07,0.35-0.1c0.25-0.07,0.51-0.11,0.76-0.16
			c0.66-0.13-1.06,0.15-0.95,0.15c0.17,0,0.34-0.04,0.51-0.06c0.57-0.06,1.15-0.09,1.73-0.1h0.47c0.77,0-1.3-0.05-0.69-0.02
			c0.33,0.02,0.65,0.03,0.98,0.05c0.62,0.04,1.24,0.11,1.86,0.2c0.63,0.09,1.27,0.28,1.9,0.33c-0.1,0-1.34-0.33-0.6-0.13l0.44,0.11
			c0.28,0.08,0.56,0.16,0.84,0.25c0.5,0.16,0.99,0.34,1.46,0.56l-1.03-0.5c0.36,0.17,0.7,0.37,1.02,0.59
			c1.1,0.64,2.36,0.93,3.63,0.81c1.43-0.08,2.81-0.56,3.99-1.37c0.96-0.6,1.63-1.57,1.84-2.69c0.06-1.02-0.44-2-1.31-2.55"/>
		<path id="Path_495" class="st1" d="M142.99,403.32c-3.63-2.78-8.16-4.09-12.71-3.68c-4.87,0.18-9.53,2.05-13.16,5.3
			c-0.72,0.54-1.11,1.42-1,2.32c0.39,0.84,1.19,1.42,2.11,1.55c2.65,0.53,5.4-0.16,7.5-1.87c0.23-0.23,0.47-0.44,0.73-0.65
			c0.13-0.11,0.59-0.45-0.04,0.02c-0.63,0.47-0.1,0.08,0.06-0.02c0.25-0.16,0.5-0.3,0.75-0.44c0.76-0.43-0.99,0.45-0.5,0.25
			c0.13-0.06,0.28-0.12,0.4-0.18c0.13-0.06,0.34-0.13,0.51-0.2c0.67-0.28-0.74,0.23-0.75,0.24c0.33-0.07,0.64-0.18,0.97-0.26
			c0.23-0.05,0.84-0.16-0.17,0.02c-1.05,0.18-0.31,0.06-0.06,0.02c0.33-0.04,0.67-0.06,1-0.1c0.59-0.06-1.27,0-0.68,0.02h0.45
			c0.34,0,0.67,0.03,1.01,0.06c0.2,0.02,0.91,0.11,0.07,0c-0.8-0.1-0.22-0.02-0.05,0c0.33,0.06,0.66,0.13,0.98,0.22
			c0.2,0.05,1.24,0.38,0.56,0.16c-0.68-0.22,0.25,0.12,0.42,0.2c0.63,0.29,1.23,0.63,1.8,1.03l-0.72-0.52
			c0.24,0.17,0.47,0.35,0.69,0.53c2.15,1.32,4.83,1.43,7.07,0.28c1.12-0.38,2.1-1.09,2.81-2.05
			C143.43,404.89,143.71,403.91,142.99,403.32"/>
		<path id="Path_496" class="st1" d="M137.74,443.51c-7.28-0.55-14.56,1.2-20.78,5.02c-0.54,0.33-1.32,1.18-1.12,1.87
			c0.21,0.69,1.33,1.02,1.98,1.1c2.64,0.22,5.28-0.44,7.5-1.87c-1.35,0.84,0.17-0.07,0.56-0.28c0.25-0.16,0.52-0.29,0.8-0.39
			c-0.07-0.04-1.4,0.58-0.39,0.18c0.48-0.2,0.98-0.35,1.47-0.53c-2.01,0.74-0.2,0.07,0.34-0.06c0.22-0.05,0.44-0.09,0.66-0.15
			c-1.07,0.2-1.32,0.25-0.77,0.15l0.44-0.07c0.52-0.08,2.38-0.2,0.46-0.09c0.52-0.03,1.05-0.06,1.57-0.06c0.22,0,0.45,0,0.68,0
			c0.47,0.02,0.3,0.01-0.49-0.03l0.45,0.03c1.32,0.11,2.64,0,3.93-0.32c1.28-0.28,2.5-0.8,3.57-1.55c0.51-0.41,1.43-1.14,1.12-1.87
			c-0.42-0.69-1.17-1.11-1.98-1.1"/>
		<path id="Path_497" class="st1" d="M237.5,176.63c8.48-5.12,12.52-15.37,15.35-23.92c3.77-11.57,5.79-23.63,6.01-35.79
			c0.19-5.84-0.18-11.69-1.1-17.46c-1.34-6.13-3.27-12.11-5.77-17.86c-5.77-15.78-13.27-30.88-22.36-45.02
			C220.14,22.16,208.01,9,192.05,0.61c-2.57-1.35-7.85-0.43-9.16,2.29c-7.42,15.37-15.37,30.63-21.92,46.35
			c-6.09,14.65-10.41,29.87-9.42,45.71c0.46,8.5,2.81,16.79,6.89,24.27c1.46,1.84,3.96,2.5,6.14,1.61c1.36-0.34,5.58-2.23,4.47-4.26
			c-15.76-28.35-1.76-59.98,11.11-86.65c4.25-8.79,8.5-17.58,12.74-26.36l-9.16,2.28c13.08,7.24,24.28,17.46,32.68,29.83
			c9.1,12.85,16.58,26.78,22.26,41.46c2.96,6.71,5.49,13.6,7.58,20.63c1.2,4.99,1.85,10.09,1.92,15.22
			c0.24,11.79-1.21,23.55-4.29,34.93c-1.39,5.53-3.4,10.89-6,15.97c-1.11,2.16-2.43,4.2-3.94,6.09c0.53-0.65-0.42,0.45-0.56,0.61
			c-0.33,0.35-0.67,0.7-1.03,1.02c-0.28,0.25-1.58,1.2-0.47,0.44c-0.4,0.28-0.78,0.56-1.2,0.8c-1.67,1.02-2.88,3.28-0.75,4.49
			c2.49,1,5.32,0.72,7.56-0.76"/>
		<path id="Path_498" class="st1" d="M196.5,66.08c11.1,11.34,15.1,27.6,18.2,42.25c3.21,15.91,4.55,32.15,3.98,48.37
			c-0.24,9.38-0.95,18.75-1.79,28.1c-0.28,3.2,9.41,1.4,9.65-1.29c2.98-33.22,3.27-66.8-8.01-98.84
			c-2.66-8.18-7.09-15.68-12.98-21.96C203.52,60.63,194.31,63.84,196.5,66.08"/>
		<path id="Path_499" class="st1" d="M219.76,183.6c-14.1-38.24-45.61-70.36-85.53-86.37c-22.2-8.81-45.98-12.97-69.85-12.2
			c-6.05,0.19-12.08,0.7-18.07,1.5c-2.9,0.32-5.77,0.81-8.6,1.48c-2.91,0.76-6.67,2.09-7.94,4.9c-0.67,1.96-0.62,4.09,0.13,6.02
			c0.75,2.53,1.71,5.02,2.67,7.5c1.88,4.82,4.01,9.54,6.39,14.13c11.04,21.13,26.71,39.5,45.85,53.71c1.59,1.19,5.2,0.07,6.85-0.5
			c0.72-0.25,4.65-1.78,3.13-2.91c-16.31-12.11-30.1-27.28-40.61-44.66c-4.99-8.3-9.15-17.08-12.42-26.2
			c-0.91-2.1-1.53-4.31-1.84-6.57c0.02-0.92,0.21-1.83,0.56-2.69l0.28-0.33c-2.56,0.77-3.12,1.01-1.67,0.73
			c0.75-0.09,1.51-0.25,2.26-0.36c5.36-0.81,10.77-1.32,16.19-1.55c43.03-1.84,84.98,13.81,116.3,43.38
			c15.66,14.99,27.74,33.32,35.32,53.63C210.04,188.64,220.55,185.74,219.76,183.6"/>
		<path id="Path_500" class="st1" d="M210.51,198.44c-19.92-30.78-48.98-54.54-83.1-67.94c-9.94-3.95-20.21-7.04-30.68-9.24
			c-2.65-0.34-5.32,0.33-7.5,1.87c-1.78,1.32-1.19,2.51,0.84,2.94c35.2,7.54,67.27,25.64,91.92,51.87
			c6.68,7.14,12.67,14.89,17.91,23.14C201.76,204.02,211.85,200.55,210.51,198.44"/>
		<path id="Path_501" class="st1" d="M159.03,234.66c-36.72,18.47-76.85,29.21-117.89,31.54c-11.25,0.67-22.53,0.5-33.75-0.51
			l3.25,2.23c2.64-14.61,7.64-28.69,14.79-41.7c3.41-6.37,7.37-12.43,11.83-18.12c5.27-5.99,11.24-11.32,17.78-15.88
			c5.71-4.66,12.07-8.44,18.9-11.21c6.6-2.31,13.5-3.65,20.49-3.99c15.27-0.59,30.54,1.2,45.26,5.3
			c19.95,5.05,39.35,12.08,57.89,20.99c2.52,0.82,5.27,0.49,7.52-0.91c1.48-0.86,3.16-2.83,0.91-3.91
			c-17.56-8.42-35.86-15.21-54.67-20.28c-16.14-4.72-32.87-7.08-49.69-7.03c-17.17,0.42-34.25,4.43-48.14,14.14
			c-7.07,4.8-13.77,10.13-20.02,15.96c-5.69,5.72-10.62,12.15-14.68,19.13c-9.19,14.95-15.55,31.46-18.79,48.72
			c-0.33,1.75,1.92,2.11,3.25,2.23c21.54,1.75,43.22,0.86,64.54-2.66c22.29-3.46,44.18-9.11,65.35-16.86
			c11.09-4.06,21.93-8.8,32.45-14.17c1.61-0.84,2.99-2.82,0.91-3.91c-2.52-0.79-5.26-0.46-7.52,0.91"/>
		<path id="Path_502" class="st1" d="M189.38,203.9l-0.6-0.42l-0.42-1.45v0.05l1.02-1.54c0.85-0.6,1.78-1.08,2.76-1.43
			c-0.22,0.03-0.44,0.09-0.65,0.16l-1.67,0.33c-1.31,0.25,1.26-0.22-0.09,0.02l-1.83,0.32c-0.66,0.12-1.32,0.23-1.98,0.37
			c-1.52,0.26-2.99,0.77-4.35,1.52c-1.73,1.06-3.13,3.18-0.82,4.42l4.84-5.49c-38.18,1.85-75.72,10.48-110.87,25.48
			c-9.84,4.22-19.46,8.94-28.83,14.14c-1.62,0.9-2.97,3.07-0.84,4.19c2.51,0.89,5.28,0.58,7.54-0.84
			c31.35-17.32,65.57-28.85,101.01-34.05c10.16-1.49,20.39-2.48,30.67-2.97c2.18-0.1,8.84-3.35,4.84-5.49l0.6,0.42l0.42,1.45v-0.05
			l-1.02,1.54c-0.85,0.6-1.78,1.08-2.76,1.43c0.22-0.03,0.44-0.09,0.65-0.16c0.56-0.11,1.12-0.22,1.67-0.33
			c1.31-0.25-1.26,0.22,0.09-0.02l1.83-0.32c0.66-0.12,1.32-0.23,1.98-0.37c1.52-0.26,2.99-0.77,4.35-1.52
			c1.73-1.06,3.13-3.18,0.82-4.42c-2.5-0.93-5.3-0.61-7.54,0.84c-1.59,0.97-3.04,3.01-0.84,4.19"/>
		<path id="Path_503" class="st1" d="M344.93,226.77c-28.96-24.68-68.58-37.34-107.69-35.68c-11.32,0.48-22.55,2.12-33.53,4.92
			c-1.33,0.34-5.17,1.49-4.72,3.35c0.44,1.81,4.83,0.97,5.89,0.7c35.42-8.56,72.75-3.85,104.94,13.22
			c8.99,4.79,17.44,10.53,25.19,17.13C337.41,232.44,347.24,228.74,344.93,226.77"/>
		<path id="Path_504" class="st1" d="M205.91,199.59c14.84-1.66,29.54,3.25,42.36,9.85c11.41,5.88,21.82,13.53,30.86,22.65
			c31.01,30.8,41.86,76.52,27.99,117.97l9.52-3.04c-23.06-10.61-45.66-23.21-63.4-40.8c-8.66-8.38-15.79-18.21-21.08-29.03
			c-5.86-12.39-8.49-25.8-10.79-39.1c-2.62-15.13-4.92-30.48-11.27-44.73c-0.91-2.03-4.2-1.74-6.05-1.28
			c-1.34,0.33-5.44,1.93-4.55,3.92c11.46,25.77,9.57,54.71,20.59,80.58c9.72,22.81,28.47,40.59,49.73,54.52
			c12.27,7.88,25.12,14.84,38.43,20.82c2.79,1.29,8.51,0.01,9.52-3.04c9.32-28.15,7.71-58.77-4.51-85.79
			c-11.42-24.43-30.42-44.53-54.17-57.31c-15.6-8.47-33.56-13.96-51.79-11.92c-1.95,0.22-5.62,1.26-6,3.44
			c-0.39,2.23,3.07,2.45,4.63,2.28"/>
		<path id="Path_505" class="st1" d="M207.43,201.52c20.8,19.7,38.47,42.44,52.43,67.45c3.94,7.09,7.55,14.33,10.83,21.71
			c0.9,2.02,4.21,1.67,6.04,1.23c1.31-0.33,5.45-1.91,4.57-3.88c-11.79-26.4-27.54-50.84-46.71-72.49
			c-5.49-6.21-11.27-12.19-17.32-17.93C214.61,195.1,204.54,198.77,207.43,201.52"/>
		<path id="Path_506" class="st1" d="M209.46,196.32c24.7-21.49,57.37-31.46,89.85-27.43c16.47,2.14,32.31,7.74,46.46,16.44
			c13.76,8.7,25.68,20.03,35.06,33.35c10.42,14.97,19.11,31.08,25.88,48.01l8.47-4.28c-13.9-2.25-27.74-0.41-41.43,2.21
			c-12.49,2.39-24.75,5.63-37.54,5.81c-6.94,0.22-13.86-0.96-20.34-3.47c-2.5-0.93-5.3-0.64-7.55,0.78c-1.4,0.88-3.21,3.4-0.77,4.39
			c26.05,10.63,53.46-0.45,79.69-3.7c7.16-1.06,14.44-1.09,21.61-0.1c2.03,0.38,4.13,0.08,5.97-0.85c1.08-0.58,3.12-1.98,2.51-3.43
			c-13.02-30.77-29.99-61.83-59.57-81.55c-30.68-19.84-68.31-25.83-103.64-16.5c-19.71,5.13-37.96,14.76-53.32,28.15
			c-1.7,1.5-0.99,3.48,1.16,4.05c2.65,0.57,5.42-0.12,7.5-1.87"/>
		<path id="Path_507" class="st1" d="M203.83,166.54c1.37,3.81,2.89,7.57,4.14,11.41c0.73,2.16,1.33,4.35,1.81,6.58
			c0.43,1.53,0.53,3.13,0.28,4.7c-0.58,2.91,6.37,2,6.88-0.6c0.25-1.81,0.15-3.64-0.28-5.42c-0.46-2.26-1.06-4.49-1.79-6.67
			c-1.27-3.95-2.83-7.82-4.24-11.72c-0.52-1.44-2.69-1.43-3.98-1.12c-1.12,0.28-3.37,1.4-2.85,2.82"/>
	</g>
</g>
</svg>
