<?xml version="1.0" encoding="utf-8"?>
<!-- Generator: Adobe Illustrator 26.2.1, SVG Export Plug-In . SVG Version: 6.00 Build 0)  -->
<svg version="1.1" id="Layer_1" xmlns="http://www.w3.org/2000/svg" xmlns:xlink="http://www.w3.org/1999/xlink" x="0px" y="0px"
	 viewBox="0 0 172.06 175.29" style="enable-background:new 0 0 172.06 175.29;" xml:space="preserve">
<style type="text/css">
	.st0{fill:#FFFFFF;}
</style>
<path class="st0" d="M137.6,77.62c10.82-16.97,16.43-35.53,17.02-55.77c0.15-5.21-5.35-7.23-9.46-5.43
	c-15.35,6.73-31.74,17.93-48.03,9.06C84.54,18.63,72.84,9.09,60.96,1.08c-2.03-1.37-4.02-1.32-5.63-0.47
	c-2.43,0.67-4.57,2.57-4.85,5.73c-1.94,21.48-0.57,42.56,3.9,63.52c-13.06,4.3-25.82,9.37-38.12,15.57
	c-6.76,3.41-18.13,7.34-16,16.94c2,9.02,15.21,11.26,22.51,13.13c13.69,3.51,27.64,4.76,41.68,4.21
	c0.78,19.21,7.01,36.94,18.86,52.54c2.6,3.43,8.52,4.67,10.86,0c4.13-8.26,8.25-16.53,12.38-24.79c3.25-6.51,8.88-23.94,15.93-25.66
	c6.17-1.5,13.93,4.07,20.13,5.69c7.6,1.98,15.3,2.56,23.13,2.46c3.08-0.04,6.72-2.87,6.29-6.29
	C169.34,102.34,154.32,89.14,137.6,77.62z M145.95,115.35c-6.48-1.77-12.21-5.95-18.58-7.63c-4.62-1.22-8.61-1.53-12.77,0.87
	c-7.57,4.36-11.18,17.01-14.79,24.24c-3.94,7.9-7.89,15.8-11.83,23.7c-7.68-13.19-11.45-27.55-11.06-43.46
	c0.08-3.21-2.95-6.54-6.29-6.29c-8.22,0.62-16.4,0.81-24.62,0.06c-6.34-0.58-24.88-1.98-30.63-5.46c-3.66,0.72-3.77,0.35-0.33-1.1
	c1.66-0.93,3.33-1.82,5.03-2.68c4.21-2.18,8.48-4.27,12.81-6.21c9.92-4.45,20.14-8.05,30.51-11.27c3.32-1.03,5.21-4.34,4.39-7.73
	c-4.42-18.33-6.16-36.6-5.42-55.21c6.88,4.64,13.77,9.29,20.65,13.93c6.56,4.43,14.5,12.04,22.79,13.12
	c10.67,1.39,24.04-5.77,35.3-11.74c-2.01,14.79-7.27,28.38-15.84,41.13c-1.55,2.3-1.27,4.54-0.08,6.24
	c-0.39,2.27,0.31,4.73,2.74,6.36c11.78,7.9,25.25,17.14,30,30.95C153.9,116.93,149.89,116.43,145.95,115.35z"/>
</svg>
