<?xml version="1.0" encoding="utf-8"?>
<!-- Generator: Adobe Illustrator 26.2.1, SVG Export Plug-In . SVG Version: 6.00 Build 0)  -->
<svg version="1.1" id="Layer_1" xmlns="http://www.w3.org/2000/svg" xmlns:xlink="http://www.w3.org/1999/xlink" x="0px" y="0px"
	 viewBox="0 0 82.46 84.01" style="enable-background:new 0 0 82.46 84.01;" xml:space="preserve">
<style type="text/css">
	.st0{fill:#FFFFFF;}
</style>
<path class="st0" d="M65.95,37.2c5.19-8.14,7.87-17.03,8.16-26.73c0.07-2.5-2.56-3.47-4.53-2.6c-7.36,3.23-15.21,8.59-23.02,4.34
	C40.52,8.93,34.91,4.35,29.22,0.52c-0.97-0.66-1.93-0.63-2.7-0.23c-1.17,0.32-2.19,1.23-2.33,2.75c-0.93,10.3-0.27,20.39,1.87,30.44
	c-6.26,2.06-12.38,4.49-18.27,7.46c-3.24,1.63-8.69,3.52-7.67,8.12c0.96,4.32,7.29,5.4,10.79,6.29c6.56,1.68,13.25,2.28,19.98,2.02
	c0.37,9.2,3.36,17.7,9.04,25.18c1.25,1.64,4.09,2.24,5.2,0c1.98-3.96,3.96-7.92,5.93-11.88c1.56-3.12,4.26-11.48,7.63-12.3
	c2.96-0.72,6.68,1.95,9.65,2.73c3.64,0.95,7.33,1.23,11.08,1.18c1.48-0.02,3.22-1.37,3.01-3.01C81.16,49.05,73.96,42.72,65.95,37.2z
	 M69.95,55.28c-3.1-0.85-5.85-2.85-8.91-3.66c-2.21-0.58-4.12-0.73-6.12,0.42c-3.63,2.09-5.36,8.15-7.09,11.62
	c-1.89,3.79-3.78,7.57-5.67,11.36c-3.68-6.32-5.49-13.2-5.3-20.83c0.04-1.54-1.41-3.13-3.01-3.01c-3.94,0.3-7.86,0.39-11.8,0.03
	c-3.04-0.28-11.92-0.95-14.68-2.62c-1.75,0.34-1.81,0.17-0.16-0.53c0.79-0.45,1.6-0.87,2.41-1.28c2.02-1.05,4.06-2.05,6.14-2.98
	c4.75-2.13,9.65-3.86,14.62-5.4c1.59-0.49,2.5-2.08,2.1-3.71c-2.12-8.78-2.95-17.54-2.6-26.46c3.3,2.23,6.6,4.45,9.9,6.68
	c3.15,2.12,6.95,5.77,10.92,6.29c5.11,0.67,11.52-2.77,16.92-5.63c-0.96,7.09-3.48,13.6-7.59,19.71c-0.74,1.1-0.61,2.18-0.04,2.99
	c-0.19,1.09,0.15,2.27,1.31,3.05c5.64,3.78,12.1,8.22,14.38,14.83C73.76,56.04,71.84,55.8,69.95,55.28z"/>
</svg>
