<?xml version="1.0" encoding="utf-8"?>
<!-- Generator: Adobe Illustrator 26.2.1, SVG Export Plug-In . SVG Version: 6.00 Build 0)  -->
<svg version="1.1" id="Layer_1" xmlns="http://www.w3.org/2000/svg" xmlns:xlink="http://www.w3.org/1999/xlink" x="0px" y="0px"
	 viewBox="0 0 487.9 80" style="enable-background:new 0 0 487.9 80;" xml:space="preserve">
<style type="text/css">
	.st0{fill:#FFFFFF;}
</style>
<g>
	<path class="st0" d="M38.6,54.7l-0.1,0.1c-0.3,0.7-0.6,1.6-0.8,2.4L37,59.6c-0.2,0.7-0.3,1.1-0.3,1.2c-1.6,4.8-3.4,8.2-5.3,10.4
		c-2.5,2.7-6,4.4-10.6,5c-0.5,0-1-0.1-1.4-0.4c-0.4-0.3-0.6-0.7-0.7-1.2v-0.4c-3.2,0.7-6.3-0.2-9.2-2.9c-2.7-2.5-4.8-5.8-6.2-10
		C2.4,58.7,1.6,55,1,50.5C0.3,45.9,0,41.2,0,36.5C-0.1,24.6,1.6,16.4,5.1,12c1.4-1.9,3.3-2.9,5.5-3.2c0.6,0,1.4-0.1,2.6-0.1
		c1,0,1.8,0,2.4-0.1c9.3-4.1,17.1-4.5,23.2-1.2c2.7,1.4,5,3.6,6.8,6.4c0,0,0,0.1,0.1,0.1l0.6-0.5c2.2-2.2,3.6-3.5,4.1-4
		c4.7-4,9.1-4.9,13.1-2.8c2.2,1.2,4.2,4.1,5.9,8.5c0.2,0.7,0.5,1.5,0.8,2.3c1.6,3.9,2.9,8.9,3.9,15c1,6.4,1.4,12.9,1.4,19.5
		c0,0.5,0.1,0.9,0.1,1.3c0,0.3,0,0.9,0.1,1.6c0,0.7,0.1,1.3,0.1,1.6c0.1,1.5,0.1,2.8,0.1,3.9c-0.2,2.7-0.8,4.8-1.9,6.4
		c-0.9,3.1-2.1,5.1-3.8,6.1c-1.3,0.7-2.5,0.7-3.7,0.1c-0.9-0.5-1.7-1.3-2.4-2.4l-0.2-0.3c-1.9-1-3.3-2.8-4.3-5.3c-0.5-1.3-1-3-1.4-5
		l-0.5,1.6c-0.7,2.3-1.2,4.1-1.7,5.4c-0.8,2.1-1.6,3.5-2.5,4.2c-0.6,0.6-1.1,1-1.7,1.3c-0.4,0.2-0.8,0.4-1.3,0.6
		c-1.1,0.3-2.1,0.1-3-0.5c-0.4-0.2-0.7-0.4-1-0.6c-1.5-1.1-2.9-3.2-4.2-6.1C40.4,62.5,39.4,58.8,38.6,54.7z M3.7,32.5
		c4.6,0.3,8,0.1,10.1-0.6c0-0.2-0.1-1.3-0.3-3.3c-0.2-2-0.4-3.5-0.6-4.5l-0.1-0.8c-2.5,0-5.2-0.2-8.3-0.4
		C4.1,25.7,3.8,28.9,3.7,32.5L3.7,32.5z M14.3,35.6c-2.5,0.7-6,0.8-10.6,0.5v0.3c0,2.1,0.1,4.2,0.2,6.3c3.7,0.3,7.4,0.3,10.9,0
		c-0.1-1.9-0.2-3.7-0.3-5.5L14.3,35.6z M6.9,54.4c2.2,0.5,5,0.6,8.2,0.3c0-0.6,0-1.4,0-2.6c0-1.1,0-2,0-2.6c0-1.2,0-2.3-0.1-3.2
		c-3.5,0.3-7.1,0.3-10.8,0.1c0.3,3,0.7,5.8,1.3,8.3C5.8,54.4,6.3,54.3,6.9,54.4z M12.2,13.2c-0.2-0.2-0.4-0.4-0.6-0.6
		c0,0-0.1-0.1-0.1-0.2c-0.2,0-0.3,0.1-0.5,0.1c-1.3,0.1-2.3,0.7-3.2,1.8c-0.9,1.2-1.7,2.9-2.4,5.1c2.6,0.2,4.9,0.3,7.1,0.3
		C12.3,17.3,12.2,15.2,12.2,13.2z M10.5,64c0.7,0.4,1.1,0.7,1.5,1l0.1,0.1h0.1l0.6,0.1c0.7,0.1,1.4,0.2,2.1,0.3
		c0.4,0.1,0.7,0.3,1,0.6c-0.3-1.2-0.5-2.5-0.6-4c0-1.1-0.1-2.4-0.1-3.7c-3.5,0.2-6.4,0.1-9-0.3l-0.1-0.1c0.2,0.9,0.5,1.7,0.7,2.4
		c0.4,1.3,1,2.5,1.7,3.8C9.1,63.6,9.8,63.6,10.5,64z M16.3,67.7c-0.1,0.5-0.4,0.9-0.8,1.2s-0.9,0.4-1.4,0.3c-0.7-0.1-1.3-0.3-2-0.3
		l-0.3-0.1l0.1,0.1c2,1.8,3.9,2.4,5.9,2c-0.1-0.2-0.2-0.3-0.3-0.5C17,69.5,16.6,68.7,16.3,67.7z M16.5,12.1l-0.8,0.3
		c0,2.2,0.2,4.6,0.4,7.3c0.9,0.2,1.4,0.8,1.4,1.7c0,0.7-0.3,1.3-1,1.7l0.1,0.5c0.1,0.8,0.3,2.8,0.7,6c0.4,2.9,0.6,5.4,0.8,7.3
		c0.3,3.4,0.5,7.5,0.6,12.5c0,0.6,0,1.5,0,2.9c0,1.4,0,2.4,0,3.1c0.1,0.2,0.2,0.5,0.2,0.7c0,0.3,0,0.6-0.1,0.9
		c0,1.7,0.1,3.3,0.1,4.8c0.1,2.7,0.7,4.8,1.7,6.3c1,1.6,2.5,2.1,4.5,1.5c1.7-0.5,3.1-1.9,4.1-4.3c0.9-1.8,1.7-4.5,2.4-8.1
		c1-4.7,1.6-7.4,1.8-8.2c1.1-3.2,2.8-4.7,5-4.5c2.5,0.2,4.4,2.1,5.7,5.5c0.7,1.9,1.5,4.9,2.2,9.1c0.7,4.3,1.3,7,1.7,8
		c0.2,0.7,0.5,1.3,0.7,1.7h0.2c0.1,0,0.2,0,0.3-0.1c0.1-0.1,0.2-0.2,0.3-0.3c0.3-0.6,0.6-1.4,0.9-2.4c0.4-1.4,0.8-4,1.2-7.7
		c0.4-3.7,0.8-6.2,1.3-7.5c0.4-1.3,0.9-2.2,1.5-2.7c1.1-0.9,2.3-1,3.6-0.3c0.7,0.4,1.4,1.2,2,2.4c0.4,0.8,0.9,1.9,1.3,3.3l1.3,4.2
		l1.2,3.9c0.7,2.3,1.4,4.1,2,5.3c1.3,0.2,2.6-0.4,4.1-1.9l0.1-0.1c0.1-0.3,0.2-0.7,0.3-1c0.4-2,0.7-4.5,0.9-7.6
		c0.1-1.3,0.1-2.8,0.1-4.4c-0.4-7.8-1.3-15.4-2.6-22.7c-0.7-4.2-1.6-7.7-2.4-10.7c-1.2-2.8-2.5-4.8-4-6.1s-2.8-1.8-4.1-1.5
		c-1.1,0.2-2.4,1-3.7,2.4c-0.7,0.7-1.8,2.1-3.5,4.3c-0.7,0.9-1.2,1.6-1.6,2c-0.7,0.7-1.4,1.2-2,1.4c-0.6,0.2-1.3,0.2-2.1-0.1
		c-0.5-0.2-1-0.5-1.5-0.8c-0.8-0.5-2-1.4-3.4-2.5c-3.4-2.8-5.2-4.2-5.3-4.2c-1-0.6-2-1-3.1-1.4s-2-0.6-2.7-0.8
		c-0.7-0.2-1.8-0.2-3.2-0.2c-1.4,0-2.4,0.1-2.9,0.1c-0.5,0-1.7,0.2-3.5,0.4C18.1,11.9,16.9,12.1,16.5,12.1z M37.8,48.7l0.1-0.1
		c0.1-0.1,0.2-0.2,0.3-0.2C38.2,48.3,38,48.4,37.8,48.7z"/>
	<path class="st0" d="M96.3,6.6c0-0.4,0.1-0.8,0.4-1.2C96.9,5.3,97,5.2,97.2,5s0.5-0.3,0.8-0.4c0.6-0.2,1.1-0.4,1.6-0.5
		c0.8-0.1,1.7-0.2,2.8-0.2c1.4-0.5,2.5-0.7,3.1-0.8c6.5-1.3,11.5-1.5,15-0.5c3.5,1,6.5,2.8,9.1,5.4c2.6,2.6,4.7,5.6,6.2,8.8
		c1.4,3.2,2.5,6.8,3.3,10.8c1.1,5.7,1.4,11.5,0.8,17.2c-0.7,5.8-2.1,10.7-4.2,14.7c-2,3.7-4,6.4-5.9,7.9c-2.4,2-5.2,3.2-8.5,3.8
		c-2.8,0.6-5.2,0.3-7.2-0.6c-0.3,0.1-0.7,0.2-1,0.2c-4.1,0.6-7.9,0-11.4-1.7c-3.5-1.8-6.6-4.3-9.4-7.7c-2.5-3.1-4.5-6.5-6-10.2
		c-1.6-3.8-2.6-7.5-3-11.1c-0.9-8.5,0.5-16.6,4.4-24.1C90,11.5,92.9,8.4,96.3,6.6z M100.3,9c-3.7,0.9-6.9,3.8-9.4,8.6
		c-3.5,6.9-4.9,14.3-4,22c0.4,3.2,1.3,6.6,2.7,10c1.4,3.5,3.3,6.6,5.5,9.3c4.9,6,10.4,8.8,16.4,8.3c0.1-0.3,0.3-0.6,0.5-0.8
		c0.3-0.4,0.7-0.6,1.3-0.6c0.5,0,0.9,0.2,1.3,0.5c1.4-0.7,2.7-1.8,4.1-3.6c2.2-2.8,3.8-6.3,4.7-10.4c0.9-4.2,1.1-8.6,0.6-13.4
		c-0.4-4.6-1.3-9-2.7-13.4c-1.4-4.3-3.1-8-5.1-11.1c-1.4-2.1-2.8-3.6-4.3-4.7s-3.4-1.8-5.6-2.1c-0.9-0.1-2-0.2-3.2-0.2l-0.4,0.1
		c-0.4,0.1-0.7,0.3-1,0.3C101.3,8.5,100.9,8.9,100.3,9z M105.9,25.9c0.3,3,0.5,7.3,0.6,12.9c0.1,5.8,0.3,10.1,0.6,12.7
		c0,0.5-0.1,1-0.4,1.4c-0.3,0.4-0.7,0.6-1.2,0.7c-0.4,0-0.8,0-1.1-0.3c-0.1,0.1-0.3,0.2-0.5,0.3c-0.5,0.1-0.9,0.1-1.4-0.1
		c-0.4-0.2-0.8-0.6-0.9-1c-1.1-3.5-2.1-8.1-2.9-13.9c-0.4-3.3-0.6-6.1-0.6-8.3c0.1-3,0.7-5,1.8-6.2c0.5-0.5,1.2-0.7,2-0.8h0.4h0.1
		l0.1-0.1c0.5,0,0.9,0,1.3,0.3c0.4,0.2,0.7,0.6,0.8,1C105.4,24.7,105.8,25.2,105.9,25.9z M114.8,7.5c0.3-0.6,0.8-0.9,1.5-0.9
		c1,0,2.3-0.1,3.9-0.3c-0.2-0.1-0.4-0.2-0.6-0.2c-1.9-0.6-4.4-0.7-7.6-0.3C113,6.2,113.9,6.8,114.8,7.5z M119,12.2
		c3.5,0,6.9,0.4,10.4,1c-1.1-1.4-2.3-2.7-3.6-3.8c-0.1,0-0.3,0.1-0.3,0.1c-0.2,0-1.7,0.1-4.5,0.4c-1.4,0.1-2.6,0.2-3.6,0.3
		C118,10.8,118.5,11.4,119,12.2z M123,63.2c-0.5,0.7-1,1.4-1.5,2c-0.8,1.1-1.7,2-2.6,2.7c0.6,0,1.1-0.1,1.7-0.2
		c2.4-0.4,4.6-1.4,6.5-2.8C126.4,64.6,125,64,123,63.2z M123.7,21.4c2.4-0.2,5.9,0.3,10.5,1.3c-0.8-2.5-1.8-4.8-3-6.9
		c-0.4,0.8-1,1.2-2,1c-2.7-0.5-5.4-0.8-8-1C122.1,17.6,122.9,19.5,123.7,21.4z M124.7,60c2.4,1,4.2,1.7,5.3,2c0.7-1,1.5-2.3,2.4-4.1
		c0.2-0.4,0.4-0.8,0.6-1.2c-1-0.6-3.2-1.3-6.4-2.2C126.2,56.5,125.5,58.3,124.7,60z M126.6,31.5c4.3,0.3,7.5,0.7,9.7,1.3
		c-0.2-1.5-0.4-3-0.7-4.4c-0.1-0.7-0.2-1.3-0.3-2c-0.4,0.1-0.7,0.2-1.1,0.1c-4.3-1-7.4-1.5-9.2-1.5
		C125.6,27.1,126.1,29.3,126.6,31.5z M127.9,41.1c2.7,0.6,5.5,1.4,8.5,2.2c0.2-2.2,0.2-4.5,0.1-6.7c0,0-0.1-0.1-0.1-0.1
		c-2.1-0.6-5.1-1-9.1-1.3c0.2,1.2,0.3,2.3,0.4,3.5C127.8,39.5,127.8,40.3,127.9,41.1z M127.4,50.9c3.5,1,5.8,1.8,7,2.4
		c0.7-1.9,1.2-4,1.5-6.3c-2.8-0.8-5.5-1.5-8-2.2C127.8,46.9,127.7,49,127.4,50.9z"/>
	<path class="st0" d="M165.3,74.4c-0.3,0.1-0.6,0.2-0.8,0.2c-2.7,0-5.1-0.5-7.2-1.5s-3.8-2.1-5-3.3c-1.2-1.2-2.4-3-3.4-5.4
		c-1-2.3-1.8-4.2-2.2-5.6c-0.4-1.4-1-3.4-1.7-6.2c-0.1-0.4-0.2-0.7-0.2-0.9c-0.1-0.3-0.3-1.1-0.6-2.4c-0.3-1.3-0.5-2.2-0.6-2.6
		c-0.1-0.4-0.3-1.2-0.6-2.4c-0.3-1.2-0.5-2-0.6-2.6c-0.1-0.6-0.3-1.4-0.5-2.4c-0.2-1.1-0.3-2-0.4-2.7c-0.1-0.7-0.1-1.5-0.2-2.5
		s-0.1-1.8-0.1-2.7c0-3.9,0.4-7.4,1.3-10.5c1.4-5,3.7-7.9,7.1-8.7c0.4-0.1,0.7-0.2,0.9-0.2c2.4-0.9,4.2-1.5,5.2-1.8
		c2.3-0.7,4.2-0.8,5.7-0.4c2.4,0.6,4.3,2.6,5.7,6.1c1.7-2.8,4.2-5.2,7.3-7c3.1-1.8,6.3-2.9,9.7-3.2c4.1-0.4,7.5,0.4,10.3,2.4
		c3.2,2.3,5,5.8,5.4,10.4c0.1,1,0,1.9-0.4,2.7c0,0.6,0,1.1-0.3,1.5c-0.4,0.6-1,1-1.9,1.3l-0.7,0.1c-0.9,0.5-2.7,1.2-5.2,2
		c-2.5,0.8-4.4,1.6-5.7,2.4c-1.3,0.8-2.2,2-2.6,3.5c-0.9,3.4-1.6,7.7-2,12.8c0,1.9-0.1,4.7-0.1,8.2s0,5.9-0.1,7
		c-0.2,4.1-0.6,6.9-1,8.4c-1.2,3.8-3.5,6-6.9,6.5c-1.3,0.2-2.7,0-4.2-0.4C167.4,74.7,166.3,74.6,165.3,74.4z M145,36.2
		c2.2-2.5,4.6-4.8,7-7c0.1-0.1,0.2-0.2,0.3-0.2c0-0.5-0.1-0.9-0.1-1.3c-0.2-2.8-0.4-4.8-0.6-6.1c-2.3,2.6-4.3,4.7-6.1,6.2
		c-0.2,0.1-0.4,0.3-0.6,0.3c-0.1,1.1-0.1,2.2-0.1,3.3C144.7,33,144.8,34.6,145,36.2z M148.3,48.5c-0.7-0.7-0.9-1.5-0.3-2.3
		c1.5-2.6,3-4.6,4.4-6c0.3-0.4,0.7-0.6,1.2-0.6c-0.3-2.1-0.5-4.2-0.8-6.2c-1.9,1.8-3.7,3.7-5.5,5.7c-0.5,0.6-1.1,0.7-1.8,0.6
		c0.4,2.1,1.1,5.3,2.2,9.5c0,0,0-0.1,0.1-0.1L148.3,48.5z M145.6,22.7c1.1-1.1,2.5-2.7,4.4-4.8c0.3-0.3,0.6-0.5,0.9-0.6
		c0-0.2-0.1-0.5-0.1-0.7c-0.1-0.3-0.2-0.5-0.2-0.8l-0.8,0.3c-0.2,0.1-0.4,0.1-0.6,0.1c-1.5,0.9-2.6,2.8-3.4,5.7
		C145.8,22.2,145.7,22.4,145.6,22.7z M150.8,59.9c1.4-1.8,2.8-3.8,4.3-6.2c0.2-0.2,0.4-0.4,0.6-0.6l-0.8-4.5l-0.4-2.5l-3.8,5
		c-0.3,0.4-0.6,0.6-1.1,0.7c-0.4,0.1-0.9,0-1.3-0.1C149.3,55.4,150.1,58.1,150.8,59.9z M156.1,68.3c0,0,0.1-0.1,0.1-0.2l2.3-3.1
		c-0.3-1.1-0.7-2.5-1.2-4.2c-0.2-0.9-0.4-1.9-0.6-2.9l-4.3,5.8C153.5,65.7,154.7,67.2,156.1,68.3z M195.2,20.8c0-0.1,0-0.2-0.1-0.3
		c-0.5-2.7-1-4.8-1.7-6.4c-0.7-1.5-1.8-2.6-3.5-3.3c-2.7-1.1-5.8-0.9-9.4,0.4c-3.5,1.3-6.2,3.2-7.9,5.7c-1.7,2.6-2.7,5.1-2.8,7.6V25
		v0.8v1v1.5c0,0.2,0,0.4-0.1,0.6V29c0,0.2-0.1,0.3-0.1,0.5c-0.1,0.3-0.3,0.5-0.6,0.7c-0.7,0.5-1.3,0.5-2,0.1c-0.4-0.2-0.7-0.5-0.8-1
		l-0.1-0.4c0-0.2-0.1-0.5-0.1-0.8c0-0.4-0.1-1.1-0.2-2c-0.2-2.1-0.3-3.4-0.4-3.8c-0.8-3.1-1.6-5.3-2.3-6.6c-0.8-1.3-1.6-2-2.4-2.2
		c-0.9-0.2-2.2-0.1-3.9,0.3c-0.7,0.2-1.5,0.4-2.4,0.8c0.1,0.3,0.2,0.7,0.3,1.3c0.2,1.2,0.5,2.6,0.7,4.3c0.2,1.6,0.4,4.1,0.7,7.3
		c0.5,6.1,1.4,13,2.7,20.7c0.7,4.5,1.5,8.4,2.4,11.8c0.4,1.6,0.7,2.8,0.9,3.6c0.7,0.5,0.9,1.2,0.7,2c0.3,0.7,0.5,1.3,0.8,1.7
		c0.7,1.2,2.1,2.3,4,3.2c0.6,0.3,1.1,0.5,1.7,0.7c2.7-0.3,4.5-1.4,5.6-3.4c0.5-0.8,0.8-1.9,1.1-3c0.3-1.2,0.5-2.2,0.5-3.1
		c0.1-0.9,0.1-2.1,0.2-3.8c0.1-1.7,0.1-2.9,0.2-3.6c0-0.5,0.1-1.8,0.3-4.1c0.1-2.3,0.3-4,0.3-5.2c0-0.8,0.1-1.6,0.1-2.4
		c0.1-4,0.4-7.3,0.9-9.9c0.5-3.4,1.4-5.8,2.5-7.2c1.9-2.5,5.3-3.9,10.1-4.3c0.6,0,1.4-0.1,2.4-0.1c1,0,1.6-0.1,1.9-0.1L195.2,20.8
		L195.2,20.8z M159.3,70.1c0.7,0.3,1.4,0.5,2.2,0.6c-0.6-0.6-1-1.1-1.3-1.7l-0.1-0.1L159.3,70.1z"/>
	<path class="st0" d="M213.7,3.1c0.3,0,4.1,0.3,11.2,0.7c6.8,0.4,12.1,0.9,16,1.5c6.3,1,11.1,2.4,14.4,4.3c4.6,2.5,6.6,5.9,6.1,10
		c0,0.5-0.1,0.9-0.3,1.4c-0.1,0.5-0.3,1-0.6,1.5c-0.2,0.5-0.4,1-0.6,1.3c-0.2,0.4-0.5,0.9-0.9,1.5c-0.4,0.6-0.7,1-0.9,1.3
		c-0.2,0.3-0.5,0.7-1,1.4c-0.5,0.7-0.9,1.1-1,1.3s-0.5,0.6-1.1,1.3c-0.6,0.7-0.9,1.1-0.9,1.2c-1.9,2.3-3.2,4-3.9,5.2
		c-0.9,1.5-1.2,2.7-1,3.6c0.1,0.4,1,1.1,2.5,2c1.2,0.7,3.3,1.7,6.4,3.2c3.9,1.8,6.4,3,7.3,3.5c2.7,1.5,4.5,2.9,5.7,4.3
		c2.2,2.9,3,6,2.4,9.2c0.2,1.6,0,3.2-0.8,4.5c-1,1.9-3,3.3-5.8,4.2c-0.7,0.2-1.6,0.4-2.4,0.6c-0.2,0.1-0.4,0.2-0.6,0.2
		c-2.8,0.8-6,1.5-9.6,1.9c-3.6,0.4-6.5,0.6-8.6,0.7c-2.2,0-5.6,0-10.3,0c-4.7-0.1-7.6-0.1-8.7-0.1h-0.1c-0.2,0.9-0.8,1.3-1.7,1.3
		c-0.7,0-2.5,0.1-5.6,0.3c-2.5,0.2-4.5,0.2-6,0.1c-2-0.2-4-0.7-5.8-1.5c-1.9-0.8-3.3-2.1-4.2-3.9c-0.6-1.1-0.8-2.9-0.6-5.5
		c0.1-1.9,0.5-4.2,1-7c1-4.9,2-8.9,3.2-12c0.2-0.6,0.5-1.3,1-2.3l0.2-0.4c-0.2-0.3-0.3-0.7-0.3-1.1c0.1-0.8,0.6-1.4,1.4-1.5
		c0.3-0.7,0.4-1.3,0.5-1.8c-0.6-0.4-0.8-1-0.8-1.6c0-0.1,0-0.3,0.1-0.4l-2.4-2.2c-2.9-2.6-4.6-4.5-5.2-5.7c-0.4-0.8-0.7-1.7-0.9-2.7
		c-0.2-0.9-0.3-1.7-0.3-2.2v-2.5c0.1-4.2,1.2-7.9,3.2-10.8c2-3,4.9-5.1,8.6-6.5V4.8c0-0.5,0.3-0.9,0.7-1.2
		C212.7,3.2,213.2,3.1,213.7,3.1z M212.6,36.2c0.3,0,1.1,0.1,2.3,0.1c1.2,0,2,0.1,2.4,0.1c0.4,0,1.2,0,2.2,0.1c1,0,1.8,0,2.4,0
		c0.6,0,1.3,0,2.1,0c0.8,0,1.6-0.1,2.3-0.1c0.7-0.1,1.4-0.1,2.1-0.2l0.9-1.5l3-4.3l1.3-2.1c-0.7,0-1.4,0.1-2.3,0.3
		c-0.8,0.1-1.8,0.3-3,0.5c0.1,0.3,0.1,0.5,0.1,0.8c0,0.5-0.3,0.9-0.7,1.3c-0.4,0.3-0.8,0.5-1.3,0.4c-4.1-0.4-9.9-0.7-17.5-0.8
		c-0.5,0-0.9-0.2-1.2-0.6c-0.3-0.4-0.5-0.8-0.5-1.3s0.2-0.9,0.6-1.3c0.4-0.3,0.8-0.5,1.3-0.5c1.4,0,2.6,0.1,3.6,0.1
		c-1.1-1-1.8-2.2-2.2-3.8c0-0.1,0-0.2-0.1-0.3c-0.8-0.1-1.8-0.3-2.9-0.6c-1.8-0.4-3.1-0.6-3.9-0.7c-0.1,0-0.2-0.1-0.3-0.1v0.6
		c0,1.5,0,2.6,0.1,3.4s0.3,1.6,0.8,2.4c0.5,0.9,1.9,2.4,4.4,4.5c1.4,1.1,2.3,1.9,2.7,2.4C212,35.5,212.3,35.9,212.6,36.2z M204.4,18
		c0.3,0,1.6,0.3,4.1,0.8c0.9,0.2,1.6,0.3,2.1,0.3c0.1-1,0.3-2.1,0.7-3.4c-2-0.4-3.8-1-5.6-1.7c-0.7,1.2-1.2,2.4-1.6,3.9H204.4z
		 M206.2,67.8c0,0.8,0.1,1.3,0.3,1.6c1.1,2,3.5,3.1,7.1,3.4c1.4,0.1,3.2,0.1,5.5-0.1l1.5-0.1c-2.2-0.8-3.9-2-4.8-3.6
		C210.8,68.5,207.6,68,206.2,67.8z M207,60c-0.3,1.5-0.5,2.9-0.6,4.1c1.7,0.3,4.5,0.7,8.3,1.1c0-1.2,0.2-2.6,0.6-4.3
		c-0.8-0.1-2.1-0.3-3.6-0.5C209.5,60.3,208,60.1,207,60z M208.8,52.3c-0.4,1.4-0.7,2.7-1,4.1c1,0.1,2.4,0.3,4.3,0.6
		c1.9,0.3,3.4,0.4,4.3,0.5c0.6-1.4,1.3-2.9,2.1-4.6C214.7,52.8,211.4,52.7,208.8,52.3z M210.1,9.6c-0.7,0.5-1.4,1-2.1,1.5
		c1.4,0.5,2.9,0.9,4.5,1.3c0.2-0.6,0.5-1.1,0.8-1.7c-0.3,0-0.6-0.1-0.7-0.1c-0.1,0-0.9-0.3-2.2-0.8C210.3,9.7,210.2,9.7,210.1,9.6z
		 M209.9,48.7c2.4,0.3,5.6,0.5,9.8,0.5c0.2,0,0.5,0,0.7,0.1l2.2-3.9c-4.4,0-8.1-0.2-11.2-0.4l-0.4,0.9c-0.5,1.1-0.8,1.7-0.9,2
		C210.1,48.2,210,48.4,209.9,48.7z M213.2,39.9c0,0.5-0.2,1-0.3,1.6c3,0.2,6.9,0.3,11.8,0.3h0.2l1.1-1.7
		C223.3,40.2,219.1,40.2,213.2,39.9z M269.8,62.7c-0.2-0.6-0.5-1.3-0.9-2c-1.9-3.1-6.5-5.8-13.7-8.2l-4-1.3c-1.8-0.5-3-0.9-3.8-1.2
		c-1.3-0.4-2.3-0.8-3-1.2c-1-0.6-1.7-1.2-2.2-2c-1.2-2.1-1-4.7,0.3-7.6c1-2.1,2.7-4.5,5-7.3c0.6-0.7,1.5-1.8,2.9-3.4l3-3.6
		c1.9-2.3,3-4.1,3.4-5.3c0.5-1.7-0.2-3.2-1.9-4.5c-1.4-1.1-3.6-2-6.4-2.9c-1.9-0.6-3.8-1-5.8-1.4c-1.9-0.3-4.1-0.6-6.6-0.7
		c-2.5-0.1-4.4-0.2-5.7-0.2s-3.6,0-6.8,0c-3.2,0-5.2,0.1-6.1,0.1c-2.9,5.4-4.1,9.5-3.4,12.2c0.3,1.4,1.2,2.3,2.6,2.9
		c1.9,0.8,4.6,1,8.1,0.6c0.1,0,0.3,0,0.8-0.1l1.4-0.3c1.5-0.3,2.8-0.6,3.8-0.7c1.6-0.2,2.9-0.3,3.9-0.3c0.7,0,1.3,0.2,1.8,0.4
		c0.9,0.4,1.4,1.1,1.5,2c0,0.3,0,0.7-0.1,1c0,0.1-0.1,0.3-0.2,0.6c-0.1,0.3-0.3,0.6-0.6,1c-0.4,0.7-0.9,1.6-1.7,2.7l-2.9,4.3
		c-4.2,6.3-7.3,11.5-9.4,15.4c-2,3.6-3.3,6.6-4.1,9c-0.7,2.1-0.9,3.7-0.8,4.8c0.5,0.1,0.8,0.3,1.1,0.7c0.3,0.4,0.4,0.8,0.3,1.3
		c0,0.1,0,0.2-0.1,0.3c1.1,0.9,2.7,1.5,4.8,1.9c5,0.7,10.9,0.9,17.8,0.7s12.9-0.7,18-1.4c1.5-0.2,2.6-0.3,3.4-0.5
		c2.8-1,4.8-2.7,5.9-5.1L269.8,62.7z M246.4,43c-0.3-0.5-0.6-1-0.7-1.5c0,0,0-0.1-0.1-0.1c-0.1,0.4-0.3,0.7-0.3,1
		c0.1,0,0.2,0,0.3,0.1L246.4,43z M257.8,49.5L257.8,49.5l1.4,0.6L257.8,49.5z"/>
	<path class="st0" d="M281.5,16c0.4-3.5,1.9-6.5,4.7-8.9c2.8-2.4,6.1-4.2,10.1-5.4C300,0.6,303.8,0,307.6,0c3.8,0,7.1,0.6,9.8,1.7
		c3.9,1.6,6.7,4.1,8.5,7.3c1.9,3.3,2.7,7.1,2.5,11.3c-0.1,2.5-0.5,5.1-1.3,7.8c1.4-0.7,2.9-1.3,4.4-1.7c1.5-0.4,3.2-0.7,4.9-0.7
		c1.7,0,3.3,0.3,4.7,0.9c0.8,0.4,1.6,0.8,2.3,1.2l0.3-0.1c0.5-0.1,0.9-0.1,1.4,0.1c0.4,0.2,0.8,0.6,0.9,1c0.1,0.3,0.1,0.6,0,0.9
		c0.3,0.3,0.5,0.6,0.7,0.8c1,1.4,1.7,3.2,2.1,5.3s0.4,4.2,0.2,6.3c-0.2,2.1-0.7,4.2-1.3,6.6c-0.8,3-2,5.9-3.4,8.5v0.3
		c-0.1,0.6-0.4,1-0.9,1.3c-1.4,2.6-2.9,4.5-4.5,5.9c-1.6,1.4-3.9,2.7-6.8,3.9c-0.3,0.1-1.3,0.5-3,1.1c-1.7,0.6-2.9,1.1-3.7,1.5
		c-0.5,0.2-0.9,0.2-1.4,0c-0.5-0.2-0.8-0.5-1-0.9c0,0,0-0.1-0.1-0.2c-0.5,0.1-1,0.3-1.6,0.3c-4.7,0.7-9.4,0.4-14-1
		c-4.6-1.4-8.7-3.5-12.2-6.4c-3.6-2.9-6.6-6.3-9.2-10.3c-2.6-4-4.4-8.2-5.3-12.7c-0.9-4.3-1-9.1-0.1-14.3c0.5-2.9,1.4-5.6,2.6-8
		c-0.5-0.1-0.9-0.3-1.2-0.7C281.6,16.9,281.4,16.5,281.5,16z M301.8,40.7l3.6-0.8c0.8-0.2,1.8-0.5,2.9-0.9c1.1-0.4,2.1-0.9,2.9-1.4
		c1.2-0.8,2.2-1.9,3.1-3.1c-0.1-0.1-0.2-0.2-0.3-0.3c-0.3-0.5-0.4-0.9-0.2-1.4s0.4-0.8,0.8-1.1l1.5-0.8c1.2-4.1,0.7-8.3-1.3-12.7
		c-1.7-3.6-4.2-6.3-7.3-8c-3.2-1.7-6.6-1.9-10.3-0.6c-4,1.4-7.1,4-9.4,7.7c-1.9,2.9-3.1,6.1-3.6,9.4c-0.8,4.8-0.8,9.1,0,12.9
		c0.9,4.1,2.5,8,4.9,11.7c2.4,3.7,5.2,6.8,8.4,9.3c3.2,2.6,6.9,4.5,11,5.7c4.1,1.2,8.2,1.5,12.4,0.9c2.4-0.4,4.6-1.2,6.6-2.6
		c2-1.4,3.8-3.1,5.2-5.1c1.4-2,2.7-4.2,3.7-6.5c1-2.3,1.8-4.7,2.3-7.2c-0.3-0.3-0.4-0.7-0.4-1.1c0-0.8,0.4-1.4,1.1-1.7
		c0.1-0.7,0.2-1.2,0.3-1.7c0.3-1.5,0.3-2.7,0.1-3.4c-0.2-0.6-1-0.9-2.6-0.9c-1.7,0-3.2,0.4-4.5,1c-0.8,0.4-3,1.6-6.4,3.5
		c-2.9,1.6-5.2,2.8-7.1,3.5c-5.9,2.3-11.2,2.1-15.8-0.4l-0.1-0.1l-0.6,0.1c-0.5,0.1-0.9,0.1-1.3-0.2c-0.4-0.3-0.7-0.7-0.8-1.2
		c-0.1-0.5,0-0.9,0.2-1.4S301.3,40.8,301.8,40.7z M299.4,4.6l-2,0.6c-5.9,1.8-9.7,4.5-11.4,8.1c2.6-3.4,5.9-5.8,9.9-7.2
		c1.2-0.4,2.3-0.7,3.4-0.9C299.3,5,299.4,4.8,299.4,4.6z M299.8,20.3c0.4,1.2,0.8,2.7,1.3,4.7c0.5,2.3,0.9,3.9,1,4.5
		c0.1,0.5,0.1,0.9-0.2,1.4c-0.3,0.4-0.6,0.7-1.1,0.9c-0.5,0.1-0.9,0.1-1.4-0.2c-0.4-0.3-0.7-0.6-0.9-1.1c-0.1-0.5-0.5-2.1-1.1-4.7
		c-0.4-1.9-0.8-3.3-1.2-4.4c-0.1-0.5-0.1-0.9,0.1-1.4c0.2-0.4,0.6-0.7,1-0.9c0.5-0.2,0.9-0.1,1.4,0.1
		C299.3,19.5,299.6,19.8,299.8,20.3z M315,4.7c-1.4-0.5-3.1-0.8-5-1c-0.2,0.2-0.4,0.4-0.8,0.5c-1.3,0.4-2.5,0.8-3.7,1.2
		c1.4,0.3,2.6,0.8,3.9,1.5c0.1-0.1,0.3-0.2,0.5-0.3C311.7,5.9,313.4,5.2,315,4.7z M312.9,41.6c5.4-2.1,11.4-5.6,18.1-10.2
		c0.4-0.3,0.9-0.4,1.4-0.3c0.5,0.1,0.9,0.3,1.2,0.7c0.2,0.3,0.3,0.6,0.3,1c0.1-0.2,0.3-0.3,0.5-0.5c1.4-1,2.8-1.8,4.4-2.6
		c-1.6-0.4-3.4-0.4-5.4,0c-2,0.4-3.8,1.2-5.4,2.1c0,0-0.4,0.5-1.2,1.4c-1.2,1.4-2.5,1.9-3.8,1.4c-1-0.4-1.5-1.1-1.4-2.2
		c0-0.2,0.1-0.5,0.2-0.8l-2.9,1.5c-1.2,3-3.1,5.4-5.7,7.2c-1.2,0.8-2.6,1.5-4.2,2.1c0.9,0.1,1.9,0.2,2.9,0.1
		C312.1,42.2,312.4,41.8,312.9,41.6z M322.1,9.7c-0.7-1-1.6-1.9-2.7-2.7c-0.2,0.1-0.5,0.3-0.7,0.3c-2,0.6-3.9,1.2-5.9,2
		c0.7,0.6,1.4,1.3,2,2.1c0.1-0.1,0.2-0.1,0.3-0.1C316.3,11.1,318.6,10.5,322.1,9.7z M324.7,16.4c-0.2-1.2-0.5-2.3-0.8-3.4
		c-4.3,1-6.6,1.5-6.8,1.5l1,1.9c0.3,0.6,0.5,1.2,0.8,1.9c1.1-0.3,2.7-0.9,4.8-1.8C323.9,16.4,324.3,16.4,324.7,16.4z M324.8,20
		c-2.1,0.9-3.8,1.6-5,2c0.5,2.2,0.6,4.4,0.3,6.6c1.2-0.6,2.4-1,3.6-1.5c0.7-2.4,1-4.7,1.1-6.9V20z M339.3,58.9l-0.8-0.3
		c-0.4-0.1-0.7-0.2-0.8-0.2c0,0-0.1-0.1-0.1-0.1c-1.4,2.4-2.9,4.4-4.6,6.2c1.5-0.7,2.7-1.5,3.6-2.3
		C337.5,61.4,338.4,60.3,339.3,58.9z M344.6,46.2c-0.7,0-1.4-0.1-2.4-0.1c-0.7,3.1-1.7,6.1-3,8.9c0.8,0.3,1.2,0.4,1.3,0.4
		c0,0,0.2,0,0.6,0.1h0.1c1.2-2.4,2.2-4.9,2.9-7.6C344.4,47.3,344.5,46.7,344.6,46.2z M342.9,31.9c-1.2,0.5-2.3,1-3.3,1.5
		c1.8,0.5,3,1.5,3.5,3.1c0.4,1.3,0.4,3,0.1,5.1c0,0.3-0.1,0.6-0.2,0.9c0.8,0,1.6,0,2.3,0.1c0.6-4.4,0.1-7.7-1.5-9.8
		C343.6,32.5,343.3,32.2,342.9,31.9z"/>
	<path class="st0" d="M365.3,11.2c-0.7-0.3-1-0.8-1.1-1.5c0-0.5,0.1-1,0.4-1.4c0.3-0.4,0.7-0.6,1.2-0.7c0.2,0,0.6,0,1.3-0.1
		c0.3-0.2,0.6-0.4,0.9-0.6s0.6-0.3,0.9-0.5c0.3-0.1,0.6-0.3,1-0.4c0.4-0.1,0.7-0.2,1-0.2c0.2,0,0.6-0.1,1-0.2l0.9-0.1
		c0.1,0,0.4,0,0.9-0.1l0.6-0.1c5.1-0.5,9.4,0.4,12.9,2.7c3.6,2.4,6,6.1,7.1,11.1c1.6,6.8,1.2,13.8-1.2,21
		c-2.4,7.2-6.3,12.9-11.8,17.3c-0.4,0.3-0.8,0.5-1.3,0.4c-0.5,0-0.9-0.2-1.2-0.6c-1,1.6-2.2,2.6-3.6,3c-3,0.8-5.4-0.8-7.1-4.9
		c-0.8-1.9-1.5-4.3-2-7.3c-0.2-1.5-0.5-4.2-0.8-8.3c-0.4-3.9-0.6-7.9-0.8-12c-0.2-5-0.2-9,0.1-12.2
		C364.9,13.8,365.1,12.4,365.3,11.2z M378.3,78.6c-2,0.6-3.9,0.7-5.7,0.3c-2.4-0.5-4-1.7-4.8-3.7c-0.8-2.1-0.6-4.8,0.8-8
		c0.3-0.7,0.7-1,1.4-1.1c0.3-0.3,0.6-0.7,1.1-1c0.4-0.4,1-0.7,1.7-1l0.6-0.2c0.2-0.1,0.4-0.2,0.5-0.2c3.6-1.8,6.9-2.4,10-1.7
		c1.8,0.4,3.3,1.2,4.5,2.6c1.2,1.4,1.9,3.2,2,5.5c0.1,1.2,0.1,2,0,2.5c-0.1,0.8-0.5,1.7-1.2,2.6c-0.3,0.5-0.7,0.9-1,1.2
		s-0.8,0.7-1.2,1l-1.3,0.7c-0.3,0.2-0.8,0.5-1.4,0.7c-0.6,0.2-1,0.4-1.2,0.5c-0.2,0.1-0.7,0.2-1.3,0.5c-0.7,0.2-1.1,0.3-1.2,0.4
		c-0.5,0.1-0.9,0.1-1.4-0.1c-0.4-0.2-0.8-0.6-0.9-1L378.3,78.6L378.3,78.6z M381.7,20.9c-0.8-5.7-3.4-9-7.7-9.9
		c-1.2-0.2-2.8-0.3-4.9-0.1c0,0.2-0.1,0.5-0.2,0.8c-0.2,1-0.4,2.3-0.5,4c-0.2,3-0.3,6.9-0.1,11.8c0.1,4,0.4,7.9,0.7,11.8
		c0.3,3.9,0.6,6.6,0.9,7.9c0.5,2.8,1,5,1.7,6.6c0.9,2.1,1.9,3,2.8,2.8c0.5-0.1,1-0.7,1.6-1.7c0.6-1,1.2-2.4,1.7-4.3
		c0.3-1,1-4.1,2.1-9.1c1.6-7.7,2.3-13.7,2-18.1c-0.5-0.3-0.8-0.8-0.8-1.5C381.1,21.7,381.3,21.3,381.7,20.9z M375.7,69.9
		c-0.7,0-1.6,0-2.6,0h-0.7c-0.3,0-0.5,0-0.6,0s-0.2,0-0.4,0c-0.5,1.6-0.6,2.8-0.2,3.8c0.4,0.8,1.1,1.3,2.2,1.6
		c1.2,0.2,2.5,0.1,3.9-0.3c1.3-0.4,2.1-1,2.5-1.6c0.3-0.5,0.4-0.8,0.4-1.1c0-0.7-0.3-1.2-1-1.6l-1.5,0.3c-0.5,0.1-0.9,0-1.3-0.2
		C376.1,70.7,375.8,70.3,375.7,69.9z M379.6,67c1.7-0.3,3.5-0.6,5.5-0.8c-0.5-0.4-1.1-0.6-1.9-0.8c-1.9-0.4-4.1-0.1-6.6,1
		c0.1,0,0.3,0.1,0.4,0.1C377.9,66.5,378.8,66.7,379.6,67z M382.5,9.7c-1.2-0.4-2.5-0.7-3.9-0.8c0.5,0.3,1,0.6,1.5,1
		c0.3-0.1,0.6-0.2,0.8-0.2C380.9,9.7,382.5,9.7,382.5,9.7z M387.8,43.7c-1.7,0-3.2,0-4.6-0.1c-0.7,3.7-1.3,6.4-1.9,8.3l-0.4,1.3
		C383.7,50.5,386,47.4,387.8,43.7z M388.1,13.7c-1.4-0.2-3.2-0.3-5.1-0.3c1.1,1.9,1.9,4.2,2.3,7c2.2,0,4,0,5.5,0.1h0.3l-0.1-0.6
		C390.3,17.5,389.4,15.4,388.1,13.7z M383.5,70.1c0.3,0.7,0.5,1.5,0.5,2.3v0.1c0.2,0.1,0.3,0.2,0.4,0.3c0.4,0.4,0.6,0.8,0.6,1.3
		c0,0,0,0.1,0,0.1c0.6-0.4,1-0.9,1.4-1.3c0.3-0.4,0.5-0.8,0.6-1.1c0-0.2,0-0.7-0.1-1.6c0-0.2,0-0.3-0.1-0.5h-0.1L383.5,70.1z
		 M389.3,40.3c0.7-2,1.3-3.9,1.7-5.9c-0.3,0.5-0.8,0.7-1.3,0.8c-2.1,0.1-3.7,0.2-5,0.3c-0.2,1.4-0.4,2.9-0.8,4.5
		c0.8,0,2.3,0.1,4.4,0.1C388.7,40,389,40.1,389.3,40.3z M391.6,23.9c-0.3,0.1-0.6,0.2-0.9,0.2c-1.4-0.1-3.1-0.1-5-0.1
		c0,2.3-0.1,4.9-0.4,7.8c0.7,0,2.1-0.1,4.2-0.3c0.5,0,0.9,0.1,1.2,0.3s0.6,0.6,0.7,1C391.8,29.8,391.9,26.8,391.6,23.9z"/>
	<path class="st0" d="M411.6,11.2c-0.7-0.3-1-0.8-1.1-1.5c0-0.5,0.1-1,0.4-1.4s0.7-0.6,1.2-0.7c0.2,0,0.6,0,1.3-0.1
		c0.3-0.2,0.6-0.4,0.9-0.6s0.6-0.3,0.9-0.5s0.6-0.3,1-0.4c0.4-0.1,0.7-0.2,1-0.2c0.2,0,0.6-0.1,1-0.2l0.9-0.1c0.1,0,0.4,0,0.9-0.1
		l0.6-0.1c5.1-0.5,9.4,0.4,12.9,2.7c3.6,2.4,6,6.1,7.1,11.1c1.6,6.8,1.2,13.8-1.2,21c-2.4,7.2-6.3,12.9-11.8,17.3
		c-0.4,0.3-0.8,0.5-1.3,0.4c-0.5,0-0.9-0.2-1.2-0.6c-1,1.6-2.2,2.6-3.6,3c-3,0.8-5.4-0.8-7.1-4.9c-0.8-1.9-1.5-4.3-2-7.3
		c-0.2-1.5-0.5-4.2-0.8-8.3c-0.4-3.9-0.6-7.9-0.8-12c-0.2-5-0.2-9,0.1-12.2C411.1,13.8,411.3,12.4,411.6,11.2z M424.6,78.6
		c-2,0.6-3.9,0.7-5.7,0.3c-2.4-0.5-4-1.7-4.8-3.7c-0.8-2.1-0.6-4.8,0.8-8c0.3-0.7,0.7-1,1.4-1.1c0.3-0.3,0.6-0.7,1.1-1
		c0.4-0.4,1-0.7,1.7-1l0.6-0.2c0.2-0.1,0.4-0.2,0.5-0.2c3.6-1.8,6.9-2.4,10-1.7c1.8,0.4,3.3,1.2,4.5,2.6c1.2,1.4,1.9,3.2,2,5.5
		c0.1,1.2,0.1,2,0,2.5c-0.1,0.8-0.5,1.7-1.2,2.6c-0.3,0.5-0.7,0.9-1,1.2s-0.8,0.7-1.2,1l-1.3,0.7c-0.3,0.2-0.8,0.5-1.4,0.7
		c-0.6,0.2-1,0.4-1.2,0.5c-0.2,0.1-0.7,0.2-1.3,0.5c-0.7,0.2-1.1,0.3-1.2,0.4c-0.5,0.1-0.9,0.1-1.4-0.1c-0.4-0.2-0.8-0.6-0.9-1
		L424.6,78.6L424.6,78.6z M428,20.9c-0.8-5.7-3.4-9-7.7-9.9c-1.2-0.2-2.8-0.3-4.9-0.1c0,0.2-0.1,0.5-0.2,0.8c-0.2,1-0.4,2.3-0.5,4
		c-0.2,3-0.3,6.9-0.1,11.8c0.1,4,0.4,7.9,0.7,11.8c0.3,3.9,0.6,6.6,0.9,7.9c0.5,2.8,1,5,1.7,6.6c0.9,2.1,1.9,3,2.8,2.8
		c0.5-0.1,1-0.7,1.6-1.7c0.6-1,1.2-2.4,1.7-4.3c0.3-1,1-4.1,2.1-9.1c1.6-7.7,2.3-13.7,2-18.1c-0.5-0.3-0.8-0.8-0.8-1.5
		C427.4,21.7,427.6,21.3,428,20.9z M421.9,69.9c-0.7,0-1.6,0-2.6,0h-0.7c-0.3,0-0.5,0-0.6,0c-0.1,0-0.2,0-0.4,0
		c-0.5,1.6-0.6,2.8-0.2,3.8c0.4,0.8,1.1,1.3,2.2,1.6c1.2,0.2,2.5,0.1,3.9-0.3c1.3-0.4,2.1-1,2.5-1.6c0.3-0.5,0.4-0.8,0.4-1.1
		c0-0.7-0.3-1.2-1-1.6l-1.5,0.3c-0.5,0.1-0.9,0-1.3-0.2C422.4,70.7,422.1,70.3,421.9,69.9z M425.9,67c1.7-0.3,3.5-0.6,5.5-0.8
		c-0.5-0.4-1.1-0.6-1.9-0.8c-1.9-0.4-4.1-0.1-6.6,1c0.1,0,0.3,0.1,0.4,0.1C424.2,66.5,425.1,66.7,425.9,67z M428.7,9.7
		c-1.2-0.4-2.5-0.7-3.9-0.8c0.5,0.3,1,0.6,1.5,1c0.3-0.1,0.6-0.2,0.8-0.2C427.1,9.7,428.7,9.7,428.7,9.7z M434.1,43.7
		c-1.7,0-3.2,0-4.6-0.1c-0.7,3.7-1.3,6.4-1.9,8.3l-0.4,1.3C429.9,50.5,432.2,47.4,434.1,43.7z M434.3,13.7c-1.4-0.2-3.2-0.3-5.1-0.3
		c1.1,1.9,1.9,4.2,2.3,7c2.2,0,4,0,5.5,0.1h0.3l-0.1-0.6C436.6,17.5,435.6,15.4,434.3,13.7z M429.7,70.1c0.3,0.7,0.5,1.5,0.5,2.3
		v0.1c0.2,0.1,0.3,0.2,0.4,0.3c0.4,0.4,0.6,0.8,0.6,1.3c0,0,0,0.1,0,0.1c0.6-0.4,1-0.9,1.4-1.3c0.3-0.4,0.5-0.8,0.6-1.1
		c0-0.2,0-0.7-0.1-1.6c0-0.2,0-0.3-0.1-0.5h-0.1L429.7,70.1z M435.5,40.3c0.7-2,1.3-3.9,1.7-5.9c-0.3,0.5-0.8,0.7-1.3,0.8
		c-2.1,0.1-3.7,0.2-5,0.3c-0.2,1.4-0.4,2.9-0.8,4.5c0.8,0,2.3,0.1,4.4,0.1C434.9,40,435.2,40.1,435.5,40.3z M437.8,23.9
		c-0.3,0.1-0.6,0.2-0.9,0.2c-1.4-0.1-3.1-0.1-5-0.1c0,2.3-0.1,4.9-0.4,7.8c0.7,0,2.1-0.1,4.2-0.3c0.5,0,0.9,0.1,1.2,0.3
		s0.6,0.6,0.7,1C438.1,29.8,438.2,26.8,437.8,23.9z"/>
	<path class="st0" d="M457.9,11.2c-0.7-0.3-1-0.8-1.1-1.5c0-0.5,0.1-1,0.4-1.4s0.7-0.6,1.2-0.7c0.2,0,0.6,0,1.3-0.1
		c0.3-0.2,0.6-0.4,0.9-0.6c0.3-0.2,0.6-0.3,0.9-0.5c0.3-0.1,0.6-0.3,1-0.4c0.4-0.1,0.7-0.2,1-0.2s0.6-0.1,1-0.2l0.9-0.1
		c0.1,0,0.4,0,0.9-0.1l0.6-0.1c5.1-0.5,9.4,0.4,12.9,2.7c3.6,2.4,6,6.1,7.1,11.1c1.6,6.8,1.2,13.8-1.2,21
		c-2.4,7.2-6.3,12.9-11.8,17.3c-0.4,0.3-0.8,0.5-1.3,0.4c-0.5,0-0.9-0.2-1.2-0.6c-1,1.6-2.2,2.6-3.6,3c-3,0.8-5.4-0.8-7.1-4.9
		c-0.8-1.9-1.5-4.3-2-7.3c-0.2-1.5-0.5-4.2-0.8-8.3c-0.4-3.9-0.6-7.9-0.8-12c-0.2-5-0.2-9,0.1-12.2
		C457.4,13.8,457.6,12.4,457.9,11.2z M470.9,78.6c-2,0.6-3.9,0.7-5.7,0.3c-2.4-0.5-4-1.7-4.8-3.7c-0.8-2.1-0.6-4.8,0.8-8
		c0.3-0.7,0.7-1,1.4-1.1c0.3-0.3,0.6-0.7,1.1-1c0.4-0.4,1-0.7,1.7-1l0.6-0.2c0.2-0.1,0.4-0.2,0.5-0.2c3.6-1.8,6.9-2.4,10-1.7
		c1.8,0.4,3.3,1.2,4.5,2.6c1.2,1.4,1.9,3.2,2,5.5c0.1,1.2,0.1,2,0,2.5c-0.1,0.8-0.5,1.7-1.2,2.6c-0.3,0.5-0.7,0.9-1,1.2
		c-0.3,0.3-0.8,0.7-1.2,1l-1.3,0.7c-0.3,0.2-0.8,0.5-1.4,0.7c-0.6,0.2-1,0.4-1.2,0.5c-0.2,0.1-0.7,0.2-1.3,0.5
		c-0.7,0.2-1.1,0.3-1.2,0.4c-0.5,0.1-0.9,0.1-1.4-0.1c-0.4-0.2-0.8-0.6-0.9-1L470.9,78.6L470.9,78.6z M474.2,20.9
		c-0.8-5.7-3.4-9-7.7-9.9c-1.2-0.2-2.8-0.3-4.9-0.1c0,0.2-0.1,0.5-0.2,0.8c-0.2,1-0.4,2.3-0.5,4c-0.2,3-0.3,6.9-0.1,11.8
		c0.1,4,0.4,7.9,0.7,11.8c0.3,3.9,0.6,6.6,0.9,7.9c0.5,2.8,1,5,1.7,6.6c0.9,2.1,1.9,3,2.8,2.8c0.5-0.1,1-0.7,1.6-1.7
		c0.6-1,1.2-2.4,1.7-4.3c0.3-1,1-4.1,2.1-9.1c1.6-7.7,2.3-13.7,2-18.1c-0.5-0.3-0.8-0.8-0.8-1.5C473.7,21.7,473.9,21.3,474.2,20.9z
		 M468.2,69.9c-0.7,0-1.6,0-2.6,0h-0.7c-0.3,0-0.5,0-0.6,0c-0.1,0-0.2,0-0.4,0c-0.5,1.6-0.6,2.8-0.2,3.8c0.4,0.8,1.1,1.3,2.2,1.6
		c1.2,0.2,2.5,0.1,3.9-0.3c1.3-0.4,2.1-1,2.5-1.6c0.3-0.5,0.4-0.8,0.4-1.1c0-0.7-0.3-1.2-1-1.6l-1.5,0.3c-0.5,0.1-0.9,0-1.3-0.2
		C468.6,70.7,468.3,70.3,468.2,69.9z M472.1,67c1.7-0.3,3.5-0.6,5.5-0.8c-0.5-0.4-1.1-0.6-1.9-0.8c-1.9-0.4-4.1-0.1-6.6,1
		c0.1,0,0.3,0.1,0.4,0.1C470.4,66.5,471.3,66.7,472.1,67z M475,9.7c-1.2-0.4-2.5-0.7-3.9-0.8c0.5,0.3,1,0.6,1.5,1
		c0.3-0.1,0.6-0.2,0.8-0.2C473.4,9.7,475,9.7,475,9.7z M480.3,43.7c-1.7,0-3.2,0-4.6-0.1c-0.7,3.7-1.3,6.4-1.9,8.3l-0.4,1.3
		C476.2,50.5,478.5,47.4,480.3,43.7z M480.6,13.7c-1.4-0.2-3.2-0.3-5.1-0.3c1.1,1.9,1.9,4.2,2.3,7c2.2,0,4,0,5.5,0.1h0.3l-0.1-0.6
		C482.9,17.5,481.9,15.4,480.6,13.7z M476,70.1c0.3,0.7,0.5,1.5,0.5,2.3v0.1c0.2,0.1,0.3,0.2,0.4,0.3c0.4,0.4,0.6,0.8,0.6,1.3
		c0,0,0,0.1,0,0.1c0.6-0.4,1-0.9,1.4-1.3c0.3-0.4,0.5-0.8,0.6-1.1c0-0.2,0-0.7-0.1-1.6c0-0.2,0-0.3-0.1-0.5h-0.1L476,70.1z
		 M481.8,40.3c0.7-2,1.3-3.9,1.7-5.9c-0.3,0.5-0.8,0.7-1.3,0.8c-2.1,0.1-3.7,0.2-5,0.3c-0.2,1.4-0.4,2.9-0.8,4.5
		c0.8,0,2.3,0.1,4.4,0.1C481.2,40,481.5,40.1,481.8,40.3z M484.1,23.9c-0.3,0.1-0.6,0.2-0.9,0.2c-1.4-0.1-3.1-0.1-5-0.1
		c0,2.3-0.1,4.9-0.4,7.8c0.7,0,2.1-0.1,4.2-0.3c0.5,0,0.9,0.1,1.2,0.3c0.3,0.3,0.6,0.6,0.7,1C484.3,29.8,484.4,26.8,484.1,23.9z"/>
</g>
</svg>
