<?xml version="1.0" encoding="utf-8"?>
<!-- Generator: Adobe Illustrator 26.2.1, SVG Export Plug-In . SVG Version: 6.00 Build 0)  -->
<svg version="1.1" id="Layer_1" xmlns="http://www.w3.org/2000/svg" xmlns:xlink="http://www.w3.org/1999/xlink" x="0px" y="0px"
	 viewBox="0 0 1084.06 308.95" style="enable-background:new 0 0 1084.06 308.95;" xml:space="preserve">
<style type="text/css">
	.st0{fill:#FFFFFF;}
</style>
<rect x="-1344.75" y="-73.55" style="fill:none;" width="10" height="73.33"/>
<text transform="matrix(1 0 0 1 -1344.75 -65.0346)"><tspan x="0" y="0" style="font-family:'MyriadPro-Regular'; font-size:12px;">L</tspan><tspan x="0" y="14.4" style="font-family:'MyriadPro-Regular'; font-size:12px;">o</tspan><tspan x="0" y="28.8" style="font-family:'MyriadPro-Regular'; font-size:12px;">re</tspan></text>
<g>
	<g>
		<path class="st0" d="M101.2,92.7c7.06-2.97,14.11-4.15,21.17-3.53c7.06,0.62,13.68,2.54,19.87,5.76
			c6.19,3.22,11.7,7.49,16.53,12.81c1.49,0.62,2.35,1.67,2.6,3.16c4.83,6.44,8.23,13.37,10.21,20.8c3.96,14.86,6.5,27.05,7.61,36.58
			h0.74c1.11,0.12,2.04,0.62,2.79,1.49c0.74,0.87,1.05,1.86,0.93,2.97c-0.12,0.99-0.53,1.83-1.21,2.51
			c-0.68,0.68-1.52,1.08-2.51,1.21c0.99,17.7-0.25,37.14-3.71,58.31c-4.71,27.98-12.26,46.42-22.65,55.34
			c-6.69,5.82-17.33,10.52-31.94,14.11c-4.46,1.11-7.77,1.92-9.93,2.41c-2.17,0.49-5.42,1.05-9.75,1.67
			c-4.33,0.62-8.29,0.8-11.88,0.56c-3.59-0.25-6.93-0.93-10.03-2.04c-0.74-0.25-1.36-0.68-1.86-1.3
			c-11.64,1.98-22.22,1.92-31.75-0.19c-15.97-3.47-27.85-11.02-35.65-22.65C3.59,272.01,0,258.46,0,242
			c0-7.06,0.56-12.81,1.67-17.27c1.98-8.05,5.82-13.18,11.51-15.41c5.32-1.98,9.84-1.67,13.56,0.93c0.74,0.5,1.49,1.11,2.23,1.86
			c-3.59-9.41-5.32-19.25-5.2-29.52c0.12-10.15,1.86-20.43,5.2-30.82c2.48-7.55,5.51-14.54,9.1-20.98
			c7.06-13.62,16.15-23.64,27.3-30.08c3.34-1.98,7.36-3.53,12.07-4.64c1.49-0.49,3.03-0.86,4.64-1.11c0.74-0.25,1.49-0.25,2.23,0
			c4.21-0.37,8.17-0.25,11.88,0.37c0.74-1.86,2.1-2.66,4.09-2.41h0.19C100.7,92.77,100.95,92.7,101.2,92.7z M115.87,111.83
			c0,0.87,0.06,1.67,0.19,2.41v0.56v0.74c0,0.12-0.06,0.31-0.19,0.56c-0.12,1.11-0.74,1.98-1.86,2.6c-0.99,0.5-1.89,0.68-2.69,0.56
			c-0.81-0.12-1.39-0.37-1.76-0.74l-0.74-0.74c-0.25-0.25-0.44-0.56-0.56-0.93l-0.37-0.93v-0.56c-0.25-0.49-0.44-0.99-0.56-1.49
			c-1.49-4.21-3.9-7.12-7.24-8.73c-5.2-2.6-12.01-2.97-20.43-1.11c-13.49,4.33-24.88,14.42-34.17,30.27
			c-4.46,8.42-7.71,17.7-9.75,27.85c-2.04,10.15-2.75,19.87-2.14,29.15c0.25,4.71,1.45,9.84,3.62,15.41
			c2.16,5.57,4.98,10.65,8.45,15.23c1.73,2.35,3.59,4.46,5.57,6.31c6.93,4.09,14.51,5.08,22.75,2.97c8.23-2.1,15.13-6.56,20.7-13.37
			c0.86-0.99,1.67-2.1,2.41-3.34c0.74-1.24,1.36-2.41,1.86-3.53c1.36-2.97,2.85-7.24,4.46-12.81c0-0.25,0.03-0.59,0.09-1.02
			c0.06-0.43,0.12-1.05,0.19-1.86c0.06-0.8,0.09-1.58,0.09-2.32c0.12-1.61,0.37-2.85,0.74-3.71c0.86-1.61,2.1-2.54,3.71-2.79
			c1.49-0.12,2.85,0.37,4.09,1.49c0,0.12,0.06,0.25,0.19,0.37c1.24,0.99,1.73,2.29,1.49,3.9c-0.5,2.72-1.18,5.45-2.04,8.17
			l-0.93,5.76c-0.25,1.86-0.37,2.91-0.37,3.16c-0.12,1.36-0.31,3.99-0.56,7.89c-0.25,3.9-0.44,7.09-0.56,9.56
			c-0.62,8.54-1.49,16.03-2.6,22.47c-1.49,8.67-3.53,15.66-6.13,20.98c-3.47,7.18-7.98,11.63-13.56,13.37
			c-15.97,5.07-28.91,3.03-38.81-6.13c-7.31-6.69-13.49-18.2-18.57-34.54c-0.49-1.61-1.18-4.95-2.04-10.03
			c-0.86-4.83-1.61-8.23-2.23-10.21c-0.99-2.85-2.16-4.76-3.53-5.76c-1.36-0.86-3.34-0.8-5.94,0.19c-3.09,1.11-5.32,4.33-6.68,9.66
			c-0.86,3.71-1.3,8.79-1.3,15.23c0,14.85,3.1,26.86,9.28,36.02c6.69,9.9,16.96,16.4,30.82,19.5c3.84,0.74,7.8,1.18,11.88,1.3
			c4.08,0.12,8.29-0.16,12.63-0.84c4.33-0.68,8.26-1.42,11.79-2.23c3.53-0.81,7.77-1.89,12.72-3.25c0.99-0.25,2.6-0.68,4.83-1.3
			l4.83-1.3c0.99-0.37,2.29-0.84,3.9-1.39c1.61-0.56,3.06-1.15,4.36-1.76c1.3-0.62,2.57-1.3,3.81-2.04
			c8.54-5.57,14.92-15.85,19.13-30.82c-1.24-1.98-0.93-3.71,0.93-5.2c0.12-0.12,0.31-0.25,0.56-0.37l1.49-7.61
			c0.49-2.6,0.93-5.26,1.3-7.98c0.37-2.72,0.68-5.66,0.93-8.82c0.25-3.16,0.43-5.72,0.56-7.71c0.12-1.98,0.25-4.8,0.37-8.45
			c0.12-3.65,0.21-6.06,0.28-7.24c0.06-1.18,0.12-3.74,0.19-7.71c0.06-3.96,0.09-6.06,0.09-6.31c0.12-6.93,0.19-12.32,0.19-16.15
			c-0.5-0.86-0.68-1.79-0.56-2.79c0.12-0.49,0.31-0.93,0.56-1.3c-0.25-14.98-1.98-26.74-5.2-35.28
			c-4.95-12.87-14.18-21.35-27.67-25.44l1.86,2.97C115.13,109.23,115.75,110.34,115.87,111.83z M46.61,234.94
			c-2.6-1.73-5.01-3.77-7.24-6.13c-1.98-2.23-3.78-4.58-5.39-7.06c0.62,2.35,1.3,5.63,2.04,9.84c0.74,4.71,1.3,7.61,1.67,8.73
			c4.7,14.86,10.15,25.19,16.34,31.01c7.55,7.06,17.76,8.54,30.64,4.46c3.34-1.11,6.25-4.15,8.73-9.1
			c2.35-4.7,4.21-11.02,5.57-18.94c0.99-5.94,1.79-13.12,2.41-21.54c0.12-1.11,0.25-2.35,0.37-3.71
			c-3.71,5.32-8.02,9.91-12.91,13.74c-4.89,3.84-10.06,6.25-15.51,7.24C63.81,244.97,54.9,242.12,46.61,234.94z M86.9,139.5
			c0.99,11.76,0.49,23.34-1.49,34.72c-0.37,1.49-0.81,4.58-1.3,9.28c-0.12,1.98-0.25,3.34-0.37,4.08c-0.12,0.62-0.25,1.11-0.37,1.49
			c-0.12,0.5-0.25,0.93-0.37,1.3c-0.37,0.74-0.99,1.36-1.86,1.86c-0.99,0.5-2.04,0.56-3.16,0.19c-0.74-0.25-1.36-0.68-1.86-1.3
			c-0.62-0.74-1.05-1.61-1.3-2.6h-1.11c-1.11-0.12-2.01-0.62-2.69-1.49c-0.68-0.86-0.96-1.92-0.84-3.16
			c0.37-3.34,1.05-8.14,2.04-14.39c0.99-6.25,1.73-11.79,2.23-16.62c0.49-4.83,0.74-9.47,0.74-13.93c0-1.11,0.4-2.07,1.21-2.88
			c0.8-0.8,1.76-1.21,2.88-1.21c0.99,0,1.92,0.31,2.79,0.93h0.37c1.11-0.12,2.1,0.19,2.97,0.93
			C86.28,137.45,86.78,138.38,86.9,139.5z M127.38,294.36c-0.74-0.25-2.72-0.81-5.94-1.67c-1.61,0.99-3.5,1.92-5.66,2.79
			c-2.17,0.86-3.84,1.49-5.01,1.86c-1.18,0.37-3.19,0.93-6.03,1.67l-5.2,1.3c4.46-0.37,11.2-1.67,20.24-3.9L127.38,294.36z
			 M126.64,101.61c0.49-1.73,1.67-2.66,3.53-2.79c-4.21-1.24-8.48-1.73-12.81-1.49C119.71,98.34,122.8,99.76,126.64,101.61z
			 M133.33,107v0.56c0.62,0.62,1.24,1.18,1.86,1.67c0.49-0.99,1.24-1.73,2.23-2.23H133.33z M152.64,279.13
			c-8.79-1.24-13.25-1.86-13.37-1.86c-0.62-0.12-1.24-0.31-1.86-0.56l-3.34,5.01l2.41,1.11c0.74,0.25,1.24,0.43,1.49,0.56l0.74,0.37
			c0.25,0.12,0.43,0.19,0.56,0.19c0.25,0,0.53,0.03,0.84,0.09c0.31,0.06,0.96,0.15,1.95,0.28c0.99,0.12,2.16,0.31,3.53,0.56
			c0.37,0.12,0.68,0.25,0.93,0.37l1.86-1.49C149.85,282.54,151.27,280.99,152.64,279.13z M135.55,291.2v0.19h0.19L135.55,291.2z
			 M146.51,118.7c3.59-0.37,6.99-0.43,10.21-0.19c-0.74-1.11-1.49-2.16-2.23-3.16c-1.61-0.12-3.78-0.19-6.5-0.19
			c-4.21-0.12-6.81-0.25-7.8-0.37c1.24,1.73,2.41,3.53,3.53,5.38C144.47,119.32,145.4,118.82,146.51,118.7z M157.09,271.71
			c0.49-1.24,1.05-2.48,1.67-3.71l-1.11-0.37c-5.45-2.35-9.72-4.76-12.81-7.24c-1.11,3.22-2.29,6.19-3.53,8.91
			c1.73,0.12,4.21,0.43,7.43,0.93c3.22,0.49,5.51,0.8,6.87,0.93C156.1,271.27,156.6,271.46,157.09,271.71z M142.61,106.81h3.34
			l-1.67-1.11C143.78,106.2,143.23,106.57,142.61,106.81z M161.36,127.05h-0.93c-4.08-0.62-8.48-0.68-13.18-0.19h-0.37l0.56,1.3
			c0.62,1.86,1.24,3.84,1.86,5.94c2.47,0.5,7.49,1.3,15.04,2.41l-0.56-2.6C163.16,131.57,162.35,129.28,161.36,127.05z
			 M164.34,251.28c-1.36-0.12-3.93-0.46-7.71-1.02c-3.78-0.56-6.72-0.96-8.82-1.21l-0.56,2.79c3.09,2.85,7.67,5.63,13.74,8.36
			c0.25,0.12,0.43,0.25,0.56,0.37C162.54,257.59,163.47,254.5,164.34,251.28z M167.31,237.91c-0.99,0.87-2.04,1.24-3.16,1.11
			c-3.84-0.37-7.74-0.93-11.7-1.67c-0.87-0.25-1.61-0.68-2.23-1.3l-0.74,5.01l8.73,1.11c3.71,0.5,6.37,0.87,7.98,1.11L167.31,237.91
			z M168.05,151.94l-1.67-7.61c-0.74,0.37-1.55,0.5-2.41,0.37c-6.93-0.99-11.14-1.61-12.63-1.86c0.37,2.85,0.74,5.88,1.11,9.1
			H168.05z M169.53,223.8l0.19-1.86c-0.87,0.74-1.86,1.05-2.97,0.93c-5.45-0.62-10.4-1.92-14.85-3.9c-0.12,1.24-0.19,2.48-0.19,3.71
			c1.24,0,3.84,0.12,7.8,0.37c3.96,0.25,7.06,0.44,9.28,0.56C169.04,223.61,169.29,223.68,169.53,223.8z M154.68,211.17
			c3.96,1.86,8.23,3.04,12.81,3.53c1.24,0.12,2.23,0.68,2.97,1.67c0.49-5.07,0.86-10.15,1.11-15.23c-1.24,0-2.66-0.06-4.27-0.19
			c1.24,0.74,1.86,1.86,1.86,3.34c0,1.11-0.4,2.07-1.21,2.88c-0.81,0.81-1.76,1.21-2.88,1.21h-3.16h-2.04h-1.3
			c-0.5,0-1.18-0.06-2.04-0.19l-3.53-0.56c-0.25,0-0.44-0.06-0.56-0.19v3.34C153.19,210.68,153.94,210.8,154.68,211.17z
			 M153.19,191.67c2.35,0,5.76,0.25,10.21,0.74c3.84,0.37,6.69,0.56,8.54,0.56v-6.69c-2.11,0-5.26-0.09-9.47-0.28
			c-4.21-0.19-7.37-0.28-9.47-0.28v0.74c0,0.99-0.06,2.72-0.19,5.2H153.19z M169.72,160.11h-16.71c0,1.61,0.06,3.22,0.19,4.83
			c5.2,0.99,11.08,1.8,17.64,2.41L169.72,160.11z M171.76,178.12c0-0.86-0.06-1.67-0.19-2.41c-6.81-0.62-12.94-1.42-18.38-2.41v4.27
			c1.98,0,5.04,0.09,9.19,0.28C166.53,178.03,169.66,178.12,171.76,178.12z M160.44,200.22c-0.99-0.12-1.86-0.19-2.6-0.19
			c0.62,0.12,1.05,0.19,1.3,0.19H160.44z M167.12,231.78c0.37,0.37,0.68,0.81,0.93,1.3l0.37-1.3H167.12z"/>
		<path class="st0" d="M238.8,99.76c0-1.11,0.37-2.16,1.11-3.16c0.37-0.37,0.8-0.74,1.3-1.11c0.49-0.37,1.24-0.74,2.23-1.11
			c1.61-0.62,3.03-1.05,4.27-1.3c2.1-0.37,4.58-0.56,7.43-0.56c3.84-1.24,6.56-1.98,8.17-2.23c17.21-3.46,30.45-3.9,39.74-1.3
			c9.16,2.6,17.24,7.37,24.23,14.3c6.99,6.93,12.47,14.73,16.43,23.4c3.71,8.42,6.62,18.01,8.73,28.78
			c2.97,15.23,3.65,30.45,2.04,45.68c-1.73,15.48-5.45,28.47-11.14,38.99c-5.32,9.91-10.58,16.9-15.78,20.98
			c-6.44,5.2-13.93,8.54-22.47,10.03c-7.43,1.49-13.81,0.93-19.13-1.67c-0.87,0.25-1.74,0.43-2.6,0.56
			c-10.77,1.61-20.86,0.06-30.27-4.64c-9.28-4.7-17.58-11.51-24.88-20.43c-6.56-8.17-11.88-17.21-15.97-27.11
			c-4.21-10.15-6.87-19.93-7.98-29.34c-2.48-22.65,1.42-44.01,11.7-64.06C222.02,112.7,229.63,104.46,238.8,99.76z M249.38,106.07
			c-9.91,2.35-18.2,9.97-24.88,22.84c-9.41,18.32-12.94,37.82-10.58,58.49c0.99,8.54,3.37,17.43,7.15,26.65
			c3.77,9.22,8.63,17.49,14.58,24.79c13,15.97,27.54,23.27,43.64,21.91c0.25-0.86,0.68-1.55,1.3-2.04c0.86-0.99,1.98-1.49,3.34-1.49
			c1.36,0,2.48,0.44,3.34,1.3c3.59-1.73,7.24-4.89,10.96-9.47c5.94-7.43,10.09-16.65,12.44-27.67c2.35-11.02,2.91-22.9,1.67-35.65
			c-0.99-12.13-3.37-23.95-7.15-35.47c-3.78-11.51-8.33-21.35-13.65-29.52c-3.59-5.45-7.4-9.59-11.42-12.44
			c-4.02-2.85-9.01-4.7-14.95-5.57c-2.48-0.37-5.32-0.56-8.54-0.56l-1.11,0.19c-0.99,0.37-1.92,0.68-2.79,0.93
			C252.1,104.77,250.99,105.7,249.38,106.07z M264.23,150.82c0.86,7.92,1.42,19.38,1.67,34.35c0.25,15.48,0.74,26.68,1.49,33.61
			c0.12,1.36-0.25,2.57-1.11,3.62c-0.87,1.05-1.92,1.64-3.16,1.76c-1.11,0.12-2.11-0.12-2.97-0.74c-0.37,0.37-0.81,0.62-1.3,0.74
			c-1.24,0.37-2.45,0.25-3.62-0.37c-1.18-0.62-2.01-1.55-2.51-2.79c-2.97-9.28-5.51-21.6-7.61-36.95
			c-1.11-8.79-1.61-16.16-1.49-22.1c0.25-7.92,1.86-13.37,4.83-16.34c1.36-1.24,3.16-1.92,5.39-2.04h1.11h0.37l0.37-0.19
			c1.24-0.12,2.38,0.12,3.44,0.74c1.05,0.62,1.76,1.55,2.14,2.79C263,147.67,263.99,148.97,264.23,150.82z M287.82,101.99
			c0.86-1.49,2.16-2.29,3.9-2.41c2.72-0.12,6.19-0.37,10.4-0.74c-0.5-0.25-1.05-0.43-1.67-0.56c-5.08-1.49-11.76-1.79-20.05-0.93
			C282.99,98.58,285.46,100.13,287.82,101.99z M298.96,114.43c9.16,0.12,18.38,0.99,27.67,2.6c-2.85-3.84-6.01-7.18-9.47-10.03
			c-0.37,0.12-0.68,0.19-0.93,0.19c-0.62,0-4.58,0.37-11.88,1.11c-3.84,0.37-7,0.62-9.47,0.74
			C296.23,110.65,297.6,112.45,298.96,114.43z M309.54,249.79c-1.24,1.86-2.54,3.59-3.9,5.2c-2.23,2.85-4.52,5.26-6.87,7.24
			c1.49,0,3.03-0.19,4.64-0.56c6.44-1.11,12.19-3.59,17.27-7.43C318.58,253.51,314.86,252.02,309.54,249.79z M311.4,138.94
			c6.44-0.49,15.72,0.68,27.85,3.53c-2.11-6.68-4.77-12.81-7.98-18.38c-0.99,2.23-2.72,3.16-5.2,2.79
			c-7.18-1.36-14.3-2.23-21.35-2.6C307.19,128.85,309.42,133.74,311.4,138.94z M314.19,241.25c6.31,2.72,11.02,4.46,14.11,5.2
			c1.86-2.6,4.02-6.19,6.5-10.77c0.49-0.99,0.99-2.04,1.49-3.16c-2.72-1.49-8.36-3.46-16.9-5.94
			C318.02,231.91,316.29,236.8,314.19,241.25z M319.2,165.68c11.39,0.87,19.93,1.98,25.62,3.34c-0.5-3.96-1.11-7.86-1.86-11.7
			c-0.25-1.73-0.56-3.46-0.93-5.2c-0.99,0.37-1.98,0.44-2.97,0.19c-11.51-2.6-19.62-3.9-24.33-3.9
			C316.47,153.98,317.96,159.74,319.2,165.68z M322.54,191.12c7.18,1.61,14.67,3.59,22.47,5.94c0.49-5.94,0.62-11.88,0.37-17.83
			c-0.12-0.12-0.25-0.19-0.37-0.19c-5.57-1.49-13.62-2.66-24.14-3.53c0.49,3.1,0.86,6.19,1.11,9.28
			C322.23,186.91,322.42,189.01,322.54,191.12z M321.24,217.11c9.16,2.6,15.35,4.71,18.57,6.31c1.73-5.07,3.09-10.65,4.09-16.71
			c-7.43-2.1-14.55-4.02-21.35-5.76C322.42,206.65,321.98,212.04,321.24,217.11z"/>
		<path class="st0" d="M421.88,279.51c-0.74,0.37-1.49,0.56-2.23,0.56c-7.18,0-13.59-1.3-19.22-3.9c-5.63-2.6-10.09-5.54-13.37-8.82
			c-3.28-3.28-6.31-8.01-9.1-14.21c-2.79-6.19-4.74-11.14-5.85-14.85c-1.11-3.59-2.6-9.04-4.46-16.34
			c-0.25-0.99-0.43-1.79-0.56-2.41c-0.25-0.74-0.8-2.85-1.67-6.31c-0.86-3.46-1.42-5.76-1.67-6.87c-0.25-1.11-0.74-3.22-1.49-6.31
			c-0.74-3.09-1.27-5.39-1.58-6.87c-0.31-1.49-0.71-3.65-1.21-6.5c-0.49-2.85-0.84-5.23-1.02-7.15c-0.19-1.92-0.37-4.11-0.56-6.59
			c-0.19-2.47-0.28-4.89-0.28-7.24c0-10.4,1.11-19.68,3.34-27.85c3.59-13.25,9.84-20.92,18.75-23.03c1.11-0.25,1.92-0.43,2.41-0.56
			c6.44-2.48,11.08-4.09,13.93-4.83c6.19-1.73,11.26-2.1,15.23-1.11c6.44,1.61,11.51,7,15.23,16.16
			c4.58-7.55,11.02-13.74,19.31-18.57c8.17-4.83,16.71-7.61,25.63-8.36c10.77-0.99,19.87,1.18,27.3,6.5
			c8.42,6.07,13.18,15.29,14.3,27.67c0.25,2.6-0.12,5.01-1.11,7.24c0.12,1.49-0.12,2.85-0.74,4.08c-0.99,1.61-2.66,2.72-5.01,3.34
			l-1.86,0.37c-2.48,1.36-7.12,3.1-13.93,5.2c-6.56,2.11-11.58,4.21-15.04,6.31c-3.47,2.11-5.76,5.2-6.87,9.28
			c-2.48,9.04-4.27,20.36-5.38,33.98c-0.12,5.08-0.19,12.35-0.19,21.82c0,9.47-0.06,15.63-0.19,18.48
			c-0.62,10.77-1.55,18.2-2.79,22.28c-3.1,10.15-9.22,15.91-18.38,17.27c-3.34,0.49-7.06,0.12-11.14-1.11
			C427.45,280.37,424.6,280.12,421.88,279.51z M368.03,178.12c5.94-6.68,12.13-12.87,18.57-18.57c0.25-0.25,0.49-0.43,0.74-0.56
			c-0.12-1.24-0.25-2.35-0.37-3.34c-0.62-7.3-1.11-12.69-1.49-16.16c-6.07,6.93-11.45,12.44-16.15,16.53
			c-0.49,0.37-1.05,0.68-1.67,0.93c-0.25,2.97-0.37,5.88-0.37,8.73C367.29,169.64,367.54,173.79,368.03,178.12z M376.76,210.8
			c-1.98-1.86-2.29-3.9-0.93-6.13c3.96-6.93,7.86-12.26,11.7-15.97c0.86-0.99,1.92-1.49,3.16-1.49c-0.74-5.69-1.42-11.2-2.04-16.53
			c-5.08,4.83-9.91,9.91-14.48,15.23c-1.24,1.49-2.85,1.98-4.83,1.49c0.99,5.57,2.97,13.99,5.94,25.25c0-0.12,0.06-0.19,0.19-0.19
			L376.76,210.8z M369.71,142.28c2.85-2.85,6.75-7.12,11.7-12.81c0.74-0.74,1.55-1.24,2.41-1.49c-0.12-0.62-0.19-1.24-0.19-1.86
			c-0.25-0.74-0.44-1.42-0.56-2.04l-2.04,0.74c-0.5,0.25-1.05,0.37-1.67,0.37c-3.96,2.35-6.99,7.43-9.1,15.23
			C370.14,141.04,369.95,141.66,369.71,142.28z M383.26,241.07c3.59-4.7,7.43-10.15,11.51-16.34c0.49-0.62,1.05-1.11,1.67-1.49
			l-2.04-11.88l-1.11-6.69l-10.03,13.37c-0.74,0.99-1.7,1.61-2.88,1.86c-1.18,0.25-2.32,0.12-3.44-0.37
			C379.42,229.18,381.53,236.36,383.26,241.07z M397.37,263.35c0.12-0.12,0.25-0.31,0.37-0.56l6.13-8.17
			c-0.87-2.85-1.92-6.56-3.16-11.14c-0.62-2.47-1.18-5.01-1.67-7.61l-11.33,15.41C390.44,256.36,393.66,260.38,397.37,263.35z
			 M501.17,137.27c0-0.25-0.06-0.49-0.19-0.74c-1.24-7.18-2.76-12.81-4.55-16.9c-1.8-4.08-4.86-6.99-9.19-8.73
			c-7.06-2.85-15.41-2.47-25.07,1.11c-9.41,3.47-16.4,8.54-20.98,15.23c-4.58,6.81-7.06,13.56-7.43,20.24v0.93v2.04v2.6v3.9
			c0,0.62-0.06,1.11-0.19,1.49v0.74c-0.12,0.5-0.25,0.93-0.37,1.3c-0.37,0.74-0.87,1.36-1.49,1.86c-1.73,1.24-3.53,1.3-5.38,0.19
			c-0.99-0.49-1.74-1.36-2.23-2.6l-0.37-1.11c-0.12-0.62-0.25-1.36-0.37-2.23c-0.12-1.11-0.31-2.91-0.56-5.38
			c-0.5-5.57-0.87-8.91-1.11-10.03c-2.11-8.29-4.18-14.14-6.22-17.55c-2.04-3.4-4.18-5.35-6.41-5.85c-2.35-0.62-5.82-0.31-10.4,0.93
			c-1.86,0.5-4.02,1.18-6.5,2.04c0.25,0.87,0.49,1.98,0.74,3.34c0.62,3.1,1.24,6.93,1.86,11.51c0.49,4.33,1.11,10.77,1.86,19.31
			c1.36,16.09,3.77,34.42,7.24,54.96c1.98,11.88,4.09,22.28,6.31,31.2c0.99,4.21,1.79,7.37,2.41,9.47c1.86,1.36,2.48,3.1,1.86,5.2
			c0.74,1.98,1.42,3.47,2.04,4.46c1.98,3.22,5.51,6.07,10.58,8.54c1.49,0.74,2.97,1.36,4.46,1.86c7.06-0.74,12.01-3.77,14.85-9.1
			c1.24-2.23,2.23-4.92,2.97-8.08s1.21-5.88,1.39-8.17c0.19-2.29,0.37-5.63,0.56-10.03c0.19-4.39,0.34-7.58,0.46-9.56
			c0.12-1.24,0.37-4.86,0.74-10.86c0.37-6,0.68-10.61,0.93-13.83c0.12-2.23,0.19-4.33,0.19-6.31c0.37-10.52,1.17-19.25,2.41-26.18
			c1.36-9.03,3.59-15.41,6.69-19.13c5.07-6.56,13.99-10.33,26.74-11.33c1.61-0.12,3.71-0.25,6.31-0.37c2.6-0.12,4.27-0.19,5.01-0.19
			h0.19L501.17,137.27z M405.91,268.18c1.86,0.74,3.84,1.3,5.94,1.67c-1.49-1.49-2.66-2.97-3.53-4.46l-0.19-0.19L405.91,268.18z"/>
		<path class="st0" d="M643.04,95.12c16.34-5.57,31.69-6,46.05-1.3c18.2,6.07,27.05,20.68,26.55,43.82
			c-0.25,14.85-4.21,31.94-11.88,51.25c-5.7,14.36-13.62,28.16-23.77,41.41c-10.15,13.25-21.63,25.01-34.45,35.28
			s-26.92,18.78-42.34,25.53c-15.41,6.75-30.86,10.8-46.33,12.16c-1.11,0.12-2.14-0.16-3.06-0.84c-0.93-0.68-1.58-1.52-1.95-2.51
			c-11.14,2.85-20.98,0.8-29.52-6.13c-6.56-5.2-10.33-13.68-11.33-25.44c-1.73-19.8,5.7-39.37,22.28-58.68l3.9-4.46
			c1.86-2.1,3.09-3.59,3.71-4.46l2.97-3.71c1.24-1.73,2.16-3.31,2.79-4.73c0.62-1.42,1.11-2.94,1.49-4.55
			c1.98-8.17,1.17-19.68-2.41-34.54c-0.25-1.24-1.11-4.73-2.6-10.49c-1.49-5.76-2.6-10.49-3.34-14.21
			c-0.74-3.71-1.36-7.36-1.86-10.96c-1.36-0.12-2.48-0.68-3.34-1.67c-0.87-1.11-1.24-2.32-1.11-3.62c0.12-1.3,0.68-2.38,1.67-3.25
			c8.54-7.18,16.71-10.58,24.51-10.21c7.06,0.37,13.43,3.65,19.13,9.84c6.93,7.55,13.74,20.92,20.43,40.11
			c0.74,2.35,1.61,5.32,2.6,8.91c0.12-0.37,0.19-0.68,0.19-0.93c2.97-11.39,6.56-21.48,10.77-30.27
			c4.21-8.79,10.09-16.15,17.64-22.1c2.97-2.47,6.13-4.46,9.47-5.94C640.38,96.85,641.43,95.74,643.04,95.12z M580.46,271.52
			c7.55-6.44,16.62-15.35,27.2-26.74c10.58-11.39,20.89-23.4,30.92-36.02c24.02-30.45,38.13-53.97,42.34-70.56
			c1.73-7.06,1.51-13.21-0.65-18.48c-2.17-5.26-5.66-9.25-10.49-11.98c-4.33-2.72-9.66-3.77-15.97-3.16
			c-6.31,0.62-12.13,3.03-17.45,7.24c-6.31,5.08-11.36,11.54-15.13,19.4c-3.78,7.86-7.09,17.24-9.93,28.13
			c0,0.25-0.12,0.87-0.37,1.86c-0.25,0.99-0.53,2.35-0.84,4.08c-0.31,1.73-0.59,3.16-0.84,4.27c-0.5,2.85-0.93,5.08-1.3,6.68
			l-0.56,2.23c-0.12,0.5-0.25,0.9-0.37,1.21c-0.12,0.31-0.25,0.59-0.37,0.84c-0.5,0.87-1.18,1.49-2.04,1.86
			c-1.36,0.74-2.72,0.87-4.09,0.37c-1.24-0.37-2.23-1.11-2.97-2.23c-0.5-0.86-0.87-1.98-1.11-3.34c0-0.12-0.06-0.74-0.19-1.86v-0.56
			c-0.5-1.73-1.49-5.63-2.97-11.7c-1.24-4.58-2.35-8.36-3.34-11.33c-6.19-17.95-12.26-30.08-18.2-36.4
			c-3.96-4.33-8.11-6.62-12.44-6.87c-3.84-0.12-7.98,1.18-12.44,3.9c0.37,0.62,0.56,1.24,0.56,1.86c0.25,2.72,0.65,5.73,1.21,9.01
			c0.56,3.28,1.14,6.1,1.76,8.45l2.41,10.03c1.11,4.08,1.92,7.18,2.41,9.28c3.84,16.34,4.58,29.34,2.23,38.99
			c-0.5,2.23-1.18,4.33-2.04,6.31c-0.87,1.98-2.01,3.99-3.44,6.03c-1.42,2.04-2.57,3.59-3.44,4.64c-0.87,1.05-2.29,2.69-4.27,4.92
			c-1.98,2.23-3.16,3.59-3.53,4.08c-7.18,8.42-12.56,16.78-16.15,25.07c-3.46,8.17-4.76,17.02-3.9,26.55
			c0.74,8.91,3.28,15.16,7.61,18.75c7.18,5.69,15.84,6.56,26,2.6c5.82-2.35,12.5-6.56,20.05-12.63c-0.12-1.24,0.25-2.35,1.11-3.34
			C576.81,271.52,578.48,271.02,580.46,271.52z M584.92,287.68l-4.27-3.9c-3.96,3.09-7.61,5.69-10.96,7.8
			C574.77,290.58,579.84,289.28,584.92,287.68z M606.83,278.76l-4.64-5.76l-3.71-5.01l-10.4,9.66l7.24,6.31
			C599.28,282.35,603.12,280.62,606.83,278.76z M627.81,266.51c-1.73,0-3.1-0.74-4.08-2.23c-3.71-5.69-6.75-9.96-9.1-12.81
			l-9.28,9.66l4.64,6.13c2.1,2.72,4.02,5.01,5.76,6.87C619.83,271.77,623.85,269.23,627.81,266.51z M653.07,210.43
			c5.07,8.79,8.36,14.86,9.84,18.2c0.62,1.11,0.71,2.32,0.28,3.62c-0.44,1.3-1.24,2.23-2.41,2.79c-1.18,0.56-2.41,0.62-3.71,0.19
			c-1.3-0.43-2.2-1.27-2.69-2.51c-1.73-3.34-4.83-8.91-9.28-16.71l-9.66,12.07c0.12,0.12,0.25,0.31,0.37,0.56
			c3.59,4.83,7.43,10.46,11.51,16.9c0.74,1.11,0.96,2.32,0.65,3.62c-0.31,1.3-1.02,2.32-2.14,3.06c-1.11,0.74-2.32,0.96-3.62,0.65
			c-1.3-0.31-2.32-1.02-3.06-2.14c-3.71-5.82-7.12-10.89-10.21-15.23l-7.8,8.91c2.97,3.22,6.56,8.11,10.77,14.67
			c0.86,1.36,0.99,2.79,0.37,4.27c16.46-11.88,30.64-25.87,42.52-41.97h-0.37c-1.11,0.74-2.32,0.96-3.62,0.65
			c-1.3-0.31-2.26-1.08-2.88-2.32c-1.11-1.73-3.16-5.45-6.13-11.14c-1.86-3.46-3.41-6.19-4.64-8.17l-6.13,8.17
			C651.89,208.94,652.57,209.56,653.07,210.43z M686.49,159.92c2.47,9.04,5.07,15.97,7.8,20.8c0.74,1.11,0.93,2.32,0.56,3.62
			c-0.37,1.3-1.11,2.29-2.23,2.97c-1.11,0.68-2.32,0.84-3.62,0.46c-1.3-0.37-2.26-1.11-2.88-2.23c-2.85-4.83-5.39-10.83-7.61-18.01
			l-3.71,6.31c0.12,0.25,0.25,0.44,0.37,0.56c1.36,2.6,3.16,6.31,5.38,11.14l4.64,10.58c0.62,1.11,0.71,2.32,0.28,3.62
			c-0.44,1.3-1.24,2.23-2.41,2.79c-1.18,0.56-2.41,0.62-3.71,0.19c-1.3-0.43-2.2-1.27-2.69-2.51c-1.11-2.1-2.54-5.07-4.27-8.91
			l-3.53-7.8l-5.76,8.54l0.74,0.74c1.73,2.6,3.9,6.38,6.5,11.33l5.76,10.77c0.74,1.11,0.93,2.35,0.56,3.71
			c7.55-10.77,13.62-21.91,18.2-33.42c2.47-6.31,4.58-12.56,6.31-18.75c-0.12,0.12-0.31,0.25-0.56,0.37
			c-1.11,0.74-2.32,0.96-3.62,0.65c-1.3-0.31-2.26-1.08-2.88-2.32c-1.49-2.48-3.22-6.06-5.2-10.77c-0.74-2.1-1.3-3.59-1.67-4.46
			l-3.16,7.06C685.31,157.57,686.12,158.56,686.49,159.92z M703.76,120.18c-2.97-8.54-8.85-14.23-17.64-17.08
			c-3.1-1.11-6.19-1.92-9.28-2.41c3.96,2.6,7.18,5.88,9.66,9.84v-0.19c0.86-0.86,1.98-1.33,3.34-1.39c1.36-0.06,2.54,0.34,3.53,1.21
			L703.76,120.18z M692.06,122.04l-1.3-1.11c0.12,0.5,0.25,1.05,0.37,1.67C691.38,122.35,691.69,122.17,692.06,122.04z
			 M693.18,140.05c1.24,2.35,2.85,5.94,4.83,10.77c1.61,4.21,3.03,7.37,4.27,9.47l0.37,0.74c1.24-4.95,2.16-9.66,2.79-14.11
			c-2.11,0.37-3.71-0.31-4.83-2.04l-8.91-12.81c-0.25,1.98-0.56,3.96-0.93,5.94C691.75,138.38,692.55,139.06,693.18,140.05z
			 M701.16,128.91l5.01,7.06c-0.12-3.59-0.44-6.93-0.93-10.03c-0.25,0.62-0.62,1.18-1.11,1.67
			C703.26,128.35,702.27,128.79,701.16,128.91z"/>
		<path class="st0" d="M758.72,111.83c-1.73-0.74-2.72-2.04-2.97-3.9c-0.12-1.36,0.25-2.57,1.11-3.62c0.86-1.05,1.92-1.64,3.16-1.76
			c0.49,0,1.61-0.12,3.34-0.37c0.74-0.49,1.55-0.99,2.41-1.49c0.86-0.49,1.67-0.93,2.41-1.3c0.74-0.37,1.67-0.71,2.79-1.02
			c1.11-0.31,1.98-0.53,2.6-0.65c0.62-0.12,1.49-0.31,2.6-0.56l2.41-0.37c0.37,0,1.17-0.06,2.41-0.19l1.67-0.19
			c13.49-1.36,24.94,0.99,34.35,7.06c9.53,6.31,15.84,16.09,18.94,29.34c4.33,18.08,3.28,36.64-3.16,55.71
			c-6.44,19.06-16.84,34.35-31.2,45.87c-0.99,0.87-2.11,1.24-3.34,1.11c-1.24-0.12-2.29-0.62-3.16-1.49c-2.72,4.33-5.88,7-9.47,7.98
			c-7.92,2.11-14.24-2.23-18.94-13c-2.11-4.95-3.9-11.45-5.39-19.5c-0.62-3.96-1.36-11.26-2.23-21.91
			c-0.99-10.4-1.67-21.04-2.04-31.94c-0.5-13.25-0.44-24.02,0.19-32.31C757.48,118.76,757.98,114.92,758.72,111.83z M793.26,290.65
			c-5.32,1.61-10.34,1.86-15.04,0.74c-6.31-1.36-10.58-4.64-12.81-9.84c-2.23-5.7-1.55-12.81,2.04-21.35
			c0.74-1.73,1.98-2.72,3.71-2.97c0.74-0.86,1.7-1.79,2.88-2.79c1.18-0.99,2.69-1.86,4.55-2.6l1.67-0.56
			c0.62-0.25,1.05-0.43,1.3-0.56c9.53-4.7,18.38-6.25,26.55-4.64c4.83,0.99,8.82,3.28,11.98,6.87c3.16,3.59,4.92,8.42,5.29,14.48
			c0.25,3.09,0.25,5.32,0,6.68c-0.37,2.23-1.42,4.52-3.16,6.87c-0.87,1.24-1.76,2.32-2.69,3.25c-0.93,0.93-2.01,1.83-3.25,2.69
			l-3.34,1.86c-0.87,0.62-2.11,1.24-3.71,1.86c-1.61,0.62-2.69,1.05-3.25,1.3c-0.56,0.25-1.74,0.65-3.53,1.21
			c-1.8,0.56-2.82,0.9-3.06,1.02c-1.24,0.37-2.45,0.25-3.62-0.37c-1.18-0.62-2.01-1.55-2.51-2.79V290.65z M802.17,137.64
			c-2.23-15.1-9.04-23.83-20.43-26.18c-3.22-0.62-7.55-0.68-13-0.19c-0.12,0.62-0.31,1.36-0.56,2.23c-0.62,2.6-1.05,6.13-1.3,10.58
			c-0.62,7.92-0.68,18.38-0.19,31.38c0.37,10.65,0.99,21.05,1.86,31.2c0.86,10.4,1.67,17.39,2.41,20.98
			c1.24,7.43,2.79,13.31,4.64,17.64c2.47,5.57,4.95,8.05,7.43,7.43c1.36-0.37,2.79-1.86,4.27-4.46c1.61-2.72,3.09-6.5,4.46-11.33
			c0.86-2.72,2.72-10.77,5.57-24.14c4.21-20.3,6-36.27,5.39-47.91c-1.36-0.86-2.04-2.16-2.04-3.9
			C800.69,139.62,801.18,138.51,802.17,137.64z M786.2,267.62c-1.98-0.12-4.27-0.12-6.87,0h-1.86c-0.74,0-1.24,0.03-1.49,0.09
			c-0.25,0.06-0.62,0.09-1.11,0.09c-1.36,4.21-1.55,7.55-0.56,10.03c0.99,2.1,2.97,3.53,5.94,4.27c3.22,0.62,6.69,0.37,10.4-0.74
			c3.46-1.11,5.69-2.54,6.68-4.27c0.74-1.24,1.11-2.23,1.11-2.97c0-1.86-0.93-3.28-2.79-4.27l-3.9,0.74
			c-1.24,0.25-2.38,0.09-3.44-0.46C787.29,269.57,786.58,268.74,786.2,267.62z M796.6,259.82c4.46-0.86,9.28-1.61,14.48-2.23
			c-1.36-0.99-3.04-1.67-5.01-2.04c-5.08-1.11-10.96-0.25-17.64,2.6c0.37,0.12,0.74,0.19,1.11,0.19
			C792.15,258.59,794.5,259.08,796.6,259.82z M804.22,107.93c-3.22-1.11-6.69-1.79-10.4-2.04c1.36,0.74,2.66,1.61,3.9,2.6
			c0.74-0.37,1.49-0.56,2.23-0.56H804.22z M818.33,197.99c-4.46,0-8.54-0.06-12.26-0.19c-1.86,9.78-3.53,17.08-5.01,21.91
			l-1.11,3.34C807.37,216.12,813.5,207.77,818.33,197.99z M819.07,118.51c-3.84-0.49-8.36-0.8-13.56-0.93
			c2.97,5.08,5.01,11.27,6.13,18.57c5.82,0,10.71,0.12,14.67,0.37h0.74l-0.37-1.49C825.07,128.48,822.54,122.97,819.07,118.51z
			 M806.82,267.99c0.86,1.86,1.3,3.9,1.3,6.13v0.19c0.49,0.25,0.86,0.49,1.11,0.74c0.99,0.99,1.49,2.16,1.49,3.53
			c0,0.12,0,0.25,0,0.37c1.49-1.11,2.72-2.29,3.71-3.53c0.86-1.11,1.36-2.11,1.49-2.97c0-0.5-0.06-1.92-0.19-4.27
			c0-0.49-0.06-0.93-0.19-1.3h-0.19L806.82,267.99z M822.23,189.07c1.98-5.2,3.53-10.46,4.64-15.78c-0.87,1.24-2.04,1.92-3.53,2.04
			c-5.45,0.37-9.84,0.62-13.18,0.74c-0.5,3.71-1.18,7.74-2.04,12.07c2.23,0.12,6.13,0.19,11.7,0.19
			C820.68,188.33,821.48,188.58,822.23,189.07z M828.36,145.62c-0.74,0.37-1.55,0.56-2.41,0.56c-3.84-0.25-8.29-0.37-13.37-0.37
			c0.12,6.19-0.25,13.06-1.11,20.61c1.98-0.12,5.69-0.37,11.14-0.74c1.24-0.12,2.32,0.16,3.25,0.84c0.93,0.68,1.51,1.58,1.76,2.69
			C828.97,161.16,829.22,153.3,828.36,145.62z"/>
		<path class="st0" d="M881.46,111.83c-1.73-0.74-2.72-2.04-2.97-3.9c-0.12-1.36,0.25-2.57,1.11-3.62c0.86-1.05,1.92-1.64,3.16-1.76
			c0.49,0,1.61-0.12,3.34-0.37c0.74-0.49,1.55-0.99,2.41-1.49c0.86-0.49,1.67-0.93,2.41-1.3c0.74-0.37,1.67-0.71,2.79-1.02
			c1.11-0.31,1.98-0.53,2.6-0.65c0.62-0.12,1.49-0.31,2.6-0.56l2.41-0.37c0.37,0,1.17-0.06,2.41-0.19l1.67-0.19
			c13.49-1.36,24.94,0.99,34.35,7.06c9.53,6.31,15.84,16.09,18.94,29.34c4.33,18.08,3.28,36.64-3.16,55.71
			c-6.44,19.06-16.84,34.35-31.2,45.87c-0.99,0.87-2.11,1.24-3.34,1.11c-1.24-0.12-2.29-0.62-3.16-1.49c-2.72,4.33-5.88,7-9.47,7.98
			c-7.92,2.11-14.24-2.23-18.94-13c-2.11-4.95-3.9-11.45-5.39-19.5c-0.62-3.96-1.36-11.26-2.23-21.91
			c-0.99-10.4-1.67-21.04-2.04-31.94c-0.5-13.25-0.44-24.02,0.19-32.31C880.22,118.76,880.72,114.92,881.46,111.83z M916,290.65
			c-5.32,1.61-10.34,1.86-15.04,0.74c-6.31-1.36-10.58-4.64-12.81-9.84c-2.23-5.7-1.55-12.81,2.04-21.35
			c0.74-1.73,1.98-2.72,3.71-2.97c0.74-0.86,1.7-1.79,2.88-2.79c1.18-0.99,2.69-1.86,4.55-2.6l1.67-0.56
			c0.62-0.25,1.05-0.43,1.3-0.56c9.53-4.7,18.38-6.25,26.55-4.64c4.83,0.99,8.82,3.28,11.98,6.87c3.16,3.59,4.92,8.42,5.29,14.48
			c0.25,3.09,0.25,5.32,0,6.68c-0.37,2.23-1.42,4.52-3.16,6.87c-0.87,1.24-1.76,2.32-2.69,3.25c-0.93,0.93-2.01,1.83-3.25,2.69
			l-3.34,1.86c-0.87,0.62-2.11,1.24-3.71,1.86c-1.61,0.62-2.69,1.05-3.25,1.3c-0.56,0.25-1.74,0.65-3.53,1.21
			c-1.8,0.56-2.82,0.9-3.06,1.02c-1.24,0.37-2.45,0.25-3.62-0.37c-1.18-0.62-2.01-1.55-2.51-2.79V290.65z M924.91,137.64
			c-2.23-15.1-9.04-23.83-20.43-26.18c-3.22-0.62-7.55-0.68-13-0.19c-0.12,0.62-0.31,1.36-0.56,2.23c-0.62,2.6-1.05,6.13-1.3,10.58
			c-0.62,7.92-0.68,18.38-0.19,31.38c0.37,10.65,0.99,21.05,1.86,31.2c0.86,10.4,1.67,17.39,2.41,20.98
			c1.24,7.43,2.79,13.31,4.64,17.64c2.47,5.57,4.95,8.05,7.43,7.43c1.36-0.37,2.79-1.86,4.27-4.46c1.61-2.72,3.09-6.5,4.46-11.33
			c0.86-2.72,2.72-10.77,5.57-24.14c4.21-20.3,6-36.27,5.39-47.91c-1.36-0.86-2.04-2.16-2.04-3.9
			C923.43,139.62,923.92,138.51,924.91,137.64z M908.94,267.62c-1.98-0.12-4.27-0.12-6.87,0h-1.86c-0.74,0-1.24,0.03-1.49,0.09
			c-0.25,0.06-0.62,0.09-1.11,0.09c-1.36,4.21-1.55,7.55-0.56,10.03c0.99,2.1,2.97,3.53,5.94,4.27c3.22,0.62,6.69,0.37,10.4-0.74
			c3.46-1.11,5.69-2.54,6.68-4.27c0.74-1.24,1.11-2.23,1.11-2.97c0-1.86-0.93-3.28-2.79-4.27l-3.9,0.74
			c-1.24,0.25-2.38,0.09-3.44-0.46C910.03,269.57,909.32,268.74,908.94,267.62z M919.34,259.82c4.46-0.86,9.28-1.61,14.48-2.23
			c-1.36-0.99-3.04-1.67-5.01-2.04c-5.08-1.11-10.96-0.25-17.64,2.6c0.37,0.12,0.74,0.19,1.11,0.19
			C914.89,258.59,917.24,259.08,919.34,259.82z M926.96,107.93c-3.22-1.11-6.69-1.79-10.4-2.04c1.36,0.74,2.66,1.61,3.9,2.6
			c0.74-0.37,1.49-0.56,2.23-0.56H926.96z M941.07,197.99c-4.46,0-8.54-0.06-12.26-0.19c-1.86,9.78-3.53,17.08-5.01,21.91
			l-1.11,3.34C930.11,216.12,936.24,207.77,941.07,197.99z M941.81,118.51c-3.84-0.49-8.36-0.8-13.56-0.93
			c2.97,5.08,5.01,11.27,6.13,18.57c5.82,0,10.71,0.12,14.67,0.37h0.74l-0.37-1.49C947.81,128.48,945.28,122.97,941.81,118.51z
			 M929.56,267.99c0.86,1.86,1.3,3.9,1.3,6.13v0.19c0.49,0.25,0.86,0.49,1.11,0.74c0.99,0.99,1.49,2.16,1.49,3.53
			c0,0.12,0,0.25,0,0.37c1.49-1.11,2.72-2.29,3.71-3.53c0.86-1.11,1.36-2.11,1.49-2.97c0-0.5-0.06-1.92-0.19-4.27
			c0-0.49-0.06-0.93-0.19-1.3h-0.19L929.56,267.99z M944.97,189.07c1.98-5.2,3.53-10.46,4.64-15.78c-0.87,1.24-2.04,1.92-3.53,2.04
			c-5.45,0.37-9.84,0.62-13.18,0.74c-0.5,3.71-1.18,7.74-2.04,12.07c2.23,0.12,6.13,0.19,11.7,0.19
			C943.42,188.33,944.23,188.58,944.97,189.07z M951.1,145.62c-0.74,0.37-1.55,0.56-2.41,0.56c-3.84-0.25-8.29-0.37-13.37-0.37
			c0.12,6.19-0.25,13.06-1.11,20.61c1.98-0.12,5.69-0.37,11.14-0.74c1.24-0.12,2.32,0.16,3.25,0.84c0.93,0.68,1.51,1.58,1.76,2.69
			C951.71,161.16,951.96,153.3,951.1,145.62z"/>
		<path class="st0" d="M1004.2,111.83c-1.73-0.74-2.72-2.04-2.97-3.9c-0.12-1.36,0.25-2.57,1.11-3.62c0.86-1.05,1.92-1.64,3.16-1.76
			c0.49,0,1.61-0.12,3.34-0.37c0.74-0.49,1.55-0.99,2.41-1.49c0.86-0.49,1.67-0.93,2.41-1.3c0.74-0.37,1.67-0.71,2.79-1.02
			c1.11-0.31,1.98-0.53,2.6-0.65c0.62-0.12,1.49-0.31,2.6-0.56l2.41-0.37c0.37,0,1.17-0.06,2.41-0.19l1.67-0.19
			c13.49-1.36,24.94,0.99,34.35,7.06c9.53,6.31,15.84,16.09,18.94,29.34c4.33,18.08,3.28,36.64-3.16,55.71
			c-6.44,19.06-16.84,34.35-31.2,45.87c-0.99,0.87-2.11,1.24-3.34,1.11c-1.24-0.12-2.29-0.62-3.16-1.49c-2.72,4.33-5.88,7-9.47,7.98
			c-7.92,2.11-14.24-2.23-18.94-13c-2.11-4.95-3.9-11.45-5.39-19.5c-0.62-3.96-1.36-11.26-2.23-21.91
			c-0.99-10.4-1.67-21.04-2.04-31.94c-0.5-13.25-0.44-24.02,0.19-32.31C1002.96,118.76,1003.46,114.92,1004.2,111.83z
			 M1038.74,290.65c-5.32,1.61-10.34,1.86-15.04,0.74c-6.31-1.36-10.58-4.64-12.81-9.84c-2.23-5.7-1.55-12.81,2.04-21.35
			c0.74-1.73,1.98-2.72,3.71-2.97c0.74-0.86,1.7-1.79,2.88-2.79c1.18-0.99,2.69-1.86,4.55-2.6l1.67-0.56
			c0.62-0.25,1.05-0.43,1.3-0.56c9.53-4.7,18.38-6.25,26.55-4.64c4.83,0.99,8.82,3.28,11.98,6.87c3.16,3.59,4.92,8.42,5.29,14.48
			c0.25,3.09,0.25,5.32,0,6.68c-0.37,2.23-1.42,4.52-3.16,6.87c-0.87,1.24-1.76,2.32-2.69,3.25c-0.93,0.93-2.01,1.83-3.25,2.69
			l-3.34,1.86c-0.87,0.62-2.11,1.24-3.71,1.86c-1.61,0.62-2.69,1.05-3.25,1.3c-0.56,0.25-1.74,0.65-3.53,1.21
			c-1.8,0.56-2.82,0.9-3.06,1.02c-1.24,0.37-2.45,0.25-3.62-0.37c-1.18-0.62-2.01-1.55-2.51-2.79V290.65z M1047.65,137.64
			c-2.23-15.1-9.04-23.83-20.43-26.18c-3.22-0.62-7.55-0.68-13-0.19c-0.12,0.62-0.31,1.36-0.56,2.23c-0.62,2.6-1.05,6.13-1.3,10.58
			c-0.62,7.92-0.68,18.38-0.19,31.38c0.37,10.65,0.99,21.05,1.86,31.2c0.86,10.4,1.67,17.39,2.41,20.98
			c1.24,7.43,2.79,13.31,4.64,17.64c2.47,5.57,4.95,8.05,7.43,7.43c1.36-0.37,2.79-1.86,4.27-4.46c1.61-2.72,3.09-6.5,4.46-11.33
			c0.86-2.72,2.72-10.77,5.57-24.14c4.21-20.3,6-36.27,5.39-47.91c-1.36-0.86-2.04-2.16-2.04-3.9
			C1046.17,139.62,1046.66,138.51,1047.65,137.64z M1031.68,267.62c-1.98-0.12-4.27-0.12-6.87,0h-1.86c-0.74,0-1.24,0.03-1.49,0.09
			c-0.25,0.06-0.62,0.09-1.11,0.09c-1.36,4.21-1.55,7.55-0.56,10.03c0.99,2.1,2.97,3.53,5.94,4.27c3.22,0.62,6.69,0.37,10.4-0.74
			c3.46-1.11,5.69-2.54,6.68-4.27c0.74-1.24,1.11-2.23,1.11-2.97c0-1.86-0.93-3.28-2.79-4.27l-3.9,0.74
			c-1.24,0.25-2.38,0.09-3.44-0.46C1032.77,269.57,1032.06,268.74,1031.68,267.62z M1042.08,259.82c4.46-0.86,9.28-1.61,14.48-2.23
			c-1.36-0.99-3.04-1.67-5.01-2.04c-5.08-1.11-10.96-0.25-17.64,2.6c0.37,0.12,0.74,0.19,1.11,0.19
			C1037.63,258.59,1039.98,259.08,1042.08,259.82z M1049.7,107.93c-3.22-1.11-6.69-1.79-10.4-2.04c1.36,0.74,2.66,1.61,3.9,2.6
			c0.74-0.37,1.49-0.56,2.23-0.56H1049.7z M1063.81,197.99c-4.46,0-8.54-0.06-12.26-0.19c-1.86,9.78-3.53,17.08-5.01,21.91
			l-1.11,3.34C1052.85,216.12,1058.98,207.77,1063.81,197.99z M1064.55,118.51c-3.84-0.49-8.36-0.8-13.56-0.93
			c2.97,5.08,5.01,11.27,6.13,18.57c5.82,0,10.71,0.12,14.67,0.37h0.74l-0.37-1.49C1070.55,128.48,1068.02,122.97,1064.55,118.51z
			 M1052.3,267.99c0.86,1.86,1.3,3.9,1.3,6.13v0.19c0.49,0.25,0.86,0.49,1.11,0.74c0.99,0.99,1.49,2.16,1.49,3.53
			c0,0.12,0,0.25,0,0.37c1.49-1.11,2.72-2.29,3.71-3.53c0.86-1.11,1.36-2.11,1.49-2.97c0-0.5-0.06-1.92-0.19-4.27
			c0-0.49-0.06-0.93-0.19-1.3h-0.19L1052.3,267.99z M1067.71,189.07c1.98-5.2,3.53-10.46,4.64-15.78c-0.87,1.24-2.04,1.92-3.53,2.04
			c-5.45,0.37-9.84,0.62-13.18,0.74c-0.5,3.71-1.18,7.74-2.04,12.07c2.23,0.12,6.13,0.19,11.7,0.19
			C1066.16,188.33,1066.96,188.58,1067.71,189.07z M1073.84,145.62c-0.74,0.37-1.55,0.56-2.41,0.56c-3.84-0.25-8.29-0.37-13.37-0.37
			c0.12,6.19-0.25,13.06-1.11,20.61c1.98-0.12,5.69-0.37,11.14-0.74c1.24-0.12,2.32,0.16,3.25,0.84c0.93,0.68,1.51,1.58,1.76,2.69
			C1074.45,161.16,1074.7,153.3,1073.84,145.62z"/>
	</g>
	<g>
		<g>
			<path class="st0" d="M284.41,6.34c-0.62-0.86-0.87-1.86-0.74-2.97c0.25-1.11,0.84-1.98,1.76-2.6c0.93-0.62,1.95-0.86,3.06-0.74
				l5.01,1.11c0.86-0.25,1.67-0.37,2.41-0.37h4.83h3.34c0.49,0,0.93,0.06,1.3,0.19c0.74,0,1.3,0.06,1.67,0.19
				c3.22,1.11,6.22,3.04,9.01,5.76c2.79,2.72,4.98,5.82,6.59,9.28c3.96,8.42,3.77,15.72-0.56,21.91
				c-6.81,10.15-20.36,15.23-40.67,15.23h-0.74c-1.49,0.74-2.91,1.36-4.27,1.86c-3.47,1.24-6.19,1.3-8.17,0.19
				c-4.95-2.48-6.81-7.24-5.57-14.3c0.87-5.08,3.28-10.77,7.24-17.08c3.59-5.94,7.61-11.08,12.07-15.41
				C282.74,7.83,283.55,7.09,284.41,6.34z M294.63,32.34c0.74-0.87,1.49-1.67,2.23-2.41c4.58-5.57,6.44-10.03,5.57-13.37
				c-0.62-2.85-3.47-5.14-8.54-6.87c-1.86,0.99-3.96,2.6-6.31,4.83c-3.96,3.71-7.55,8.23-10.77,13.56
				c-3.34,5.45-5.32,10.21-5.94,14.3c-0.5,2.85-0.25,4.7,0.74,5.57c0.62,0,1.3-0.19,2.04-0.56c1.98-0.74,4.33-1.98,7.06-3.71
				c3.22-1.98,6.31-4.27,9.28-6.87c-0.12-0.99,0.12-1.86,0.74-2.6C291.59,32.71,292.89,32.09,294.63,32.34z M297.6,43.67l-1.86-1.11
				l-2.04,1.86L297.6,43.67z M310.6,38.47l-0.74-0.37c-0.99-0.5-1.67-0.93-2.04-1.3c-0.62-0.37-1.24-0.99-1.86-1.86l-1.3-1.67
				l-1.49,1.86l-1.49,1.49l2.41,1.67c0.99,0.74,1.55,1.73,1.67,2.97C307.62,40.39,309.23,39.46,310.6,38.47z M310.41,27.33l2.04,2.6
				c0.12,0.12,0.19,0.25,0.19,0.37l0.74,0.37l2.79,1.3c1.61-3.46,1.3-7.61-0.93-12.44c-1.36-2.97-3.28-5.51-5.76-7.61
				c0.37,0.87,0.68,1.74,0.93,2.6c0.86,3.59,0.37,7.49-1.49,11.7C309.54,26.46,310.04,26.83,310.41,27.33z"/>
		</g>
	</g>
</g>
</svg>
