<?xml version="1.0" encoding="utf-8"?>
<!-- Generator: Adobe Illustrator 26.0.3, SVG Export Plug-In . SVG Version: 6.00 Build 0)  -->
<svg version="1.1" id="Layer_1" xmlns="http://www.w3.org/2000/svg" xmlns:xlink="http://www.w3.org/1999/xlink" x="0px" y="0px"
	 viewBox="0 0 29.24 29.24" style="enable-background:new 0 0 29.24 29.24;" xml:space="preserve">
<style type="text/css">
	.st0{fill:#FFFFFF;}
</style>
<path class="st0" d="M29.24,7.65C29.24,3.44,25.8,0,21.59,0H7.65C3.44,0,0,3.44,0,7.65v13.94c0,4.21,3.44,7.65,7.65,7.65l4.69,0
	v-9.91H8.62V15.1h3.71v-3.22c0-3.66,2.18-5.69,5.52-5.69c1.6,0,3.27,0.29,3.27,0.29v3.6h-1.84c-1.82,0-2.38,1.13-2.38,2.28v2.74
	h4.06l-0.65,4.23h-3.41v9.91h4.69c4.21,0,7.65-3.44,7.65-7.65L29.24,7.65z"/>
</svg>
