<?xml version="1.0" encoding="utf-8"?>
<!-- Generator: Adobe Illustrator 26.0.3, SVG Export Plug-In . SVG Version: 6.00 Build 0)  -->
<svg version="1.1" id="Layer_1" xmlns="http://www.w3.org/2000/svg" xmlns:xlink="http://www.w3.org/1999/xlink" x="0px" y="0px"
	 viewBox="0 0 211.09 154.21" style="enable-background:new 0 0 211.09 154.21;" xml:space="preserve">
<style type="text/css">
	.st0{fill:#FFFFFF;}
	.st1{fill:none;stroke:#FFFFFF;stroke-width:2.057;stroke-miterlimit:10;}
</style>
<g>
	<g id="Group_86">
		<path id="Path_547" class="st0" d="M75.42,107.13c3.39,2.01,7.36,2.55,11.22,2.84c4.23,0.31,8.47,0.49,12.71,0.62
			c8.63,0.39,17.27,0.09,25.85-0.9c2.11-0.27,4.21-0.61,6.31-1.01c1.08-0.21,2.16-0.43,3.23-0.68c1.01-0.18,2.01-0.47,2.97-0.85
			c0.89-0.33,1.59-1.01,1.94-1.89c0.19-0.75,0.05-1.54-0.37-2.18c-0.96-1.58-3.01-1.89-4.68-2.11c-8.77-1.14-17.63-1.36-26.45-0.65
			c-4.09,0.27-8.16,0.82-12.18,1.64c-3.27,0.72-6.73,1.93-9.16,4.33c-0.58,0.56-1.1,1.19-1.54,1.87c-0.35,0.54,0.3,0.77,0.75,0.78
			c0.7,0.04,1.38-0.24,1.86-0.76c1.63-2.27,4.04-3.86,6.77-4.46c3.4-0.84,6.86-1.4,10.36-1.66c8.05-0.82,16.16-0.83,24.21-0.03
			c1.03,0.1,2.06,0.22,3.08,0.35c0.87,0.07,1.73,0.21,2.58,0.44c0.71,0.18,1.33,0.62,1.73,1.24c0.38,0.55,0.42,1.26,0.12,1.85
			c-0.32,0.45-1.11,0.47-1.68,0.6c-0.93,0.22-1.87,0.43-2.8,0.62c-1.94,0.39-3.9,0.71-5.86,0.98c-7.88,0.98-15.83,1.32-23.77,1.03
			c-4.02-0.1-8.04-0.3-12.05-0.52c-3.51-0.19-7.13-0.35-10.45-1.62c-0.84-0.32-1.66-0.72-2.43-1.18c-0.67-0.22-1.4-0.12-1.99,0.27
			C75.27,106.33,74.87,106.8,75.42,107.13"/>
		<path id="Path_548" class="st0" d="M21.43,60.95c-6.31,12.43-10.19,26.5-8.84,40.52c1.18,12.26,6.47,24.4,15.83,32.61
			c5.11,4.28,10.9,7.67,17.12,10.05c6.03,2.45,12.22,4.45,18.54,5.99c12.6,3.14,25.57,4.48,38.55,3.99
			c13.01-0.47,25.86-3.04,38.05-7.61c6.01-2.25,11.79-5.07,17.26-8.42c5.15-3.05,9.72-6.98,13.5-11.62
			c3.69-4.49,5.78-10.09,5.92-15.9c0-6.54-2.85-12.8-6.99-17.76c-4.17-5-9.62-8.76-15.33-11.79c-12.42-6.59-26.22-10.14-40.28-10.34
			c-7.62,0-15.23,0.64-22.74,1.93c-6.51,0.91-12.97,2.17-19.34,3.79c-5.43,1.48-10.91,3.57-15.31,7.17
			c-2.05,1.66-3.79,3.67-5.15,5.93c-0.29,0.48,1,0.38,1.14,0.35c0.63-0.04,1.22-0.33,1.63-0.81c5.7-9.53,17.67-11.92,27.76-13.75
			c7.26-1.43,14.59-2.46,21.96-3.1c7-0.54,14.04-0.25,20.98,0.84c6.73,1.1,13.32,2.99,19.61,5.62c6.07,2.42,11.76,5.7,16.9,9.74
			c5.05,3.92,8.88,9.2,11.04,15.21c1.94,5.69,1.61,11.9-0.91,17.35c-4.94,10.68-16.05,17.37-26.33,22.11
			c-11.22,5.1-23.22,8.25-35.49,9.34c-12.5,1.14-25.1,0.48-37.42-1.96c-6.16-1.2-12.23-2.82-18.17-4.84
			c-6.17-1.96-12.09-4.62-17.65-7.93c-5.3-3.25-9.85-7.58-13.38-12.69c-3.34-4.98-5.78-10.52-7.18-16.36
			c-3.19-12.96-1.32-26.59,3.38-38.95c1.2-3.14,2.56-6.21,4.09-9.2c0.25-0.49-0.97-0.38-1.15-0.35
			C22.54,60.21,21.69,60.42,21.43,60.95"/>
		<path id="Path_549" class="st0" d="M48.09,35.71c2.06,4.63,3.26,9.59,3.55,14.65c0.5,5.67,0.65,11.36,0.45,17.05
			c-0.36,10-1.86,20.83,3.45,29.89c2.25,4.13,5.99,7.26,10.46,8.74c0.67,0.14,1.38,0.02,1.97-0.32c0.28-0.15,0.94-0.68,0.31-0.87
			c-8.62-2.56-12.72-11.86-13.59-20.12c-0.58-5.44-0.12-10.92,0.13-16.36c0.26-5.6,0.19-11.2-0.22-16.79
			c-0.42-5.67-1.2-11.45-3.71-16.62C50.51,34.16,47.8,35.1,48.09,35.71"/>
		<path id="Path_550" class="st0" d="M29.04,58.48c-5.37,0.79-10.86,0.03-15.82-2.2C8.87,54.34,4.17,51,3.04,46.08
			c-1.21-5.26,2.69-10.16,6.62-13.16c4.01-2.89,8.6-4.9,13.46-5.87c2.81-0.71,5.67-1.18,8.56-1.41c2.87-0.21,5.74,0.44,8.25,1.86
			c0.59,0.23,1.26,0.2,1.83-0.09c0.16-0.06,1.29-0.64,0.8-0.93c-2.5-1.44-5.33-2.2-8.22-2.2c-2.97,0.07-5.93,0.44-8.83,1.11
			c-5.68,0.95-11.13,2.96-16.07,5.93C4.94,34.18,0.19,38.87,0,44.52c-0.17,5.47,4.52,9.63,8.95,11.98
			c6.02,3.15,12.9,4.28,19.61,3.21c0.43-0.07,1.51-0.31,1.63-0.84S29.31,58.43,29.04,58.48"/>
		<path id="Path_551" class="st0" d="M16.47,57.77c2.71-7.12,2.83-14.96,0.33-22.15c-0.71-2.04-1.63-3.99-2.75-5.84
			c-0.38-0.63-2.98,0.47-2.81,0.75c3.87,6.48,5.34,14.11,4.16,21.55c-0.34,2.13-0.9,4.21-1.68,6.21c-0.16,0.43,0.94,0.22,1.1,0.19
			C15.2,58.41,16.3,58.22,16.47,57.77"/>
		<path id="Path_552" class="st0" d="M28.92,34.61c-1.02,2.02-2.01,4.72-0.31,6.69c1.84,2.13,5.21,1.35,7.16-0.23
			c1-0.79,1.75-1.86,2.14-3.08c0.17-0.51-0.1-1.06-0.6-1.23c-0.09-0.03-0.18-0.05-0.28-0.05c-0.61-0.07-1.61,0.19-1.82,0.89
			c-0.08,0.27-0.18,0.54-0.31,0.8c-0.02,0.03-0.19,0.36-0.12,0.24s-0.13,0.19-0.15,0.22c-0.08,0.12-0.17,0.23-0.26,0.34
			c-0.04,0.04-0.36,0.38-0.12,0.15c-0.18,0.17-0.37,0.33-0.57,0.48c-0.06,0.04-0.12,0.08-0.18,0.12c0.16-0.1,0.17-0.11,0.04-0.02
			c-0.09,0.05-0.19,0.1-0.28,0.15c-0.12,0.08-0.25,0.14-0.39,0.18c0.2-0.07,0.22-0.08,0.06-0.03c-0.07,0.02-0.14,0.04-0.2,0.06
			c-0.1,0.03-0.21,0.05-0.31,0.08c-0.15,0.03-0.14,0.03,0.05,0c-0.09,0.01-0.17,0.02-0.26,0.03c-0.09,0.01-0.17,0.01-0.26,0.01
			c0.15,0.01,0.14,0.01-0.02,0c-0.08-0.01-0.17-0.02-0.25-0.04c0.1,0.03,0.11,0.03,0.02,0c-0.07-0.03-0.38-0.2-0.15-0.05
			c-0.11-0.07-0.22-0.15-0.32-0.24s-0.1-0.09-0.01,0c-0.03-0.04-0.07-0.08-0.1-0.12c-0.07-0.09-0.14-0.19-0.2-0.29
			c-0.04-0.06-0.07-0.12-0.1-0.18c0.05,0.11,0.04,0.1-0.01-0.02s-0.1-0.26-0.14-0.39c-0.03-0.1-0.05-0.2-0.07-0.31
			c-0.01-0.04-0.05-0.45-0.04-0.23c0.04-1.25,0.4-2.47,1.07-3.54c0.31-0.62-0.29-1.21-0.88-1.28C30,33.61,29.28,33.96,28.92,34.61"
			/>
		<path id="Path_553" class="st0" d="M170.17,92.23c3.02-5.93,7.14-11.24,12.13-15.65c2.49-2.2,5.18-4.15,8.04-5.83
			c0.58-0.41,1.22-0.73,1.89-0.96c0.61-0.08,1.22,0.06,1.74,0.39c1.69,0.97,1.38,2.82,0.65,4.33c-1.88,3.85-4.13,7.5-6.72,10.91
			c-0.28,0.37,1.02,0.21,1.1,0.2c0.62-0.06,1.2-0.31,1.66-0.72c1.44-1.8,3.11-3.42,4.96-4.79c0.91-0.68,1.87-1.29,2.86-1.84
			c0.44-0.25,0.89-0.48,1.35-0.7c0.49-0.23,1.05-0.4,1.53-0.66c0.06-0.02,0.12-0.04,0.18-0.07l-0.33,0.05l0.19,0.05
			c0.23,0.12,0.44,0.3,0.59,0.51c0.27,0.46,0.46,0.97,0.55,1.49c0.21,0.92,0.3,1.87,0.27,2.81c-0.07,1.97-0.63,3.9-1.61,5.61
			c-1.01,1.87-2.57,3.4-4.45,4.39l2.06-0.01c1.61-1.28,3.37-2.34,5.26-3.16c0.5-0.24,1.04-0.35,1.59-0.34
			c0.75,0,1.48,0.24,2.09,0.68c0.58,0.46,0.55,1.69,0.55,2.39c0,0.8-0.14,1.58-0.4,2.34c-0.53,1.45-1.43,2.74-2.63,3.72
			c-0.64,0.54-1.34,0.99-2.1,1.34c-0.66,0.32-1.37,0.53-2.1,0.63l0.17,0.64c1.32-0.6,2.77-1.4,4.26-0.91
			c1.3,0.41,2.26,1.51,2.49,2.86c0.02,1.19-0.26,2.36-0.79,3.42c-0.22,0.57-0.5,1.12-0.83,1.64c-0.35,0.48-0.79,0.89-1.29,1.19
			c-2.7,1.78-5.6,3.25-8.62,4.39c-2.94,1.37-5.96,2.56-9.04,3.57c-3.58,1.03-7.36,1.14-10.99,0.31c-0.68-0.07-1.36,0.06-1.96,0.38
			c-0.24,0.11-0.96,0.5-0.37,0.64c3.9,0.85,7.93,0.79,11.81-0.16c3.98-0.9,7.63-2.63,11.4-4.17c3.55-1.34,6.95-3.05,10.13-5.11
			c0.61-0.37,1.14-0.84,1.58-1.4c0.4-0.59,0.73-1.22,0.98-1.88c0.47-1.17,1.08-2.69,0.73-3.96c-0.56-1.68-2.11-2.84-3.88-2.9
			c-2.51-0.18-4.96,0.81-7.2,1.84c-0.13,0.06-0.67,0.27-0.61,0.51s0.64,0.15,0.78,0.13c4.19-0.58,8.88-2.62,10.64-6.75
			c0.36-0.84,0.57-1.75,0.63-2.66c0.03-0.5,0.01-1-0.06-1.49c-0.07-0.48-0.09-1.06-0.5-1.36c-1.8-1.34-4.32-0.97-6.33-0.38
			c-2.87,0.96-5.55,2.42-7.92,4.3c-0.38,0.28,0.11,0.39,0.34,0.39c0.59-0.01,1.18-0.14,1.72-0.4c4.26-2.02,7.06-6.22,7.28-10.93
			c0.05-1.11-0.08-2.22-0.37-3.29c-0.11-0.51-0.34-0.99-0.67-1.39c-0.52-0.49-1.25-0.7-1.95-0.56c-1.56,0.24-3.08,0.74-4.46,1.5
			c-1.25,0.59-2.45,1.26-3.6,2.02c-2.52,1.66-4.77,3.71-6.65,6.06l2.76-0.53c2.49-3.31,4.67-6.84,6.53-10.54
			c0.78-1.56,1.44-3.48-0.13-4.79c-1.44-1.2-3.58-0.95-5.24-0.46c-1.94,0.66-3.78,1.6-5.46,2.78c-1.52,0.98-3,2.03-4.42,3.15
			c-2.83,2.25-5.43,4.77-7.76,7.53c-2.64,3.12-4.92,6.54-6.77,10.19c-0.21,0.41,0.98,0.22,1.1,0.2
			C168.95,92.86,169.93,92.68,170.17,92.23"/>
		<path id="Path_554" class="st0" d="M185.62,106.68c-0.01-0.08-0.01-0.16-0.01-0.24l-0.01,0.17c0.02-0.28,0.1-0.56,0.24-0.81
			l-0.1,0.18c0.07-0.11,0.14-0.22,0.23-0.32c0.04-0.05,0.09-0.1,0.14-0.14c-0.23,0.26-0.09,0.08-0.01,0.02
			c0.05-0.04,0.11-0.08,0.16-0.12c0.15-0.11-0.29,0.17-0.12,0.08l0.07-0.04l0.11-0.06c0.15-0.08-0.23,0.1-0.21,0.1
			c0.07-0.02,0.14-0.05,0.21-0.08c0.13-0.05-0.43,0.13-0.23,0.08l0.1-0.03c0.12-0.03,0.28-0.03-0.24,0.05l0.1-0.02
			c0.03-0.01,0.07-0.01,0.1-0.01c0,0-0.41,0.02-0.21,0.02c0.07,0,0.31,0.01,0.06-0.01s0,0.01,0.06,0.01
			c0.03,0.01,0.07,0.02,0.1,0.02c-0.02,0-0.27-0.07-0.12-0.02c0.13,0.04,0.25,0.09,0.37,0.16l-0.18-0.1
			c0.13,0.07,0.24,0.16,0.35,0.26c0.22,0.14,0.48,0.2,0.74,0.17c0.38-0.01,0.75-0.09,1.1-0.23c0.29-0.09,0.56-0.26,0.77-0.49
			c0.11-0.15,0.19-0.33,0.02-0.48c-0.94-0.69-2.15-0.88-3.25-0.5c-0.65,0.16-1.27,0.43-1.83,0.81c-0.36,0.23-0.67,0.54-0.9,0.9
			c-0.28,0.42-0.41,0.92-0.37,1.43c0.02,0.2,0.39,0.28,0.52,0.3c0.35,0.04,0.7,0,1.04-0.1c0.34-0.08,0.66-0.23,0.95-0.44
			c0.18-0.11,0.3-0.31,0.3-0.52"/>
		<path id="Path_555" class="st0" d="M183.72,98.93c0.26-0.37,0.54-0.73,0.85-1.05c0.04-0.04,0.09-0.08,0.12-0.12
			c-0.04,0.05-0.13,0.13-0.04,0.04s0.17-0.16,0.26-0.24c0.17-0.15,0.35-0.3,0.54-0.44c0.08-0.06,0.17-0.12,0.25-0.18
			c0.16-0.11,0.02,0-0.06,0.04c0.05-0.03,0.1-0.06,0.15-0.1c0.19-0.12,0.38-0.23,0.57-0.33l0.15-0.08c0.2-0.1-0.03,0.01-0.1,0.05
			c0.1-0.05,0.21-0.1,0.32-0.14c0.21-0.09,0.43-0.17,0.65-0.24c0.3-0.1,0.56-0.28,0.76-0.51c0.14-0.14,0.15-0.37,0.01-0.52
			c-0.47-0.41-1.34-0.14-1.84,0.02c-2.09,0.69-3.91,2.04-5.18,3.85c-0.14,0.14-0.14,0.37-0.01,0.52c0.22,0.15,0.48,0.22,0.74,0.2
			c0.38-0.01,0.75-0.08,1.1-0.23C183.26,99.34,183.52,99.16,183.72,98.93"/>
		<path id="Path_556" class="st0" d="M177.04,91.57l0.13-0.09l0.96-0.4l-0.03,0.01l1.03-0.13h-0.03l0.42,0.11
			c-0.07-0.04,0.02,0.07,0,0.02c-0.02-0.04-0.03-0.08-0.04-0.12c-0.01-0.07,0-0.14,0.01-0.22c0.03-0.06,0.03-0.07,0-0.03
			s-0.03,0.04,0.05-0.04c0.06-0.06,0.11-0.12,0.17-0.18c0.11-0.12,0.23-0.23,0.35-0.35c0.24-0.23,0.48-0.45,0.73-0.66
			c0.14-0.12,0.27-0.23,0.41-0.35c0.03-0.03,0.12-0.09,0.04-0.03c0.08-0.06,0.15-0.12,0.23-0.18c0.52-0.4,1.06-0.76,1.62-1.1
			c0.08-0.05,0.17-0.1,0.25-0.15c-0.09,0.05-0.11,0.06-0.01,0.01c0.16-0.09,0.32-0.17,0.48-0.26c0.3-0.16,0.61-0.31,0.93-0.45
			c0.26-0.12,0.94-0.62,0.33-0.78c-0.68-0.1-1.36,0.03-1.97,0.35c-1.67,0.75-3.24,1.73-4.65,2.91c-0.33,0.27-0.64,0.56-0.95,0.85
			c-0.33,0.25-0.6,0.56-0.8,0.92c-0.52,1.57,2.38,0.71,2.9,0.15c0.42-0.46-0.37-0.53-0.68-0.51c-0.37,0.03-0.74,0.11-1.09,0.24
			C177.54,91.22,177.27,91.38,177.04,91.57"/>
		<path id="Path_557" class="st0" d="M29.27,24.56c-0.34-7.85-0.4-15.71-0.74-23.55l-2.71,0.72c1.97,2.86,3.53,5.98,4.62,9.27
			c1.31,3.44,2.5,6.94,4.12,10.25c0.82,1.72,1.84,3.34,3.04,4.82c0.51,0.5,1.29,0.6,1.92,0.25c0.49-0.24,1.11-0.96,0.64-1.51
			c-2.1-2.74-3.74-5.81-4.86-9.08c-1.32-3.4-2.46-6.88-4.01-10.2c-0.79-1.78-1.77-3.48-2.92-5.06c-0.4-0.42-1.01-0.57-1.55-0.38
			c-0.46,0.12-1.18,0.55-1.15,1.11c0.34,7.85,0.4,15.71,0.74,23.55c0.05,0.61,0.59,1.06,1.2,1c0.04,0,0.08-0.01,0.12-0.02
			C28.29,25.69,29.3,25.26,29.27,24.56"/>
		<path id="Path_558" class="st0" d="M27.01,12.66c1.65,0.73,3.34,1.34,4.99,2.07c0.67,0.23,1.41,0.03,1.88-0.5
			c0.3-0.32,0.29-0.83-0.04-1.14c-0.09-0.09-0.2-0.15-0.32-0.18c-1.65-0.73-3.34-1.34-4.99-2.07c-0.67-0.23-1.41-0.03-1.88,0.5
			c-0.31,0.32-0.3,0.83,0.02,1.13C26.77,12.56,26.88,12.62,27.01,12.66"/>
		<path id="Path_559" class="st0" d="M28.05,19.01c2.49,0.23,4.87,1.14,6.88,2.63c0.59,0.26,1.26,0.24,1.83-0.06
			c0.21-0.09,1.27-0.62,0.79-0.97c-2.26-1.67-4.94-2.69-7.74-2.94c-0.7-0.07-1.41,0.12-1.99,0.53c-0.15,0.11-0.36,0.3-0.3,0.51
			S27.88,18.99,28.05,19.01"/>
		<path id="Path_560" class="st0" d="M53.58,26.53c3.11,0.55,6.16,1.38,9.12,2.48c2.23,0.76,4.38,1.72,6.43,2.89
			c2,1.1,3.75,2.59,5.15,4.39c0.66,0.89,1.18,1.88,1.54,2.93c0.54,1.19,0.57,2.55,0.08,3.77c-0.21,0.39-0.52,0.71-0.89,0.94
			c-0.37,0.22-0.78,0.39-1.2,0.49c-0.1,0.03-0.2,0.05-0.3,0.07c-0.1,0.02-0.2,0.04-0.3,0.07c0.13-0.02,0.1-0.02-0.08,0.01
			c-0.29,0.05-0.57,0.08-0.86,0.11c-0.57,0.06-1.15,0.08-1.73,0.07c-0.61-0.04-1.21,0.17-1.67,0.59c-0.28,0.3-0.42,0.88,0.06,1.09
			c2.35,1.13,3.87,3.48,3.95,6.08c0.09,2.58-1.27,4.98-3.51,6.25c-0.61,0.35-1.27,0.6-1.96,0.75c-0.68,0.14-1.37,0.18-2.06,0.12
			c-0.66-0.07-1.32,0.19-1.75,0.7c-0.24,0.27-0.21,0.69,0.06,0.93c0.1,0.08,0.22,0.14,0.34,0.16c2.54,0.61,3.73,3.85,2.89,6.17
			c-0.51,1.3-1.47,2.37-2.72,3.01c-0.56,0.29-1.15,0.49-1.76,0.62c-0.83,0.14-1.68,0.14-2.52,0.02c-2.03-0.35-3.96-1.13-5.66-2.29
			c-0.66-0.3-1.42-0.22-2,0.21c-0.45,0.31-0.77,0.93-0.19,1.29c3.8,2.4,8.46,3.65,12.77,1.84c3.42-1.44,6.14-4.98,4.84-8.79
			c-0.59-1.87-2.1-3.3-3.99-3.8l-1.34,1.79c3.64,0.32,7.21-1.17,9.55-3.98c2.03-2.53,2.4-6.02,0.94-8.92
			c-0.77-1.61-2.08-2.9-3.69-3.66l-1.61,1.67c2.61,0.03,5.63-0.19,7.75-1.9c1.08-0.82,1.75-2.07,1.82-3.43
			c0-1.46-0.36-2.89-1.04-4.18c-2.4-4.85-7.6-7.49-12.44-9.32c-3.56-1.39-7.25-2.41-11.01-3.05c-0.72-0.09-1.42,0.23-1.84,0.82
			C52.43,26.14,53.07,26.45,53.58,26.53"/>
		<path id="Path_561" class="st0" d="M58.17,54.18c0.39,0.09,0.77,0.22,1.14,0.38l0.15,0.07c0.01,0.01,0.14,0.07,0.06,0.03
			s0.08,0.04,0.09,0.05l0.12,0.06c0.19,0.1,0.37,0.21,0.54,0.33c0.67,0.46,1.26,1.04,1.74,1.7l-0.09-0.12
			c0.14,0.2,0.27,0.41,0.39,0.62c0.11,0.17,0.31,0.26,0.51,0.25c0.35,0.02,0.7-0.01,1.03-0.11c0.34-0.08,0.66-0.22,0.95-0.42
			c0.11-0.08,0.41-0.3,0.31-0.47c-0.99-1.78-2.69-3.07-4.67-3.54c-0.68-0.12-1.37-0.01-1.97,0.33c-0.2,0.11-0.49,0.25-0.56,0.48
			c-0.04,0.15,0.05,0.31,0.2,0.35C58.14,54.18,58.16,54.18,58.17,54.18"/>
		<path id="Path_562" class="st0" d="M57.08,45.6c0.67,0.21,1.33,0.47,1.97,0.77c0.16,0.07,0.32,0.15,0.47,0.23
			c0.18,0.09-0.14-0.07,0.04,0.02c0.09,0.05,0.17,0.09,0.26,0.14c0.31,0.17,0.61,0.35,0.9,0.54c0.57,0.37,1.13,0.78,1.65,1.22
			c0.51,0.43,0.99,0.9,1.43,1.4c0.52,0.49,1.29,0.59,1.91,0.24c0.45-0.24,1.14-0.94,0.65-1.49c-2.07-2.33-4.72-4.06-7.68-5.01
			c-0.71-0.23-1.49-0.03-1.99,0.53c-0.33,0.35-0.31,0.89,0.04,1.22C56.83,45.5,56.95,45.57,57.08,45.6"/>
		<path id="Path_563" class="st0" d="M58.86,36.84l0.07,0.03l0.22,0.11c0.17,0.08,0.34,0.17,0.5,0.25c0.3,0.15,0.59,0.31,0.88,0.48
			c0.62,0.35,1.23,0.72,1.82,1.11c1.17,0.77,2.28,1.63,3.34,2.55c0.29,0.17,0.62,0.24,0.95,0.2c0.38-0.03,0.75-0.16,1.06-0.38
			c0.51-0.4,0.69-0.94,0.16-1.4c-2.22-1.94-4.7-3.55-7.38-4.8c-0.71-0.22-1.48-0.02-1.99,0.53c-0.2,0.2-0.29,0.49-0.24,0.76
			C58.35,36.59,58.61,36.72,58.86,36.84"/>
		<path id="Path_564" class="st0" d="M9.84,39.5c-1.22-0.81-2.84,0.07-3.6,1.1c-0.66,0.9-0.79,2.08-0.35,3.11
			c0.21,0.49,0.6,0.87,1.1,1.07c0.72,0.24,1.51,0.15,2.16-0.26c1.12-0.69,1.71-2,1.46-3.3c-0.14-0.7-0.76-1.2-1.48-1.19
			c-0.68,0-1.7,0.35-1.77,1.15c-0.05,0.61,1.33,0.36,1.37-0.15c0-0.05,0.01-0.1,0.02-0.14c-0.02,0.06,0.01-0.01,0.01-0.02
			c0.06-0.13-0.06,0.07,0.03-0.04c-0.06,0.07-0.05,0.04-0.01,0.01l-0.07,0.04c0.07-0.03,0.06-0.03-0.04,0.01
			c0.12-0.01-0.02,0-0.04,0c0.04-0.01,0.19,0,0.03-0.01c0.03,0,0.16,0.04,0.05,0c0.01,0,0.16,0.06,0.06,0.02
			c0.03,0.01,0.06,0.03,0.09,0.05c0.06,0.05,0.12,0.11,0.17,0.18c0.13,0.19,0.21,0.41,0.23,0.63c0.05,0.44-0.01,0.88-0.18,1.28
			c-0.09,0.2-0.2,0.39-0.33,0.57c-0.05,0.07-0.11,0.13-0.17,0.19c-0.06,0.07-0.14,0.13-0.22,0.18c-0.03,0.02-0.07,0.04-0.1,0.06
			c0.13-0.07-0.05,0.02-0.06,0.02c0.03-0.01,0.14-0.04,0.01-0.01l-0.07,0.02c0.09-0.02,0.09-0.02,0.01-0.01
			c0.01,0.01-0.16-0.01-0.01,0c-0.01,0-0.2-0.03-0.09-0.01c-0.03-0.01-0.07-0.02-0.1-0.03c-0.06-0.02-0.07-0.02-0.02,0
			C7.93,44.03,7.91,44.02,7.88,44c-0.28-0.14-0.5-0.37-0.62-0.65c-0.32-0.7-0.33-1.5-0.02-2.2c0.19-0.4,0.48-0.74,0.85-0.99
			c0.16-0.11-0.11,0.04,0.06-0.04c0.06-0.02,0.11-0.05,0.17-0.07c-0.15,0.05-0.02,0.01,0.02,0s0.04-0.01-0.04,0.01
			c0.04-0.01,0.07-0.01,0.11-0.01c-0.13,0.01-0.03,0,0,0c0.07,0.01,0.07,0.01,0.01,0c0.04,0.01,0.07,0.02,0.11,0.03
			c0.09,0.03,0.17,0.08,0.24,0.13c0.32,0.13,0.69,0.09,0.97-0.11C9.97,39.95,10.12,39.68,9.84,39.5"/>
		<path id="Path_565" class="st0" d="M21.62,86.58c-0.96,5.33-0.78,10.8,0.53,16.06c0.21,0.85,3.03,0.12,2.81-0.75
			c-1.29-5.14-1.47-10.49-0.54-15.71C24.58,85.25,21.78,85.72,21.62,86.58"/>
		<path id="Path_566" class="st0" d="M88.56,100.59c-0.47,1.64,0.23,3.4,1.69,4.28c0.29,0.14,0.62,0.18,0.93,0.13
			c0.38-0.04,0.74-0.16,1.06-0.37c0.21-0.15,0.49-0.36,0.52-0.64c0.03-0.23-0.09-0.46-0.3-0.56c-0.1-0.06-0.2-0.13-0.3-0.2
			l0.19,0.15c-0.33-0.27-0.61-0.6-0.82-0.98l0.11,0.19c-0.25-0.47-0.4-0.99-0.41-1.53c0,0.07,0,0.15,0.01,0.22
			c-0.01-0.34,0.04-0.68,0.15-1.01c0.03-0.23-0.09-0.46-0.3-0.56c-0.29-0.14-0.62-0.18-0.93-0.13
			C89.47,99.61,88.86,99.99,88.56,100.59"/>
		<path id="Path_567" class="st0" d="M92.96,98.24c-0.71,1.75-0.22,3.76,1.21,4.99c0.22,0.11,0.48,0.16,0.72,0.12
			c0.38-0.02,0.74-0.1,1.1-0.24c0.21-0.08,1.23-0.52,0.82-0.86c-0.24-0.2-0.45-0.43-0.64-0.68l0.09,0.12
			c-0.62-0.86-0.9-1.91-0.79-2.96c0,0.05-0.01,0.1-0.01,0.14c0.04-0.37,0.14-0.74,0.29-1.09c0.08-0.18-0.1-0.29-0.24-0.34
			c-0.3-0.07-0.6-0.07-0.9,0c-0.37,0.06-0.73,0.17-1.07,0.34C93.29,97.86,93.09,98.03,92.96,98.24"/>
		<path id="Path_568" class="st0" d="M130.37,97.92c0.13,0.31,0.19,0.65,0.19,0.99v-0.2c-0.01,0.43-0.11,0.86-0.29,1.25l0.1-0.2
			c-0.12,0.25-0.28,0.48-0.46,0.68l0.18-0.2c-0.09,0.09-0.18,0.18-0.29,0.26c-0.18,0.14,0.26-0.17,0.07-0.05
			c-0.06,0.04-0.12,0.07-0.18,0.11c-0.24,0.12-0.43,0.33-0.54,0.58c-0.04,0.21,0.08,0.42,0.28,0.49c0.67,0.2,1.39,0.1,1.99-0.27
			c1.54-0.78,2.28-2.56,1.75-4.2c-0.22-0.55-1.14-0.43-1.59-0.3c-0.35,0.08-0.67,0.24-0.94,0.47
			C130.51,97.45,130.28,97.69,130.37,97.92"/>
		<path id="Path_569" class="st0" d="M134.03,98.03c0.14,0.18,0.26,0.37,0.36,0.57l-0.12-0.24c0.17,0.36,0.27,0.75,0.3,1.14
			c-0.01-0.09-0.01-0.18-0.02-0.27c0.03,0.4-0.02,0.79-0.12,1.18l0.08-0.27c-0.09,0.29-0.21,0.56-0.38,0.82l0.17-0.25
			c-0.08,0.12-0.18,0.24-0.28,0.35c-0.32,0.29-0.34,0.79-0.05,1.11c0.11,0.12,0.26,0.2,0.42,0.24c0.71,0.21,1.48,0,1.98-0.53
			c1.29-1.42,1.38-3.55,0.23-5.08c-0.52-0.47-1.29-0.55-1.9-0.2C134.23,96.84,133.58,97.47,134.03,98.03"/>
		<circle id="Ellipse_5" class="st1" cx="45.24" cy="59.27" r="1.88"/>
		<ellipse id="Ellipse_6" class="st1" cx="152.75" cy="91.43" rx="3.41" ry="3.4"/>
		<circle id="Ellipse_7" class="st1" cx="45.24" cy="59.27" r="1.88"/>
		<circle id="Ellipse_8" class="st1" cx="159.22" cy="109.19" r="3.06"/>
		<circle id="Ellipse_9" class="st1" cx="39.82" cy="81.17" r="1.88"/>
		<ellipse id="Ellipse_10" class="st1" cx="22.28" cy="75.99" rx="2.94" ry="2.83"/>
		<ellipse id="Ellipse_11" class="st1" cx="80.21" cy="88.84" rx="2.47" ry="2.69"/>
		<circle id="Ellipse_12" class="st1" cx="151.45" cy="136.74" r="1.88"/>
		<ellipse id="Ellipse_13" class="st1" cx="106.12" cy="138.53" rx="3.41" ry="3.4"/>
		<circle id="Ellipse_14" class="st1" cx="97.75" cy="121.2" r="1.88"/>
		<circle id="Ellipse_15" class="st1" cx="25.22" cy="112.25" r="1.88"/>
		<ellipse id="Ellipse_16" class="st1" cx="109.42" cy="83.18" rx="2.47" ry="2.69"/>
		<ellipse id="Ellipse_17" class="st1" cx="135.32" cy="91.66" rx="2.47" ry="2.69"/>
		<circle id="Ellipse_18" class="st1" cx="129.78" cy="123.09" r="1.88"/>
		<circle id="Ellipse_19" class="st1" cx="65.25" cy="111.31" r="1.88"/>
		<ellipse id="Ellipse_20" class="st1" cx="45.6" cy="109.8" rx="2.7" ry="2.72"/>
		<ellipse id="Ellipse_21" class="st1" cx="75.03" cy="134.05" rx="2.47" ry="2.69"/>
		<ellipse id="Ellipse_22" class="st1" cx="41.12" cy="131.23" rx="2.47" ry="2.69"/>
		<path id="Path_570" class="st0" d="M42.53,29.12c0.15-1.09,0.62-2.11,1.36-2.92c0.36-0.44,0.76-0.84,1.21-1.19
			c0.19-0.14,0.39-0.27,0.6-0.38c0.03-0.01,0.32-0.14,0.23-0.1c-0.01,0.01,0.32-0.1,0.42-0.13c2.4-0.57,4.9-0.5,7.26,0.2L53,23.83
			c-0.31,2.6-1.14,5.11-2.44,7.37c-0.62,1.07-1.39,2.04-2.3,2.88c-0.82,0.74-1.78,1.3-2.82,1.65c-0.51,0.16-1.34,0.6-1.16,1.27
			c0.17,0.64,1.14,0.67,1.64,0.52c6-1.85,9.17-8.07,9.91-13.94c0.03-0.37-0.23-0.7-0.59-0.78c-3.18-0.95-6.56-0.98-9.75-0.09
			c-1.52,0.51-2.86,1.44-3.88,2.68c-1.03,1.1-1.7,2.48-1.92,3.97C39.58,30.74,42.43,30.3,42.53,29.12"/>
	</g>
</g>
</svg>
