<?xml version="1.0" encoding="utf-8"?>
<!-- Generator: Adobe Illustrator 26.0.3, SVG Export Plug-In . SVG Version: 6.00 Build 0)  -->
<svg version="1.1" id="Layer_1" xmlns="http://www.w3.org/2000/svg" xmlns:xlink="http://www.w3.org/1999/xlink" x="0px" y="0px"
	 viewBox="0 0 29.24 29.24" style="enable-background:new 0 0 29.24 29.24;" xml:space="preserve">
<style type="text/css">
	.st0{fill:#FFFFFF;}
</style>
<path class="st0" d="M29.24,7.65C29.24,3.44,25.8,0,21.59,0H7.65C3.44,0,0,3.44,0,7.65v13.94c0,4.21,3.44,7.65,7.65,7.65l13.94,0
	c4.21,0,7.65-3.44,7.65-7.65L29.24,7.65z M22.2,12.94L22.2,12.94c-0.15,0.01-0.3,0.02-0.45,0.02c-1.65,0-3.19-0.83-4.09-2.21v7.52
	c0,3.07-2.49,5.56-5.56,5.56c-3.07,0-5.56-2.49-5.56-5.56c0-3.07,2.49-5.56,5.56-5.56c0.12,0,0.23,0.01,0.34,0.02v2.74
	c-0.11-0.01-0.23-0.03-0.34-0.03c-1.57,0-2.84,1.27-2.84,2.84s1.27,2.84,2.84,2.84c1.57,0,2.95-1.24,2.95-2.8l0.03-12.78h2.62
	c0.25,2.35,2.14,4.19,4.5,4.36V12.94z"/>
</svg>
